%TF.GenerationSoftware,KiCad,Pcbnew,7.0.1*%
%TF.CreationDate,2023-03-12T20:23:32+01:00*%
%TF.ProjectId,grapto-v3w-left,67726170-746f-42d7-9633-772d6c656674,v1.0.0*%
%TF.SameCoordinates,Original*%
%TF.FileFunction,Paste,Bot*%
%TF.FilePolarity,Positive*%
%FSLAX46Y46*%
G04 Gerber Fmt 4.6, Leading zero omitted, Abs format (unit mm)*
G04 Created by KiCad (PCBNEW 7.0.1) date 2023-03-12 20:23:32*
%MOMM*%
%LPD*%
G01*
G04 APERTURE LIST*
G04 Aperture macros list*
%AMRoundRect*
0 Rectangle with rounded corners*
0 $1 Rounding radius*
0 $2 $3 $4 $5 $6 $7 $8 $9 X,Y pos of 4 corners*
0 Add a 4 corners polygon primitive as box body*
4,1,4,$2,$3,$4,$5,$6,$7,$8,$9,$2,$3,0*
0 Add four circle primitives for the rounded corners*
1,1,$1+$1,$2,$3*
1,1,$1+$1,$4,$5*
1,1,$1+$1,$6,$7*
1,1,$1+$1,$8,$9*
0 Add four rect primitives between the rounded corners*
20,1,$1+$1,$2,$3,$4,$5,0*
20,1,$1+$1,$4,$5,$6,$7,0*
20,1,$1+$1,$6,$7,$8,$9,0*
20,1,$1+$1,$8,$9,$2,$3,0*%
%AMRotRect*
0 Rectangle, with rotation*
0 The origin of the aperture is its center*
0 $1 length*
0 $2 width*
0 $3 Rotation angle, in degrees counterclockwise*
0 Add horizontal line*
21,1,$1,$2,0,0,$3*%
G04 Aperture macros list end*
%ADD10RoundRect,0.160000X0.160000X0.160000X-0.160000X0.160000X-0.160000X-0.160000X0.160000X-0.160000X0*%
%ADD11RoundRect,0.062500X0.375000X0.062500X-0.375000X0.062500X-0.375000X-0.062500X0.375000X-0.062500X0*%
%ADD12RoundRect,0.062500X0.062500X0.375000X-0.062500X0.375000X-0.062500X-0.375000X0.062500X-0.375000X0*%
%ADD13RoundRect,0.150000X0.512500X0.150000X-0.512500X0.150000X-0.512500X-0.150000X0.512500X-0.150000X0*%
%ADD14RoundRect,0.062500X-0.062500X0.337500X-0.062500X-0.337500X0.062500X-0.337500X0.062500X0.337500X0*%
%ADD15RoundRect,0.250000X0.250000X-0.750000X0.250000X0.750000X-0.250000X0.750000X-0.250000X-0.750000X0*%
%ADD16RoundRect,0.250000X-0.750000X-0.250000X0.750000X-0.250000X0.750000X0.250000X-0.750000X0.250000X0*%
%ADD17RoundRect,0.250000X-0.250000X0.750000X-0.250000X-0.750000X0.250000X-0.750000X0.250000X0.750000X0*%
%ADD18RotRect,1.400000X0.800000X293.800000*%
%ADD19RotRect,0.800000X2.000000X293.800000*%
%ADD20RoundRect,0.237500X0.250000X0.237500X-0.250000X0.237500X-0.250000X-0.237500X0.250000X-0.237500X0*%
%ADD21RoundRect,0.237500X-0.237500X0.250000X-0.237500X-0.250000X0.237500X-0.250000X0.237500X0.250000X0*%
%ADD22RoundRect,0.237500X-0.250000X-0.237500X0.250000X-0.237500X0.250000X0.237500X-0.250000X0.237500X0*%
%ADD23RoundRect,0.237500X0.237500X-0.250000X0.237500X0.250000X-0.237500X0.250000X-0.237500X-0.250000X0*%
%ADD24R,2.500000X1.900000*%
%ADD25R,0.600000X1.240000*%
%ADD26R,0.300000X1.240000*%
%ADD27RoundRect,0.250000X-0.250000X-1.500000X0.250000X-1.500000X0.250000X1.500000X-0.250000X1.500000X0*%
%ADD28RoundRect,0.250001X-0.499999X-1.449999X0.499999X-1.449999X0.499999X1.449999X-0.499999X1.449999X0*%
%ADD29RoundRect,0.237500X-0.237500X0.287500X-0.237500X-0.287500X0.237500X-0.287500X0.237500X0.287500X0*%
%ADD30RoundRect,0.237500X0.237500X-0.287500X0.237500X0.287500X-0.237500X0.287500X-0.237500X-0.287500X0*%
%ADD31R,0.700000X0.700000*%
%ADD32RoundRect,0.237500X-0.287500X-0.237500X0.287500X-0.237500X0.287500X0.237500X-0.287500X0.237500X0*%
%ADD33RoundRect,0.237500X0.300000X0.237500X-0.300000X0.237500X-0.300000X-0.237500X0.300000X-0.237500X0*%
%ADD34RoundRect,0.237500X0.287500X0.237500X-0.287500X0.237500X-0.287500X-0.237500X0.287500X-0.237500X0*%
%ADD35RoundRect,0.237500X0.237500X-0.300000X0.237500X0.300000X-0.237500X0.300000X-0.237500X-0.300000X0*%
%ADD36R,2.600000X2.600000*%
%ADD37RotRect,2.600000X2.600000X348.500000*%
%ADD38RotRect,2.600000X2.600000X327.780000*%
%ADD39RotRect,2.600000X2.600000X307.060000*%
%ADD40R,0.900000X1.200000*%
%ADD41RotRect,0.900000X1.200000X348.500000*%
%ADD42RotRect,0.900000X1.200000X327.780000*%
%ADD43RotRect,0.900000X1.200000X307.060000*%
G04 APERTURE END LIST*
D10*
%TO.C,U4*%
X340862500Y-119950000D03*
X341662500Y-119950000D03*
X341662500Y-120750000D03*
X340862500Y-120750000D03*
D11*
X342700000Y-119600000D03*
X342700000Y-120100000D03*
X342700000Y-120600000D03*
X342700000Y-121100000D03*
D12*
X342012500Y-121787500D03*
X341512500Y-121787500D03*
X341012500Y-121787500D03*
X340512500Y-121787500D03*
D11*
X339825000Y-121100000D03*
X339825000Y-120600000D03*
X339825000Y-120100000D03*
X339825000Y-119600000D03*
D12*
X340512500Y-118912500D03*
X341012500Y-118912500D03*
X341512500Y-118912500D03*
X342012500Y-118912500D03*
%TD*%
D13*
%TO.C,U3*%
X328337500Y-103200000D03*
X328337500Y-104150000D03*
X328337500Y-105100000D03*
X326062500Y-105100000D03*
X326062500Y-104150000D03*
X326062500Y-103200000D03*
%TD*%
D14*
%TO.C,U2*%
X352515000Y-146185000D03*
X353015000Y-146185000D03*
X353515000Y-146185000D03*
X354015000Y-146185000D03*
X354015000Y-147635000D03*
X353515000Y-147635000D03*
X353015000Y-147635000D03*
X352515000Y-147635000D03*
%TD*%
D15*
%TO.C,U1*%
X361820000Y-183970000D03*
X360420000Y-183970000D03*
X359020000Y-183970000D03*
X357620000Y-183970000D03*
X356220000Y-183970000D03*
X354820000Y-183970000D03*
X353420000Y-183970000D03*
X352020000Y-183970000D03*
X350620000Y-183970000D03*
X349220000Y-183970000D03*
X347820000Y-183970000D03*
X346420000Y-183970000D03*
D16*
X344220000Y-180920000D03*
X344220000Y-179520000D03*
X344220000Y-178120000D03*
X344220000Y-176720000D03*
X344220000Y-175320000D03*
X344220000Y-173920000D03*
X344220000Y-172520000D03*
X344220000Y-171120000D03*
X344220000Y-169720000D03*
X344220000Y-168320000D03*
X344220000Y-166920000D03*
D17*
X346420000Y-163870000D03*
X347820000Y-163870000D03*
X349220000Y-163870000D03*
X350620000Y-163870000D03*
X352020000Y-163870000D03*
X353420000Y-163870000D03*
X354820000Y-163870000D03*
X356220000Y-163870000D03*
X357620000Y-163870000D03*
X359020000Y-163870000D03*
X360420000Y-163870000D03*
X361820000Y-163870000D03*
%TD*%
D18*
%TO.C,SW31*%
X347859272Y-119084368D03*
X346935452Y-111513327D03*
X349881333Y-118192533D03*
X344913391Y-112405163D03*
D19*
X344517647Y-114109829D03*
X345728283Y-116854708D03*
X346333601Y-118227147D03*
%TD*%
D20*
%TO.C,R30*%
X358672500Y-146800000D03*
X356847500Y-146800000D03*
%TD*%
D21*
%TO.C,R25*%
X353910000Y-158257500D03*
X353910000Y-160082500D03*
%TD*%
%TO.C,R24*%
X351130000Y-158277500D03*
X351130000Y-160102500D03*
%TD*%
%TO.C,R23*%
X323400000Y-98337500D03*
X323400000Y-100162500D03*
%TD*%
%TO.C,R20*%
X325860000Y-98327500D03*
X325860000Y-100152500D03*
%TD*%
D22*
%TO.C,R19*%
X356857500Y-141700000D03*
X358682500Y-141700000D03*
%TD*%
D23*
%TO.C,R14*%
X354260000Y-131312500D03*
X354260000Y-129487500D03*
%TD*%
D21*
%TO.C,R13*%
X334930000Y-102787500D03*
X334930000Y-104612500D03*
%TD*%
D22*
%TO.C,R9*%
X352387500Y-139600000D03*
X354212500Y-139600000D03*
%TD*%
D23*
%TO.C,R8*%
X350300000Y-122812500D03*
X350300000Y-120987500D03*
%TD*%
%TO.C,R7*%
X337600000Y-118012500D03*
X337600000Y-116187500D03*
%TD*%
D20*
%TO.C,R5*%
X354200000Y-141730000D03*
X352375000Y-141730000D03*
%TD*%
D22*
%TO.C,R4*%
X348312500Y-122300000D03*
X346487500Y-122300000D03*
%TD*%
D21*
%TO.C,R2*%
X358170000Y-156737500D03*
X358170000Y-158562500D03*
%TD*%
D20*
%TO.C,R1*%
X343975000Y-139000000D03*
X345800000Y-139000000D03*
%TD*%
D24*
%TO.C,L2*%
X351900000Y-151380000D03*
X356000000Y-151380000D03*
%TD*%
D25*
%TO.C,J6*%
X329290000Y-100320000D03*
X330090000Y-100320000D03*
D26*
X331240000Y-100320000D03*
X332240000Y-100320000D03*
X332740000Y-100320000D03*
X333740000Y-100320000D03*
D25*
X334890000Y-100320000D03*
X335690000Y-100320000D03*
X335690000Y-100320000D03*
X334890000Y-100320000D03*
D26*
X334240000Y-100320000D03*
X333240000Y-100320000D03*
X331740000Y-100320000D03*
X330740000Y-100320000D03*
D25*
X330090000Y-100320000D03*
X329290000Y-100320000D03*
%TD*%
D27*
%TO.C,J1*%
X347770000Y-135760000D03*
X349770000Y-135760000D03*
D28*
X352120000Y-130010000D03*
X345420000Y-130010000D03*
%TD*%
D29*
%TO.C,F4*%
X337380000Y-104515000D03*
X337380000Y-102765000D03*
%TD*%
D30*
%TO.C,F3*%
X354290000Y-134095000D03*
X354290000Y-135845000D03*
%TD*%
D31*
%TO.C,D32*%
X348950000Y-159060000D03*
X346050000Y-159060000D03*
X346050000Y-160010000D03*
X348950000Y-160010000D03*
%TD*%
%TO.C,D31*%
X348950000Y-150045000D03*
X346050000Y-150045000D03*
X346050000Y-150995000D03*
X348950000Y-150995000D03*
%TD*%
%TO.C,D30*%
X348960000Y-141045000D03*
X346060000Y-141045000D03*
X346060000Y-141995000D03*
X348960000Y-141995000D03*
%TD*%
D32*
%TO.C,C17*%
X358205000Y-152870000D03*
X359955000Y-152870000D03*
%TD*%
D29*
%TO.C,C16*%
X350380000Y-145855000D03*
X350380000Y-147605000D03*
%TD*%
%TO.C,C10*%
X351600000Y-124825000D03*
X351600000Y-126575000D03*
%TD*%
%TO.C,C7*%
X340770000Y-166820000D03*
X340770000Y-168570000D03*
%TD*%
D32*
%TO.C,C6*%
X348060000Y-186880000D03*
X349810000Y-186880000D03*
%TD*%
D33*
%TO.C,C5*%
X358662500Y-144200000D03*
X356937500Y-144200000D03*
%TD*%
D30*
%TO.C,C4*%
X344410000Y-161995000D03*
X344410000Y-160245000D03*
%TD*%
D32*
%TO.C,C3*%
X359495000Y-161090000D03*
X357745000Y-161090000D03*
%TD*%
D34*
%TO.C,C2*%
X354180000Y-144010000D03*
X352430000Y-144010000D03*
%TD*%
D35*
%TO.C,C1*%
X341200000Y-116200000D03*
X341200000Y-114475000D03*
%TD*%
D36*
%TO.C,S1*%
X236725000Y-174050000D03*
X248275000Y-176250000D03*
%TD*%
%TO.C,S2*%
X236725000Y-156550000D03*
X248275000Y-158750000D03*
%TD*%
%TO.C,S3*%
X236725000Y-139050000D03*
X248275000Y-141250000D03*
%TD*%
%TO.C,S4*%
X255225000Y-174050000D03*
X266775000Y-176250000D03*
%TD*%
%TO.C,S5*%
X255225000Y-156550000D03*
X266775000Y-158750000D03*
%TD*%
%TO.C,S6*%
X255225000Y-139050000D03*
X266775000Y-141250000D03*
%TD*%
%TO.C,S7*%
X255225000Y-121550000D03*
X266775000Y-123750000D03*
%TD*%
%TO.C,S8*%
X273725000Y-174050000D03*
X285275000Y-176250000D03*
%TD*%
%TO.C,S9*%
X273725000Y-156550000D03*
X285275000Y-158750000D03*
%TD*%
%TO.C,S10*%
X273725000Y-139050000D03*
X285275000Y-141250000D03*
%TD*%
%TO.C,S11*%
X273725000Y-121550000D03*
X285275000Y-123750000D03*
%TD*%
%TO.C,S12*%
X273725000Y-104050000D03*
X285275000Y-106250000D03*
%TD*%
%TO.C,S13*%
X292225000Y-169050000D03*
X303775000Y-171250000D03*
%TD*%
%TO.C,S14*%
X292225000Y-151550000D03*
X303775000Y-153750000D03*
%TD*%
%TO.C,S15*%
X292225000Y-134050000D03*
X303775000Y-136250000D03*
%TD*%
%TO.C,S16*%
X292225000Y-116550000D03*
X303775000Y-118750000D03*
%TD*%
%TO.C,S17*%
X292225000Y-99050000D03*
X303775000Y-101250000D03*
%TD*%
%TO.C,S18*%
X310725000Y-174050000D03*
X322275000Y-176250000D03*
%TD*%
%TO.C,S19*%
X310725000Y-156550000D03*
X322275000Y-158750000D03*
%TD*%
%TO.C,S20*%
X310725000Y-139050000D03*
X322275000Y-141250000D03*
%TD*%
%TO.C,S21*%
X310725000Y-121550000D03*
X322275000Y-123750000D03*
%TD*%
%TO.C,S22*%
X310725000Y-104050000D03*
X322275000Y-106250000D03*
%TD*%
%TO.C,S23*%
X329225000Y-160550000D03*
X340775000Y-162750000D03*
%TD*%
%TO.C,S24*%
X329225000Y-143050000D03*
X340775000Y-145250000D03*
%TD*%
%TO.C,S25*%
X329225000Y-125550000D03*
X340775000Y-127750000D03*
%TD*%
%TO.C,S26*%
X329225000Y-108050000D03*
X340775000Y-110250000D03*
%TD*%
D37*
%TO.C,S27*%
X331547924Y-180737171D03*
X342427445Y-185195705D03*
%TD*%
D38*
%TO.C,S28*%
X354601704Y-188716882D03*
X363200108Y-196736230D03*
%TD*%
D39*
%TO.C,S29*%
X373341147Y-204336928D03*
X378546155Y-214879716D03*
%TD*%
D36*
%TO.C,S88*%
X236725000Y-174050000D03*
X248275000Y-176250000D03*
%TD*%
%TO.C,S89*%
X236725000Y-156550000D03*
X248275000Y-158750000D03*
%TD*%
%TO.C,S90*%
X236725000Y-139050000D03*
X248275000Y-141250000D03*
%TD*%
%TO.C,S91*%
X255225000Y-174050000D03*
X266775000Y-176250000D03*
%TD*%
%TO.C,S92*%
X255225000Y-156550000D03*
X266775000Y-158750000D03*
%TD*%
%TO.C,S93*%
X255225000Y-139050000D03*
X266775000Y-141250000D03*
%TD*%
%TO.C,S94*%
X255225000Y-121550000D03*
X266775000Y-123750000D03*
%TD*%
%TO.C,S95*%
X273725000Y-174050000D03*
X285275000Y-176250000D03*
%TD*%
%TO.C,S96*%
X273725000Y-156550000D03*
X285275000Y-158750000D03*
%TD*%
%TO.C,S97*%
X273725000Y-139050000D03*
X285275000Y-141250000D03*
%TD*%
%TO.C,S98*%
X273725000Y-121550000D03*
X285275000Y-123750000D03*
%TD*%
%TO.C,S99*%
X273725000Y-104050000D03*
X285275000Y-106250000D03*
%TD*%
%TO.C,S100*%
X292225000Y-169050000D03*
X303775000Y-171250000D03*
%TD*%
%TO.C,S101*%
X292225000Y-151550000D03*
X303775000Y-153750000D03*
%TD*%
%TO.C,S102*%
X292225000Y-134050000D03*
X303775000Y-136250000D03*
%TD*%
%TO.C,S103*%
X292225000Y-116550000D03*
X303775000Y-118750000D03*
%TD*%
%TO.C,S104*%
X292225000Y-99050000D03*
X303775000Y-101250000D03*
%TD*%
%TO.C,S105*%
X310725000Y-174050000D03*
X322275000Y-176250000D03*
%TD*%
%TO.C,S106*%
X310725000Y-156550000D03*
X322275000Y-158750000D03*
%TD*%
%TO.C,S107*%
X310725000Y-139050000D03*
X322275000Y-141250000D03*
%TD*%
%TO.C,S108*%
X310725000Y-121550000D03*
X322275000Y-123750000D03*
%TD*%
%TO.C,S109*%
X310725000Y-104050000D03*
X322275000Y-106250000D03*
%TD*%
%TO.C,S110*%
X329225000Y-160550000D03*
X340775000Y-162750000D03*
%TD*%
%TO.C,S111*%
X329225000Y-143050000D03*
X340775000Y-145250000D03*
%TD*%
%TO.C,S112*%
X329225000Y-125550000D03*
X340775000Y-127750000D03*
%TD*%
%TO.C,S113*%
X329225000Y-108050000D03*
X340775000Y-110250000D03*
%TD*%
D37*
%TO.C,S114*%
X331547924Y-180737171D03*
X342427445Y-185195705D03*
%TD*%
D38*
%TO.C,S115*%
X354601704Y-188716882D03*
X363200108Y-196736230D03*
%TD*%
D39*
%TO.C,S116*%
X373341147Y-204336928D03*
X378546155Y-214879716D03*
%TD*%
D40*
%TO.C,D88*%
X241650000Y-184500000D03*
X238350000Y-184500000D03*
%TD*%
%TO.C,D89*%
X241650000Y-167000000D03*
X238350000Y-167000000D03*
%TD*%
%TO.C,D90*%
X241650000Y-149500000D03*
X238350000Y-149500000D03*
%TD*%
%TO.C,D91*%
X260150000Y-184500000D03*
X256850000Y-184500000D03*
%TD*%
%TO.C,D92*%
X260150000Y-167000000D03*
X256850000Y-167000000D03*
%TD*%
%TO.C,D93*%
X260150000Y-149500000D03*
X256850000Y-149500000D03*
%TD*%
%TO.C,D94*%
X260150000Y-132000000D03*
X256850000Y-132000000D03*
%TD*%
%TO.C,D95*%
X278650000Y-184500000D03*
X275350000Y-184500000D03*
%TD*%
%TO.C,D96*%
X278650000Y-167000000D03*
X275350000Y-167000000D03*
%TD*%
%TO.C,D97*%
X278650000Y-149500000D03*
X275350000Y-149500000D03*
%TD*%
%TO.C,D98*%
X278650000Y-132000000D03*
X275350000Y-132000000D03*
%TD*%
%TO.C,D99*%
X278650000Y-114500000D03*
X275350000Y-114500000D03*
%TD*%
%TO.C,D100*%
X297150000Y-179500000D03*
X293850000Y-179500000D03*
%TD*%
%TO.C,D101*%
X297150000Y-162000000D03*
X293850000Y-162000000D03*
%TD*%
%TO.C,D102*%
X297150000Y-144500000D03*
X293850000Y-144500000D03*
%TD*%
%TO.C,D103*%
X297150000Y-127000000D03*
X293850000Y-127000000D03*
%TD*%
%TO.C,D104*%
X297150000Y-109500000D03*
X293850000Y-109500000D03*
%TD*%
%TO.C,D105*%
X315650000Y-184500000D03*
X312350000Y-184500000D03*
%TD*%
%TO.C,D106*%
X315650000Y-167000000D03*
X312350000Y-167000000D03*
%TD*%
%TO.C,D107*%
X315650000Y-149500000D03*
X312350000Y-149500000D03*
%TD*%
%TO.C,D108*%
X315650000Y-132000000D03*
X312350000Y-132000000D03*
%TD*%
%TO.C,D109*%
X315650000Y-114500000D03*
X312350000Y-114500000D03*
%TD*%
%TO.C,D110*%
X334150000Y-171000000D03*
X330850000Y-171000000D03*
%TD*%
%TO.C,D111*%
X334150000Y-153500000D03*
X330850000Y-153500000D03*
%TD*%
%TO.C,D112*%
X334150000Y-136000000D03*
X330850000Y-136000000D03*
%TD*%
%TO.C,D113*%
X334150000Y-118500000D03*
X330850000Y-118500000D03*
%TD*%
D41*
%TO.C,D114*%
X334290659Y-191959272D03*
X331056907Y-191301358D03*
%TD*%
D42*
%TO.C,D115*%
X353196646Y-200183526D03*
X350404822Y-198424060D03*
%TD*%
D43*
%TO.C,D116*%
X367970052Y-214564804D03*
X365981304Y-211931388D03*
%TD*%
M02*
