%TF.GenerationSoftware,KiCad,Pcbnew,7.0.1*%
%TF.CreationDate,2023-03-19T14:30:15+01:00*%
%TF.ProjectId,grapto-v3w-left,67726170-746f-42d7-9633-772d6c656674,v1.0.0*%
%TF.SameCoordinates,Original*%
%TF.FileFunction,Paste,Top*%
%TF.FilePolarity,Positive*%
%FSLAX46Y46*%
G04 Gerber Fmt 4.6, Leading zero omitted, Abs format (unit mm)*
G04 Created by KiCad (PCBNEW 7.0.1) date 2023-03-19 14:30:15*
%MOMM*%
%LPD*%
G01*
G04 APERTURE LIST*
G04 Aperture macros list*
%AMRotRect*
0 Rectangle, with rotation*
0 The origin of the aperture is its center*
0 $1 length*
0 $2 width*
0 $3 Rotation angle, in degrees counterclockwise*
0 Add horizontal line*
21,1,$1,$2,0,0,$3*%
G04 Aperture macros list end*
%ADD10R,0.900000X1.200000*%
%ADD11RotRect,0.900000X1.200000X307.060000*%
%ADD12RotRect,0.900000X1.200000X348.500000*%
%ADD13RotRect,0.900000X1.200000X327.780000*%
G04 APERTURE END LIST*
D10*
%TO.C,D105*%
X312350000Y-184500000D03*
X315650000Y-184500000D03*
%TD*%
%TO.C,D99*%
X275350000Y-114500000D03*
X278650000Y-114500000D03*
%TD*%
%TO.C,D112*%
X330850000Y-136000000D03*
X334150000Y-136000000D03*
%TD*%
%TO.C,D108*%
X312350000Y-132000000D03*
X315650000Y-132000000D03*
%TD*%
%TO.C,D92*%
X256850000Y-167000000D03*
X260150000Y-167000000D03*
%TD*%
%TO.C,D96*%
X275350000Y-167000000D03*
X278650000Y-167000000D03*
%TD*%
%TO.C,D94*%
X256850000Y-132000000D03*
X260150000Y-132000000D03*
%TD*%
%TO.C,D106*%
X312350000Y-167000000D03*
X315650000Y-167000000D03*
%TD*%
%TO.C,D111*%
X330850000Y-153500000D03*
X334150000Y-153500000D03*
%TD*%
D11*
%TO.C,D116*%
X365981304Y-211931388D03*
X367970052Y-214564804D03*
%TD*%
D10*
%TO.C,D98*%
X275350000Y-132000000D03*
X278650000Y-132000000D03*
%TD*%
%TO.C,D110*%
X330850000Y-171000000D03*
X334150000Y-171000000D03*
%TD*%
%TO.C,D95*%
X275350000Y-184500000D03*
X278650000Y-184500000D03*
%TD*%
%TO.C,D93*%
X256850000Y-149500000D03*
X260150000Y-149500000D03*
%TD*%
%TO.C,D113*%
X330850000Y-118500000D03*
X334150000Y-118500000D03*
%TD*%
%TO.C,D102*%
X293850000Y-144500000D03*
X297150000Y-144500000D03*
%TD*%
%TO.C,D100*%
X293850000Y-179500000D03*
X297150000Y-179500000D03*
%TD*%
%TO.C,D89*%
X238350000Y-167000000D03*
X241650000Y-167000000D03*
%TD*%
%TO.C,D104*%
X293850000Y-109500000D03*
X297150000Y-109500000D03*
%TD*%
%TO.C,D97*%
X275350000Y-149500000D03*
X278650000Y-149500000D03*
%TD*%
%TO.C,D91*%
X256850000Y-184500000D03*
X260150000Y-184500000D03*
%TD*%
%TO.C,D103*%
X293850000Y-127000000D03*
X297150000Y-127000000D03*
%TD*%
%TO.C,D109*%
X312350000Y-114500000D03*
X315650000Y-114500000D03*
%TD*%
%TO.C,D101*%
X293850000Y-162000000D03*
X297150000Y-162000000D03*
%TD*%
%TO.C,D90*%
X238350000Y-149500000D03*
X241650000Y-149500000D03*
%TD*%
D12*
%TO.C,D114*%
X331056907Y-191301358D03*
X334290659Y-191959272D03*
%TD*%
D13*
%TO.C,D115*%
X350404822Y-198424060D03*
X353196646Y-200183526D03*
%TD*%
D10*
%TO.C,D88*%
X238350000Y-184500000D03*
X241650000Y-184500000D03*
%TD*%
%TO.C,D107*%
X312350000Y-149500000D03*
X315650000Y-149500000D03*
%TD*%
M02*
