%TF.GenerationSoftware,KiCad,Pcbnew,7.0.1*%
%TF.CreationDate,2023-03-19T14:30:15+01:00*%
%TF.ProjectId,grapto-v3w-left,67726170-746f-42d7-9633-772d6c656674,v1.0.0*%
%TF.SameCoordinates,Original*%
%TF.FileFunction,Paste,Bot*%
%TF.FilePolarity,Positive*%
%FSLAX46Y46*%
G04 Gerber Fmt 4.6, Leading zero omitted, Abs format (unit mm)*
G04 Created by KiCad (PCBNEW 7.0.1) date 2023-03-19 14:30:15*
%MOMM*%
%LPD*%
G01*
G04 APERTURE LIST*
G04 Aperture macros list*
%AMRoundRect*
0 Rectangle with rounded corners*
0 $1 Rounding radius*
0 $2 $3 $4 $5 $6 $7 $8 $9 X,Y pos of 4 corners*
0 Add a 4 corners polygon primitive as box body*
4,1,4,$2,$3,$4,$5,$6,$7,$8,$9,$2,$3,0*
0 Add four circle primitives for the rounded corners*
1,1,$1+$1,$2,$3*
1,1,$1+$1,$4,$5*
1,1,$1+$1,$6,$7*
1,1,$1+$1,$8,$9*
0 Add four rect primitives between the rounded corners*
20,1,$1+$1,$2,$3,$4,$5,0*
20,1,$1+$1,$4,$5,$6,$7,0*
20,1,$1+$1,$6,$7,$8,$9,0*
20,1,$1+$1,$8,$9,$2,$3,0*%
%AMRotRect*
0 Rectangle, with rotation*
0 The origin of the aperture is its center*
0 $1 length*
0 $2 width*
0 $3 Rotation angle, in degrees counterclockwise*
0 Add horizontal line*
21,1,$1,$2,0,0,$3*%
G04 Aperture macros list end*
%ADD10R,0.900000X1.200000*%
%ADD11R,2.600000X2.600000*%
%ADD12RotRect,2.600000X2.600000X327.780000*%
%ADD13RotRect,2.600000X2.600000X307.060000*%
%ADD14RotRect,0.900000X1.200000X307.060000*%
%ADD15RotRect,2.600000X2.600000X348.500000*%
%ADD16RotRect,0.900000X1.200000X348.500000*%
%ADD17RotRect,0.900000X1.200000X327.780000*%
%ADD18RoundRect,0.237500X0.237500X-0.300000X0.237500X0.300000X-0.237500X0.300000X-0.237500X-0.300000X0*%
%ADD19R,0.700000X0.700000*%
%ADD20RoundRect,0.237500X0.250000X0.237500X-0.250000X0.237500X-0.250000X-0.237500X0.250000X-0.237500X0*%
%ADD21RoundRect,0.237500X-0.300000X-0.237500X0.300000X-0.237500X0.300000X0.237500X-0.300000X0.237500X0*%
%ADD22RoundRect,0.237500X-0.237500X0.250000X-0.237500X-0.250000X0.237500X-0.250000X0.237500X0.250000X0*%
%ADD23RotRect,1.400000X0.800000X293.800000*%
%ADD24RotRect,0.800000X2.000000X293.800000*%
%ADD25RoundRect,0.160000X0.160000X0.160000X-0.160000X0.160000X-0.160000X-0.160000X0.160000X-0.160000X0*%
%ADD26RoundRect,0.062500X0.375000X0.062500X-0.375000X0.062500X-0.375000X-0.062500X0.375000X-0.062500X0*%
%ADD27RoundRect,0.062500X0.062500X0.375000X-0.062500X0.375000X-0.062500X-0.375000X0.062500X-0.375000X0*%
%ADD28RoundRect,0.237500X0.237500X-0.287500X0.237500X0.287500X-0.237500X0.287500X-0.237500X-0.287500X0*%
%ADD29R,2.500000X1.900000*%
%ADD30RoundRect,0.237500X0.300000X0.237500X-0.300000X0.237500X-0.300000X-0.237500X0.300000X-0.237500X0*%
%ADD31RoundRect,0.237500X-0.237500X0.300000X-0.237500X-0.300000X0.237500X-0.300000X0.237500X0.300000X0*%
%ADD32R,0.600000X1.150000*%
%ADD33R,0.300000X1.150000*%
%ADD34RoundRect,0.237500X0.237500X-0.250000X0.237500X0.250000X-0.237500X0.250000X-0.237500X-0.250000X0*%
%ADD35RoundRect,0.250000X0.250000X-0.750000X0.250000X0.750000X-0.250000X0.750000X-0.250000X-0.750000X0*%
%ADD36RoundRect,0.250000X-0.750000X-0.250000X0.750000X-0.250000X0.750000X0.250000X-0.750000X0.250000X0*%
%ADD37RoundRect,0.250000X-0.250000X0.750000X-0.250000X-0.750000X0.250000X-0.750000X0.250000X0.750000X0*%
%ADD38RoundRect,0.062500X-0.062500X0.337500X-0.062500X-0.337500X0.062500X-0.337500X0.062500X0.337500X0*%
%ADD39RoundRect,0.237500X-0.250000X-0.237500X0.250000X-0.237500X0.250000X0.237500X-0.250000X0.237500X0*%
%ADD40RoundRect,0.150000X0.512500X0.150000X-0.512500X0.150000X-0.512500X-0.150000X0.512500X-0.150000X0*%
%ADD41RoundRect,0.237500X-0.237500X0.287500X-0.237500X-0.287500X0.237500X-0.287500X0.237500X0.287500X0*%
%ADD42RoundRect,0.250000X-0.250000X-1.500000X0.250000X-1.500000X0.250000X1.500000X-0.250000X1.500000X0*%
%ADD43RoundRect,0.250001X-0.499999X-1.449999X0.499999X-1.449999X0.499999X1.449999X-0.499999X1.449999X0*%
G04 APERTURE END LIST*
D10*
%TO.C,D105*%
X312350000Y-184500000D03*
X315650000Y-184500000D03*
%TD*%
D11*
%TO.C,S18*%
X310725000Y-174050000D03*
X322275000Y-176250000D03*
%TD*%
%TO.C,S103*%
X292225000Y-116550000D03*
X303775000Y-118750000D03*
%TD*%
%TO.C,S94*%
X255225000Y-121550000D03*
X266775000Y-123750000D03*
%TD*%
D12*
%TO.C,S115*%
X354601704Y-188716882D03*
X363200108Y-196736230D03*
%TD*%
D11*
%TO.C,S98*%
X273725000Y-121550000D03*
X285275000Y-123750000D03*
%TD*%
%TO.C,S111*%
X329225000Y-143050000D03*
X340775000Y-145250000D03*
%TD*%
D12*
%TO.C,S28*%
X354601704Y-188716882D03*
X363200108Y-196736230D03*
%TD*%
D10*
%TO.C,D99*%
X275350000Y-114500000D03*
X278650000Y-114500000D03*
%TD*%
D11*
%TO.C,S13*%
X292225000Y-169050000D03*
X303775000Y-171250000D03*
%TD*%
D10*
%TO.C,D112*%
X330850000Y-136000000D03*
X334150000Y-136000000D03*
%TD*%
%TO.C,D108*%
X312350000Y-132000000D03*
X315650000Y-132000000D03*
%TD*%
D11*
%TO.C,S8*%
X273725000Y-174050000D03*
X285275000Y-176250000D03*
%TD*%
%TO.C,S110*%
X329225000Y-160550000D03*
X340775000Y-162750000D03*
%TD*%
%TO.C,S90*%
X236725000Y-139050000D03*
X248275000Y-141250000D03*
%TD*%
%TO.C,S97*%
X273725000Y-139050000D03*
X285275000Y-141250000D03*
%TD*%
%TO.C,S5*%
X255225000Y-156550000D03*
X266775000Y-158750000D03*
%TD*%
%TO.C,S100*%
X292225000Y-169050000D03*
X303775000Y-171250000D03*
%TD*%
%TO.C,S24*%
X329225000Y-143050000D03*
X340775000Y-145250000D03*
%TD*%
D10*
%TO.C,D92*%
X256850000Y-167000000D03*
X260150000Y-167000000D03*
%TD*%
%TO.C,D96*%
X275350000Y-167000000D03*
X278650000Y-167000000D03*
%TD*%
%TO.C,D94*%
X256850000Y-132000000D03*
X260150000Y-132000000D03*
%TD*%
D11*
%TO.C,S92*%
X255225000Y-156550000D03*
X266775000Y-158750000D03*
%TD*%
%TO.C,S104*%
X292225000Y-99050000D03*
X303775000Y-101250000D03*
%TD*%
%TO.C,S15*%
X292225000Y-134050000D03*
X303775000Y-136250000D03*
%TD*%
D10*
%TO.C,D106*%
X312350000Y-167000000D03*
X315650000Y-167000000D03*
%TD*%
%TO.C,D111*%
X330850000Y-153500000D03*
X334150000Y-153500000D03*
%TD*%
D13*
%TO.C,S116*%
X373341147Y-204336928D03*
X378546155Y-214879716D03*
%TD*%
D14*
%TO.C,D116*%
X365981304Y-211931388D03*
X367970052Y-214564804D03*
%TD*%
D10*
%TO.C,D98*%
X275350000Y-132000000D03*
X278650000Y-132000000D03*
%TD*%
%TO.C,D110*%
X330850000Y-171000000D03*
X334150000Y-171000000D03*
%TD*%
%TO.C,D95*%
X275350000Y-184500000D03*
X278650000Y-184500000D03*
%TD*%
D11*
%TO.C,S23*%
X329225000Y-160550000D03*
X340775000Y-162750000D03*
%TD*%
%TO.C,S6*%
X255225000Y-139050000D03*
X266775000Y-141250000D03*
%TD*%
%TO.C,S26*%
X329225000Y-108050000D03*
X340775000Y-110250000D03*
%TD*%
D10*
%TO.C,D93*%
X256850000Y-149500000D03*
X260150000Y-149500000D03*
%TD*%
D15*
%TO.C,S114*%
X331547924Y-180737171D03*
X342427445Y-185195705D03*
%TD*%
D10*
%TO.C,D113*%
X330850000Y-118500000D03*
X334150000Y-118500000D03*
%TD*%
D11*
%TO.C,S99*%
X273725000Y-104050000D03*
X285275000Y-106250000D03*
%TD*%
%TO.C,S106*%
X310725000Y-156550000D03*
X322275000Y-158750000D03*
%TD*%
D10*
%TO.C,D102*%
X293850000Y-144500000D03*
X297150000Y-144500000D03*
%TD*%
D11*
%TO.C,S89*%
X236725000Y-156550000D03*
X248275000Y-158750000D03*
%TD*%
D10*
%TO.C,D100*%
X293850000Y-179500000D03*
X297150000Y-179500000D03*
%TD*%
D11*
%TO.C,S3*%
X236725000Y-139050000D03*
X248275000Y-141250000D03*
%TD*%
%TO.C,S9*%
X273725000Y-156550000D03*
X285275000Y-158750000D03*
%TD*%
%TO.C,S101*%
X292225000Y-151550000D03*
X303775000Y-153750000D03*
%TD*%
%TO.C,S2*%
X236725000Y-156550000D03*
X248275000Y-158750000D03*
%TD*%
%TO.C,S14*%
X292225000Y-151550000D03*
X303775000Y-153750000D03*
%TD*%
%TO.C,S107*%
X310725000Y-139050000D03*
X322275000Y-141250000D03*
%TD*%
%TO.C,S109*%
X310725000Y-104050000D03*
X322275000Y-106250000D03*
%TD*%
%TO.C,S16*%
X292225000Y-116550000D03*
X303775000Y-118750000D03*
%TD*%
D10*
%TO.C,D89*%
X238350000Y-167000000D03*
X241650000Y-167000000D03*
%TD*%
D11*
%TO.C,S20*%
X310725000Y-139050000D03*
X322275000Y-141250000D03*
%TD*%
%TO.C,S22*%
X310725000Y-104050000D03*
X322275000Y-106250000D03*
%TD*%
%TO.C,S112*%
X329225000Y-125550000D03*
X340775000Y-127750000D03*
%TD*%
D10*
%TO.C,D104*%
X293850000Y-109500000D03*
X297150000Y-109500000D03*
%TD*%
D11*
%TO.C,S25*%
X329225000Y-125550000D03*
X340775000Y-127750000D03*
%TD*%
%TO.C,S10*%
X273725000Y-139050000D03*
X285275000Y-141250000D03*
%TD*%
%TO.C,S96*%
X273725000Y-156550000D03*
X285275000Y-158750000D03*
%TD*%
D10*
%TO.C,D97*%
X275350000Y-149500000D03*
X278650000Y-149500000D03*
%TD*%
D11*
%TO.C,S4*%
X255225000Y-174050000D03*
X266775000Y-176250000D03*
%TD*%
D10*
%TO.C,D91*%
X256850000Y-184500000D03*
X260150000Y-184500000D03*
%TD*%
D11*
%TO.C,S1*%
X236725000Y-174050000D03*
X248275000Y-176250000D03*
%TD*%
%TO.C,S113*%
X329225000Y-108050000D03*
X340775000Y-110250000D03*
%TD*%
D10*
%TO.C,D103*%
X293850000Y-127000000D03*
X297150000Y-127000000D03*
%TD*%
D11*
%TO.C,S21*%
X310725000Y-121550000D03*
X322275000Y-123750000D03*
%TD*%
%TO.C,S95*%
X273725000Y-174050000D03*
X285275000Y-176250000D03*
%TD*%
D10*
%TO.C,D109*%
X312350000Y-114500000D03*
X315650000Y-114500000D03*
%TD*%
D11*
%TO.C,S105*%
X310725000Y-174050000D03*
X322275000Y-176250000D03*
%TD*%
%TO.C,S17*%
X292225000Y-99050000D03*
X303775000Y-101250000D03*
%TD*%
D10*
%TO.C,D101*%
X293850000Y-162000000D03*
X297150000Y-162000000D03*
%TD*%
D11*
%TO.C,S88*%
X236725000Y-174050000D03*
X248275000Y-176250000D03*
%TD*%
D15*
%TO.C,S27*%
X331547924Y-180737171D03*
X342427445Y-185195705D03*
%TD*%
D11*
%TO.C,S12*%
X273725000Y-104050000D03*
X285275000Y-106250000D03*
%TD*%
D10*
%TO.C,D90*%
X238350000Y-149500000D03*
X241650000Y-149500000D03*
%TD*%
D11*
%TO.C,S108*%
X310725000Y-121550000D03*
X322275000Y-123750000D03*
%TD*%
D16*
%TO.C,D114*%
X331056907Y-191301358D03*
X334290659Y-191959272D03*
%TD*%
D11*
%TO.C,S11*%
X273725000Y-121550000D03*
X285275000Y-123750000D03*
%TD*%
%TO.C,S91*%
X255225000Y-174050000D03*
X266775000Y-176250000D03*
%TD*%
%TO.C,S7*%
X255225000Y-121550000D03*
X266775000Y-123750000D03*
%TD*%
%TO.C,S93*%
X255225000Y-139050000D03*
X266775000Y-141250000D03*
%TD*%
%TO.C,S19*%
X310725000Y-156550000D03*
X322275000Y-158750000D03*
%TD*%
D17*
%TO.C,D115*%
X350404822Y-198424060D03*
X353196646Y-200183526D03*
%TD*%
D10*
%TO.C,D88*%
X238350000Y-184500000D03*
X241650000Y-184500000D03*
%TD*%
%TO.C,D107*%
X312350000Y-149500000D03*
X315650000Y-149500000D03*
%TD*%
D13*
%TO.C,S29*%
X373341147Y-204336928D03*
X378546155Y-214879716D03*
%TD*%
D11*
%TO.C,S102*%
X292225000Y-134050000D03*
X303775000Y-136250000D03*
%TD*%
D18*
%TO.C,C4*%
X343750000Y-161412500D03*
X343750000Y-159687500D03*
%TD*%
D19*
%TO.C,D31*%
X348950000Y-150045000D03*
X346050000Y-150045000D03*
X346050000Y-150995000D03*
X348950000Y-150995000D03*
%TD*%
D20*
%TO.C,R30*%
X358722500Y-147410000D03*
X356897500Y-147410000D03*
%TD*%
D21*
%TO.C,C3*%
X357757500Y-161090000D03*
X359482500Y-161090000D03*
%TD*%
D22*
%TO.C,R25*%
X353910000Y-158257500D03*
X353910000Y-160082500D03*
%TD*%
D20*
%TO.C,R14*%
X350932500Y-126700000D03*
X349107500Y-126700000D03*
%TD*%
D23*
%TO.C,SW31*%
X346935452Y-111513327D03*
X344913391Y-112405163D03*
X349881333Y-118192533D03*
X347859272Y-119084368D03*
D24*
X344517647Y-114109829D03*
X345728283Y-116854708D03*
X346333601Y-118227147D03*
%TD*%
D25*
%TO.C,U4*%
X341662500Y-120750000D03*
X341662500Y-119950000D03*
X340862500Y-120750000D03*
X340862500Y-119950000D03*
D26*
X342700000Y-119600000D03*
X342700000Y-120100000D03*
X342700000Y-120600000D03*
X342700000Y-121100000D03*
D27*
X342012500Y-121787500D03*
X341512500Y-121787500D03*
X341012500Y-121787500D03*
X340512500Y-121787500D03*
D26*
X339825000Y-121100000D03*
X339825000Y-120600000D03*
X339825000Y-120100000D03*
X339825000Y-119600000D03*
D27*
X340512500Y-118912500D03*
X341012500Y-118912500D03*
X341512500Y-118912500D03*
X342012500Y-118912500D03*
%TD*%
D28*
%TO.C,F3*%
X354180000Y-136905000D03*
X354180000Y-135155000D03*
%TD*%
D19*
%TO.C,D32*%
X348950000Y-159060000D03*
X346050000Y-159060000D03*
X346050000Y-160010000D03*
X348950000Y-160010000D03*
%TD*%
D22*
%TO.C,R2*%
X358170000Y-156737500D03*
X358170000Y-158562500D03*
%TD*%
D29*
%TO.C,L2*%
X351900000Y-151380000D03*
X356000000Y-151380000D03*
%TD*%
D30*
%TO.C,C5*%
X358652500Y-145050000D03*
X356927500Y-145050000D03*
%TD*%
D31*
%TO.C,C7*%
X341300000Y-166987500D03*
X341300000Y-168712500D03*
%TD*%
%TO.C,C16*%
X350380000Y-145867500D03*
X350380000Y-147592500D03*
%TD*%
D32*
%TO.C,J6*%
X329300000Y-101425000D03*
X330100000Y-101425000D03*
D33*
X331250000Y-101425000D03*
X332250000Y-101425000D03*
X332750000Y-101425000D03*
X333750000Y-101425000D03*
D32*
X334900000Y-101425000D03*
X335700000Y-101425000D03*
X335700000Y-101425000D03*
X334900000Y-101425000D03*
D33*
X334250000Y-101425000D03*
X333250000Y-101425000D03*
X331750000Y-101425000D03*
X330750000Y-101425000D03*
D32*
X330100000Y-101425000D03*
X329300000Y-101425000D03*
%TD*%
D34*
%TO.C,R8*%
X341470000Y-116892500D03*
X341470000Y-115067500D03*
%TD*%
%TO.C,R7*%
X337140000Y-119982500D03*
X337140000Y-118157500D03*
%TD*%
D19*
%TO.C,D30*%
X348960000Y-141045000D03*
X346060000Y-141045000D03*
X346060000Y-141995000D03*
X348960000Y-141995000D03*
%TD*%
D20*
%TO.C,R5*%
X354200000Y-141730000D03*
X352375000Y-141730000D03*
%TD*%
%TO.C,R1*%
X345800000Y-139000000D03*
X343975000Y-139000000D03*
%TD*%
D35*
%TO.C,U1*%
X361820000Y-183970000D03*
X360420000Y-183970000D03*
X359020000Y-183970000D03*
X357620000Y-183970000D03*
X356220000Y-183970000D03*
X354820000Y-183970000D03*
X353420000Y-183970000D03*
X352020000Y-183970000D03*
X350620000Y-183970000D03*
X349220000Y-183970000D03*
X347820000Y-183970000D03*
X346420000Y-183970000D03*
D36*
X344220000Y-180920000D03*
X344220000Y-179520000D03*
X344220000Y-178120000D03*
X344220000Y-176720000D03*
X344220000Y-175320000D03*
X344220000Y-173920000D03*
X344220000Y-172520000D03*
X344220000Y-171120000D03*
X344220000Y-169720000D03*
X344220000Y-168320000D03*
X344220000Y-166920000D03*
D37*
X346420000Y-163870000D03*
X347820000Y-163870000D03*
X349220000Y-163870000D03*
X350620000Y-163870000D03*
X352020000Y-163870000D03*
X353420000Y-163870000D03*
X354820000Y-163870000D03*
X356220000Y-163870000D03*
X357620000Y-163870000D03*
X359020000Y-163870000D03*
X360420000Y-163870000D03*
X361820000Y-163870000D03*
%TD*%
D21*
%TO.C,C6*%
X348072500Y-186880000D03*
X349797500Y-186880000D03*
%TD*%
D38*
%TO.C,U2*%
X352515000Y-146185000D03*
X353015000Y-146185000D03*
X353515000Y-146185000D03*
X354015000Y-146185000D03*
X354015000Y-147635000D03*
X353515000Y-147635000D03*
X353015000Y-147635000D03*
X352515000Y-147635000D03*
%TD*%
D39*
%TO.C,R9*%
X352387500Y-139600000D03*
X354212500Y-139600000D03*
%TD*%
%TO.C,R4*%
X345097500Y-121830000D03*
X346922500Y-121830000D03*
%TD*%
D30*
%TO.C,C1*%
X338712500Y-116080000D03*
X336987500Y-116080000D03*
%TD*%
D22*
%TO.C,R23*%
X323400000Y-98337500D03*
X323400000Y-100162500D03*
%TD*%
D40*
%TO.C,U3*%
X319957500Y-99980000D03*
X319957500Y-100930000D03*
X319957500Y-101880000D03*
X317682500Y-101880000D03*
X317682500Y-100930000D03*
X317682500Y-99980000D03*
%TD*%
D41*
%TO.C,F4*%
X336210000Y-104655000D03*
X336210000Y-106405000D03*
%TD*%
D30*
%TO.C,C2*%
X354167500Y-144010000D03*
X352442500Y-144010000D03*
%TD*%
D39*
%TO.C,R13*%
X332347500Y-104390000D03*
X334172500Y-104390000D03*
%TD*%
D42*
%TO.C,J1*%
X347340000Y-135800000D03*
X349340000Y-135800000D03*
D43*
X344990000Y-130050000D03*
X351690000Y-130050000D03*
%TD*%
D21*
%TO.C,C17*%
X358217500Y-152870000D03*
X359942500Y-152870000D03*
%TD*%
D22*
%TO.C,R20*%
X325860000Y-98327500D03*
X325860000Y-100152500D03*
%TD*%
%TO.C,R19*%
X356900000Y-141147500D03*
X356900000Y-142972500D03*
%TD*%
D31*
%TO.C,C10*%
X349300000Y-123017500D03*
X349300000Y-124742500D03*
%TD*%
D22*
%TO.C,R24*%
X351130000Y-158277500D03*
X351130000Y-160102500D03*
%TD*%
M02*
