%TF.GenerationSoftware,KiCad,Pcbnew,7.0.1*%
%TF.CreationDate,2023-03-19T14:30:15+01:00*%
%TF.ProjectId,grapto-v3w-left,67726170-746f-42d7-9633-772d6c656674,v1.0.0*%
%TF.SameCoordinates,Original*%
%TF.FileFunction,Soldermask,Top*%
%TF.FilePolarity,Negative*%
%FSLAX46Y46*%
G04 Gerber Fmt 4.6, Leading zero omitted, Abs format (unit mm)*
G04 Created by KiCad (PCBNEW 7.0.1) date 2023-03-19 14:30:15*
%MOMM*%
%LPD*%
G01*
G04 APERTURE LIST*
G04 Aperture macros list*
%AMRoundRect*
0 Rectangle with rounded corners*
0 $1 Rounding radius*
0 $2 $3 $4 $5 $6 $7 $8 $9 X,Y pos of 4 corners*
0 Add a 4 corners polygon primitive as box body*
4,1,4,$2,$3,$4,$5,$6,$7,$8,$9,$2,$3,0*
0 Add four circle primitives for the rounded corners*
1,1,$1+$1,$2,$3*
1,1,$1+$1,$4,$5*
1,1,$1+$1,$6,$7*
1,1,$1+$1,$8,$9*
0 Add four rect primitives between the rounded corners*
20,1,$1+$1,$2,$3,$4,$5,0*
20,1,$1+$1,$4,$5,$6,$7,0*
20,1,$1+$1,$6,$7,$8,$9,0*
20,1,$1+$1,$8,$9,$2,$3,0*%
%AMHorizOval*
0 Thick line with rounded ends*
0 $1 width*
0 $2 $3 position (X,Y) of the first rounded end (center of the circle)*
0 $4 $5 position (X,Y) of the second rounded end (center of the circle)*
0 Add line between two ends*
20,1,$1,$2,$3,$4,$5,0*
0 Add two circle primitives to create the rounded ends*
1,1,$1,$2,$3*
1,1,$1,$4,$5*%
G04 Aperture macros list end*
%ADD10RoundRect,0.050000X-0.450000X-0.600000X0.450000X-0.600000X0.450000X0.600000X-0.450000X0.600000X0*%
%ADD11C,1.801800*%
%ADD12C,3.100000*%
%ADD13C,3.529000*%
%ADD14RoundRect,0.050000X-0.749996X-0.002488X-0.207610X-0.720693X0.749996X0.002488X0.207610X0.720693X0*%
%ADD15RoundRect,0.050000X-0.560587X-0.498239X0.321345X-0.677670X0.560587X0.498239X-0.321345X0.677670X0*%
%ADD16RoundRect,0.050000X-0.700606X-0.267677X0.060800X-0.747531X0.700606X0.267677X-0.060800X0.747531X0*%
%ADD17C,2.100000*%
%ADD18C,1.000000*%
%ADD19C,0.700000*%
%ADD20C,0.750000*%
%ADD21O,1.100000X1.700000*%
%ADD22O,1.100000X2.000000*%
%ADD23RoundRect,0.050000X0.000000X-1.202082X1.202082X0.000000X0.000000X1.202082X-1.202082X0.000000X0*%
%ADD24HorizOval,1.800000X0.000000X0.000000X0.000000X0.000000X0*%
G04 APERTURE END LIST*
D10*
%TO.C,D105*%
X312350000Y-184500000D03*
X315650000Y-184500000D03*
%TD*%
D11*
%TO.C,S18*%
X308500000Y-180000000D03*
D12*
X314000000Y-174050000D03*
D13*
X314000000Y-180000000D03*
D12*
X319000000Y-176250000D03*
D11*
X319500000Y-180000000D03*
%TD*%
%TO.C,S103*%
X290000000Y-122500000D03*
D12*
X295500000Y-116550000D03*
D13*
X295500000Y-122500000D03*
D12*
X300500000Y-118750000D03*
D11*
X301000000Y-122500000D03*
%TD*%
%TO.C,S94*%
X253000000Y-127500000D03*
D12*
X258500000Y-121550000D03*
D13*
X258500000Y-127500000D03*
D12*
X263500000Y-123750000D03*
D11*
X264000000Y-127500000D03*
%TD*%
%TO.C,S115*%
X349546967Y-192564317D03*
D12*
X357372377Y-190463019D03*
D13*
X354200006Y-195496761D03*
D12*
X360429435Y-194990092D03*
D11*
X358853045Y-198429205D03*
%TD*%
%TO.C,S98*%
X271500000Y-127500000D03*
D12*
X277000000Y-121550000D03*
D13*
X277000000Y-127500000D03*
D12*
X282000000Y-123750000D03*
D11*
X282500000Y-127500000D03*
%TD*%
%TO.C,S111*%
X327000000Y-149000000D03*
D12*
X332500000Y-143050000D03*
D13*
X332500000Y-149000000D03*
D12*
X337500000Y-145250000D03*
D11*
X338000000Y-149000000D03*
%TD*%
%TO.C,S28*%
X349546967Y-192564317D03*
D12*
X357372377Y-190463019D03*
D13*
X354200006Y-195496761D03*
D12*
X360429435Y-194990092D03*
D11*
X358853045Y-198429205D03*
%TD*%
D10*
%TO.C,D99*%
X275350000Y-114500000D03*
X278650000Y-114500000D03*
%TD*%
D11*
%TO.C,S13*%
X290000000Y-175000000D03*
D12*
X295500000Y-169050000D03*
D13*
X295500000Y-175000000D03*
D12*
X300500000Y-171250000D03*
D11*
X301000000Y-175000000D03*
%TD*%
D10*
%TO.C,D112*%
X330850000Y-136000000D03*
X334150000Y-136000000D03*
%TD*%
%TO.C,D108*%
X312350000Y-132000000D03*
X315650000Y-132000000D03*
%TD*%
D11*
%TO.C,S8*%
X271500000Y-180000000D03*
D12*
X277000000Y-174050000D03*
D13*
X277000000Y-180000000D03*
D12*
X282000000Y-176250000D03*
D11*
X282500000Y-180000000D03*
%TD*%
%TO.C,S110*%
X327000000Y-166500000D03*
D12*
X332500000Y-160550000D03*
D13*
X332500000Y-166500000D03*
D12*
X337500000Y-162750000D03*
D11*
X338000000Y-166500000D03*
%TD*%
%TO.C,S90*%
X234500000Y-145000000D03*
D12*
X240000000Y-139050000D03*
D13*
X240000000Y-145000000D03*
D12*
X245000000Y-141250000D03*
D11*
X245500000Y-145000000D03*
%TD*%
%TO.C,S97*%
X271500000Y-145000000D03*
D12*
X277000000Y-139050000D03*
D13*
X277000000Y-145000000D03*
D12*
X282000000Y-141250000D03*
D11*
X282500000Y-145000000D03*
%TD*%
%TO.C,S5*%
X253000000Y-162500000D03*
D12*
X258500000Y-156550000D03*
D13*
X258500000Y-162500000D03*
D12*
X263500000Y-158750000D03*
D11*
X264000000Y-162500000D03*
%TD*%
%TO.C,S100*%
X290000000Y-175000000D03*
D12*
X295500000Y-169050000D03*
D13*
X295500000Y-175000000D03*
D12*
X300500000Y-171250000D03*
D11*
X301000000Y-175000000D03*
%TD*%
%TO.C,S24*%
X327000000Y-149000000D03*
D12*
X332500000Y-143050000D03*
D13*
X332500000Y-149000000D03*
D12*
X337500000Y-145250000D03*
D11*
X338000000Y-149000000D03*
%TD*%
D10*
%TO.C,D92*%
X256850000Y-167000000D03*
X260150000Y-167000000D03*
%TD*%
%TO.C,D96*%
X275350000Y-167000000D03*
X278650000Y-167000000D03*
%TD*%
%TO.C,D94*%
X256850000Y-132000000D03*
X260150000Y-132000000D03*
%TD*%
D11*
%TO.C,S92*%
X253000000Y-162500000D03*
D12*
X258500000Y-156550000D03*
D13*
X258500000Y-162500000D03*
D12*
X263500000Y-158750000D03*
D11*
X264000000Y-162500000D03*
%TD*%
%TO.C,S104*%
X290000000Y-105000000D03*
D12*
X295500000Y-99050000D03*
D13*
X295500000Y-105000000D03*
D12*
X300500000Y-101250000D03*
D11*
X301000000Y-105000000D03*
%TD*%
%TO.C,S15*%
X290000000Y-140000000D03*
D12*
X295500000Y-134050000D03*
D13*
X295500000Y-140000000D03*
D12*
X300500000Y-136250000D03*
D11*
X301000000Y-140000000D03*
%TD*%
D10*
%TO.C,D106*%
X312350000Y-167000000D03*
X315650000Y-167000000D03*
%TD*%
%TO.C,D111*%
X330850000Y-153500000D03*
X334150000Y-153500000D03*
%TD*%
D11*
%TO.C,S116*%
X367252119Y-206147140D03*
D12*
X375314829Y-206950393D03*
D13*
X370566700Y-210536167D03*
D12*
X376572473Y-212266250D03*
D11*
X373881281Y-214925194D03*
%TD*%
D14*
%TO.C,D116*%
X365981304Y-211931388D03*
X367970052Y-214564804D03*
%TD*%
D10*
%TO.C,D98*%
X275350000Y-132000000D03*
X278650000Y-132000000D03*
%TD*%
%TO.C,D110*%
X330850000Y-171000000D03*
X334150000Y-171000000D03*
%TD*%
%TO.C,D95*%
X275350000Y-184500000D03*
X278650000Y-184500000D03*
%TD*%
D11*
%TO.C,S23*%
X327000000Y-166500000D03*
D12*
X332500000Y-160550000D03*
D13*
X332500000Y-166500000D03*
D12*
X337500000Y-162750000D03*
D11*
X338000000Y-166500000D03*
%TD*%
%TO.C,S6*%
X253000000Y-145000000D03*
D12*
X258500000Y-139050000D03*
D13*
X258500000Y-145000000D03*
D12*
X263500000Y-141250000D03*
D11*
X264000000Y-145000000D03*
%TD*%
%TO.C,S26*%
X327000000Y-114000000D03*
D12*
X332500000Y-108050000D03*
D13*
X332500000Y-114000000D03*
D12*
X337500000Y-110250000D03*
D11*
X338000000Y-114000000D03*
%TD*%
D10*
%TO.C,D93*%
X256850000Y-149500000D03*
X260150000Y-149500000D03*
%TD*%
D11*
%TO.C,S114*%
X328181352Y-186124129D03*
D12*
X334757177Y-181390101D03*
D13*
X333570938Y-187220653D03*
D12*
X339218191Y-184542775D03*
D11*
X338960524Y-188317177D03*
%TD*%
D10*
%TO.C,D113*%
X330850000Y-118500000D03*
X334150000Y-118500000D03*
%TD*%
D11*
%TO.C,S99*%
X271500000Y-110000000D03*
D12*
X277000000Y-104050000D03*
D13*
X277000000Y-110000000D03*
D12*
X282000000Y-106250000D03*
D11*
X282500000Y-110000000D03*
%TD*%
%TO.C,S106*%
X308500000Y-162500000D03*
D12*
X314000000Y-156550000D03*
D13*
X314000000Y-162500000D03*
D12*
X319000000Y-158750000D03*
D11*
X319500000Y-162500000D03*
%TD*%
D10*
%TO.C,D102*%
X293850000Y-144500000D03*
X297150000Y-144500000D03*
%TD*%
D11*
%TO.C,S89*%
X234500000Y-162500000D03*
D12*
X240000000Y-156550000D03*
D13*
X240000000Y-162500000D03*
D12*
X245000000Y-158750000D03*
D11*
X245500000Y-162500000D03*
%TD*%
D10*
%TO.C,D100*%
X293850000Y-179500000D03*
X297150000Y-179500000D03*
%TD*%
D11*
%TO.C,S3*%
X234500000Y-145000000D03*
D12*
X240000000Y-139050000D03*
D13*
X240000000Y-145000000D03*
D12*
X245000000Y-141250000D03*
D11*
X245500000Y-145000000D03*
%TD*%
%TO.C,S9*%
X271500000Y-162500000D03*
D12*
X277000000Y-156550000D03*
D13*
X277000000Y-162500000D03*
D12*
X282000000Y-158750000D03*
D11*
X282500000Y-162500000D03*
%TD*%
%TO.C,S101*%
X290000000Y-157500000D03*
D12*
X295500000Y-151550000D03*
D13*
X295500000Y-157500000D03*
D12*
X300500000Y-153750000D03*
D11*
X301000000Y-157500000D03*
%TD*%
%TO.C,S2*%
X234500000Y-162500000D03*
D12*
X240000000Y-156550000D03*
D13*
X240000000Y-162500000D03*
D12*
X245000000Y-158750000D03*
D11*
X245500000Y-162500000D03*
%TD*%
%TO.C,S14*%
X290000000Y-157500000D03*
D12*
X295500000Y-151550000D03*
D13*
X295500000Y-157500000D03*
D12*
X300500000Y-153750000D03*
D11*
X301000000Y-157500000D03*
%TD*%
%TO.C,S107*%
X308500000Y-145000000D03*
D12*
X314000000Y-139050000D03*
D13*
X314000000Y-145000000D03*
D12*
X319000000Y-141250000D03*
D11*
X319500000Y-145000000D03*
%TD*%
%TO.C,S109*%
X308500000Y-110000000D03*
D12*
X314000000Y-104050000D03*
D13*
X314000000Y-110000000D03*
D12*
X319000000Y-106250000D03*
D11*
X319500000Y-110000000D03*
%TD*%
%TO.C,S16*%
X290000000Y-122500000D03*
D12*
X295500000Y-116550000D03*
D13*
X295500000Y-122500000D03*
D12*
X300500000Y-118750000D03*
D11*
X301000000Y-122500000D03*
%TD*%
D10*
%TO.C,D89*%
X238350000Y-167000000D03*
X241650000Y-167000000D03*
%TD*%
D11*
%TO.C,S20*%
X308500000Y-145000000D03*
D12*
X314000000Y-139050000D03*
D13*
X314000000Y-145000000D03*
D12*
X319000000Y-141250000D03*
D11*
X319500000Y-145000000D03*
%TD*%
%TO.C,S22*%
X308500000Y-110000000D03*
D12*
X314000000Y-104050000D03*
D13*
X314000000Y-110000000D03*
D12*
X319000000Y-106250000D03*
D11*
X319500000Y-110000000D03*
%TD*%
%TO.C,S112*%
X327000000Y-131500000D03*
D12*
X332500000Y-125550000D03*
D13*
X332500000Y-131500000D03*
D12*
X337500000Y-127750000D03*
D11*
X338000000Y-131500000D03*
%TD*%
D10*
%TO.C,D104*%
X293850000Y-109500000D03*
X297150000Y-109500000D03*
%TD*%
D11*
%TO.C,S25*%
X327000000Y-131500000D03*
D12*
X332500000Y-125550000D03*
D13*
X332500000Y-131500000D03*
D12*
X337500000Y-127750000D03*
D11*
X338000000Y-131500000D03*
%TD*%
%TO.C,S10*%
X271500000Y-145000000D03*
D12*
X277000000Y-139050000D03*
D13*
X277000000Y-145000000D03*
D12*
X282000000Y-141250000D03*
D11*
X282500000Y-145000000D03*
%TD*%
%TO.C,S96*%
X271500000Y-162500000D03*
D12*
X277000000Y-156550000D03*
D13*
X277000000Y-162500000D03*
D12*
X282000000Y-158750000D03*
D11*
X282500000Y-162500000D03*
%TD*%
D10*
%TO.C,D97*%
X275350000Y-149500000D03*
X278650000Y-149500000D03*
%TD*%
D11*
%TO.C,S4*%
X253000000Y-180000000D03*
D12*
X258500000Y-174050000D03*
D13*
X258500000Y-180000000D03*
D12*
X263500000Y-176250000D03*
D11*
X264000000Y-180000000D03*
%TD*%
D10*
%TO.C,D91*%
X256850000Y-184500000D03*
X260150000Y-184500000D03*
%TD*%
D11*
%TO.C,S1*%
X234500000Y-180000000D03*
D12*
X240000000Y-174050000D03*
D13*
X240000000Y-180000000D03*
D12*
X245000000Y-176250000D03*
D11*
X245500000Y-180000000D03*
%TD*%
%TO.C,S113*%
X327000000Y-114000000D03*
D12*
X332500000Y-108050000D03*
D13*
X332500000Y-114000000D03*
D12*
X337500000Y-110250000D03*
D11*
X338000000Y-114000000D03*
%TD*%
D10*
%TO.C,D103*%
X293850000Y-127000000D03*
X297150000Y-127000000D03*
%TD*%
D11*
%TO.C,S21*%
X308500000Y-127500000D03*
D12*
X314000000Y-121550000D03*
D13*
X314000000Y-127500000D03*
D12*
X319000000Y-123750000D03*
D11*
X319500000Y-127500000D03*
%TD*%
%TO.C,S95*%
X271500000Y-180000000D03*
D12*
X277000000Y-174050000D03*
D13*
X277000000Y-180000000D03*
D12*
X282000000Y-176250000D03*
D11*
X282500000Y-180000000D03*
%TD*%
D10*
%TO.C,D109*%
X312350000Y-114500000D03*
X315650000Y-114500000D03*
%TD*%
D11*
%TO.C,S105*%
X308500000Y-180000000D03*
D12*
X314000000Y-174050000D03*
D13*
X314000000Y-180000000D03*
D12*
X319000000Y-176250000D03*
D11*
X319500000Y-180000000D03*
%TD*%
%TO.C,S17*%
X290000000Y-105000000D03*
D12*
X295500000Y-99050000D03*
D13*
X295500000Y-105000000D03*
D12*
X300500000Y-101250000D03*
D11*
X301000000Y-105000000D03*
%TD*%
D10*
%TO.C,D101*%
X293850000Y-162000000D03*
X297150000Y-162000000D03*
%TD*%
D11*
%TO.C,S88*%
X234500000Y-180000000D03*
D12*
X240000000Y-174050000D03*
D13*
X240000000Y-180000000D03*
D12*
X245000000Y-176250000D03*
D11*
X245500000Y-180000000D03*
%TD*%
%TO.C,S27*%
X328181352Y-186124129D03*
D12*
X334757177Y-181390101D03*
D13*
X333570938Y-187220653D03*
D12*
X339218191Y-184542775D03*
D11*
X338960524Y-188317177D03*
%TD*%
%TO.C,S12*%
X271500000Y-110000000D03*
D12*
X277000000Y-104050000D03*
D13*
X277000000Y-110000000D03*
D12*
X282000000Y-106250000D03*
D11*
X282500000Y-110000000D03*
%TD*%
D10*
%TO.C,D90*%
X238350000Y-149500000D03*
X241650000Y-149500000D03*
%TD*%
D11*
%TO.C,S108*%
X308500000Y-127500000D03*
D12*
X314000000Y-121550000D03*
D13*
X314000000Y-127500000D03*
D12*
X319000000Y-123750000D03*
D11*
X319500000Y-127500000D03*
%TD*%
D15*
%TO.C,D114*%
X331056907Y-191301358D03*
X334290659Y-191959272D03*
%TD*%
D11*
%TO.C,S11*%
X271500000Y-127500000D03*
D12*
X277000000Y-121550000D03*
D13*
X277000000Y-127500000D03*
D12*
X282000000Y-123750000D03*
D11*
X282500000Y-127500000D03*
%TD*%
%TO.C,S91*%
X253000000Y-180000000D03*
D12*
X258500000Y-174050000D03*
D13*
X258500000Y-180000000D03*
D12*
X263500000Y-176250000D03*
D11*
X264000000Y-180000000D03*
%TD*%
%TO.C,S7*%
X253000000Y-127500000D03*
D12*
X258500000Y-121550000D03*
D13*
X258500000Y-127500000D03*
D12*
X263500000Y-123750000D03*
D11*
X264000000Y-127500000D03*
%TD*%
%TO.C,S93*%
X253000000Y-145000000D03*
D12*
X258500000Y-139050000D03*
D13*
X258500000Y-145000000D03*
D12*
X263500000Y-141250000D03*
D11*
X264000000Y-145000000D03*
%TD*%
%TO.C,S19*%
X308500000Y-162500000D03*
D12*
X314000000Y-156550000D03*
D13*
X314000000Y-162500000D03*
D12*
X319000000Y-158750000D03*
D11*
X319500000Y-162500000D03*
%TD*%
D16*
%TO.C,D115*%
X350404822Y-198424060D03*
X353196646Y-200183526D03*
%TD*%
D10*
%TO.C,D88*%
X238350000Y-184500000D03*
X241650000Y-184500000D03*
%TD*%
%TO.C,D107*%
X312350000Y-149500000D03*
X315650000Y-149500000D03*
%TD*%
D11*
%TO.C,S29*%
X367252119Y-206147140D03*
D12*
X375314829Y-206950393D03*
D13*
X370566700Y-210536167D03*
D12*
X376572473Y-212266250D03*
D11*
X373881281Y-214925194D03*
%TD*%
%TO.C,S102*%
X290000000Y-140000000D03*
D12*
X295500000Y-134050000D03*
D13*
X295500000Y-140000000D03*
D12*
X300500000Y-136250000D03*
D11*
X301000000Y-140000000D03*
%TD*%
D17*
%TO.C,J2*%
X313960000Y-98570000D03*
%TD*%
%TO.C,TP16*%
X347700000Y-145800000D03*
%TD*%
D18*
%TO.C,SW31*%
X346796619Y-113924391D03*
X348007255Y-116669270D03*
%TD*%
D17*
%TO.C,TP13*%
X340500000Y-100560000D03*
%TD*%
D19*
%TO.C,J6*%
X329610000Y-100350000D03*
D20*
X335390000Y-100350000D03*
D21*
X328180000Y-96670000D03*
D22*
X328180000Y-100870000D03*
D21*
X336820000Y-96670000D03*
D22*
X336820000Y-100870000D03*
%TD*%
D17*
%TO.C,TP1*%
X342150000Y-135440000D03*
%TD*%
%TO.C,TP10*%
X356760000Y-138860000D03*
%TD*%
%TO.C,TP14*%
X341410000Y-153220000D03*
%TD*%
%TO.C,TP15*%
X307070000Y-97090000D03*
%TD*%
%TO.C,TP22*%
X343940000Y-191410000D03*
%TD*%
%TO.C,TP18*%
X362330000Y-159290000D03*
%TD*%
%TO.C,TP17*%
X360870000Y-155530000D03*
%TD*%
%TO.C,TP11*%
X361300000Y-148000000D03*
%TD*%
D23*
%TO.C,J8*%
X378166051Y-198676051D03*
D24*
X376370000Y-196880000D03*
X374573949Y-195083949D03*
X372777897Y-193287897D03*
X370981846Y-191491846D03*
X369185795Y-189695795D03*
%TD*%
M02*
