%TF.GenerationSoftware,KiCad,Pcbnew,7.0.1*%
%TF.CreationDate,2023-03-12T20:23:32+01:00*%
%TF.ProjectId,grapto-v3w-left,67726170-746f-42d7-9633-772d6c656674,v1.0.0*%
%TF.SameCoordinates,Original*%
%TF.FileFunction,Legend,Bot*%
%TF.FilePolarity,Positive*%
%FSLAX46Y46*%
G04 Gerber Fmt 4.6, Leading zero omitted, Abs format (unit mm)*
G04 Created by KiCad (PCBNEW 7.0.1) date 2023-03-12 20:23:32*
%MOMM*%
%LPD*%
G01*
G04 APERTURE LIST*
G04 Aperture macros list*
%AMRoundRect*
0 Rectangle with rounded corners*
0 $1 Rounding radius*
0 $2 $3 $4 $5 $6 $7 $8 $9 X,Y pos of 4 corners*
0 Add a 4 corners polygon primitive as box body*
4,1,4,$2,$3,$4,$5,$6,$7,$8,$9,$2,$3,0*
0 Add four circle primitives for the rounded corners*
1,1,$1+$1,$2,$3*
1,1,$1+$1,$4,$5*
1,1,$1+$1,$6,$7*
1,1,$1+$1,$8,$9*
0 Add four rect primitives between the rounded corners*
20,1,$1+$1,$2,$3,$4,$5,0*
20,1,$1+$1,$4,$5,$6,$7,0*
20,1,$1+$1,$6,$7,$8,$9,0*
20,1,$1+$1,$8,$9,$2,$3,0*%
%AMHorizOval*
0 Thick line with rounded ends*
0 $1 width*
0 $2 $3 position (X,Y) of the first rounded end (center of the circle)*
0 $4 $5 position (X,Y) of the second rounded end (center of the circle)*
0 Add line between two ends*
20,1,$1,$2,$3,$4,$5,0*
0 Add two circle primitives to create the rounded ends*
1,1,$1,$2,$3*
1,1,$1,$4,$5*%
G04 Aperture macros list end*
%ADD10C,0.150000*%
%ADD11C,0.120000*%
%ADD12C,0.100000*%
%ADD13RoundRect,0.112500X0.375000X0.062500X-0.375000X0.062500X-0.375000X-0.062500X0.375000X-0.062500X0*%
%ADD14RoundRect,0.112500X0.062500X0.375000X-0.062500X0.375000X-0.062500X-0.375000X0.062500X-0.375000X0*%
%ADD15RoundRect,0.050000X0.800000X0.800000X-0.800000X0.800000X-0.800000X-0.800000X0.800000X-0.800000X0*%
%ADD16RoundRect,0.200000X0.512500X0.150000X-0.512500X0.150000X-0.512500X-0.150000X0.512500X-0.150000X0*%
%ADD17RoundRect,0.112500X-0.062500X0.337500X-0.062500X-0.337500X0.062500X-0.337500X0.062500X0.337500X0*%
%ADD18RoundRect,0.300000X0.250000X-0.750000X0.250000X0.750000X-0.250000X0.750000X-0.250000X-0.750000X0*%
%ADD19RoundRect,0.300000X-0.750000X-0.250000X0.750000X-0.250000X0.750000X0.250000X-0.750000X0.250000X0*%
%ADD20RoundRect,0.300000X-0.250000X0.750000X-0.250000X-0.750000X0.250000X-0.750000X0.250000X0.750000X0*%
%ADD21RoundRect,0.050000X0.850000X0.850000X-0.850000X0.850000X-0.850000X-0.850000X0.850000X-0.850000X0*%
%ADD22RoundRect,0.050000X-0.850000X-0.850000X0.850000X-0.850000X0.850000X0.850000X-0.850000X0.850000X0*%
%ADD23RoundRect,0.050000X-0.648466X0.479054X-0.083502X-0.801890X0.648466X-0.479054X0.083502X0.801890X0*%
%ADD24C,1.000000*%
%ADD25RoundRect,0.050000X-1.076378X-0.037561X-0.753542X-0.769529X1.076378X0.037561X0.753542X0.769529X0*%
%ADD26RoundRect,0.287500X0.250000X0.237500X-0.250000X0.237500X-0.250000X-0.237500X0.250000X-0.237500X0*%
%ADD27RoundRect,0.287500X-0.237500X0.250000X-0.237500X-0.250000X0.237500X-0.250000X0.237500X0.250000X0*%
%ADD28RoundRect,0.287500X-0.250000X-0.237500X0.250000X-0.237500X0.250000X0.237500X-0.250000X0.237500X0*%
%ADD29RoundRect,0.287500X0.237500X-0.250000X0.237500X0.250000X-0.237500X0.250000X-0.237500X-0.250000X0*%
%ADD30RoundRect,0.050000X-1.250000X-0.950000X1.250000X-0.950000X1.250000X0.950000X-1.250000X0.950000X0*%
%ADD31RoundRect,0.050000X0.000000X-1.202082X1.202082X0.000000X0.000000X1.202082X-1.202082X0.000000X0*%
%ADD32HorizOval,1.800000X0.000000X0.000000X0.000000X0.000000X0*%
%ADD33C,0.750000*%
%ADD34RoundRect,0.050000X-0.300000X-0.620000X0.300000X-0.620000X0.300000X0.620000X-0.300000X0.620000X0*%
%ADD35RoundRect,0.050000X-0.150000X-0.620000X0.150000X-0.620000X0.150000X0.620000X-0.150000X0.620000X0*%
%ADD36O,1.100000X1.900000*%
%ADD37O,1.100000X2.200000*%
%ADD38RoundRect,0.300000X-0.250000X-1.500000X0.250000X-1.500000X0.250000X1.500000X-0.250000X1.500000X0*%
%ADD39RoundRect,0.300001X-0.499999X-1.449999X0.499999X-1.449999X0.499999X1.449999X-0.499999X1.449999X0*%
%ADD40RoundRect,0.287500X-0.237500X0.287500X-0.237500X-0.287500X0.237500X-0.287500X0.237500X0.287500X0*%
%ADD41RoundRect,0.287500X0.237500X-0.287500X0.237500X0.287500X-0.237500X0.287500X-0.237500X-0.287500X0*%
%ADD42RoundRect,0.050000X0.350000X-0.350000X0.350000X0.350000X-0.350000X0.350000X-0.350000X-0.350000X0*%
%ADD43RoundRect,0.287500X-0.287500X-0.237500X0.287500X-0.237500X0.287500X0.237500X-0.287500X0.237500X0*%
%ADD44RoundRect,0.287500X0.300000X0.237500X-0.300000X0.237500X-0.300000X-0.237500X0.300000X-0.237500X0*%
%ADD45RoundRect,0.287500X0.287500X0.237500X-0.287500X0.237500X-0.287500X-0.237500X0.287500X-0.237500X0*%
%ADD46RoundRect,0.287500X0.237500X-0.300000X0.237500X0.300000X-0.237500X0.300000X-0.237500X-0.300000X0*%
%ADD47C,3.529000*%
%ADD48C,1.801800*%
%ADD49C,3.100000*%
%ADD50RoundRect,0.050000X-1.300000X-1.300000X1.300000X-1.300000X1.300000X1.300000X-1.300000X1.300000X0*%
%ADD51RoundRect,0.050000X-1.533080X-1.014724X1.014724X-1.533080X1.533080X1.014724X-1.014724X1.533080X0*%
%ADD52RoundRect,0.050000X-1.792932X-0.406686X0.406686X-1.792932X1.792932X0.406686X-0.406686X1.792932X0*%
%ADD53RoundRect,0.050000X-1.820853X0.253960X-0.253960X-1.820853X1.820853X-0.253960X0.253960X1.820853X0*%
%ADD54RoundRect,0.050000X-0.450000X-0.600000X0.450000X-0.600000X0.450000X0.600000X-0.450000X0.600000X0*%
%ADD55RoundRect,0.050000X-0.560587X-0.498239X0.321345X-0.677670X0.560587X0.498239X-0.321345X0.677670X0*%
%ADD56RoundRect,0.050000X-0.700606X-0.267677X0.060800X-0.747531X0.700606X0.267677X-0.060800X0.747531X0*%
%ADD57RoundRect,0.050000X-0.749996X-0.002488X-0.207610X-0.720693X0.749996X0.002488X0.207610X0.720693X0*%
G04 APERTURE END LIST*
D10*
%TO.C,U4*%
X342024404Y-116992619D02*
X342024404Y-117802142D01*
X342024404Y-117802142D02*
X341976785Y-117897380D01*
X341976785Y-117897380D02*
X341929166Y-117945000D01*
X341929166Y-117945000D02*
X341833928Y-117992619D01*
X341833928Y-117992619D02*
X341643452Y-117992619D01*
X341643452Y-117992619D02*
X341548214Y-117945000D01*
X341548214Y-117945000D02*
X341500595Y-117897380D01*
X341500595Y-117897380D02*
X341452976Y-117802142D01*
X341452976Y-117802142D02*
X341452976Y-116992619D01*
X340548214Y-117325952D02*
X340548214Y-117992619D01*
X340786309Y-116945000D02*
X341024404Y-117659285D01*
X341024404Y-117659285D02*
X340405357Y-117659285D01*
%TO.C,U3*%
X327961904Y-101212619D02*
X327961904Y-102022142D01*
X327961904Y-102022142D02*
X327914285Y-102117380D01*
X327914285Y-102117380D02*
X327866666Y-102165000D01*
X327866666Y-102165000D02*
X327771428Y-102212619D01*
X327771428Y-102212619D02*
X327580952Y-102212619D01*
X327580952Y-102212619D02*
X327485714Y-102165000D01*
X327485714Y-102165000D02*
X327438095Y-102117380D01*
X327438095Y-102117380D02*
X327390476Y-102022142D01*
X327390476Y-102022142D02*
X327390476Y-101212619D01*
X327009523Y-101212619D02*
X326390476Y-101212619D01*
X326390476Y-101212619D02*
X326723809Y-101593571D01*
X326723809Y-101593571D02*
X326580952Y-101593571D01*
X326580952Y-101593571D02*
X326485714Y-101641190D01*
X326485714Y-101641190D02*
X326438095Y-101688809D01*
X326438095Y-101688809D02*
X326390476Y-101784047D01*
X326390476Y-101784047D02*
X326390476Y-102022142D01*
X326390476Y-102022142D02*
X326438095Y-102117380D01*
X326438095Y-102117380D02*
X326485714Y-102165000D01*
X326485714Y-102165000D02*
X326580952Y-102212619D01*
X326580952Y-102212619D02*
X326866666Y-102212619D01*
X326866666Y-102212619D02*
X326961904Y-102165000D01*
X326961904Y-102165000D02*
X327009523Y-102117380D01*
%TO.C,U2*%
X350777619Y-146148095D02*
X351587142Y-146148095D01*
X351587142Y-146148095D02*
X351682380Y-146195714D01*
X351682380Y-146195714D02*
X351730000Y-146243333D01*
X351730000Y-146243333D02*
X351777619Y-146338571D01*
X351777619Y-146338571D02*
X351777619Y-146529047D01*
X351777619Y-146529047D02*
X351730000Y-146624285D01*
X351730000Y-146624285D02*
X351682380Y-146671904D01*
X351682380Y-146671904D02*
X351587142Y-146719523D01*
X351587142Y-146719523D02*
X350777619Y-146719523D01*
X350872857Y-147148095D02*
X350825238Y-147195714D01*
X350825238Y-147195714D02*
X350777619Y-147290952D01*
X350777619Y-147290952D02*
X350777619Y-147529047D01*
X350777619Y-147529047D02*
X350825238Y-147624285D01*
X350825238Y-147624285D02*
X350872857Y-147671904D01*
X350872857Y-147671904D02*
X350968095Y-147719523D01*
X350968095Y-147719523D02*
X351063333Y-147719523D01*
X351063333Y-147719523D02*
X351206190Y-147671904D01*
X351206190Y-147671904D02*
X351777619Y-147100476D01*
X351777619Y-147100476D02*
X351777619Y-147719523D01*
%TO.C,U1*%
X354457380Y-174681904D02*
X353647857Y-174681904D01*
X353647857Y-174681904D02*
X353552619Y-174634285D01*
X353552619Y-174634285D02*
X353505000Y-174586666D01*
X353505000Y-174586666D02*
X353457380Y-174491428D01*
X353457380Y-174491428D02*
X353457380Y-174300952D01*
X353457380Y-174300952D02*
X353505000Y-174205714D01*
X353505000Y-174205714D02*
X353552619Y-174158095D01*
X353552619Y-174158095D02*
X353647857Y-174110476D01*
X353647857Y-174110476D02*
X354457380Y-174110476D01*
X353457380Y-173110476D02*
X353457380Y-173681904D01*
X353457380Y-173396190D02*
X354457380Y-173396190D01*
X354457380Y-173396190D02*
X354314523Y-173491428D01*
X354314523Y-173491428D02*
X354219285Y-173586666D01*
X354219285Y-173586666D02*
X354171666Y-173681904D01*
%TO.C,TP22*%
X345678094Y-188542619D02*
X345106666Y-188542619D01*
X345392380Y-189542619D02*
X345392380Y-188542619D01*
X344773332Y-189542619D02*
X344773332Y-188542619D01*
X344773332Y-188542619D02*
X344392380Y-188542619D01*
X344392380Y-188542619D02*
X344297142Y-188590238D01*
X344297142Y-188590238D02*
X344249523Y-188637857D01*
X344249523Y-188637857D02*
X344201904Y-188733095D01*
X344201904Y-188733095D02*
X344201904Y-188875952D01*
X344201904Y-188875952D02*
X344249523Y-188971190D01*
X344249523Y-188971190D02*
X344297142Y-189018809D01*
X344297142Y-189018809D02*
X344392380Y-189066428D01*
X344392380Y-189066428D02*
X344773332Y-189066428D01*
X343820951Y-188637857D02*
X343773332Y-188590238D01*
X343773332Y-188590238D02*
X343678094Y-188542619D01*
X343678094Y-188542619D02*
X343439999Y-188542619D01*
X343439999Y-188542619D02*
X343344761Y-188590238D01*
X343344761Y-188590238D02*
X343297142Y-188637857D01*
X343297142Y-188637857D02*
X343249523Y-188733095D01*
X343249523Y-188733095D02*
X343249523Y-188828333D01*
X343249523Y-188828333D02*
X343297142Y-188971190D01*
X343297142Y-188971190D02*
X343868570Y-189542619D01*
X343868570Y-189542619D02*
X343249523Y-189542619D01*
X342868570Y-188637857D02*
X342820951Y-188590238D01*
X342820951Y-188590238D02*
X342725713Y-188542619D01*
X342725713Y-188542619D02*
X342487618Y-188542619D01*
X342487618Y-188542619D02*
X342392380Y-188590238D01*
X342392380Y-188590238D02*
X342344761Y-188637857D01*
X342344761Y-188637857D02*
X342297142Y-188733095D01*
X342297142Y-188733095D02*
X342297142Y-188828333D01*
X342297142Y-188828333D02*
X342344761Y-188971190D01*
X342344761Y-188971190D02*
X342916189Y-189542619D01*
X342916189Y-189542619D02*
X342297142Y-189542619D01*
%TO.C,TP18*%
X364068094Y-156422619D02*
X363496666Y-156422619D01*
X363782380Y-157422619D02*
X363782380Y-156422619D01*
X363163332Y-157422619D02*
X363163332Y-156422619D01*
X363163332Y-156422619D02*
X362782380Y-156422619D01*
X362782380Y-156422619D02*
X362687142Y-156470238D01*
X362687142Y-156470238D02*
X362639523Y-156517857D01*
X362639523Y-156517857D02*
X362591904Y-156613095D01*
X362591904Y-156613095D02*
X362591904Y-156755952D01*
X362591904Y-156755952D02*
X362639523Y-156851190D01*
X362639523Y-156851190D02*
X362687142Y-156898809D01*
X362687142Y-156898809D02*
X362782380Y-156946428D01*
X362782380Y-156946428D02*
X363163332Y-156946428D01*
X361639523Y-157422619D02*
X362210951Y-157422619D01*
X361925237Y-157422619D02*
X361925237Y-156422619D01*
X361925237Y-156422619D02*
X362020475Y-156565476D01*
X362020475Y-156565476D02*
X362115713Y-156660714D01*
X362115713Y-156660714D02*
X362210951Y-156708333D01*
X361068094Y-156851190D02*
X361163332Y-156803571D01*
X361163332Y-156803571D02*
X361210951Y-156755952D01*
X361210951Y-156755952D02*
X361258570Y-156660714D01*
X361258570Y-156660714D02*
X361258570Y-156613095D01*
X361258570Y-156613095D02*
X361210951Y-156517857D01*
X361210951Y-156517857D02*
X361163332Y-156470238D01*
X361163332Y-156470238D02*
X361068094Y-156422619D01*
X361068094Y-156422619D02*
X360877618Y-156422619D01*
X360877618Y-156422619D02*
X360782380Y-156470238D01*
X360782380Y-156470238D02*
X360734761Y-156517857D01*
X360734761Y-156517857D02*
X360687142Y-156613095D01*
X360687142Y-156613095D02*
X360687142Y-156660714D01*
X360687142Y-156660714D02*
X360734761Y-156755952D01*
X360734761Y-156755952D02*
X360782380Y-156803571D01*
X360782380Y-156803571D02*
X360877618Y-156851190D01*
X360877618Y-156851190D02*
X361068094Y-156851190D01*
X361068094Y-156851190D02*
X361163332Y-156898809D01*
X361163332Y-156898809D02*
X361210951Y-156946428D01*
X361210951Y-156946428D02*
X361258570Y-157041666D01*
X361258570Y-157041666D02*
X361258570Y-157232142D01*
X361258570Y-157232142D02*
X361210951Y-157327380D01*
X361210951Y-157327380D02*
X361163332Y-157375000D01*
X361163332Y-157375000D02*
X361068094Y-157422619D01*
X361068094Y-157422619D02*
X360877618Y-157422619D01*
X360877618Y-157422619D02*
X360782380Y-157375000D01*
X360782380Y-157375000D02*
X360734761Y-157327380D01*
X360734761Y-157327380D02*
X360687142Y-157232142D01*
X360687142Y-157232142D02*
X360687142Y-157041666D01*
X360687142Y-157041666D02*
X360734761Y-156946428D01*
X360734761Y-156946428D02*
X360782380Y-156898809D01*
X360782380Y-156898809D02*
X360877618Y-156851190D01*
%TO.C,TP17*%
X362608094Y-152662619D02*
X362036666Y-152662619D01*
X362322380Y-153662619D02*
X362322380Y-152662619D01*
X361703332Y-153662619D02*
X361703332Y-152662619D01*
X361703332Y-152662619D02*
X361322380Y-152662619D01*
X361322380Y-152662619D02*
X361227142Y-152710238D01*
X361227142Y-152710238D02*
X361179523Y-152757857D01*
X361179523Y-152757857D02*
X361131904Y-152853095D01*
X361131904Y-152853095D02*
X361131904Y-152995952D01*
X361131904Y-152995952D02*
X361179523Y-153091190D01*
X361179523Y-153091190D02*
X361227142Y-153138809D01*
X361227142Y-153138809D02*
X361322380Y-153186428D01*
X361322380Y-153186428D02*
X361703332Y-153186428D01*
X360179523Y-153662619D02*
X360750951Y-153662619D01*
X360465237Y-153662619D02*
X360465237Y-152662619D01*
X360465237Y-152662619D02*
X360560475Y-152805476D01*
X360560475Y-152805476D02*
X360655713Y-152900714D01*
X360655713Y-152900714D02*
X360750951Y-152948333D01*
X359846189Y-152662619D02*
X359179523Y-152662619D01*
X359179523Y-152662619D02*
X359608094Y-153662619D01*
%TO.C,TP16*%
X349438094Y-142932619D02*
X348866666Y-142932619D01*
X349152380Y-143932619D02*
X349152380Y-142932619D01*
X348533332Y-143932619D02*
X348533332Y-142932619D01*
X348533332Y-142932619D02*
X348152380Y-142932619D01*
X348152380Y-142932619D02*
X348057142Y-142980238D01*
X348057142Y-142980238D02*
X348009523Y-143027857D01*
X348009523Y-143027857D02*
X347961904Y-143123095D01*
X347961904Y-143123095D02*
X347961904Y-143265952D01*
X347961904Y-143265952D02*
X348009523Y-143361190D01*
X348009523Y-143361190D02*
X348057142Y-143408809D01*
X348057142Y-143408809D02*
X348152380Y-143456428D01*
X348152380Y-143456428D02*
X348533332Y-143456428D01*
X347009523Y-143932619D02*
X347580951Y-143932619D01*
X347295237Y-143932619D02*
X347295237Y-142932619D01*
X347295237Y-142932619D02*
X347390475Y-143075476D01*
X347390475Y-143075476D02*
X347485713Y-143170714D01*
X347485713Y-143170714D02*
X347580951Y-143218333D01*
X346152380Y-142932619D02*
X346342856Y-142932619D01*
X346342856Y-142932619D02*
X346438094Y-142980238D01*
X346438094Y-142980238D02*
X346485713Y-143027857D01*
X346485713Y-143027857D02*
X346580951Y-143170714D01*
X346580951Y-143170714D02*
X346628570Y-143361190D01*
X346628570Y-143361190D02*
X346628570Y-143742142D01*
X346628570Y-143742142D02*
X346580951Y-143837380D01*
X346580951Y-143837380D02*
X346533332Y-143885000D01*
X346533332Y-143885000D02*
X346438094Y-143932619D01*
X346438094Y-143932619D02*
X346247618Y-143932619D01*
X346247618Y-143932619D02*
X346152380Y-143885000D01*
X346152380Y-143885000D02*
X346104761Y-143837380D01*
X346104761Y-143837380D02*
X346057142Y-143742142D01*
X346057142Y-143742142D02*
X346057142Y-143504047D01*
X346057142Y-143504047D02*
X346104761Y-143408809D01*
X346104761Y-143408809D02*
X346152380Y-143361190D01*
X346152380Y-143361190D02*
X346247618Y-143313571D01*
X346247618Y-143313571D02*
X346438094Y-143313571D01*
X346438094Y-143313571D02*
X346533332Y-143361190D01*
X346533332Y-143361190D02*
X346580951Y-143408809D01*
X346580951Y-143408809D02*
X346628570Y-143504047D01*
%TO.C,TP15*%
X319388094Y-94082619D02*
X318816666Y-94082619D01*
X319102380Y-95082619D02*
X319102380Y-94082619D01*
X318483332Y-95082619D02*
X318483332Y-94082619D01*
X318483332Y-94082619D02*
X318102380Y-94082619D01*
X318102380Y-94082619D02*
X318007142Y-94130238D01*
X318007142Y-94130238D02*
X317959523Y-94177857D01*
X317959523Y-94177857D02*
X317911904Y-94273095D01*
X317911904Y-94273095D02*
X317911904Y-94415952D01*
X317911904Y-94415952D02*
X317959523Y-94511190D01*
X317959523Y-94511190D02*
X318007142Y-94558809D01*
X318007142Y-94558809D02*
X318102380Y-94606428D01*
X318102380Y-94606428D02*
X318483332Y-94606428D01*
X316959523Y-95082619D02*
X317530951Y-95082619D01*
X317245237Y-95082619D02*
X317245237Y-94082619D01*
X317245237Y-94082619D02*
X317340475Y-94225476D01*
X317340475Y-94225476D02*
X317435713Y-94320714D01*
X317435713Y-94320714D02*
X317530951Y-94368333D01*
X316054761Y-94082619D02*
X316530951Y-94082619D01*
X316530951Y-94082619D02*
X316578570Y-94558809D01*
X316578570Y-94558809D02*
X316530951Y-94511190D01*
X316530951Y-94511190D02*
X316435713Y-94463571D01*
X316435713Y-94463571D02*
X316197618Y-94463571D01*
X316197618Y-94463571D02*
X316102380Y-94511190D01*
X316102380Y-94511190D02*
X316054761Y-94558809D01*
X316054761Y-94558809D02*
X316007142Y-94654047D01*
X316007142Y-94654047D02*
X316007142Y-94892142D01*
X316007142Y-94892142D02*
X316054761Y-94987380D01*
X316054761Y-94987380D02*
X316102380Y-95035000D01*
X316102380Y-95035000D02*
X316197618Y-95082619D01*
X316197618Y-95082619D02*
X316435713Y-95082619D01*
X316435713Y-95082619D02*
X316530951Y-95035000D01*
X316530951Y-95035000D02*
X316578570Y-94987380D01*
%TO.C,TP14*%
X319438094Y-98632619D02*
X318866666Y-98632619D01*
X319152380Y-99632619D02*
X319152380Y-98632619D01*
X318533332Y-99632619D02*
X318533332Y-98632619D01*
X318533332Y-98632619D02*
X318152380Y-98632619D01*
X318152380Y-98632619D02*
X318057142Y-98680238D01*
X318057142Y-98680238D02*
X318009523Y-98727857D01*
X318009523Y-98727857D02*
X317961904Y-98823095D01*
X317961904Y-98823095D02*
X317961904Y-98965952D01*
X317961904Y-98965952D02*
X318009523Y-99061190D01*
X318009523Y-99061190D02*
X318057142Y-99108809D01*
X318057142Y-99108809D02*
X318152380Y-99156428D01*
X318152380Y-99156428D02*
X318533332Y-99156428D01*
X317009523Y-99632619D02*
X317580951Y-99632619D01*
X317295237Y-99632619D02*
X317295237Y-98632619D01*
X317295237Y-98632619D02*
X317390475Y-98775476D01*
X317390475Y-98775476D02*
X317485713Y-98870714D01*
X317485713Y-98870714D02*
X317580951Y-98918333D01*
X316152380Y-98965952D02*
X316152380Y-99632619D01*
X316390475Y-98585000D02*
X316628570Y-99299285D01*
X316628570Y-99299285D02*
X316009523Y-99299285D01*
%TO.C,TP13*%
X342238094Y-102352619D02*
X341666666Y-102352619D01*
X341952380Y-103352619D02*
X341952380Y-102352619D01*
X341333332Y-103352619D02*
X341333332Y-102352619D01*
X341333332Y-102352619D02*
X340952380Y-102352619D01*
X340952380Y-102352619D02*
X340857142Y-102400238D01*
X340857142Y-102400238D02*
X340809523Y-102447857D01*
X340809523Y-102447857D02*
X340761904Y-102543095D01*
X340761904Y-102543095D02*
X340761904Y-102685952D01*
X340761904Y-102685952D02*
X340809523Y-102781190D01*
X340809523Y-102781190D02*
X340857142Y-102828809D01*
X340857142Y-102828809D02*
X340952380Y-102876428D01*
X340952380Y-102876428D02*
X341333332Y-102876428D01*
X339809523Y-103352619D02*
X340380951Y-103352619D01*
X340095237Y-103352619D02*
X340095237Y-102352619D01*
X340095237Y-102352619D02*
X340190475Y-102495476D01*
X340190475Y-102495476D02*
X340285713Y-102590714D01*
X340285713Y-102590714D02*
X340380951Y-102638333D01*
X339476189Y-102352619D02*
X338857142Y-102352619D01*
X338857142Y-102352619D02*
X339190475Y-102733571D01*
X339190475Y-102733571D02*
X339047618Y-102733571D01*
X339047618Y-102733571D02*
X338952380Y-102781190D01*
X338952380Y-102781190D02*
X338904761Y-102828809D01*
X338904761Y-102828809D02*
X338857142Y-102924047D01*
X338857142Y-102924047D02*
X338857142Y-103162142D01*
X338857142Y-103162142D02*
X338904761Y-103257380D01*
X338904761Y-103257380D02*
X338952380Y-103305000D01*
X338952380Y-103305000D02*
X339047618Y-103352619D01*
X339047618Y-103352619D02*
X339333332Y-103352619D01*
X339333332Y-103352619D02*
X339428570Y-103305000D01*
X339428570Y-103305000D02*
X339476189Y-103257380D01*
%TO.C,TP11*%
X363038094Y-145132619D02*
X362466666Y-145132619D01*
X362752380Y-146132619D02*
X362752380Y-145132619D01*
X362133332Y-146132619D02*
X362133332Y-145132619D01*
X362133332Y-145132619D02*
X361752380Y-145132619D01*
X361752380Y-145132619D02*
X361657142Y-145180238D01*
X361657142Y-145180238D02*
X361609523Y-145227857D01*
X361609523Y-145227857D02*
X361561904Y-145323095D01*
X361561904Y-145323095D02*
X361561904Y-145465952D01*
X361561904Y-145465952D02*
X361609523Y-145561190D01*
X361609523Y-145561190D02*
X361657142Y-145608809D01*
X361657142Y-145608809D02*
X361752380Y-145656428D01*
X361752380Y-145656428D02*
X362133332Y-145656428D01*
X360609523Y-146132619D02*
X361180951Y-146132619D01*
X360895237Y-146132619D02*
X360895237Y-145132619D01*
X360895237Y-145132619D02*
X360990475Y-145275476D01*
X360990475Y-145275476D02*
X361085713Y-145370714D01*
X361085713Y-145370714D02*
X361180951Y-145418333D01*
X359657142Y-146132619D02*
X360228570Y-146132619D01*
X359942856Y-146132619D02*
X359942856Y-145132619D01*
X359942856Y-145132619D02*
X360038094Y-145275476D01*
X360038094Y-145275476D02*
X360133332Y-145370714D01*
X360133332Y-145370714D02*
X360228570Y-145418333D01*
%TO.C,TP10*%
X358498094Y-135992619D02*
X357926666Y-135992619D01*
X358212380Y-136992619D02*
X358212380Y-135992619D01*
X357593332Y-136992619D02*
X357593332Y-135992619D01*
X357593332Y-135992619D02*
X357212380Y-135992619D01*
X357212380Y-135992619D02*
X357117142Y-136040238D01*
X357117142Y-136040238D02*
X357069523Y-136087857D01*
X357069523Y-136087857D02*
X357021904Y-136183095D01*
X357021904Y-136183095D02*
X357021904Y-136325952D01*
X357021904Y-136325952D02*
X357069523Y-136421190D01*
X357069523Y-136421190D02*
X357117142Y-136468809D01*
X357117142Y-136468809D02*
X357212380Y-136516428D01*
X357212380Y-136516428D02*
X357593332Y-136516428D01*
X356069523Y-136992619D02*
X356640951Y-136992619D01*
X356355237Y-136992619D02*
X356355237Y-135992619D01*
X356355237Y-135992619D02*
X356450475Y-136135476D01*
X356450475Y-136135476D02*
X356545713Y-136230714D01*
X356545713Y-136230714D02*
X356640951Y-136278333D01*
X355450475Y-135992619D02*
X355355237Y-135992619D01*
X355355237Y-135992619D02*
X355259999Y-136040238D01*
X355259999Y-136040238D02*
X355212380Y-136087857D01*
X355212380Y-136087857D02*
X355164761Y-136183095D01*
X355164761Y-136183095D02*
X355117142Y-136373571D01*
X355117142Y-136373571D02*
X355117142Y-136611666D01*
X355117142Y-136611666D02*
X355164761Y-136802142D01*
X355164761Y-136802142D02*
X355212380Y-136897380D01*
X355212380Y-136897380D02*
X355259999Y-136945000D01*
X355259999Y-136945000D02*
X355355237Y-136992619D01*
X355355237Y-136992619D02*
X355450475Y-136992619D01*
X355450475Y-136992619D02*
X355545713Y-136945000D01*
X355545713Y-136945000D02*
X355593332Y-136897380D01*
X355593332Y-136897380D02*
X355640951Y-136802142D01*
X355640951Y-136802142D02*
X355688570Y-136611666D01*
X355688570Y-136611666D02*
X355688570Y-136373571D01*
X355688570Y-136373571D02*
X355640951Y-136183095D01*
X355640951Y-136183095D02*
X355593332Y-136087857D01*
X355593332Y-136087857D02*
X355545713Y-136040238D01*
X355545713Y-136040238D02*
X355450475Y-135992619D01*
%TO.C,TP1*%
X350261904Y-123132619D02*
X349690476Y-123132619D01*
X349976190Y-124132619D02*
X349976190Y-123132619D01*
X349357142Y-124132619D02*
X349357142Y-123132619D01*
X349357142Y-123132619D02*
X348976190Y-123132619D01*
X348976190Y-123132619D02*
X348880952Y-123180238D01*
X348880952Y-123180238D02*
X348833333Y-123227857D01*
X348833333Y-123227857D02*
X348785714Y-123323095D01*
X348785714Y-123323095D02*
X348785714Y-123465952D01*
X348785714Y-123465952D02*
X348833333Y-123561190D01*
X348833333Y-123561190D02*
X348880952Y-123608809D01*
X348880952Y-123608809D02*
X348976190Y-123656428D01*
X348976190Y-123656428D02*
X349357142Y-123656428D01*
X347833333Y-124132619D02*
X348404761Y-124132619D01*
X348119047Y-124132619D02*
X348119047Y-123132619D01*
X348119047Y-123132619D02*
X348214285Y-123275476D01*
X348214285Y-123275476D02*
X348309523Y-123370714D01*
X348309523Y-123370714D02*
X348404761Y-123418333D01*
%TO.C,SW31*%
X344522645Y-118544457D02*
X344421426Y-118432965D01*
X344421426Y-118432965D02*
X344325344Y-118215117D01*
X344325344Y-118215117D02*
X344330481Y-118108762D01*
X344330481Y-118108762D02*
X344354834Y-118045976D01*
X344354834Y-118045976D02*
X344422756Y-117963974D01*
X344422756Y-117963974D02*
X344509895Y-117925541D01*
X344509895Y-117925541D02*
X344616251Y-117930677D01*
X344616251Y-117930677D02*
X344679037Y-117955030D01*
X344679037Y-117955030D02*
X344761039Y-118022953D01*
X344761039Y-118022953D02*
X344881474Y-118178015D01*
X344881474Y-118178015D02*
X344963477Y-118245937D01*
X344963477Y-118245937D02*
X345026263Y-118270290D01*
X345026263Y-118270290D02*
X345132618Y-118275427D01*
X345132618Y-118275427D02*
X345219757Y-118236994D01*
X345219757Y-118236994D02*
X345287680Y-118154992D01*
X345287680Y-118154992D02*
X345312033Y-118092206D01*
X345312033Y-118092206D02*
X345317169Y-117985850D01*
X345317169Y-117985850D02*
X345221087Y-117768003D01*
X345221087Y-117768003D02*
X345119868Y-117656511D01*
X345028923Y-117332308D02*
X344017881Y-117518005D01*
X344017881Y-117518005D02*
X344594558Y-117055481D01*
X344594558Y-117055481D02*
X343864149Y-117169449D01*
X343864149Y-117169449D02*
X344683027Y-116548056D01*
X344567728Y-116286639D02*
X344317914Y-115720236D01*
X344317914Y-115720236D02*
X344103874Y-116178954D01*
X344103874Y-116178954D02*
X344046224Y-116048245D01*
X344046224Y-116048245D02*
X343964222Y-115980323D01*
X343964222Y-115980323D02*
X343901436Y-115955970D01*
X343901436Y-115955970D02*
X343795080Y-115950833D01*
X343795080Y-115950833D02*
X343577233Y-116046915D01*
X343577233Y-116046915D02*
X343509310Y-116128918D01*
X343509310Y-116128918D02*
X343484957Y-116191704D01*
X343484957Y-116191704D02*
X343479821Y-116298059D01*
X343479821Y-116298059D02*
X343595119Y-116559476D01*
X343595119Y-116559476D02*
X343677122Y-116627399D01*
X343677122Y-116627399D02*
X343739908Y-116651752D01*
X343018626Y-115252391D02*
X343249223Y-115775225D01*
X343133925Y-115513808D02*
X344048884Y-115110263D01*
X344048884Y-115110263D02*
X343956609Y-115255051D01*
X343956609Y-115255051D02*
X343907902Y-115380623D01*
X343907902Y-115380623D02*
X343902766Y-115486978D01*
%TO.C,R30*%
X358402857Y-145832619D02*
X358736190Y-145356428D01*
X358974285Y-145832619D02*
X358974285Y-144832619D01*
X358974285Y-144832619D02*
X358593333Y-144832619D01*
X358593333Y-144832619D02*
X358498095Y-144880238D01*
X358498095Y-144880238D02*
X358450476Y-144927857D01*
X358450476Y-144927857D02*
X358402857Y-145023095D01*
X358402857Y-145023095D02*
X358402857Y-145165952D01*
X358402857Y-145165952D02*
X358450476Y-145261190D01*
X358450476Y-145261190D02*
X358498095Y-145308809D01*
X358498095Y-145308809D02*
X358593333Y-145356428D01*
X358593333Y-145356428D02*
X358974285Y-145356428D01*
X358069523Y-144832619D02*
X357450476Y-144832619D01*
X357450476Y-144832619D02*
X357783809Y-145213571D01*
X357783809Y-145213571D02*
X357640952Y-145213571D01*
X357640952Y-145213571D02*
X357545714Y-145261190D01*
X357545714Y-145261190D02*
X357498095Y-145308809D01*
X357498095Y-145308809D02*
X357450476Y-145404047D01*
X357450476Y-145404047D02*
X357450476Y-145642142D01*
X357450476Y-145642142D02*
X357498095Y-145737380D01*
X357498095Y-145737380D02*
X357545714Y-145785000D01*
X357545714Y-145785000D02*
X357640952Y-145832619D01*
X357640952Y-145832619D02*
X357926666Y-145832619D01*
X357926666Y-145832619D02*
X358021904Y-145785000D01*
X358021904Y-145785000D02*
X358069523Y-145737380D01*
X356831428Y-144832619D02*
X356736190Y-144832619D01*
X356736190Y-144832619D02*
X356640952Y-144880238D01*
X356640952Y-144880238D02*
X356593333Y-144927857D01*
X356593333Y-144927857D02*
X356545714Y-145023095D01*
X356545714Y-145023095D02*
X356498095Y-145213571D01*
X356498095Y-145213571D02*
X356498095Y-145451666D01*
X356498095Y-145451666D02*
X356545714Y-145642142D01*
X356545714Y-145642142D02*
X356593333Y-145737380D01*
X356593333Y-145737380D02*
X356640952Y-145785000D01*
X356640952Y-145785000D02*
X356736190Y-145832619D01*
X356736190Y-145832619D02*
X356831428Y-145832619D01*
X356831428Y-145832619D02*
X356926666Y-145785000D01*
X356926666Y-145785000D02*
X356974285Y-145737380D01*
X356974285Y-145737380D02*
X357021904Y-145642142D01*
X357021904Y-145642142D02*
X357069523Y-145451666D01*
X357069523Y-145451666D02*
X357069523Y-145213571D01*
X357069523Y-145213571D02*
X357021904Y-145023095D01*
X357021904Y-145023095D02*
X356974285Y-144927857D01*
X356974285Y-144927857D02*
X356926666Y-144880238D01*
X356926666Y-144880238D02*
X356831428Y-144832619D01*
%TO.C,R25*%
X352942619Y-158527142D02*
X352466428Y-158193809D01*
X352942619Y-157955714D02*
X351942619Y-157955714D01*
X351942619Y-157955714D02*
X351942619Y-158336666D01*
X351942619Y-158336666D02*
X351990238Y-158431904D01*
X351990238Y-158431904D02*
X352037857Y-158479523D01*
X352037857Y-158479523D02*
X352133095Y-158527142D01*
X352133095Y-158527142D02*
X352275952Y-158527142D01*
X352275952Y-158527142D02*
X352371190Y-158479523D01*
X352371190Y-158479523D02*
X352418809Y-158431904D01*
X352418809Y-158431904D02*
X352466428Y-158336666D01*
X352466428Y-158336666D02*
X352466428Y-157955714D01*
X352037857Y-158908095D02*
X351990238Y-158955714D01*
X351990238Y-158955714D02*
X351942619Y-159050952D01*
X351942619Y-159050952D02*
X351942619Y-159289047D01*
X351942619Y-159289047D02*
X351990238Y-159384285D01*
X351990238Y-159384285D02*
X352037857Y-159431904D01*
X352037857Y-159431904D02*
X352133095Y-159479523D01*
X352133095Y-159479523D02*
X352228333Y-159479523D01*
X352228333Y-159479523D02*
X352371190Y-159431904D01*
X352371190Y-159431904D02*
X352942619Y-158860476D01*
X352942619Y-158860476D02*
X352942619Y-159479523D01*
X351942619Y-160384285D02*
X351942619Y-159908095D01*
X351942619Y-159908095D02*
X352418809Y-159860476D01*
X352418809Y-159860476D02*
X352371190Y-159908095D01*
X352371190Y-159908095D02*
X352323571Y-160003333D01*
X352323571Y-160003333D02*
X352323571Y-160241428D01*
X352323571Y-160241428D02*
X352371190Y-160336666D01*
X352371190Y-160336666D02*
X352418809Y-160384285D01*
X352418809Y-160384285D02*
X352514047Y-160431904D01*
X352514047Y-160431904D02*
X352752142Y-160431904D01*
X352752142Y-160431904D02*
X352847380Y-160384285D01*
X352847380Y-160384285D02*
X352895000Y-160336666D01*
X352895000Y-160336666D02*
X352942619Y-160241428D01*
X352942619Y-160241428D02*
X352942619Y-160003333D01*
X352942619Y-160003333D02*
X352895000Y-159908095D01*
X352895000Y-159908095D02*
X352847380Y-159860476D01*
%TO.C,R24*%
X350162619Y-158547142D02*
X349686428Y-158213809D01*
X350162619Y-157975714D02*
X349162619Y-157975714D01*
X349162619Y-157975714D02*
X349162619Y-158356666D01*
X349162619Y-158356666D02*
X349210238Y-158451904D01*
X349210238Y-158451904D02*
X349257857Y-158499523D01*
X349257857Y-158499523D02*
X349353095Y-158547142D01*
X349353095Y-158547142D02*
X349495952Y-158547142D01*
X349495952Y-158547142D02*
X349591190Y-158499523D01*
X349591190Y-158499523D02*
X349638809Y-158451904D01*
X349638809Y-158451904D02*
X349686428Y-158356666D01*
X349686428Y-158356666D02*
X349686428Y-157975714D01*
X349257857Y-158928095D02*
X349210238Y-158975714D01*
X349210238Y-158975714D02*
X349162619Y-159070952D01*
X349162619Y-159070952D02*
X349162619Y-159309047D01*
X349162619Y-159309047D02*
X349210238Y-159404285D01*
X349210238Y-159404285D02*
X349257857Y-159451904D01*
X349257857Y-159451904D02*
X349353095Y-159499523D01*
X349353095Y-159499523D02*
X349448333Y-159499523D01*
X349448333Y-159499523D02*
X349591190Y-159451904D01*
X349591190Y-159451904D02*
X350162619Y-158880476D01*
X350162619Y-158880476D02*
X350162619Y-159499523D01*
X349495952Y-160356666D02*
X350162619Y-160356666D01*
X349115000Y-160118571D02*
X349829285Y-159880476D01*
X349829285Y-159880476D02*
X349829285Y-160499523D01*
%TO.C,R23*%
X322432619Y-98607142D02*
X321956428Y-98273809D01*
X322432619Y-98035714D02*
X321432619Y-98035714D01*
X321432619Y-98035714D02*
X321432619Y-98416666D01*
X321432619Y-98416666D02*
X321480238Y-98511904D01*
X321480238Y-98511904D02*
X321527857Y-98559523D01*
X321527857Y-98559523D02*
X321623095Y-98607142D01*
X321623095Y-98607142D02*
X321765952Y-98607142D01*
X321765952Y-98607142D02*
X321861190Y-98559523D01*
X321861190Y-98559523D02*
X321908809Y-98511904D01*
X321908809Y-98511904D02*
X321956428Y-98416666D01*
X321956428Y-98416666D02*
X321956428Y-98035714D01*
X321527857Y-98988095D02*
X321480238Y-99035714D01*
X321480238Y-99035714D02*
X321432619Y-99130952D01*
X321432619Y-99130952D02*
X321432619Y-99369047D01*
X321432619Y-99369047D02*
X321480238Y-99464285D01*
X321480238Y-99464285D02*
X321527857Y-99511904D01*
X321527857Y-99511904D02*
X321623095Y-99559523D01*
X321623095Y-99559523D02*
X321718333Y-99559523D01*
X321718333Y-99559523D02*
X321861190Y-99511904D01*
X321861190Y-99511904D02*
X322432619Y-98940476D01*
X322432619Y-98940476D02*
X322432619Y-99559523D01*
X321432619Y-99892857D02*
X321432619Y-100511904D01*
X321432619Y-100511904D02*
X321813571Y-100178571D01*
X321813571Y-100178571D02*
X321813571Y-100321428D01*
X321813571Y-100321428D02*
X321861190Y-100416666D01*
X321861190Y-100416666D02*
X321908809Y-100464285D01*
X321908809Y-100464285D02*
X322004047Y-100511904D01*
X322004047Y-100511904D02*
X322242142Y-100511904D01*
X322242142Y-100511904D02*
X322337380Y-100464285D01*
X322337380Y-100464285D02*
X322385000Y-100416666D01*
X322385000Y-100416666D02*
X322432619Y-100321428D01*
X322432619Y-100321428D02*
X322432619Y-100035714D01*
X322432619Y-100035714D02*
X322385000Y-99940476D01*
X322385000Y-99940476D02*
X322337380Y-99892857D01*
%TO.C,R20*%
X324892619Y-98597142D02*
X324416428Y-98263809D01*
X324892619Y-98025714D02*
X323892619Y-98025714D01*
X323892619Y-98025714D02*
X323892619Y-98406666D01*
X323892619Y-98406666D02*
X323940238Y-98501904D01*
X323940238Y-98501904D02*
X323987857Y-98549523D01*
X323987857Y-98549523D02*
X324083095Y-98597142D01*
X324083095Y-98597142D02*
X324225952Y-98597142D01*
X324225952Y-98597142D02*
X324321190Y-98549523D01*
X324321190Y-98549523D02*
X324368809Y-98501904D01*
X324368809Y-98501904D02*
X324416428Y-98406666D01*
X324416428Y-98406666D02*
X324416428Y-98025714D01*
X323987857Y-98978095D02*
X323940238Y-99025714D01*
X323940238Y-99025714D02*
X323892619Y-99120952D01*
X323892619Y-99120952D02*
X323892619Y-99359047D01*
X323892619Y-99359047D02*
X323940238Y-99454285D01*
X323940238Y-99454285D02*
X323987857Y-99501904D01*
X323987857Y-99501904D02*
X324083095Y-99549523D01*
X324083095Y-99549523D02*
X324178333Y-99549523D01*
X324178333Y-99549523D02*
X324321190Y-99501904D01*
X324321190Y-99501904D02*
X324892619Y-98930476D01*
X324892619Y-98930476D02*
X324892619Y-99549523D01*
X323892619Y-100168571D02*
X323892619Y-100263809D01*
X323892619Y-100263809D02*
X323940238Y-100359047D01*
X323940238Y-100359047D02*
X323987857Y-100406666D01*
X323987857Y-100406666D02*
X324083095Y-100454285D01*
X324083095Y-100454285D02*
X324273571Y-100501904D01*
X324273571Y-100501904D02*
X324511666Y-100501904D01*
X324511666Y-100501904D02*
X324702142Y-100454285D01*
X324702142Y-100454285D02*
X324797380Y-100406666D01*
X324797380Y-100406666D02*
X324845000Y-100359047D01*
X324845000Y-100359047D02*
X324892619Y-100263809D01*
X324892619Y-100263809D02*
X324892619Y-100168571D01*
X324892619Y-100168571D02*
X324845000Y-100073333D01*
X324845000Y-100073333D02*
X324797380Y-100025714D01*
X324797380Y-100025714D02*
X324702142Y-99978095D01*
X324702142Y-99978095D02*
X324511666Y-99930476D01*
X324511666Y-99930476D02*
X324273571Y-99930476D01*
X324273571Y-99930476D02*
X324083095Y-99978095D01*
X324083095Y-99978095D02*
X323987857Y-100025714D01*
X323987857Y-100025714D02*
X323940238Y-100073333D01*
X323940238Y-100073333D02*
X323892619Y-100168571D01*
%TO.C,R19*%
X358412857Y-143592619D02*
X358746190Y-143116428D01*
X358984285Y-143592619D02*
X358984285Y-142592619D01*
X358984285Y-142592619D02*
X358603333Y-142592619D01*
X358603333Y-142592619D02*
X358508095Y-142640238D01*
X358508095Y-142640238D02*
X358460476Y-142687857D01*
X358460476Y-142687857D02*
X358412857Y-142783095D01*
X358412857Y-142783095D02*
X358412857Y-142925952D01*
X358412857Y-142925952D02*
X358460476Y-143021190D01*
X358460476Y-143021190D02*
X358508095Y-143068809D01*
X358508095Y-143068809D02*
X358603333Y-143116428D01*
X358603333Y-143116428D02*
X358984285Y-143116428D01*
X357460476Y-143592619D02*
X358031904Y-143592619D01*
X357746190Y-143592619D02*
X357746190Y-142592619D01*
X357746190Y-142592619D02*
X357841428Y-142735476D01*
X357841428Y-142735476D02*
X357936666Y-142830714D01*
X357936666Y-142830714D02*
X358031904Y-142878333D01*
X356984285Y-143592619D02*
X356793809Y-143592619D01*
X356793809Y-143592619D02*
X356698571Y-143545000D01*
X356698571Y-143545000D02*
X356650952Y-143497380D01*
X356650952Y-143497380D02*
X356555714Y-143354523D01*
X356555714Y-143354523D02*
X356508095Y-143164047D01*
X356508095Y-143164047D02*
X356508095Y-142783095D01*
X356508095Y-142783095D02*
X356555714Y-142687857D01*
X356555714Y-142687857D02*
X356603333Y-142640238D01*
X356603333Y-142640238D02*
X356698571Y-142592619D01*
X356698571Y-142592619D02*
X356889047Y-142592619D01*
X356889047Y-142592619D02*
X356984285Y-142640238D01*
X356984285Y-142640238D02*
X357031904Y-142687857D01*
X357031904Y-142687857D02*
X357079523Y-142783095D01*
X357079523Y-142783095D02*
X357079523Y-143021190D01*
X357079523Y-143021190D02*
X357031904Y-143116428D01*
X357031904Y-143116428D02*
X356984285Y-143164047D01*
X356984285Y-143164047D02*
X356889047Y-143211666D01*
X356889047Y-143211666D02*
X356698571Y-143211666D01*
X356698571Y-143211666D02*
X356603333Y-143164047D01*
X356603333Y-143164047D02*
X356555714Y-143116428D01*
X356555714Y-143116428D02*
X356508095Y-143021190D01*
%TO.C,R14*%
X356152619Y-129757142D02*
X355676428Y-129423809D01*
X356152619Y-129185714D02*
X355152619Y-129185714D01*
X355152619Y-129185714D02*
X355152619Y-129566666D01*
X355152619Y-129566666D02*
X355200238Y-129661904D01*
X355200238Y-129661904D02*
X355247857Y-129709523D01*
X355247857Y-129709523D02*
X355343095Y-129757142D01*
X355343095Y-129757142D02*
X355485952Y-129757142D01*
X355485952Y-129757142D02*
X355581190Y-129709523D01*
X355581190Y-129709523D02*
X355628809Y-129661904D01*
X355628809Y-129661904D02*
X355676428Y-129566666D01*
X355676428Y-129566666D02*
X355676428Y-129185714D01*
X356152619Y-130709523D02*
X356152619Y-130138095D01*
X356152619Y-130423809D02*
X355152619Y-130423809D01*
X355152619Y-130423809D02*
X355295476Y-130328571D01*
X355295476Y-130328571D02*
X355390714Y-130233333D01*
X355390714Y-130233333D02*
X355438333Y-130138095D01*
X355485952Y-131566666D02*
X356152619Y-131566666D01*
X355105000Y-131328571D02*
X355819285Y-131090476D01*
X355819285Y-131090476D02*
X355819285Y-131709523D01*
%TO.C,R13*%
X333962619Y-103057142D02*
X333486428Y-102723809D01*
X333962619Y-102485714D02*
X332962619Y-102485714D01*
X332962619Y-102485714D02*
X332962619Y-102866666D01*
X332962619Y-102866666D02*
X333010238Y-102961904D01*
X333010238Y-102961904D02*
X333057857Y-103009523D01*
X333057857Y-103009523D02*
X333153095Y-103057142D01*
X333153095Y-103057142D02*
X333295952Y-103057142D01*
X333295952Y-103057142D02*
X333391190Y-103009523D01*
X333391190Y-103009523D02*
X333438809Y-102961904D01*
X333438809Y-102961904D02*
X333486428Y-102866666D01*
X333486428Y-102866666D02*
X333486428Y-102485714D01*
X333962619Y-104009523D02*
X333962619Y-103438095D01*
X333962619Y-103723809D02*
X332962619Y-103723809D01*
X332962619Y-103723809D02*
X333105476Y-103628571D01*
X333105476Y-103628571D02*
X333200714Y-103533333D01*
X333200714Y-103533333D02*
X333248333Y-103438095D01*
X332962619Y-104342857D02*
X332962619Y-104961904D01*
X332962619Y-104961904D02*
X333343571Y-104628571D01*
X333343571Y-104628571D02*
X333343571Y-104771428D01*
X333343571Y-104771428D02*
X333391190Y-104866666D01*
X333391190Y-104866666D02*
X333438809Y-104914285D01*
X333438809Y-104914285D02*
X333534047Y-104961904D01*
X333534047Y-104961904D02*
X333772142Y-104961904D01*
X333772142Y-104961904D02*
X333867380Y-104914285D01*
X333867380Y-104914285D02*
X333915000Y-104866666D01*
X333915000Y-104866666D02*
X333962619Y-104771428D01*
X333962619Y-104771428D02*
X333962619Y-104485714D01*
X333962619Y-104485714D02*
X333915000Y-104390476D01*
X333915000Y-104390476D02*
X333867380Y-104342857D01*
%TO.C,R9*%
X353466666Y-141492619D02*
X353799999Y-141016428D01*
X354038094Y-141492619D02*
X354038094Y-140492619D01*
X354038094Y-140492619D02*
X353657142Y-140492619D01*
X353657142Y-140492619D02*
X353561904Y-140540238D01*
X353561904Y-140540238D02*
X353514285Y-140587857D01*
X353514285Y-140587857D02*
X353466666Y-140683095D01*
X353466666Y-140683095D02*
X353466666Y-140825952D01*
X353466666Y-140825952D02*
X353514285Y-140921190D01*
X353514285Y-140921190D02*
X353561904Y-140968809D01*
X353561904Y-140968809D02*
X353657142Y-141016428D01*
X353657142Y-141016428D02*
X354038094Y-141016428D01*
X352990475Y-141492619D02*
X352799999Y-141492619D01*
X352799999Y-141492619D02*
X352704761Y-141445000D01*
X352704761Y-141445000D02*
X352657142Y-141397380D01*
X352657142Y-141397380D02*
X352561904Y-141254523D01*
X352561904Y-141254523D02*
X352514285Y-141064047D01*
X352514285Y-141064047D02*
X352514285Y-140683095D01*
X352514285Y-140683095D02*
X352561904Y-140587857D01*
X352561904Y-140587857D02*
X352609523Y-140540238D01*
X352609523Y-140540238D02*
X352704761Y-140492619D01*
X352704761Y-140492619D02*
X352895237Y-140492619D01*
X352895237Y-140492619D02*
X352990475Y-140540238D01*
X352990475Y-140540238D02*
X353038094Y-140587857D01*
X353038094Y-140587857D02*
X353085713Y-140683095D01*
X353085713Y-140683095D02*
X353085713Y-140921190D01*
X353085713Y-140921190D02*
X353038094Y-141016428D01*
X353038094Y-141016428D02*
X352990475Y-141064047D01*
X352990475Y-141064047D02*
X352895237Y-141111666D01*
X352895237Y-141111666D02*
X352704761Y-141111666D01*
X352704761Y-141111666D02*
X352609523Y-141064047D01*
X352609523Y-141064047D02*
X352561904Y-141016428D01*
X352561904Y-141016428D02*
X352514285Y-140921190D01*
%TO.C,R8*%
X352192619Y-121733333D02*
X351716428Y-121400000D01*
X352192619Y-121161905D02*
X351192619Y-121161905D01*
X351192619Y-121161905D02*
X351192619Y-121542857D01*
X351192619Y-121542857D02*
X351240238Y-121638095D01*
X351240238Y-121638095D02*
X351287857Y-121685714D01*
X351287857Y-121685714D02*
X351383095Y-121733333D01*
X351383095Y-121733333D02*
X351525952Y-121733333D01*
X351525952Y-121733333D02*
X351621190Y-121685714D01*
X351621190Y-121685714D02*
X351668809Y-121638095D01*
X351668809Y-121638095D02*
X351716428Y-121542857D01*
X351716428Y-121542857D02*
X351716428Y-121161905D01*
X351621190Y-122304762D02*
X351573571Y-122209524D01*
X351573571Y-122209524D02*
X351525952Y-122161905D01*
X351525952Y-122161905D02*
X351430714Y-122114286D01*
X351430714Y-122114286D02*
X351383095Y-122114286D01*
X351383095Y-122114286D02*
X351287857Y-122161905D01*
X351287857Y-122161905D02*
X351240238Y-122209524D01*
X351240238Y-122209524D02*
X351192619Y-122304762D01*
X351192619Y-122304762D02*
X351192619Y-122495238D01*
X351192619Y-122495238D02*
X351240238Y-122590476D01*
X351240238Y-122590476D02*
X351287857Y-122638095D01*
X351287857Y-122638095D02*
X351383095Y-122685714D01*
X351383095Y-122685714D02*
X351430714Y-122685714D01*
X351430714Y-122685714D02*
X351525952Y-122638095D01*
X351525952Y-122638095D02*
X351573571Y-122590476D01*
X351573571Y-122590476D02*
X351621190Y-122495238D01*
X351621190Y-122495238D02*
X351621190Y-122304762D01*
X351621190Y-122304762D02*
X351668809Y-122209524D01*
X351668809Y-122209524D02*
X351716428Y-122161905D01*
X351716428Y-122161905D02*
X351811666Y-122114286D01*
X351811666Y-122114286D02*
X352002142Y-122114286D01*
X352002142Y-122114286D02*
X352097380Y-122161905D01*
X352097380Y-122161905D02*
X352145000Y-122209524D01*
X352145000Y-122209524D02*
X352192619Y-122304762D01*
X352192619Y-122304762D02*
X352192619Y-122495238D01*
X352192619Y-122495238D02*
X352145000Y-122590476D01*
X352145000Y-122590476D02*
X352097380Y-122638095D01*
X352097380Y-122638095D02*
X352002142Y-122685714D01*
X352002142Y-122685714D02*
X351811666Y-122685714D01*
X351811666Y-122685714D02*
X351716428Y-122638095D01*
X351716428Y-122638095D02*
X351668809Y-122590476D01*
X351668809Y-122590476D02*
X351621190Y-122495238D01*
%TO.C,R7*%
X339492619Y-116933333D02*
X339016428Y-116600000D01*
X339492619Y-116361905D02*
X338492619Y-116361905D01*
X338492619Y-116361905D02*
X338492619Y-116742857D01*
X338492619Y-116742857D02*
X338540238Y-116838095D01*
X338540238Y-116838095D02*
X338587857Y-116885714D01*
X338587857Y-116885714D02*
X338683095Y-116933333D01*
X338683095Y-116933333D02*
X338825952Y-116933333D01*
X338825952Y-116933333D02*
X338921190Y-116885714D01*
X338921190Y-116885714D02*
X338968809Y-116838095D01*
X338968809Y-116838095D02*
X339016428Y-116742857D01*
X339016428Y-116742857D02*
X339016428Y-116361905D01*
X338492619Y-117266667D02*
X338492619Y-117933333D01*
X338492619Y-117933333D02*
X339492619Y-117504762D01*
%TO.C,R5*%
X353454166Y-140762619D02*
X353787499Y-140286428D01*
X354025594Y-140762619D02*
X354025594Y-139762619D01*
X354025594Y-139762619D02*
X353644642Y-139762619D01*
X353644642Y-139762619D02*
X353549404Y-139810238D01*
X353549404Y-139810238D02*
X353501785Y-139857857D01*
X353501785Y-139857857D02*
X353454166Y-139953095D01*
X353454166Y-139953095D02*
X353454166Y-140095952D01*
X353454166Y-140095952D02*
X353501785Y-140191190D01*
X353501785Y-140191190D02*
X353549404Y-140238809D01*
X353549404Y-140238809D02*
X353644642Y-140286428D01*
X353644642Y-140286428D02*
X354025594Y-140286428D01*
X352549404Y-139762619D02*
X353025594Y-139762619D01*
X353025594Y-139762619D02*
X353073213Y-140238809D01*
X353073213Y-140238809D02*
X353025594Y-140191190D01*
X353025594Y-140191190D02*
X352930356Y-140143571D01*
X352930356Y-140143571D02*
X352692261Y-140143571D01*
X352692261Y-140143571D02*
X352597023Y-140191190D01*
X352597023Y-140191190D02*
X352549404Y-140238809D01*
X352549404Y-140238809D02*
X352501785Y-140334047D01*
X352501785Y-140334047D02*
X352501785Y-140572142D01*
X352501785Y-140572142D02*
X352549404Y-140667380D01*
X352549404Y-140667380D02*
X352597023Y-140715000D01*
X352597023Y-140715000D02*
X352692261Y-140762619D01*
X352692261Y-140762619D02*
X352930356Y-140762619D01*
X352930356Y-140762619D02*
X353025594Y-140715000D01*
X353025594Y-140715000D02*
X353073213Y-140667380D01*
%TO.C,R4*%
X347566666Y-124192619D02*
X347899999Y-123716428D01*
X348138094Y-124192619D02*
X348138094Y-123192619D01*
X348138094Y-123192619D02*
X347757142Y-123192619D01*
X347757142Y-123192619D02*
X347661904Y-123240238D01*
X347661904Y-123240238D02*
X347614285Y-123287857D01*
X347614285Y-123287857D02*
X347566666Y-123383095D01*
X347566666Y-123383095D02*
X347566666Y-123525952D01*
X347566666Y-123525952D02*
X347614285Y-123621190D01*
X347614285Y-123621190D02*
X347661904Y-123668809D01*
X347661904Y-123668809D02*
X347757142Y-123716428D01*
X347757142Y-123716428D02*
X348138094Y-123716428D01*
X346709523Y-123525952D02*
X346709523Y-124192619D01*
X346947618Y-123145000D02*
X347185713Y-123859285D01*
X347185713Y-123859285D02*
X346566666Y-123859285D01*
%TO.C,R2*%
X357202619Y-157483333D02*
X356726428Y-157150000D01*
X357202619Y-156911905D02*
X356202619Y-156911905D01*
X356202619Y-156911905D02*
X356202619Y-157292857D01*
X356202619Y-157292857D02*
X356250238Y-157388095D01*
X356250238Y-157388095D02*
X356297857Y-157435714D01*
X356297857Y-157435714D02*
X356393095Y-157483333D01*
X356393095Y-157483333D02*
X356535952Y-157483333D01*
X356535952Y-157483333D02*
X356631190Y-157435714D01*
X356631190Y-157435714D02*
X356678809Y-157388095D01*
X356678809Y-157388095D02*
X356726428Y-157292857D01*
X356726428Y-157292857D02*
X356726428Y-156911905D01*
X356297857Y-157864286D02*
X356250238Y-157911905D01*
X356250238Y-157911905D02*
X356202619Y-158007143D01*
X356202619Y-158007143D02*
X356202619Y-158245238D01*
X356202619Y-158245238D02*
X356250238Y-158340476D01*
X356250238Y-158340476D02*
X356297857Y-158388095D01*
X356297857Y-158388095D02*
X356393095Y-158435714D01*
X356393095Y-158435714D02*
X356488333Y-158435714D01*
X356488333Y-158435714D02*
X356631190Y-158388095D01*
X356631190Y-158388095D02*
X357202619Y-157816667D01*
X357202619Y-157816667D02*
X357202619Y-158435714D01*
%TO.C,R1*%
X345054166Y-138032619D02*
X345387499Y-137556428D01*
X345625594Y-138032619D02*
X345625594Y-137032619D01*
X345625594Y-137032619D02*
X345244642Y-137032619D01*
X345244642Y-137032619D02*
X345149404Y-137080238D01*
X345149404Y-137080238D02*
X345101785Y-137127857D01*
X345101785Y-137127857D02*
X345054166Y-137223095D01*
X345054166Y-137223095D02*
X345054166Y-137365952D01*
X345054166Y-137365952D02*
X345101785Y-137461190D01*
X345101785Y-137461190D02*
X345149404Y-137508809D01*
X345149404Y-137508809D02*
X345244642Y-137556428D01*
X345244642Y-137556428D02*
X345625594Y-137556428D01*
X344101785Y-138032619D02*
X344673213Y-138032619D01*
X344387499Y-138032619D02*
X344387499Y-137032619D01*
X344387499Y-137032619D02*
X344482737Y-137175476D01*
X344482737Y-137175476D02*
X344577975Y-137270714D01*
X344577975Y-137270714D02*
X344673213Y-137318333D01*
%TO.C,L2*%
X353783333Y-149067380D02*
X353307143Y-149067380D01*
X353307143Y-149067380D02*
X353307143Y-150067380D01*
X354069048Y-149972142D02*
X354116667Y-150019761D01*
X354116667Y-150019761D02*
X354211905Y-150067380D01*
X354211905Y-150067380D02*
X354450000Y-150067380D01*
X354450000Y-150067380D02*
X354545238Y-150019761D01*
X354545238Y-150019761D02*
X354592857Y-149972142D01*
X354592857Y-149972142D02*
X354640476Y-149876904D01*
X354640476Y-149876904D02*
X354640476Y-149781666D01*
X354640476Y-149781666D02*
X354592857Y-149638809D01*
X354592857Y-149638809D02*
X354021429Y-149067380D01*
X354021429Y-149067380D02*
X354640476Y-149067380D01*
%TO.C,J8*%
X379669326Y-199707921D02*
X380174402Y-200212998D01*
X380174402Y-200212998D02*
X380309089Y-200280341D01*
X380309089Y-200280341D02*
X380443776Y-200280341D01*
X380443776Y-200280341D02*
X380578463Y-200212998D01*
X380578463Y-200212998D02*
X380645807Y-200145654D01*
X379534639Y-200448700D02*
X379568311Y-200347685D01*
X379568311Y-200347685D02*
X379568311Y-200280341D01*
X379568311Y-200280341D02*
X379534639Y-200179326D01*
X379534639Y-200179326D02*
X379500967Y-200145654D01*
X379500967Y-200145654D02*
X379399952Y-200111983D01*
X379399952Y-200111983D02*
X379332608Y-200111983D01*
X379332608Y-200111983D02*
X379231593Y-200145654D01*
X379231593Y-200145654D02*
X379096906Y-200280341D01*
X379096906Y-200280341D02*
X379063234Y-200381357D01*
X379063234Y-200381357D02*
X379063234Y-200448700D01*
X379063234Y-200448700D02*
X379096906Y-200549715D01*
X379096906Y-200549715D02*
X379130578Y-200583387D01*
X379130578Y-200583387D02*
X379231593Y-200617059D01*
X379231593Y-200617059D02*
X379298937Y-200617059D01*
X379298937Y-200617059D02*
X379399952Y-200583387D01*
X379399952Y-200583387D02*
X379534639Y-200448700D01*
X379534639Y-200448700D02*
X379635654Y-200415028D01*
X379635654Y-200415028D02*
X379702998Y-200415028D01*
X379702998Y-200415028D02*
X379804013Y-200448700D01*
X379804013Y-200448700D02*
X379938700Y-200583387D01*
X379938700Y-200583387D02*
X379972372Y-200684402D01*
X379972372Y-200684402D02*
X379972372Y-200751746D01*
X379972372Y-200751746D02*
X379938700Y-200852761D01*
X379938700Y-200852761D02*
X379804013Y-200987448D01*
X379804013Y-200987448D02*
X379702998Y-201021120D01*
X379702998Y-201021120D02*
X379635654Y-201021120D01*
X379635654Y-201021120D02*
X379534639Y-200987448D01*
X379534639Y-200987448D02*
X379399952Y-200852761D01*
X379399952Y-200852761D02*
X379366280Y-200751746D01*
X379366280Y-200751746D02*
X379366280Y-200684402D01*
X379366280Y-200684402D02*
X379399952Y-200583387D01*
%TO.C,J6*%
X332823333Y-101557619D02*
X332823333Y-102271904D01*
X332823333Y-102271904D02*
X332870952Y-102414761D01*
X332870952Y-102414761D02*
X332966190Y-102510000D01*
X332966190Y-102510000D02*
X333109047Y-102557619D01*
X333109047Y-102557619D02*
X333204285Y-102557619D01*
X331918571Y-101557619D02*
X332109047Y-101557619D01*
X332109047Y-101557619D02*
X332204285Y-101605238D01*
X332204285Y-101605238D02*
X332251904Y-101652857D01*
X332251904Y-101652857D02*
X332347142Y-101795714D01*
X332347142Y-101795714D02*
X332394761Y-101986190D01*
X332394761Y-101986190D02*
X332394761Y-102367142D01*
X332394761Y-102367142D02*
X332347142Y-102462380D01*
X332347142Y-102462380D02*
X332299523Y-102510000D01*
X332299523Y-102510000D02*
X332204285Y-102557619D01*
X332204285Y-102557619D02*
X332013809Y-102557619D01*
X332013809Y-102557619D02*
X331918571Y-102510000D01*
X331918571Y-102510000D02*
X331870952Y-102462380D01*
X331870952Y-102462380D02*
X331823333Y-102367142D01*
X331823333Y-102367142D02*
X331823333Y-102129047D01*
X331823333Y-102129047D02*
X331870952Y-102033809D01*
X331870952Y-102033809D02*
X331918571Y-101986190D01*
X331918571Y-101986190D02*
X332013809Y-101938571D01*
X332013809Y-101938571D02*
X332204285Y-101938571D01*
X332204285Y-101938571D02*
X332299523Y-101986190D01*
X332299523Y-101986190D02*
X332347142Y-102033809D01*
X332347142Y-102033809D02*
X332394761Y-102129047D01*
%TO.C,J1*%
X349103333Y-138172619D02*
X349103333Y-138886904D01*
X349103333Y-138886904D02*
X349150952Y-139029761D01*
X349150952Y-139029761D02*
X349246190Y-139125000D01*
X349246190Y-139125000D02*
X349389047Y-139172619D01*
X349389047Y-139172619D02*
X349484285Y-139172619D01*
X348103333Y-139172619D02*
X348674761Y-139172619D01*
X348389047Y-139172619D02*
X348389047Y-138172619D01*
X348389047Y-138172619D02*
X348484285Y-138315476D01*
X348484285Y-138315476D02*
X348579523Y-138410714D01*
X348579523Y-138410714D02*
X348674761Y-138458333D01*
%TO.C,F4*%
X335888809Y-103306666D02*
X335888809Y-102973333D01*
X336412619Y-102973333D02*
X335412619Y-102973333D01*
X335412619Y-102973333D02*
X335412619Y-103449523D01*
X335745952Y-104259047D02*
X336412619Y-104259047D01*
X335365000Y-104020952D02*
X336079285Y-103782857D01*
X336079285Y-103782857D02*
X336079285Y-104401904D01*
%TO.C,F3*%
X355658809Y-134636666D02*
X355658809Y-134303333D01*
X356182619Y-134303333D02*
X355182619Y-134303333D01*
X355182619Y-134303333D02*
X355182619Y-134779523D01*
X355182619Y-135065238D02*
X355182619Y-135684285D01*
X355182619Y-135684285D02*
X355563571Y-135350952D01*
X355563571Y-135350952D02*
X355563571Y-135493809D01*
X355563571Y-135493809D02*
X355611190Y-135589047D01*
X355611190Y-135589047D02*
X355658809Y-135636666D01*
X355658809Y-135636666D02*
X355754047Y-135684285D01*
X355754047Y-135684285D02*
X355992142Y-135684285D01*
X355992142Y-135684285D02*
X356087380Y-135636666D01*
X356087380Y-135636666D02*
X356135000Y-135589047D01*
X356135000Y-135589047D02*
X356182619Y-135493809D01*
X356182619Y-135493809D02*
X356182619Y-135208095D01*
X356182619Y-135208095D02*
X356135000Y-135112857D01*
X356135000Y-135112857D02*
X356087380Y-135065238D01*
%TO.C,D32*%
X349614285Y-166647619D02*
X349614285Y-165647619D01*
X349614285Y-165647619D02*
X349376190Y-165647619D01*
X349376190Y-165647619D02*
X349233333Y-165695238D01*
X349233333Y-165695238D02*
X349138095Y-165790476D01*
X349138095Y-165790476D02*
X349090476Y-165885714D01*
X349090476Y-165885714D02*
X349042857Y-166076190D01*
X349042857Y-166076190D02*
X349042857Y-166219047D01*
X349042857Y-166219047D02*
X349090476Y-166409523D01*
X349090476Y-166409523D02*
X349138095Y-166504761D01*
X349138095Y-166504761D02*
X349233333Y-166600000D01*
X349233333Y-166600000D02*
X349376190Y-166647619D01*
X349376190Y-166647619D02*
X349614285Y-166647619D01*
X348709523Y-165647619D02*
X348090476Y-165647619D01*
X348090476Y-165647619D02*
X348423809Y-166028571D01*
X348423809Y-166028571D02*
X348280952Y-166028571D01*
X348280952Y-166028571D02*
X348185714Y-166076190D01*
X348185714Y-166076190D02*
X348138095Y-166123809D01*
X348138095Y-166123809D02*
X348090476Y-166219047D01*
X348090476Y-166219047D02*
X348090476Y-166457142D01*
X348090476Y-166457142D02*
X348138095Y-166552380D01*
X348138095Y-166552380D02*
X348185714Y-166600000D01*
X348185714Y-166600000D02*
X348280952Y-166647619D01*
X348280952Y-166647619D02*
X348566666Y-166647619D01*
X348566666Y-166647619D02*
X348661904Y-166600000D01*
X348661904Y-166600000D02*
X348709523Y-166552380D01*
X347709523Y-165742857D02*
X347661904Y-165695238D01*
X347661904Y-165695238D02*
X347566666Y-165647619D01*
X347566666Y-165647619D02*
X347328571Y-165647619D01*
X347328571Y-165647619D02*
X347233333Y-165695238D01*
X347233333Y-165695238D02*
X347185714Y-165742857D01*
X347185714Y-165742857D02*
X347138095Y-165838095D01*
X347138095Y-165838095D02*
X347138095Y-165933333D01*
X347138095Y-165933333D02*
X347185714Y-166076190D01*
X347185714Y-166076190D02*
X347757142Y-166647619D01*
X347757142Y-166647619D02*
X347138095Y-166647619D01*
%TO.C,D31*%
X349614285Y-157632619D02*
X349614285Y-156632619D01*
X349614285Y-156632619D02*
X349376190Y-156632619D01*
X349376190Y-156632619D02*
X349233333Y-156680238D01*
X349233333Y-156680238D02*
X349138095Y-156775476D01*
X349138095Y-156775476D02*
X349090476Y-156870714D01*
X349090476Y-156870714D02*
X349042857Y-157061190D01*
X349042857Y-157061190D02*
X349042857Y-157204047D01*
X349042857Y-157204047D02*
X349090476Y-157394523D01*
X349090476Y-157394523D02*
X349138095Y-157489761D01*
X349138095Y-157489761D02*
X349233333Y-157585000D01*
X349233333Y-157585000D02*
X349376190Y-157632619D01*
X349376190Y-157632619D02*
X349614285Y-157632619D01*
X348709523Y-156632619D02*
X348090476Y-156632619D01*
X348090476Y-156632619D02*
X348423809Y-157013571D01*
X348423809Y-157013571D02*
X348280952Y-157013571D01*
X348280952Y-157013571D02*
X348185714Y-157061190D01*
X348185714Y-157061190D02*
X348138095Y-157108809D01*
X348138095Y-157108809D02*
X348090476Y-157204047D01*
X348090476Y-157204047D02*
X348090476Y-157442142D01*
X348090476Y-157442142D02*
X348138095Y-157537380D01*
X348138095Y-157537380D02*
X348185714Y-157585000D01*
X348185714Y-157585000D02*
X348280952Y-157632619D01*
X348280952Y-157632619D02*
X348566666Y-157632619D01*
X348566666Y-157632619D02*
X348661904Y-157585000D01*
X348661904Y-157585000D02*
X348709523Y-157537380D01*
X347138095Y-157632619D02*
X347709523Y-157632619D01*
X347423809Y-157632619D02*
X347423809Y-156632619D01*
X347423809Y-156632619D02*
X347519047Y-156775476D01*
X347519047Y-156775476D02*
X347614285Y-156870714D01*
X347614285Y-156870714D02*
X347709523Y-156918333D01*
%TO.C,D30*%
X349624285Y-148632619D02*
X349624285Y-147632619D01*
X349624285Y-147632619D02*
X349386190Y-147632619D01*
X349386190Y-147632619D02*
X349243333Y-147680238D01*
X349243333Y-147680238D02*
X349148095Y-147775476D01*
X349148095Y-147775476D02*
X349100476Y-147870714D01*
X349100476Y-147870714D02*
X349052857Y-148061190D01*
X349052857Y-148061190D02*
X349052857Y-148204047D01*
X349052857Y-148204047D02*
X349100476Y-148394523D01*
X349100476Y-148394523D02*
X349148095Y-148489761D01*
X349148095Y-148489761D02*
X349243333Y-148585000D01*
X349243333Y-148585000D02*
X349386190Y-148632619D01*
X349386190Y-148632619D02*
X349624285Y-148632619D01*
X348719523Y-147632619D02*
X348100476Y-147632619D01*
X348100476Y-147632619D02*
X348433809Y-148013571D01*
X348433809Y-148013571D02*
X348290952Y-148013571D01*
X348290952Y-148013571D02*
X348195714Y-148061190D01*
X348195714Y-148061190D02*
X348148095Y-148108809D01*
X348148095Y-148108809D02*
X348100476Y-148204047D01*
X348100476Y-148204047D02*
X348100476Y-148442142D01*
X348100476Y-148442142D02*
X348148095Y-148537380D01*
X348148095Y-148537380D02*
X348195714Y-148585000D01*
X348195714Y-148585000D02*
X348290952Y-148632619D01*
X348290952Y-148632619D02*
X348576666Y-148632619D01*
X348576666Y-148632619D02*
X348671904Y-148585000D01*
X348671904Y-148585000D02*
X348719523Y-148537380D01*
X347481428Y-147632619D02*
X347386190Y-147632619D01*
X347386190Y-147632619D02*
X347290952Y-147680238D01*
X347290952Y-147680238D02*
X347243333Y-147727857D01*
X347243333Y-147727857D02*
X347195714Y-147823095D01*
X347195714Y-147823095D02*
X347148095Y-148013571D01*
X347148095Y-148013571D02*
X347148095Y-148251666D01*
X347148095Y-148251666D02*
X347195714Y-148442142D01*
X347195714Y-148442142D02*
X347243333Y-148537380D01*
X347243333Y-148537380D02*
X347290952Y-148585000D01*
X347290952Y-148585000D02*
X347386190Y-148632619D01*
X347386190Y-148632619D02*
X347481428Y-148632619D01*
X347481428Y-148632619D02*
X347576666Y-148585000D01*
X347576666Y-148585000D02*
X347624285Y-148537380D01*
X347624285Y-148537380D02*
X347671904Y-148442142D01*
X347671904Y-148442142D02*
X347719523Y-148251666D01*
X347719523Y-148251666D02*
X347719523Y-148013571D01*
X347719523Y-148013571D02*
X347671904Y-147823095D01*
X347671904Y-147823095D02*
X347624285Y-147727857D01*
X347624285Y-147727857D02*
X347576666Y-147680238D01*
X347576666Y-147680238D02*
X347481428Y-147632619D01*
%TO.C,C17*%
X359722857Y-154667380D02*
X359770476Y-154715000D01*
X359770476Y-154715000D02*
X359913333Y-154762619D01*
X359913333Y-154762619D02*
X360008571Y-154762619D01*
X360008571Y-154762619D02*
X360151428Y-154715000D01*
X360151428Y-154715000D02*
X360246666Y-154619761D01*
X360246666Y-154619761D02*
X360294285Y-154524523D01*
X360294285Y-154524523D02*
X360341904Y-154334047D01*
X360341904Y-154334047D02*
X360341904Y-154191190D01*
X360341904Y-154191190D02*
X360294285Y-154000714D01*
X360294285Y-154000714D02*
X360246666Y-153905476D01*
X360246666Y-153905476D02*
X360151428Y-153810238D01*
X360151428Y-153810238D02*
X360008571Y-153762619D01*
X360008571Y-153762619D02*
X359913333Y-153762619D01*
X359913333Y-153762619D02*
X359770476Y-153810238D01*
X359770476Y-153810238D02*
X359722857Y-153857857D01*
X358770476Y-154762619D02*
X359341904Y-154762619D01*
X359056190Y-154762619D02*
X359056190Y-153762619D01*
X359056190Y-153762619D02*
X359151428Y-153905476D01*
X359151428Y-153905476D02*
X359246666Y-154000714D01*
X359246666Y-154000714D02*
X359341904Y-154048333D01*
X358437142Y-153762619D02*
X357770476Y-153762619D01*
X357770476Y-153762619D02*
X358199047Y-154762619D01*
%TO.C,C16*%
X349317380Y-146087142D02*
X349365000Y-146039523D01*
X349365000Y-146039523D02*
X349412619Y-145896666D01*
X349412619Y-145896666D02*
X349412619Y-145801428D01*
X349412619Y-145801428D02*
X349365000Y-145658571D01*
X349365000Y-145658571D02*
X349269761Y-145563333D01*
X349269761Y-145563333D02*
X349174523Y-145515714D01*
X349174523Y-145515714D02*
X348984047Y-145468095D01*
X348984047Y-145468095D02*
X348841190Y-145468095D01*
X348841190Y-145468095D02*
X348650714Y-145515714D01*
X348650714Y-145515714D02*
X348555476Y-145563333D01*
X348555476Y-145563333D02*
X348460238Y-145658571D01*
X348460238Y-145658571D02*
X348412619Y-145801428D01*
X348412619Y-145801428D02*
X348412619Y-145896666D01*
X348412619Y-145896666D02*
X348460238Y-146039523D01*
X348460238Y-146039523D02*
X348507857Y-146087142D01*
X349412619Y-147039523D02*
X349412619Y-146468095D01*
X349412619Y-146753809D02*
X348412619Y-146753809D01*
X348412619Y-146753809D02*
X348555476Y-146658571D01*
X348555476Y-146658571D02*
X348650714Y-146563333D01*
X348650714Y-146563333D02*
X348698333Y-146468095D01*
X348412619Y-147896666D02*
X348412619Y-147706190D01*
X348412619Y-147706190D02*
X348460238Y-147610952D01*
X348460238Y-147610952D02*
X348507857Y-147563333D01*
X348507857Y-147563333D02*
X348650714Y-147468095D01*
X348650714Y-147468095D02*
X348841190Y-147420476D01*
X348841190Y-147420476D02*
X349222142Y-147420476D01*
X349222142Y-147420476D02*
X349317380Y-147468095D01*
X349317380Y-147468095D02*
X349365000Y-147515714D01*
X349365000Y-147515714D02*
X349412619Y-147610952D01*
X349412619Y-147610952D02*
X349412619Y-147801428D01*
X349412619Y-147801428D02*
X349365000Y-147896666D01*
X349365000Y-147896666D02*
X349317380Y-147944285D01*
X349317380Y-147944285D02*
X349222142Y-147991904D01*
X349222142Y-147991904D02*
X348984047Y-147991904D01*
X348984047Y-147991904D02*
X348888809Y-147944285D01*
X348888809Y-147944285D02*
X348841190Y-147896666D01*
X348841190Y-147896666D02*
X348793571Y-147801428D01*
X348793571Y-147801428D02*
X348793571Y-147610952D01*
X348793571Y-147610952D02*
X348841190Y-147515714D01*
X348841190Y-147515714D02*
X348888809Y-147468095D01*
X348888809Y-147468095D02*
X348984047Y-147420476D01*
%TO.C,C10*%
X350537380Y-125057142D02*
X350585000Y-125009523D01*
X350585000Y-125009523D02*
X350632619Y-124866666D01*
X350632619Y-124866666D02*
X350632619Y-124771428D01*
X350632619Y-124771428D02*
X350585000Y-124628571D01*
X350585000Y-124628571D02*
X350489761Y-124533333D01*
X350489761Y-124533333D02*
X350394523Y-124485714D01*
X350394523Y-124485714D02*
X350204047Y-124438095D01*
X350204047Y-124438095D02*
X350061190Y-124438095D01*
X350061190Y-124438095D02*
X349870714Y-124485714D01*
X349870714Y-124485714D02*
X349775476Y-124533333D01*
X349775476Y-124533333D02*
X349680238Y-124628571D01*
X349680238Y-124628571D02*
X349632619Y-124771428D01*
X349632619Y-124771428D02*
X349632619Y-124866666D01*
X349632619Y-124866666D02*
X349680238Y-125009523D01*
X349680238Y-125009523D02*
X349727857Y-125057142D01*
X350632619Y-126009523D02*
X350632619Y-125438095D01*
X350632619Y-125723809D02*
X349632619Y-125723809D01*
X349632619Y-125723809D02*
X349775476Y-125628571D01*
X349775476Y-125628571D02*
X349870714Y-125533333D01*
X349870714Y-125533333D02*
X349918333Y-125438095D01*
X349632619Y-126628571D02*
X349632619Y-126723809D01*
X349632619Y-126723809D02*
X349680238Y-126819047D01*
X349680238Y-126819047D02*
X349727857Y-126866666D01*
X349727857Y-126866666D02*
X349823095Y-126914285D01*
X349823095Y-126914285D02*
X350013571Y-126961904D01*
X350013571Y-126961904D02*
X350251666Y-126961904D01*
X350251666Y-126961904D02*
X350442142Y-126914285D01*
X350442142Y-126914285D02*
X350537380Y-126866666D01*
X350537380Y-126866666D02*
X350585000Y-126819047D01*
X350585000Y-126819047D02*
X350632619Y-126723809D01*
X350632619Y-126723809D02*
X350632619Y-126628571D01*
X350632619Y-126628571D02*
X350585000Y-126533333D01*
X350585000Y-126533333D02*
X350537380Y-126485714D01*
X350537380Y-126485714D02*
X350442142Y-126438095D01*
X350442142Y-126438095D02*
X350251666Y-126390476D01*
X350251666Y-126390476D02*
X350013571Y-126390476D01*
X350013571Y-126390476D02*
X349823095Y-126438095D01*
X349823095Y-126438095D02*
X349727857Y-126485714D01*
X349727857Y-126485714D02*
X349680238Y-126533333D01*
X349680238Y-126533333D02*
X349632619Y-126628571D01*
%TO.C,C7*%
X377862380Y-251578095D02*
X377910000Y-251530476D01*
X377910000Y-251530476D02*
X377957619Y-251387619D01*
X377957619Y-251387619D02*
X377957619Y-251292381D01*
X377957619Y-251292381D02*
X377910000Y-251149524D01*
X377910000Y-251149524D02*
X377814761Y-251054286D01*
X377814761Y-251054286D02*
X377719523Y-251006667D01*
X377719523Y-251006667D02*
X377529047Y-250959048D01*
X377529047Y-250959048D02*
X377386190Y-250959048D01*
X377386190Y-250959048D02*
X377195714Y-251006667D01*
X377195714Y-251006667D02*
X377100476Y-251054286D01*
X377100476Y-251054286D02*
X377005238Y-251149524D01*
X377005238Y-251149524D02*
X376957619Y-251292381D01*
X376957619Y-251292381D02*
X376957619Y-251387619D01*
X376957619Y-251387619D02*
X377005238Y-251530476D01*
X377005238Y-251530476D02*
X377052857Y-251578095D01*
X376957619Y-251911429D02*
X376957619Y-252578095D01*
X376957619Y-252578095D02*
X377957619Y-252149524D01*
%TO.C,C6*%
X349101666Y-188677380D02*
X349149285Y-188725000D01*
X349149285Y-188725000D02*
X349292142Y-188772619D01*
X349292142Y-188772619D02*
X349387380Y-188772619D01*
X349387380Y-188772619D02*
X349530237Y-188725000D01*
X349530237Y-188725000D02*
X349625475Y-188629761D01*
X349625475Y-188629761D02*
X349673094Y-188534523D01*
X349673094Y-188534523D02*
X349720713Y-188344047D01*
X349720713Y-188344047D02*
X349720713Y-188201190D01*
X349720713Y-188201190D02*
X349673094Y-188010714D01*
X349673094Y-188010714D02*
X349625475Y-187915476D01*
X349625475Y-187915476D02*
X349530237Y-187820238D01*
X349530237Y-187820238D02*
X349387380Y-187772619D01*
X349387380Y-187772619D02*
X349292142Y-187772619D01*
X349292142Y-187772619D02*
X349149285Y-187820238D01*
X349149285Y-187820238D02*
X349101666Y-187867857D01*
X348244523Y-187772619D02*
X348434999Y-187772619D01*
X348434999Y-187772619D02*
X348530237Y-187820238D01*
X348530237Y-187820238D02*
X348577856Y-187867857D01*
X348577856Y-187867857D02*
X348673094Y-188010714D01*
X348673094Y-188010714D02*
X348720713Y-188201190D01*
X348720713Y-188201190D02*
X348720713Y-188582142D01*
X348720713Y-188582142D02*
X348673094Y-188677380D01*
X348673094Y-188677380D02*
X348625475Y-188725000D01*
X348625475Y-188725000D02*
X348530237Y-188772619D01*
X348530237Y-188772619D02*
X348339761Y-188772619D01*
X348339761Y-188772619D02*
X348244523Y-188725000D01*
X348244523Y-188725000D02*
X348196904Y-188677380D01*
X348196904Y-188677380D02*
X348149285Y-188582142D01*
X348149285Y-188582142D02*
X348149285Y-188344047D01*
X348149285Y-188344047D02*
X348196904Y-188248809D01*
X348196904Y-188248809D02*
X348244523Y-188201190D01*
X348244523Y-188201190D02*
X348339761Y-188153571D01*
X348339761Y-188153571D02*
X348530237Y-188153571D01*
X348530237Y-188153571D02*
X348625475Y-188201190D01*
X348625475Y-188201190D02*
X348673094Y-188248809D01*
X348673094Y-188248809D02*
X348720713Y-188344047D01*
%TO.C,C5*%
X357966666Y-143137380D02*
X358014285Y-143185000D01*
X358014285Y-143185000D02*
X358157142Y-143232619D01*
X358157142Y-143232619D02*
X358252380Y-143232619D01*
X358252380Y-143232619D02*
X358395237Y-143185000D01*
X358395237Y-143185000D02*
X358490475Y-143089761D01*
X358490475Y-143089761D02*
X358538094Y-142994523D01*
X358538094Y-142994523D02*
X358585713Y-142804047D01*
X358585713Y-142804047D02*
X358585713Y-142661190D01*
X358585713Y-142661190D02*
X358538094Y-142470714D01*
X358538094Y-142470714D02*
X358490475Y-142375476D01*
X358490475Y-142375476D02*
X358395237Y-142280238D01*
X358395237Y-142280238D02*
X358252380Y-142232619D01*
X358252380Y-142232619D02*
X358157142Y-142232619D01*
X358157142Y-142232619D02*
X358014285Y-142280238D01*
X358014285Y-142280238D02*
X357966666Y-142327857D01*
X357061904Y-142232619D02*
X357538094Y-142232619D01*
X357538094Y-142232619D02*
X357585713Y-142708809D01*
X357585713Y-142708809D02*
X357538094Y-142661190D01*
X357538094Y-142661190D02*
X357442856Y-142613571D01*
X357442856Y-142613571D02*
X357204761Y-142613571D01*
X357204761Y-142613571D02*
X357109523Y-142661190D01*
X357109523Y-142661190D02*
X357061904Y-142708809D01*
X357061904Y-142708809D02*
X357014285Y-142804047D01*
X357014285Y-142804047D02*
X357014285Y-143042142D01*
X357014285Y-143042142D02*
X357061904Y-143137380D01*
X357061904Y-143137380D02*
X357109523Y-143185000D01*
X357109523Y-143185000D02*
X357204761Y-143232619D01*
X357204761Y-143232619D02*
X357442856Y-143232619D01*
X357442856Y-143232619D02*
X357538094Y-143185000D01*
X357538094Y-143185000D02*
X357585713Y-143137380D01*
%TO.C,C4*%
X327602380Y-90663571D02*
X327650000Y-90615952D01*
X327650000Y-90615952D02*
X327697619Y-90473095D01*
X327697619Y-90473095D02*
X327697619Y-90377857D01*
X327697619Y-90377857D02*
X327650000Y-90235000D01*
X327650000Y-90235000D02*
X327554761Y-90139762D01*
X327554761Y-90139762D02*
X327459523Y-90092143D01*
X327459523Y-90092143D02*
X327269047Y-90044524D01*
X327269047Y-90044524D02*
X327126190Y-90044524D01*
X327126190Y-90044524D02*
X326935714Y-90092143D01*
X326935714Y-90092143D02*
X326840476Y-90139762D01*
X326840476Y-90139762D02*
X326745238Y-90235000D01*
X326745238Y-90235000D02*
X326697619Y-90377857D01*
X326697619Y-90377857D02*
X326697619Y-90473095D01*
X326697619Y-90473095D02*
X326745238Y-90615952D01*
X326745238Y-90615952D02*
X326792857Y-90663571D01*
X327030952Y-91520714D02*
X327697619Y-91520714D01*
X326650000Y-91282619D02*
X327364285Y-91044524D01*
X327364285Y-91044524D02*
X327364285Y-91663571D01*
%TO.C,C3*%
X358786666Y-162887380D02*
X358834285Y-162935000D01*
X358834285Y-162935000D02*
X358977142Y-162982619D01*
X358977142Y-162982619D02*
X359072380Y-162982619D01*
X359072380Y-162982619D02*
X359215237Y-162935000D01*
X359215237Y-162935000D02*
X359310475Y-162839761D01*
X359310475Y-162839761D02*
X359358094Y-162744523D01*
X359358094Y-162744523D02*
X359405713Y-162554047D01*
X359405713Y-162554047D02*
X359405713Y-162411190D01*
X359405713Y-162411190D02*
X359358094Y-162220714D01*
X359358094Y-162220714D02*
X359310475Y-162125476D01*
X359310475Y-162125476D02*
X359215237Y-162030238D01*
X359215237Y-162030238D02*
X359072380Y-161982619D01*
X359072380Y-161982619D02*
X358977142Y-161982619D01*
X358977142Y-161982619D02*
X358834285Y-162030238D01*
X358834285Y-162030238D02*
X358786666Y-162077857D01*
X358453332Y-161982619D02*
X357834285Y-161982619D01*
X357834285Y-161982619D02*
X358167618Y-162363571D01*
X358167618Y-162363571D02*
X358024761Y-162363571D01*
X358024761Y-162363571D02*
X357929523Y-162411190D01*
X357929523Y-162411190D02*
X357881904Y-162458809D01*
X357881904Y-162458809D02*
X357834285Y-162554047D01*
X357834285Y-162554047D02*
X357834285Y-162792142D01*
X357834285Y-162792142D02*
X357881904Y-162887380D01*
X357881904Y-162887380D02*
X357929523Y-162935000D01*
X357929523Y-162935000D02*
X358024761Y-162982619D01*
X358024761Y-162982619D02*
X358310475Y-162982619D01*
X358310475Y-162982619D02*
X358405713Y-162935000D01*
X358405713Y-162935000D02*
X358453332Y-162887380D01*
%TO.C,C2*%
X353471666Y-142947380D02*
X353519285Y-142995000D01*
X353519285Y-142995000D02*
X353662142Y-143042619D01*
X353662142Y-143042619D02*
X353757380Y-143042619D01*
X353757380Y-143042619D02*
X353900237Y-142995000D01*
X353900237Y-142995000D02*
X353995475Y-142899761D01*
X353995475Y-142899761D02*
X354043094Y-142804523D01*
X354043094Y-142804523D02*
X354090713Y-142614047D01*
X354090713Y-142614047D02*
X354090713Y-142471190D01*
X354090713Y-142471190D02*
X354043094Y-142280714D01*
X354043094Y-142280714D02*
X353995475Y-142185476D01*
X353995475Y-142185476D02*
X353900237Y-142090238D01*
X353900237Y-142090238D02*
X353757380Y-142042619D01*
X353757380Y-142042619D02*
X353662142Y-142042619D01*
X353662142Y-142042619D02*
X353519285Y-142090238D01*
X353519285Y-142090238D02*
X353471666Y-142137857D01*
X353090713Y-142137857D02*
X353043094Y-142090238D01*
X353043094Y-142090238D02*
X352947856Y-142042619D01*
X352947856Y-142042619D02*
X352709761Y-142042619D01*
X352709761Y-142042619D02*
X352614523Y-142090238D01*
X352614523Y-142090238D02*
X352566904Y-142137857D01*
X352566904Y-142137857D02*
X352519285Y-142233095D01*
X352519285Y-142233095D02*
X352519285Y-142328333D01*
X352519285Y-142328333D02*
X352566904Y-142471190D01*
X352566904Y-142471190D02*
X353138332Y-143042619D01*
X353138332Y-143042619D02*
X352519285Y-143042619D01*
%TO.C,C1*%
X342997380Y-115170833D02*
X343045000Y-115123214D01*
X343045000Y-115123214D02*
X343092619Y-114980357D01*
X343092619Y-114980357D02*
X343092619Y-114885119D01*
X343092619Y-114885119D02*
X343045000Y-114742262D01*
X343045000Y-114742262D02*
X342949761Y-114647024D01*
X342949761Y-114647024D02*
X342854523Y-114599405D01*
X342854523Y-114599405D02*
X342664047Y-114551786D01*
X342664047Y-114551786D02*
X342521190Y-114551786D01*
X342521190Y-114551786D02*
X342330714Y-114599405D01*
X342330714Y-114599405D02*
X342235476Y-114647024D01*
X342235476Y-114647024D02*
X342140238Y-114742262D01*
X342140238Y-114742262D02*
X342092619Y-114885119D01*
X342092619Y-114885119D02*
X342092619Y-114980357D01*
X342092619Y-114980357D02*
X342140238Y-115123214D01*
X342140238Y-115123214D02*
X342187857Y-115170833D01*
X343092619Y-116123214D02*
X343092619Y-115551786D01*
X343092619Y-115837500D02*
X342092619Y-115837500D01*
X342092619Y-115837500D02*
X342235476Y-115742262D01*
X342235476Y-115742262D02*
X342330714Y-115647024D01*
X342330714Y-115647024D02*
X342378333Y-115551786D01*
D11*
%TO.C,U4*%
X339652500Y-118740000D02*
X339652500Y-119215000D01*
X342872500Y-121960000D02*
X342872500Y-121485000D01*
X342397500Y-121960000D02*
X342872500Y-121960000D01*
X339652500Y-121960000D02*
X339652500Y-121485000D01*
X340127500Y-118740000D02*
X339652500Y-118740000D01*
X342397500Y-118740000D02*
X342872500Y-118740000D01*
X340127500Y-121960000D02*
X339652500Y-121960000D01*
%TO.C,U3*%
X327200000Y-105710000D02*
X328000000Y-105710000D01*
X327200000Y-102590000D02*
X326400000Y-102590000D01*
X327200000Y-105710000D02*
X326400000Y-105710000D01*
X327200000Y-102590000D02*
X329000000Y-102590000D01*
%TO.C,U2*%
X352155000Y-146910000D02*
X352155000Y-147660000D01*
X354375000Y-146160000D02*
X354375000Y-147660000D01*
%TO.C,TP22*%
X345270000Y-190080000D02*
X343940000Y-190080000D01*
X345270000Y-192680000D02*
X342610000Y-192680000D01*
X345270000Y-192740000D02*
X342610000Y-192740000D01*
X342610000Y-192680000D02*
X342610000Y-192740000D01*
X345270000Y-192680000D02*
X345270000Y-192740000D01*
X345270000Y-191410000D02*
X345270000Y-190080000D01*
%TO.C,TP18*%
X363660000Y-157960000D02*
X362330000Y-157960000D01*
X363660000Y-160560000D02*
X361000000Y-160560000D01*
X363660000Y-160620000D02*
X361000000Y-160620000D01*
X361000000Y-160560000D02*
X361000000Y-160620000D01*
X363660000Y-160560000D02*
X363660000Y-160620000D01*
X363660000Y-159290000D02*
X363660000Y-157960000D01*
%TO.C,TP17*%
X362200000Y-154200000D02*
X360870000Y-154200000D01*
X362200000Y-156800000D02*
X359540000Y-156800000D01*
X362200000Y-156860000D02*
X359540000Y-156860000D01*
X359540000Y-156800000D02*
X359540000Y-156860000D01*
X362200000Y-156800000D02*
X362200000Y-156860000D01*
X362200000Y-155530000D02*
X362200000Y-154200000D01*
%TO.C,TP16*%
X349030000Y-145800000D02*
X349030000Y-144470000D01*
X349030000Y-147070000D02*
X349030000Y-147130000D01*
X346370000Y-147070000D02*
X346370000Y-147130000D01*
X349030000Y-147130000D02*
X346370000Y-147130000D01*
X349030000Y-147070000D02*
X346370000Y-147070000D01*
X349030000Y-144470000D02*
X347700000Y-144470000D01*
%TO.C,TP15*%
X318980000Y-95620000D02*
X317650000Y-95620000D01*
X318980000Y-98220000D02*
X316320000Y-98220000D01*
X318980000Y-98280000D02*
X316320000Y-98280000D01*
X316320000Y-98220000D02*
X316320000Y-98280000D01*
X318980000Y-98220000D02*
X318980000Y-98280000D01*
X318980000Y-96950000D02*
X318980000Y-95620000D01*
%TO.C,TP14*%
X319030000Y-100170000D02*
X317700000Y-100170000D01*
X319030000Y-102770000D02*
X316370000Y-102770000D01*
X319030000Y-102830000D02*
X316370000Y-102830000D01*
X316370000Y-102770000D02*
X316370000Y-102830000D01*
X319030000Y-102770000D02*
X319030000Y-102830000D01*
X319030000Y-101500000D02*
X319030000Y-100170000D01*
%TO.C,TP13*%
X339170000Y-101890000D02*
X340500000Y-101890000D01*
X339170000Y-99290000D02*
X341830000Y-99290000D01*
X339170000Y-99230000D02*
X341830000Y-99230000D01*
X341830000Y-99290000D02*
X341830000Y-99230000D01*
X339170000Y-99290000D02*
X339170000Y-99230000D01*
X339170000Y-100560000D02*
X339170000Y-101890000D01*
%TO.C,TP11*%
X362630000Y-146670000D02*
X361300000Y-146670000D01*
X362630000Y-149270000D02*
X359970000Y-149270000D01*
X362630000Y-149330000D02*
X359970000Y-149330000D01*
X359970000Y-149270000D02*
X359970000Y-149330000D01*
X362630000Y-149270000D02*
X362630000Y-149330000D01*
X362630000Y-148000000D02*
X362630000Y-146670000D01*
%TO.C,TP10*%
X358090000Y-137530000D02*
X356760000Y-137530000D01*
X358090000Y-140130000D02*
X355430000Y-140130000D01*
X358090000Y-140190000D02*
X355430000Y-140190000D01*
X355430000Y-140130000D02*
X355430000Y-140190000D01*
X358090000Y-140130000D02*
X358090000Y-140190000D01*
X358090000Y-138860000D02*
X358090000Y-137530000D01*
%TO.C,TP1*%
X350330000Y-126000000D02*
X350330000Y-124670000D01*
X350330000Y-127270000D02*
X350330000Y-127330000D01*
X347670000Y-127270000D02*
X347670000Y-127330000D01*
X350330000Y-127330000D02*
X347670000Y-127330000D01*
X350330000Y-127270000D02*
X347670000Y-127270000D01*
X350330000Y-124670000D02*
X349000000Y-124670000D01*
%TO.C,SW31*%
X348117917Y-113450923D02*
X349298215Y-112930350D01*
X349151002Y-118296058D02*
X348428184Y-118614859D01*
X346640209Y-117162914D02*
X346720918Y-117345906D01*
X347532776Y-112124232D02*
X349832984Y-117339502D01*
X349571065Y-113028597D02*
X349934256Y-113852061D01*
X345643722Y-112301637D02*
X346366540Y-111982837D01*
X349822824Y-114119797D02*
X349934256Y-113852061D01*
X349822824Y-114119797D02*
X348642526Y-114640371D01*
X349298215Y-112930350D02*
X349571065Y-113028597D01*
X345429573Y-114418035D02*
X346115600Y-115973467D01*
%TO.C,R30*%
X358014724Y-146277500D02*
X357505276Y-146277500D01*
X358014724Y-147322500D02*
X357505276Y-147322500D01*
%TO.C,R25*%
X353387500Y-158915276D02*
X353387500Y-159424724D01*
X354432500Y-158915276D02*
X354432500Y-159424724D01*
%TO.C,R24*%
X350607500Y-158935276D02*
X350607500Y-159444724D01*
X351652500Y-158935276D02*
X351652500Y-159444724D01*
%TO.C,R23*%
X322877500Y-98995276D02*
X322877500Y-99504724D01*
X323922500Y-98995276D02*
X323922500Y-99504724D01*
%TO.C,R20*%
X325337500Y-98985276D02*
X325337500Y-99494724D01*
X326382500Y-98985276D02*
X326382500Y-99494724D01*
%TO.C,R19*%
X357515276Y-142222500D02*
X358024724Y-142222500D01*
X357515276Y-141177500D02*
X358024724Y-141177500D01*
%TO.C,R14*%
X354782500Y-130654724D02*
X354782500Y-130145276D01*
X353737500Y-130654724D02*
X353737500Y-130145276D01*
%TO.C,R13*%
X334407500Y-103445276D02*
X334407500Y-103954724D01*
X335452500Y-103445276D02*
X335452500Y-103954724D01*
%TO.C,R9*%
X353045276Y-140122500D02*
X353554724Y-140122500D01*
X353045276Y-139077500D02*
X353554724Y-139077500D01*
%TO.C,R8*%
X350822500Y-122154724D02*
X350822500Y-121645276D01*
X349777500Y-122154724D02*
X349777500Y-121645276D01*
%TO.C,R7*%
X338122500Y-117354724D02*
X338122500Y-116845276D01*
X337077500Y-117354724D02*
X337077500Y-116845276D01*
%TO.C,R5*%
X353542224Y-141207500D02*
X353032776Y-141207500D01*
X353542224Y-142252500D02*
X353032776Y-142252500D01*
%TO.C,R4*%
X347145276Y-121777500D02*
X347654724Y-121777500D01*
X347145276Y-122822500D02*
X347654724Y-122822500D01*
%TO.C,R2*%
X357647500Y-157395276D02*
X357647500Y-157904724D01*
X358692500Y-157395276D02*
X358692500Y-157904724D01*
%TO.C,R1*%
X345142224Y-139522500D02*
X344632776Y-139522500D01*
X345142224Y-138477500D02*
X344632776Y-138477500D01*
%TO.C,L2*%
X350950000Y-152430000D02*
X350950000Y-154230000D01*
X356950000Y-150330000D02*
X356950000Y-148630000D01*
X350950000Y-148630000D02*
X350950000Y-150280000D01*
X356950000Y-154230000D02*
X356950000Y-152430000D01*
X350950000Y-154230000D02*
X356950000Y-154230000D01*
X356950000Y-148630000D02*
X350950000Y-148630000D01*
%TO.C,J8*%
X376327573Y-198718477D02*
X367304891Y-189695795D01*
X377225599Y-199616503D02*
X378166051Y-200556955D01*
X378166051Y-200556955D02*
X379106503Y-199616503D01*
X376327573Y-198718477D02*
X378208477Y-196837573D01*
X367304891Y-189695795D02*
X369185795Y-187814891D01*
X378208477Y-196837573D02*
X369185795Y-187814891D01*
%TO.C,J6*%
X337070000Y-92810000D02*
X327910000Y-92810000D01*
X327910000Y-92810000D02*
X327910000Y-94515000D01*
X337070000Y-94515000D02*
X337070000Y-92810000D01*
X327910000Y-98445000D02*
X327910000Y-96525000D01*
X337070000Y-96525000D02*
X337070000Y-98445000D01*
%TO.C,J1*%
X345730000Y-134620000D02*
X347010000Y-134620000D01*
X351810000Y-134620000D02*
X350530000Y-134620000D01*
X345730000Y-136220000D02*
X345730000Y-134620000D01*
X347010000Y-134620000D02*
X347010000Y-137510000D01*
X344710000Y-131970000D02*
X344710000Y-136220000D01*
X344710000Y-136220000D02*
X345730000Y-136220000D01*
X346430000Y-128400000D02*
X351110000Y-128400000D01*
X351810000Y-136220000D02*
X351810000Y-134620000D01*
X352830000Y-136220000D02*
X351810000Y-136220000D01*
X352830000Y-131970000D02*
X352830000Y-136220000D01*
%TO.C,F4*%
X337890000Y-103468733D02*
X337890000Y-103811267D01*
X336870000Y-103468733D02*
X336870000Y-103811267D01*
%TO.C,F3*%
X353780000Y-135141267D02*
X353780000Y-134798733D01*
X354800000Y-135141267D02*
X354800000Y-134798733D01*
%TO.C,C17*%
X358908733Y-153380000D02*
X359251267Y-153380000D01*
X358908733Y-152360000D02*
X359251267Y-152360000D01*
%TO.C,C16*%
X349870000Y-146558733D02*
X349870000Y-146901267D01*
X350890000Y-146558733D02*
X350890000Y-146901267D01*
%TO.C,C10*%
X351090000Y-125528733D02*
X351090000Y-125871267D01*
X352110000Y-125528733D02*
X352110000Y-125871267D01*
%TO.C,C7*%
X340260000Y-167523733D02*
X340260000Y-167866267D01*
X341280000Y-167523733D02*
X341280000Y-167866267D01*
%TO.C,C6*%
X348763733Y-187390000D02*
X349106267Y-187390000D01*
X348763733Y-186370000D02*
X349106267Y-186370000D01*
%TO.C,C5*%
X357946267Y-143690000D02*
X357653733Y-143690000D01*
X357946267Y-144710000D02*
X357653733Y-144710000D01*
%TO.C,C4*%
X344920000Y-161291267D02*
X344920000Y-160948733D01*
X343900000Y-161291267D02*
X343900000Y-160948733D01*
%TO.C,C3*%
X358448733Y-160580000D02*
X358791267Y-160580000D01*
X358448733Y-161600000D02*
X358791267Y-161600000D01*
%TO.C,C2*%
X353476267Y-143500000D02*
X353133733Y-143500000D01*
X353476267Y-144520000D02*
X353133733Y-144520000D01*
%TO.C,C1*%
X341710000Y-115483767D02*
X341710000Y-115191233D01*
X340690000Y-115483767D02*
X340690000Y-115191233D01*
D12*
%TO.C,D88*%
X240250000Y-184500000D02*
X240750000Y-184500000D01*
X240250000Y-184900000D02*
X239650000Y-184500000D01*
X240250000Y-184100000D02*
X240250000Y-184900000D01*
X239650000Y-184500000D02*
X240250000Y-184100000D01*
X239650000Y-184500000D02*
X239650000Y-185050000D01*
X239650000Y-184500000D02*
X239650000Y-183950000D01*
X239250000Y-184500000D02*
X239650000Y-184500000D01*
%TO.C,D89*%
X240250000Y-167000000D02*
X240750000Y-167000000D01*
X240250000Y-167400000D02*
X239650000Y-167000000D01*
X240250000Y-166600000D02*
X240250000Y-167400000D01*
X239650000Y-167000000D02*
X240250000Y-166600000D01*
X239650000Y-167000000D02*
X239650000Y-167550000D01*
X239650000Y-167000000D02*
X239650000Y-166450000D01*
X239250000Y-167000000D02*
X239650000Y-167000000D01*
%TO.C,D90*%
X240250000Y-149500000D02*
X240750000Y-149500000D01*
X240250000Y-149900000D02*
X239650000Y-149500000D01*
X240250000Y-149100000D02*
X240250000Y-149900000D01*
X239650000Y-149500000D02*
X240250000Y-149100000D01*
X239650000Y-149500000D02*
X239650000Y-150050000D01*
X239650000Y-149500000D02*
X239650000Y-148950000D01*
X239250000Y-149500000D02*
X239650000Y-149500000D01*
%TO.C,D91*%
X258750000Y-184500000D02*
X259250000Y-184500000D01*
X258750000Y-184900000D02*
X258150000Y-184500000D01*
X258750000Y-184100000D02*
X258750000Y-184900000D01*
X258150000Y-184500000D02*
X258750000Y-184100000D01*
X258150000Y-184500000D02*
X258150000Y-185050000D01*
X258150000Y-184500000D02*
X258150000Y-183950000D01*
X257750000Y-184500000D02*
X258150000Y-184500000D01*
%TO.C,D92*%
X258750000Y-167000000D02*
X259250000Y-167000000D01*
X258750000Y-167400000D02*
X258150000Y-167000000D01*
X258750000Y-166600000D02*
X258750000Y-167400000D01*
X258150000Y-167000000D02*
X258750000Y-166600000D01*
X258150000Y-167000000D02*
X258150000Y-167550000D01*
X258150000Y-167000000D02*
X258150000Y-166450000D01*
X257750000Y-167000000D02*
X258150000Y-167000000D01*
%TO.C,D93*%
X258750000Y-149500000D02*
X259250000Y-149500000D01*
X258750000Y-149900000D02*
X258150000Y-149500000D01*
X258750000Y-149100000D02*
X258750000Y-149900000D01*
X258150000Y-149500000D02*
X258750000Y-149100000D01*
X258150000Y-149500000D02*
X258150000Y-150050000D01*
X258150000Y-149500000D02*
X258150000Y-148950000D01*
X257750000Y-149500000D02*
X258150000Y-149500000D01*
%TO.C,D94*%
X258750000Y-132000000D02*
X259250000Y-132000000D01*
X258750000Y-132400000D02*
X258150000Y-132000000D01*
X258750000Y-131600000D02*
X258750000Y-132400000D01*
X258150000Y-132000000D02*
X258750000Y-131600000D01*
X258150000Y-132000000D02*
X258150000Y-132550000D01*
X258150000Y-132000000D02*
X258150000Y-131450000D01*
X257750000Y-132000000D02*
X258150000Y-132000000D01*
%TO.C,D95*%
X277250000Y-184500000D02*
X277750000Y-184500000D01*
X277250000Y-184900000D02*
X276650000Y-184500000D01*
X277250000Y-184100000D02*
X277250000Y-184900000D01*
X276650000Y-184500000D02*
X277250000Y-184100000D01*
X276650000Y-184500000D02*
X276650000Y-185050000D01*
X276650000Y-184500000D02*
X276650000Y-183950000D01*
X276250000Y-184500000D02*
X276650000Y-184500000D01*
%TO.C,D96*%
X277250000Y-167000000D02*
X277750000Y-167000000D01*
X277250000Y-167400000D02*
X276650000Y-167000000D01*
X277250000Y-166600000D02*
X277250000Y-167400000D01*
X276650000Y-167000000D02*
X277250000Y-166600000D01*
X276650000Y-167000000D02*
X276650000Y-167550000D01*
X276650000Y-167000000D02*
X276650000Y-166450000D01*
X276250000Y-167000000D02*
X276650000Y-167000000D01*
%TO.C,D97*%
X277250000Y-149500000D02*
X277750000Y-149500000D01*
X277250000Y-149900000D02*
X276650000Y-149500000D01*
X277250000Y-149100000D02*
X277250000Y-149900000D01*
X276650000Y-149500000D02*
X277250000Y-149100000D01*
X276650000Y-149500000D02*
X276650000Y-150050000D01*
X276650000Y-149500000D02*
X276650000Y-148950000D01*
X276250000Y-149500000D02*
X276650000Y-149500000D01*
%TO.C,D98*%
X277250000Y-132000000D02*
X277750000Y-132000000D01*
X277250000Y-132400000D02*
X276650000Y-132000000D01*
X277250000Y-131600000D02*
X277250000Y-132400000D01*
X276650000Y-132000000D02*
X277250000Y-131600000D01*
X276650000Y-132000000D02*
X276650000Y-132550000D01*
X276650000Y-132000000D02*
X276650000Y-131450000D01*
X276250000Y-132000000D02*
X276650000Y-132000000D01*
%TO.C,D99*%
X277250000Y-114500000D02*
X277750000Y-114500000D01*
X277250000Y-114900000D02*
X276650000Y-114500000D01*
X277250000Y-114100000D02*
X277250000Y-114900000D01*
X276650000Y-114500000D02*
X277250000Y-114100000D01*
X276650000Y-114500000D02*
X276650000Y-115050000D01*
X276650000Y-114500000D02*
X276650000Y-113950000D01*
X276250000Y-114500000D02*
X276650000Y-114500000D01*
%TO.C,D100*%
X295750000Y-179500000D02*
X296250000Y-179500000D01*
X295750000Y-179900000D02*
X295150000Y-179500000D01*
X295750000Y-179100000D02*
X295750000Y-179900000D01*
X295150000Y-179500000D02*
X295750000Y-179100000D01*
X295150000Y-179500000D02*
X295150000Y-180050000D01*
X295150000Y-179500000D02*
X295150000Y-178950000D01*
X294750000Y-179500000D02*
X295150000Y-179500000D01*
%TO.C,D101*%
X295750000Y-162000000D02*
X296250000Y-162000000D01*
X295750000Y-162400000D02*
X295150000Y-162000000D01*
X295750000Y-161600000D02*
X295750000Y-162400000D01*
X295150000Y-162000000D02*
X295750000Y-161600000D01*
X295150000Y-162000000D02*
X295150000Y-162550000D01*
X295150000Y-162000000D02*
X295150000Y-161450000D01*
X294750000Y-162000000D02*
X295150000Y-162000000D01*
%TO.C,D102*%
X295750000Y-144500000D02*
X296250000Y-144500000D01*
X295750000Y-144900000D02*
X295150000Y-144500000D01*
X295750000Y-144100000D02*
X295750000Y-144900000D01*
X295150000Y-144500000D02*
X295750000Y-144100000D01*
X295150000Y-144500000D02*
X295150000Y-145050000D01*
X295150000Y-144500000D02*
X295150000Y-143950000D01*
X294750000Y-144500000D02*
X295150000Y-144500000D01*
%TO.C,D103*%
X295750000Y-127000000D02*
X296250000Y-127000000D01*
X295750000Y-127400000D02*
X295150000Y-127000000D01*
X295750000Y-126600000D02*
X295750000Y-127400000D01*
X295150000Y-127000000D02*
X295750000Y-126600000D01*
X295150000Y-127000000D02*
X295150000Y-127550000D01*
X295150000Y-127000000D02*
X295150000Y-126450000D01*
X294750000Y-127000000D02*
X295150000Y-127000000D01*
%TO.C,D104*%
X295750000Y-109500000D02*
X296250000Y-109500000D01*
X295750000Y-109900000D02*
X295150000Y-109500000D01*
X295750000Y-109100000D02*
X295750000Y-109900000D01*
X295150000Y-109500000D02*
X295750000Y-109100000D01*
X295150000Y-109500000D02*
X295150000Y-110050000D01*
X295150000Y-109500000D02*
X295150000Y-108950000D01*
X294750000Y-109500000D02*
X295150000Y-109500000D01*
%TO.C,D105*%
X314250000Y-184500000D02*
X314750000Y-184500000D01*
X314250000Y-184900000D02*
X313650000Y-184500000D01*
X314250000Y-184100000D02*
X314250000Y-184900000D01*
X313650000Y-184500000D02*
X314250000Y-184100000D01*
X313650000Y-184500000D02*
X313650000Y-185050000D01*
X313650000Y-184500000D02*
X313650000Y-183950000D01*
X313250000Y-184500000D02*
X313650000Y-184500000D01*
%TO.C,D106*%
X314250000Y-167000000D02*
X314750000Y-167000000D01*
X314250000Y-167400000D02*
X313650000Y-167000000D01*
X314250000Y-166600000D02*
X314250000Y-167400000D01*
X313650000Y-167000000D02*
X314250000Y-166600000D01*
X313650000Y-167000000D02*
X313650000Y-167550000D01*
X313650000Y-167000000D02*
X313650000Y-166450000D01*
X313250000Y-167000000D02*
X313650000Y-167000000D01*
%TO.C,D107*%
X314250000Y-149500000D02*
X314750000Y-149500000D01*
X314250000Y-149900000D02*
X313650000Y-149500000D01*
X314250000Y-149100000D02*
X314250000Y-149900000D01*
X313650000Y-149500000D02*
X314250000Y-149100000D01*
X313650000Y-149500000D02*
X313650000Y-150050000D01*
X313650000Y-149500000D02*
X313650000Y-148950000D01*
X313250000Y-149500000D02*
X313650000Y-149500000D01*
%TO.C,D108*%
X314250000Y-132000000D02*
X314750000Y-132000000D01*
X314250000Y-132400000D02*
X313650000Y-132000000D01*
X314250000Y-131600000D02*
X314250000Y-132400000D01*
X313650000Y-132000000D02*
X314250000Y-131600000D01*
X313650000Y-132000000D02*
X313650000Y-132550000D01*
X313650000Y-132000000D02*
X313650000Y-131450000D01*
X313250000Y-132000000D02*
X313650000Y-132000000D01*
%TO.C,D109*%
X314250000Y-114500000D02*
X314750000Y-114500000D01*
X314250000Y-114900000D02*
X313650000Y-114500000D01*
X314250000Y-114100000D02*
X314250000Y-114900000D01*
X313650000Y-114500000D02*
X314250000Y-114100000D01*
X313650000Y-114500000D02*
X313650000Y-115050000D01*
X313650000Y-114500000D02*
X313650000Y-113950000D01*
X313250000Y-114500000D02*
X313650000Y-114500000D01*
%TO.C,D110*%
X332750000Y-171000000D02*
X333250000Y-171000000D01*
X332750000Y-171400000D02*
X332150000Y-171000000D01*
X332750000Y-170600000D02*
X332750000Y-171400000D01*
X332150000Y-171000000D02*
X332750000Y-170600000D01*
X332150000Y-171000000D02*
X332150000Y-171550000D01*
X332150000Y-171000000D02*
X332150000Y-170450000D01*
X331750000Y-171000000D02*
X332150000Y-171000000D01*
%TO.C,D111*%
X332750000Y-153500000D02*
X333250000Y-153500000D01*
X332750000Y-153900000D02*
X332150000Y-153500000D01*
X332750000Y-153100000D02*
X332750000Y-153900000D01*
X332150000Y-153500000D02*
X332750000Y-153100000D01*
X332150000Y-153500000D02*
X332150000Y-154050000D01*
X332150000Y-153500000D02*
X332150000Y-152950000D01*
X331750000Y-153500000D02*
X332150000Y-153500000D01*
%TO.C,D112*%
X332750000Y-136000000D02*
X333250000Y-136000000D01*
X332750000Y-136400000D02*
X332150000Y-136000000D01*
X332750000Y-135600000D02*
X332750000Y-136400000D01*
X332150000Y-136000000D02*
X332750000Y-135600000D01*
X332150000Y-136000000D02*
X332150000Y-136550000D01*
X332150000Y-136000000D02*
X332150000Y-135450000D01*
X331750000Y-136000000D02*
X332150000Y-136000000D01*
%TO.C,D113*%
X332750000Y-118500000D02*
X333250000Y-118500000D01*
X332750000Y-118900000D02*
X332150000Y-118500000D01*
X332750000Y-118100000D02*
X332750000Y-118900000D01*
X332150000Y-118500000D02*
X332750000Y-118100000D01*
X332150000Y-118500000D02*
X332150000Y-119050000D01*
X332150000Y-118500000D02*
X332150000Y-117950000D01*
X331750000Y-118500000D02*
X332150000Y-118500000D01*
%TO.C,D114*%
X332918764Y-191680157D02*
X333408727Y-191779841D01*
X332839017Y-192072127D02*
X332330809Y-191560536D01*
X332998511Y-191288187D02*
X332839017Y-192072127D01*
X332330809Y-191560536D02*
X332998511Y-191288187D01*
X332330809Y-191560536D02*
X332221157Y-192099495D01*
X332330809Y-191560536D02*
X332440462Y-191021578D01*
X331938839Y-191480789D02*
X332330809Y-191560536D01*
%TO.C,D115*%
X352012236Y-199437086D02*
X352435239Y-199703672D01*
X351798967Y-199775489D02*
X351504632Y-199117183D01*
X352225504Y-199098683D02*
X351798967Y-199775489D01*
X351504632Y-199117183D02*
X352225504Y-199098683D01*
X351504632Y-199117183D02*
X351211387Y-199582487D01*
X351504632Y-199117183D02*
X351797876Y-198651879D01*
X351166229Y-198903914D02*
X351504632Y-199117183D01*
%TO.C,D116*%
X367126341Y-213447597D02*
X367427666Y-213846600D01*
X366807139Y-213688658D02*
X366764750Y-212968794D01*
X367445543Y-213206537D02*
X366807139Y-213688658D01*
X366764750Y-212968794D02*
X367445543Y-213206537D01*
X366764750Y-212968794D02*
X366325847Y-213300252D01*
X366764750Y-212968794D02*
X367203653Y-212637336D01*
X366523690Y-212649592D02*
X366764750Y-212968794D01*
%TD*%
%LPC*%
D13*
%TO.C,U4*%
X342700000Y-119600000D03*
X342700000Y-120100000D03*
X342700000Y-120600000D03*
X342700000Y-121100000D03*
D14*
X342012500Y-121787500D03*
X341512500Y-121787500D03*
X341012500Y-121787500D03*
X340512500Y-121787500D03*
D13*
X339825000Y-121100000D03*
X339825000Y-120600000D03*
X339825000Y-120100000D03*
X339825000Y-119600000D03*
D14*
X340512500Y-118912500D03*
X341012500Y-118912500D03*
X341512500Y-118912500D03*
X342012500Y-118912500D03*
D15*
X341262500Y-120350000D03*
%TD*%
D16*
%TO.C,U3*%
X328337500Y-103200000D03*
X328337500Y-104150000D03*
X328337500Y-105100000D03*
X326062500Y-105100000D03*
X326062500Y-104150000D03*
X326062500Y-103200000D03*
%TD*%
D17*
%TO.C,U2*%
X352515000Y-146185000D03*
X353015000Y-146185000D03*
X353515000Y-146185000D03*
X354015000Y-146185000D03*
X354015000Y-147635000D03*
X353515000Y-147635000D03*
X353015000Y-147635000D03*
X352515000Y-147635000D03*
%TD*%
D18*
%TO.C,U1*%
X361820000Y-183970000D03*
X360420000Y-183970000D03*
X359020000Y-183970000D03*
X357620000Y-183970000D03*
X356220000Y-183970000D03*
X354820000Y-183970000D03*
X353420000Y-183970000D03*
X352020000Y-183970000D03*
X350620000Y-183970000D03*
X349220000Y-183970000D03*
X347820000Y-183970000D03*
X346420000Y-183970000D03*
D19*
X344220000Y-180920000D03*
X344220000Y-179520000D03*
X344220000Y-178120000D03*
X344220000Y-176720000D03*
X344220000Y-175320000D03*
X344220000Y-173920000D03*
X344220000Y-172520000D03*
X344220000Y-171120000D03*
X344220000Y-169720000D03*
X344220000Y-168320000D03*
X344220000Y-166920000D03*
D20*
X346420000Y-163870000D03*
X347820000Y-163870000D03*
X349220000Y-163870000D03*
X350620000Y-163870000D03*
X352020000Y-163870000D03*
X353420000Y-163870000D03*
X354820000Y-163870000D03*
X356220000Y-163870000D03*
X357620000Y-163870000D03*
X359020000Y-163870000D03*
X360420000Y-163870000D03*
X361820000Y-163870000D03*
%TD*%
D21*
%TO.C,TP22*%
X343940000Y-191410000D03*
%TD*%
%TO.C,TP18*%
X362330000Y-159290000D03*
%TD*%
%TO.C,TP17*%
X360870000Y-155530000D03*
%TD*%
%TO.C,TP16*%
X347700000Y-145800000D03*
%TD*%
%TO.C,TP15*%
X317650000Y-96950000D03*
%TD*%
%TO.C,TP14*%
X317700000Y-101500000D03*
%TD*%
D22*
%TO.C,TP13*%
X340500000Y-100560000D03*
%TD*%
D21*
%TO.C,TP11*%
X361300000Y-148000000D03*
%TD*%
%TO.C,TP10*%
X356760000Y-138860000D03*
%TD*%
%TO.C,TP1*%
X349000000Y-126000000D03*
%TD*%
D23*
%TO.C,SW31*%
X347859272Y-119084368D03*
X346935452Y-111513327D03*
X349881333Y-118192533D03*
X344913391Y-112405163D03*
D24*
X348007255Y-116669270D03*
X346796619Y-113924391D03*
D25*
X344517647Y-114109829D03*
X345728283Y-116854708D03*
X346333601Y-118227147D03*
%TD*%
D26*
%TO.C,R30*%
X358672500Y-146800000D03*
X356847500Y-146800000D03*
%TD*%
D27*
%TO.C,R25*%
X353910000Y-158257500D03*
X353910000Y-160082500D03*
%TD*%
%TO.C,R24*%
X351130000Y-158277500D03*
X351130000Y-160102500D03*
%TD*%
%TO.C,R23*%
X323400000Y-98337500D03*
X323400000Y-100162500D03*
%TD*%
%TO.C,R20*%
X325860000Y-98327500D03*
X325860000Y-100152500D03*
%TD*%
D28*
%TO.C,R19*%
X356857500Y-141700000D03*
X358682500Y-141700000D03*
%TD*%
D29*
%TO.C,R14*%
X354260000Y-131312500D03*
X354260000Y-129487500D03*
%TD*%
D27*
%TO.C,R13*%
X334930000Y-102787500D03*
X334930000Y-104612500D03*
%TD*%
D28*
%TO.C,R9*%
X352387500Y-139600000D03*
X354212500Y-139600000D03*
%TD*%
D29*
%TO.C,R8*%
X350300000Y-122812500D03*
X350300000Y-120987500D03*
%TD*%
%TO.C,R7*%
X337600000Y-118012500D03*
X337600000Y-116187500D03*
%TD*%
D26*
%TO.C,R5*%
X354200000Y-141730000D03*
X352375000Y-141730000D03*
%TD*%
D28*
%TO.C,R4*%
X348312500Y-122300000D03*
X346487500Y-122300000D03*
%TD*%
D27*
%TO.C,R2*%
X358170000Y-156737500D03*
X358170000Y-158562500D03*
%TD*%
D26*
%TO.C,R1*%
X343975000Y-139000000D03*
X345800000Y-139000000D03*
%TD*%
D30*
%TO.C,L2*%
X351900000Y-151380000D03*
X356000000Y-151380000D03*
%TD*%
D31*
%TO.C,J8*%
X378166051Y-198676051D03*
D32*
X376370000Y-196880000D03*
X374573949Y-195083949D03*
X372777897Y-193287897D03*
X370981846Y-191491846D03*
X369185795Y-189695795D03*
%TD*%
D33*
%TO.C,J6*%
X329600000Y-99200000D03*
X335380000Y-99200000D03*
D34*
X329290000Y-100320000D03*
X330090000Y-100320000D03*
D35*
X331240000Y-100320000D03*
X332240000Y-100320000D03*
X332740000Y-100320000D03*
X333740000Y-100320000D03*
D34*
X334890000Y-100320000D03*
X335690000Y-100320000D03*
X335690000Y-100320000D03*
X334890000Y-100320000D03*
D35*
X334240000Y-100320000D03*
X333240000Y-100320000D03*
X331740000Y-100320000D03*
X330740000Y-100320000D03*
D34*
X330090000Y-100320000D03*
X329290000Y-100320000D03*
D36*
X328170000Y-95520000D03*
D37*
X328170000Y-99720000D03*
X336810000Y-99720000D03*
D36*
X336810000Y-95520000D03*
%TD*%
D38*
%TO.C,J1*%
X347770000Y-135760000D03*
X349770000Y-135760000D03*
D39*
X352120000Y-130010000D03*
X345420000Y-130010000D03*
%TD*%
D40*
%TO.C,F4*%
X337380000Y-104515000D03*
X337380000Y-102765000D03*
%TD*%
D41*
%TO.C,F3*%
X354290000Y-134095000D03*
X354290000Y-135845000D03*
%TD*%
D42*
%TO.C,D32*%
X348950000Y-159060000D03*
X346050000Y-159060000D03*
X346050000Y-160010000D03*
X348950000Y-160010000D03*
%TD*%
%TO.C,D31*%
X348950000Y-150045000D03*
X346050000Y-150045000D03*
X346050000Y-150995000D03*
X348950000Y-150995000D03*
%TD*%
%TO.C,D30*%
X348960000Y-141045000D03*
X346060000Y-141045000D03*
X346060000Y-141995000D03*
X348960000Y-141995000D03*
%TD*%
D43*
%TO.C,C17*%
X358205000Y-152870000D03*
X359955000Y-152870000D03*
%TD*%
D40*
%TO.C,C16*%
X350380000Y-145855000D03*
X350380000Y-147605000D03*
%TD*%
%TO.C,C10*%
X351600000Y-124825000D03*
X351600000Y-126575000D03*
%TD*%
%TO.C,C7*%
X340770000Y-166820000D03*
X340770000Y-168570000D03*
%TD*%
D43*
%TO.C,C6*%
X348060000Y-186880000D03*
X349810000Y-186880000D03*
%TD*%
D44*
%TO.C,C5*%
X358662500Y-144200000D03*
X356937500Y-144200000D03*
%TD*%
D41*
%TO.C,C4*%
X344410000Y-161995000D03*
X344410000Y-160245000D03*
%TD*%
D43*
%TO.C,C3*%
X359495000Y-161090000D03*
X357745000Y-161090000D03*
%TD*%
D45*
%TO.C,C2*%
X354180000Y-144010000D03*
X352430000Y-144010000D03*
%TD*%
D46*
%TO.C,C1*%
X341200000Y-116200000D03*
X341200000Y-114475000D03*
%TD*%
D47*
%TO.C,S1*%
X240000000Y-180000000D03*
D48*
X245500000Y-180000000D03*
X234500000Y-180000000D03*
D49*
X245000000Y-176250000D03*
X240000000Y-174050000D03*
D50*
X236725000Y-174050000D03*
X248275000Y-176250000D03*
%TD*%
D47*
%TO.C,S2*%
X240000000Y-162500000D03*
D48*
X245500000Y-162500000D03*
X234500000Y-162500000D03*
D49*
X245000000Y-158750000D03*
X240000000Y-156550000D03*
D50*
X236725000Y-156550000D03*
X248275000Y-158750000D03*
%TD*%
D47*
%TO.C,S3*%
X240000000Y-145000000D03*
D48*
X245500000Y-145000000D03*
X234500000Y-145000000D03*
D49*
X245000000Y-141250000D03*
X240000000Y-139050000D03*
D50*
X236725000Y-139050000D03*
X248275000Y-141250000D03*
%TD*%
D47*
%TO.C,S4*%
X258500000Y-180000000D03*
D48*
X264000000Y-180000000D03*
X253000000Y-180000000D03*
D49*
X263500000Y-176250000D03*
X258500000Y-174050000D03*
D50*
X255225000Y-174050000D03*
X266775000Y-176250000D03*
%TD*%
D47*
%TO.C,S5*%
X258500000Y-162500000D03*
D48*
X264000000Y-162500000D03*
X253000000Y-162500000D03*
D49*
X263500000Y-158750000D03*
X258500000Y-156550000D03*
D50*
X255225000Y-156550000D03*
X266775000Y-158750000D03*
%TD*%
D47*
%TO.C,S6*%
X258500000Y-145000000D03*
D48*
X264000000Y-145000000D03*
X253000000Y-145000000D03*
D49*
X263500000Y-141250000D03*
X258500000Y-139050000D03*
D50*
X255225000Y-139050000D03*
X266775000Y-141250000D03*
%TD*%
D47*
%TO.C,S7*%
X258500000Y-127500000D03*
D48*
X264000000Y-127500000D03*
X253000000Y-127500000D03*
D49*
X263500000Y-123750000D03*
X258500000Y-121550000D03*
D50*
X255225000Y-121550000D03*
X266775000Y-123750000D03*
%TD*%
D47*
%TO.C,S8*%
X277000000Y-180000000D03*
D48*
X282500000Y-180000000D03*
X271500000Y-180000000D03*
D49*
X282000000Y-176250000D03*
X277000000Y-174050000D03*
D50*
X273725000Y-174050000D03*
X285275000Y-176250000D03*
%TD*%
D47*
%TO.C,S9*%
X277000000Y-162500000D03*
D48*
X282500000Y-162500000D03*
X271500000Y-162500000D03*
D49*
X282000000Y-158750000D03*
X277000000Y-156550000D03*
D50*
X273725000Y-156550000D03*
X285275000Y-158750000D03*
%TD*%
D47*
%TO.C,S10*%
X277000000Y-145000000D03*
D48*
X282500000Y-145000000D03*
X271500000Y-145000000D03*
D49*
X282000000Y-141250000D03*
X277000000Y-139050000D03*
D50*
X273725000Y-139050000D03*
X285275000Y-141250000D03*
%TD*%
D47*
%TO.C,S11*%
X277000000Y-127500000D03*
D48*
X282500000Y-127500000D03*
X271500000Y-127500000D03*
D49*
X282000000Y-123750000D03*
X277000000Y-121550000D03*
D50*
X273725000Y-121550000D03*
X285275000Y-123750000D03*
%TD*%
D47*
%TO.C,S12*%
X277000000Y-110000000D03*
D48*
X282500000Y-110000000D03*
X271500000Y-110000000D03*
D49*
X282000000Y-106250000D03*
X277000000Y-104050000D03*
D50*
X273725000Y-104050000D03*
X285275000Y-106250000D03*
%TD*%
D47*
%TO.C,S13*%
X295500000Y-175000000D03*
D48*
X301000000Y-175000000D03*
X290000000Y-175000000D03*
D49*
X300500000Y-171250000D03*
X295500000Y-169050000D03*
D50*
X292225000Y-169050000D03*
X303775000Y-171250000D03*
%TD*%
D47*
%TO.C,S14*%
X295500000Y-157500000D03*
D48*
X301000000Y-157500000D03*
X290000000Y-157500000D03*
D49*
X300500000Y-153750000D03*
X295500000Y-151550000D03*
D50*
X292225000Y-151550000D03*
X303775000Y-153750000D03*
%TD*%
D47*
%TO.C,S15*%
X295500000Y-140000000D03*
D48*
X301000000Y-140000000D03*
X290000000Y-140000000D03*
D49*
X300500000Y-136250000D03*
X295500000Y-134050000D03*
D50*
X292225000Y-134050000D03*
X303775000Y-136250000D03*
%TD*%
D47*
%TO.C,S16*%
X295500000Y-122500000D03*
D48*
X301000000Y-122500000D03*
X290000000Y-122500000D03*
D49*
X300500000Y-118750000D03*
X295500000Y-116550000D03*
D50*
X292225000Y-116550000D03*
X303775000Y-118750000D03*
%TD*%
D47*
%TO.C,S17*%
X295500000Y-105000000D03*
D48*
X301000000Y-105000000D03*
X290000000Y-105000000D03*
D49*
X300500000Y-101250000D03*
X295500000Y-99050000D03*
D50*
X292225000Y-99050000D03*
X303775000Y-101250000D03*
%TD*%
D47*
%TO.C,S18*%
X314000000Y-180000000D03*
D48*
X319500000Y-180000000D03*
X308500000Y-180000000D03*
D49*
X319000000Y-176250000D03*
X314000000Y-174050000D03*
D50*
X310725000Y-174050000D03*
X322275000Y-176250000D03*
%TD*%
D47*
%TO.C,S19*%
X314000000Y-162500000D03*
D48*
X319500000Y-162500000D03*
X308500000Y-162500000D03*
D49*
X319000000Y-158750000D03*
X314000000Y-156550000D03*
D50*
X310725000Y-156550000D03*
X322275000Y-158750000D03*
%TD*%
D47*
%TO.C,S20*%
X314000000Y-145000000D03*
D48*
X319500000Y-145000000D03*
X308500000Y-145000000D03*
D49*
X319000000Y-141250000D03*
X314000000Y-139050000D03*
D50*
X310725000Y-139050000D03*
X322275000Y-141250000D03*
%TD*%
D47*
%TO.C,S21*%
X314000000Y-127500000D03*
D48*
X319500000Y-127500000D03*
X308500000Y-127500000D03*
D49*
X319000000Y-123750000D03*
X314000000Y-121550000D03*
D50*
X310725000Y-121550000D03*
X322275000Y-123750000D03*
%TD*%
D47*
%TO.C,S22*%
X314000000Y-110000000D03*
D48*
X319500000Y-110000000D03*
X308500000Y-110000000D03*
D49*
X319000000Y-106250000D03*
X314000000Y-104050000D03*
D50*
X310725000Y-104050000D03*
X322275000Y-106250000D03*
%TD*%
D47*
%TO.C,S23*%
X332500000Y-166500000D03*
D48*
X338000000Y-166500000D03*
X327000000Y-166500000D03*
D49*
X337500000Y-162750000D03*
X332500000Y-160550000D03*
D50*
X329225000Y-160550000D03*
X340775000Y-162750000D03*
%TD*%
D47*
%TO.C,S24*%
X332500000Y-149000000D03*
D48*
X338000000Y-149000000D03*
X327000000Y-149000000D03*
D49*
X337500000Y-145250000D03*
X332500000Y-143050000D03*
D50*
X329225000Y-143050000D03*
X340775000Y-145250000D03*
%TD*%
D47*
%TO.C,S25*%
X332500000Y-131500000D03*
D48*
X338000000Y-131500000D03*
X327000000Y-131500000D03*
D49*
X337500000Y-127750000D03*
X332500000Y-125550000D03*
D50*
X329225000Y-125550000D03*
X340775000Y-127750000D03*
%TD*%
D47*
%TO.C,S26*%
X332500000Y-114000000D03*
D48*
X338000000Y-114000000D03*
X327000000Y-114000000D03*
D49*
X337500000Y-110250000D03*
X332500000Y-108050000D03*
D50*
X329225000Y-108050000D03*
X340775000Y-110250000D03*
%TD*%
D47*
%TO.C,S27*%
X333570938Y-187220653D03*
D48*
X338960524Y-188317177D03*
X328181352Y-186124129D03*
D49*
X339218191Y-184542775D03*
X334757177Y-181390101D03*
D51*
X331547924Y-180737171D03*
X342427445Y-185195705D03*
%TD*%
D47*
%TO.C,S28*%
X354200006Y-195496761D03*
D48*
X358853045Y-198429205D03*
X349546967Y-192564317D03*
D49*
X360429435Y-194990092D03*
X357372377Y-190463019D03*
D52*
X354601704Y-188716882D03*
X363200108Y-196736230D03*
%TD*%
D47*
%TO.C,S29*%
X370566700Y-210536167D03*
D48*
X373881281Y-214925194D03*
X367252119Y-206147140D03*
D49*
X376572473Y-212266250D03*
X375314829Y-206950393D03*
D53*
X373341147Y-204336928D03*
X378546155Y-214879716D03*
%TD*%
D47*
%TO.C,S88*%
X240000000Y-180000000D03*
D48*
X245500000Y-180000000D03*
X234500000Y-180000000D03*
D49*
X245000000Y-176250000D03*
X240000000Y-174050000D03*
D50*
X236725000Y-174050000D03*
X248275000Y-176250000D03*
%TD*%
D47*
%TO.C,S89*%
X240000000Y-162500000D03*
D48*
X245500000Y-162500000D03*
X234500000Y-162500000D03*
D49*
X245000000Y-158750000D03*
X240000000Y-156550000D03*
D50*
X236725000Y-156550000D03*
X248275000Y-158750000D03*
%TD*%
D47*
%TO.C,S90*%
X240000000Y-145000000D03*
D48*
X245500000Y-145000000D03*
X234500000Y-145000000D03*
D49*
X245000000Y-141250000D03*
X240000000Y-139050000D03*
D50*
X236725000Y-139050000D03*
X248275000Y-141250000D03*
%TD*%
D47*
%TO.C,S91*%
X258500000Y-180000000D03*
D48*
X264000000Y-180000000D03*
X253000000Y-180000000D03*
D49*
X263500000Y-176250000D03*
X258500000Y-174050000D03*
D50*
X255225000Y-174050000D03*
X266775000Y-176250000D03*
%TD*%
D47*
%TO.C,S92*%
X258500000Y-162500000D03*
D48*
X264000000Y-162500000D03*
X253000000Y-162500000D03*
D49*
X263500000Y-158750000D03*
X258500000Y-156550000D03*
D50*
X255225000Y-156550000D03*
X266775000Y-158750000D03*
%TD*%
D47*
%TO.C,S93*%
X258500000Y-145000000D03*
D48*
X264000000Y-145000000D03*
X253000000Y-145000000D03*
D49*
X263500000Y-141250000D03*
X258500000Y-139050000D03*
D50*
X255225000Y-139050000D03*
X266775000Y-141250000D03*
%TD*%
D47*
%TO.C,S94*%
X258500000Y-127500000D03*
D48*
X264000000Y-127500000D03*
X253000000Y-127500000D03*
D49*
X263500000Y-123750000D03*
X258500000Y-121550000D03*
D50*
X255225000Y-121550000D03*
X266775000Y-123750000D03*
%TD*%
D47*
%TO.C,S95*%
X277000000Y-180000000D03*
D48*
X282500000Y-180000000D03*
X271500000Y-180000000D03*
D49*
X282000000Y-176250000D03*
X277000000Y-174050000D03*
D50*
X273725000Y-174050000D03*
X285275000Y-176250000D03*
%TD*%
D47*
%TO.C,S96*%
X277000000Y-162500000D03*
D48*
X282500000Y-162500000D03*
X271500000Y-162500000D03*
D49*
X282000000Y-158750000D03*
X277000000Y-156550000D03*
D50*
X273725000Y-156550000D03*
X285275000Y-158750000D03*
%TD*%
D47*
%TO.C,S97*%
X277000000Y-145000000D03*
D48*
X282500000Y-145000000D03*
X271500000Y-145000000D03*
D49*
X282000000Y-141250000D03*
X277000000Y-139050000D03*
D50*
X273725000Y-139050000D03*
X285275000Y-141250000D03*
%TD*%
D47*
%TO.C,S98*%
X277000000Y-127500000D03*
D48*
X282500000Y-127500000D03*
X271500000Y-127500000D03*
D49*
X282000000Y-123750000D03*
X277000000Y-121550000D03*
D50*
X273725000Y-121550000D03*
X285275000Y-123750000D03*
%TD*%
D47*
%TO.C,S99*%
X277000000Y-110000000D03*
D48*
X282500000Y-110000000D03*
X271500000Y-110000000D03*
D49*
X282000000Y-106250000D03*
X277000000Y-104050000D03*
D50*
X273725000Y-104050000D03*
X285275000Y-106250000D03*
%TD*%
D47*
%TO.C,S100*%
X295500000Y-175000000D03*
D48*
X301000000Y-175000000D03*
X290000000Y-175000000D03*
D49*
X300500000Y-171250000D03*
X295500000Y-169050000D03*
D50*
X292225000Y-169050000D03*
X303775000Y-171250000D03*
%TD*%
D47*
%TO.C,S101*%
X295500000Y-157500000D03*
D48*
X301000000Y-157500000D03*
X290000000Y-157500000D03*
D49*
X300500000Y-153750000D03*
X295500000Y-151550000D03*
D50*
X292225000Y-151550000D03*
X303775000Y-153750000D03*
%TD*%
D47*
%TO.C,S102*%
X295500000Y-140000000D03*
D48*
X301000000Y-140000000D03*
X290000000Y-140000000D03*
D49*
X300500000Y-136250000D03*
X295500000Y-134050000D03*
D50*
X292225000Y-134050000D03*
X303775000Y-136250000D03*
%TD*%
D47*
%TO.C,S103*%
X295500000Y-122500000D03*
D48*
X301000000Y-122500000D03*
X290000000Y-122500000D03*
D49*
X300500000Y-118750000D03*
X295500000Y-116550000D03*
D50*
X292225000Y-116550000D03*
X303775000Y-118750000D03*
%TD*%
D47*
%TO.C,S104*%
X295500000Y-105000000D03*
D48*
X301000000Y-105000000D03*
X290000000Y-105000000D03*
D49*
X300500000Y-101250000D03*
X295500000Y-99050000D03*
D50*
X292225000Y-99050000D03*
X303775000Y-101250000D03*
%TD*%
D47*
%TO.C,S105*%
X314000000Y-180000000D03*
D48*
X319500000Y-180000000D03*
X308500000Y-180000000D03*
D49*
X319000000Y-176250000D03*
X314000000Y-174050000D03*
D50*
X310725000Y-174050000D03*
X322275000Y-176250000D03*
%TD*%
D47*
%TO.C,S106*%
X314000000Y-162500000D03*
D48*
X319500000Y-162500000D03*
X308500000Y-162500000D03*
D49*
X319000000Y-158750000D03*
X314000000Y-156550000D03*
D50*
X310725000Y-156550000D03*
X322275000Y-158750000D03*
%TD*%
D47*
%TO.C,S107*%
X314000000Y-145000000D03*
D48*
X319500000Y-145000000D03*
X308500000Y-145000000D03*
D49*
X319000000Y-141250000D03*
X314000000Y-139050000D03*
D50*
X310725000Y-139050000D03*
X322275000Y-141250000D03*
%TD*%
D47*
%TO.C,S108*%
X314000000Y-127500000D03*
D48*
X319500000Y-127500000D03*
X308500000Y-127500000D03*
D49*
X319000000Y-123750000D03*
X314000000Y-121550000D03*
D50*
X310725000Y-121550000D03*
X322275000Y-123750000D03*
%TD*%
D47*
%TO.C,S109*%
X314000000Y-110000000D03*
D48*
X319500000Y-110000000D03*
X308500000Y-110000000D03*
D49*
X319000000Y-106250000D03*
X314000000Y-104050000D03*
D50*
X310725000Y-104050000D03*
X322275000Y-106250000D03*
%TD*%
D47*
%TO.C,S110*%
X332500000Y-166500000D03*
D48*
X338000000Y-166500000D03*
X327000000Y-166500000D03*
D49*
X337500000Y-162750000D03*
X332500000Y-160550000D03*
D50*
X329225000Y-160550000D03*
X340775000Y-162750000D03*
%TD*%
D47*
%TO.C,S111*%
X332500000Y-149000000D03*
D48*
X338000000Y-149000000D03*
X327000000Y-149000000D03*
D49*
X337500000Y-145250000D03*
X332500000Y-143050000D03*
D50*
X329225000Y-143050000D03*
X340775000Y-145250000D03*
%TD*%
D47*
%TO.C,S112*%
X332500000Y-131500000D03*
D48*
X338000000Y-131500000D03*
X327000000Y-131500000D03*
D49*
X337500000Y-127750000D03*
X332500000Y-125550000D03*
D50*
X329225000Y-125550000D03*
X340775000Y-127750000D03*
%TD*%
D47*
%TO.C,S113*%
X332500000Y-114000000D03*
D48*
X338000000Y-114000000D03*
X327000000Y-114000000D03*
D49*
X337500000Y-110250000D03*
X332500000Y-108050000D03*
D50*
X329225000Y-108050000D03*
X340775000Y-110250000D03*
%TD*%
D47*
%TO.C,S114*%
X333570938Y-187220653D03*
D48*
X338960524Y-188317177D03*
X328181352Y-186124129D03*
D49*
X339218191Y-184542775D03*
X334757177Y-181390101D03*
D51*
X331547924Y-180737171D03*
X342427445Y-185195705D03*
%TD*%
D47*
%TO.C,S115*%
X354200006Y-195496761D03*
D48*
X358853045Y-198429205D03*
X349546967Y-192564317D03*
D49*
X360429435Y-194990092D03*
X357372377Y-190463019D03*
D52*
X354601704Y-188716882D03*
X363200108Y-196736230D03*
%TD*%
D47*
%TO.C,S116*%
X370566700Y-210536167D03*
D48*
X373881281Y-214925194D03*
X367252119Y-206147140D03*
D49*
X376572473Y-212266250D03*
X375314829Y-206950393D03*
D53*
X373341147Y-204336928D03*
X378546155Y-214879716D03*
%TD*%
D54*
%TO.C,D88*%
X241650000Y-184500000D03*
X238350000Y-184500000D03*
%TD*%
%TO.C,D89*%
X241650000Y-167000000D03*
X238350000Y-167000000D03*
%TD*%
%TO.C,D90*%
X241650000Y-149500000D03*
X238350000Y-149500000D03*
%TD*%
%TO.C,D91*%
X260150000Y-184500000D03*
X256850000Y-184500000D03*
%TD*%
%TO.C,D92*%
X260150000Y-167000000D03*
X256850000Y-167000000D03*
%TD*%
%TO.C,D93*%
X260150000Y-149500000D03*
X256850000Y-149500000D03*
%TD*%
%TO.C,D94*%
X260150000Y-132000000D03*
X256850000Y-132000000D03*
%TD*%
%TO.C,D95*%
X278650000Y-184500000D03*
X275350000Y-184500000D03*
%TD*%
%TO.C,D96*%
X278650000Y-167000000D03*
X275350000Y-167000000D03*
%TD*%
%TO.C,D97*%
X278650000Y-149500000D03*
X275350000Y-149500000D03*
%TD*%
%TO.C,D98*%
X278650000Y-132000000D03*
X275350000Y-132000000D03*
%TD*%
%TO.C,D99*%
X278650000Y-114500000D03*
X275350000Y-114500000D03*
%TD*%
%TO.C,D100*%
X297150000Y-179500000D03*
X293850000Y-179500000D03*
%TD*%
%TO.C,D101*%
X297150000Y-162000000D03*
X293850000Y-162000000D03*
%TD*%
%TO.C,D102*%
X297150000Y-144500000D03*
X293850000Y-144500000D03*
%TD*%
%TO.C,D103*%
X297150000Y-127000000D03*
X293850000Y-127000000D03*
%TD*%
%TO.C,D104*%
X297150000Y-109500000D03*
X293850000Y-109500000D03*
%TD*%
%TO.C,D105*%
X315650000Y-184500000D03*
X312350000Y-184500000D03*
%TD*%
%TO.C,D106*%
X315650000Y-167000000D03*
X312350000Y-167000000D03*
%TD*%
%TO.C,D107*%
X315650000Y-149500000D03*
X312350000Y-149500000D03*
%TD*%
%TO.C,D108*%
X315650000Y-132000000D03*
X312350000Y-132000000D03*
%TD*%
%TO.C,D109*%
X315650000Y-114500000D03*
X312350000Y-114500000D03*
%TD*%
%TO.C,D110*%
X334150000Y-171000000D03*
X330850000Y-171000000D03*
%TD*%
%TO.C,D111*%
X334150000Y-153500000D03*
X330850000Y-153500000D03*
%TD*%
%TO.C,D112*%
X334150000Y-136000000D03*
X330850000Y-136000000D03*
%TD*%
%TO.C,D113*%
X334150000Y-118500000D03*
X330850000Y-118500000D03*
%TD*%
D55*
%TO.C,D114*%
X334290659Y-191959272D03*
X331056907Y-191301358D03*
%TD*%
D56*
%TO.C,D115*%
X353196646Y-200183526D03*
X350404822Y-198424060D03*
%TD*%
D57*
%TO.C,D116*%
X367970052Y-214564804D03*
X365981304Y-211931388D03*
%TD*%
M02*
