%TF.GenerationSoftware,KiCad,Pcbnew,7.0.1*%
%TF.CreationDate,2023-03-12T20:23:32+01:00*%
%TF.ProjectId,grapto-v3w-left,67726170-746f-42d7-9633-772d6c656674,v1.0.0*%
%TF.SameCoordinates,Original*%
%TF.FileFunction,Profile,NP*%
%FSLAX46Y46*%
G04 Gerber Fmt 4.6, Leading zero omitted, Abs format (unit mm)*
G04 Created by KiCad (PCBNEW 7.0.1) date 2023-03-12 20:23:32*
%MOMM*%
%LPD*%
G01*
G04 APERTURE LIST*
%TA.AperFunction,Profile*%
%ADD10C,0.150000*%
%TD*%
%TA.AperFunction,Profile*%
%ADD11C,0.120000*%
%TD*%
G04 APERTURE END LIST*
D10*
X370958338Y-223084937D02*
X353500000Y-218648189D01*
X347500000Y-217123388D02*
X262500000Y-195522044D01*
X256527145Y-194004142D02*
X229950000Y-187250000D01*
X229950000Y-187250000D02*
X229950000Y-137750000D01*
X229950000Y-137750000D02*
X251250000Y-118750000D01*
X251250000Y-118750000D02*
X253704545Y-116500000D01*
X260250000Y-110500000D02*
X269250000Y-102250000D01*
X269250000Y-102250000D02*
X287250000Y-97250000D01*
X287250000Y-97250000D02*
X305250000Y-93750000D01*
X305250000Y-93750000D02*
X340250000Y-93750000D01*
X340250000Y-93750000D02*
X343984276Y-102500000D01*
X346544923Y-108500000D02*
X378979781Y-184500000D01*
X381540427Y-190500000D02*
X384523490Y-197489788D01*
X384523490Y-197489788D02*
X382928411Y-214045171D01*
X382928411Y-214045171D02*
X370958338Y-223084937D01*
X353500000Y-218648189D02*
X353500000Y-216400000D01*
X353500000Y-216400000D02*
G75*
G03*
X350600000Y-213500000I-2900000J0D01*
G01*
X350600000Y-213500000D02*
X350400000Y-213500000D01*
X350400000Y-213500000D02*
G75*
G03*
X347500000Y-216400000I0J-2900000D01*
G01*
X347500000Y-216400000D02*
X347500000Y-217123388D01*
X377400000Y-190500000D02*
X381540427Y-190500000D01*
X378979781Y-184500000D02*
X377400000Y-184500000D01*
X377400000Y-184500000D02*
G75*
G03*
X374500000Y-187400000I0J-2900000D01*
G01*
X374500000Y-187400000D02*
X374500000Y-187600000D01*
X374500000Y-187600000D02*
G75*
G03*
X377400000Y-190500000I2900000J0D01*
G01*
X341900000Y-108500000D02*
X346544923Y-108500000D01*
X343984276Y-102500000D02*
X341900000Y-102500000D01*
X341900000Y-102500000D02*
G75*
G03*
X339000000Y-105400000I0J-2900000D01*
G01*
X339000000Y-105400000D02*
X339000000Y-105600000D01*
X339000000Y-105600000D02*
G75*
G03*
X341900000Y-108500000I2900000J0D01*
G01*
X253704545Y-116500000D02*
X262600000Y-116500000D01*
X262600000Y-116500000D02*
G75*
G03*
X265500000Y-113600000I0J2900000D01*
G01*
X265500000Y-113600000D02*
X265500000Y-113400000D01*
X265500000Y-113400000D02*
G75*
G03*
X262600000Y-110500000I-2900000J0D01*
G01*
X262600000Y-110500000D02*
X260250000Y-110500000D01*
X262500000Y-195522044D02*
X262500000Y-194400000D01*
X262500000Y-194400000D02*
G75*
G03*
X259600000Y-191500000I-2900000J0D01*
G01*
X259600000Y-191500000D02*
X259400000Y-191500000D01*
X259400000Y-191500001D02*
G75*
G03*
X256527146Y-194004142I0J-2899999D01*
G01*
X347490000Y-161175000D02*
X347510000Y-161175000D01*
X347510000Y-157825000D02*
X347490000Y-157825000D01*
X347490000Y-152175000D02*
X347510000Y-152175000D01*
X347510000Y-148825000D02*
X347490000Y-148825000D01*
X347490000Y-143175000D02*
X347510000Y-143175000D01*
X347510000Y-139825000D02*
X347490000Y-139825000D01*
D11*
%TO.C,D32*%
X348350000Y-160335000D02*
X348350000Y-158685000D01*
X346650000Y-160335000D02*
X346650000Y-158685000D01*
X346650000Y-160335000D02*
G75*
G03*
X348350000Y-160335000I850000J0D01*
G01*
X348350000Y-158685000D02*
G75*
G03*
X346650000Y-158685000I-850000J0D01*
G01*
%TO.C,D31*%
X348350000Y-151320000D02*
X348350000Y-149670000D01*
X346650000Y-151320000D02*
X346650000Y-149670000D01*
X346650000Y-151320000D02*
G75*
G03*
X348350000Y-151320000I850000J0D01*
G01*
X348350000Y-149670000D02*
G75*
G03*
X346650000Y-149670000I-850000J0D01*
G01*
%TO.C,D30*%
X348360000Y-142320000D02*
X348360000Y-140670000D01*
X346660000Y-142320000D02*
X346660000Y-140670000D01*
X346660000Y-142320000D02*
G75*
G03*
X348360000Y-142320000I850000J0D01*
G01*
X348360000Y-140670000D02*
G75*
G03*
X346660000Y-140670000I-850000J0D01*
G01*
%TD*%
M02*
