%TF.GenerationSoftware,KiCad,Pcbnew,7.0.1*%
%TF.CreationDate,2023-03-19T14:30:15+01:00*%
%TF.ProjectId,grapto-v3w-left,67726170-746f-42d7-9633-772d6c656674,v1.0.0*%
%TF.SameCoordinates,Original*%
%TF.FileFunction,Copper,L2,Bot*%
%TF.FilePolarity,Positive*%
%FSLAX46Y46*%
G04 Gerber Fmt 4.6, Leading zero omitted, Abs format (unit mm)*
G04 Created by KiCad (PCBNEW 7.0.1) date 2023-03-19 14:30:15*
%MOMM*%
%LPD*%
G01*
G04 APERTURE LIST*
G04 Aperture macros list*
%AMRoundRect*
0 Rectangle with rounded corners*
0 $1 Rounding radius*
0 $2 $3 $4 $5 $6 $7 $8 $9 X,Y pos of 4 corners*
0 Add a 4 corners polygon primitive as box body*
4,1,4,$2,$3,$4,$5,$6,$7,$8,$9,$2,$3,0*
0 Add four circle primitives for the rounded corners*
1,1,$1+$1,$2,$3*
1,1,$1+$1,$4,$5*
1,1,$1+$1,$6,$7*
1,1,$1+$1,$8,$9*
0 Add four rect primitives between the rounded corners*
20,1,$1+$1,$2,$3,$4,$5,0*
20,1,$1+$1,$4,$5,$6,$7,0*
20,1,$1+$1,$6,$7,$8,$9,0*
20,1,$1+$1,$8,$9,$2,$3,0*%
%AMHorizOval*
0 Thick line with rounded ends*
0 $1 width*
0 $2 $3 position (X,Y) of the first rounded end (center of the circle)*
0 $4 $5 position (X,Y) of the second rounded end (center of the circle)*
0 Add line between two ends*
20,1,$1,$2,$3,$4,$5,0*
0 Add two circle primitives to create the rounded ends*
1,1,$1,$2,$3*
1,1,$1,$4,$5*%
%AMRotRect*
0 Rectangle, with rotation*
0 The origin of the aperture is its center*
0 $1 length*
0 $2 width*
0 $3 Rotation angle, in degrees counterclockwise*
0 Add horizontal line*
21,1,$1,$2,0,0,$3*%
G04 Aperture macros list end*
%TA.AperFunction,SMDPad,CuDef*%
%ADD10R,0.900000X1.200000*%
%TD*%
%TA.AperFunction,SMDPad,CuDef*%
%ADD11R,2.600000X2.600000*%
%TD*%
%TA.AperFunction,SMDPad,CuDef*%
%ADD12RotRect,2.600000X2.600000X327.780000*%
%TD*%
%TA.AperFunction,SMDPad,CuDef*%
%ADD13RotRect,2.600000X2.600000X307.060000*%
%TD*%
%TA.AperFunction,SMDPad,CuDef*%
%ADD14RotRect,0.900000X1.200000X307.060000*%
%TD*%
%TA.AperFunction,SMDPad,CuDef*%
%ADD15RotRect,2.600000X2.600000X348.500000*%
%TD*%
%TA.AperFunction,SMDPad,CuDef*%
%ADD16RotRect,0.900000X1.200000X348.500000*%
%TD*%
%TA.AperFunction,SMDPad,CuDef*%
%ADD17RotRect,0.900000X1.200000X327.780000*%
%TD*%
%TA.AperFunction,SMDPad,CuDef*%
%ADD18RoundRect,0.237500X0.237500X-0.300000X0.237500X0.300000X-0.237500X0.300000X-0.237500X-0.300000X0*%
%TD*%
%TA.AperFunction,SMDPad,CuDef*%
%ADD19R,0.700000X0.700000*%
%TD*%
%TA.AperFunction,SMDPad,CuDef*%
%ADD20RoundRect,0.237500X0.250000X0.237500X-0.250000X0.237500X-0.250000X-0.237500X0.250000X-0.237500X0*%
%TD*%
%TA.AperFunction,SMDPad,CuDef*%
%ADD21RoundRect,0.237500X-0.300000X-0.237500X0.300000X-0.237500X0.300000X0.237500X-0.300000X0.237500X0*%
%TD*%
%TA.AperFunction,SMDPad,CuDef*%
%ADD22RoundRect,0.237500X-0.237500X0.250000X-0.237500X-0.250000X0.237500X-0.250000X0.237500X0.250000X0*%
%TD*%
%TA.AperFunction,ComponentPad*%
%ADD23C,2.000000*%
%TD*%
%TA.AperFunction,SMDPad,CuDef*%
%ADD24RotRect,1.400000X0.800000X293.800000*%
%TD*%
%TA.AperFunction,SMDPad,CuDef*%
%ADD25RotRect,0.800000X2.000000X293.800000*%
%TD*%
%TA.AperFunction,SMDPad,CuDef*%
%ADD26RoundRect,0.062500X0.375000X0.062500X-0.375000X0.062500X-0.375000X-0.062500X0.375000X-0.062500X0*%
%TD*%
%TA.AperFunction,SMDPad,CuDef*%
%ADD27RoundRect,0.062500X0.062500X0.375000X-0.062500X0.375000X-0.062500X-0.375000X0.062500X-0.375000X0*%
%TD*%
%TA.AperFunction,SMDPad,CuDef*%
%ADD28R,1.600000X1.600000*%
%TD*%
%TA.AperFunction,SMDPad,CuDef*%
%ADD29RoundRect,0.237500X0.237500X-0.287500X0.237500X0.287500X-0.237500X0.287500X-0.237500X-0.287500X0*%
%TD*%
%TA.AperFunction,SMDPad,CuDef*%
%ADD30R,2.500000X1.900000*%
%TD*%
%TA.AperFunction,SMDPad,CuDef*%
%ADD31RoundRect,0.237500X0.300000X0.237500X-0.300000X0.237500X-0.300000X-0.237500X0.300000X-0.237500X0*%
%TD*%
%TA.AperFunction,SMDPad,CuDef*%
%ADD32RoundRect,0.237500X-0.237500X0.300000X-0.237500X-0.300000X0.237500X-0.300000X0.237500X0.300000X0*%
%TD*%
%TA.AperFunction,WasherPad*%
%ADD33C,0.650000*%
%TD*%
%TA.AperFunction,SMDPad,CuDef*%
%ADD34R,0.600000X1.150000*%
%TD*%
%TA.AperFunction,SMDPad,CuDef*%
%ADD35R,0.300000X1.150000*%
%TD*%
%TA.AperFunction,ComponentPad*%
%ADD36O,1.000000X1.600000*%
%TD*%
%TA.AperFunction,ComponentPad*%
%ADD37O,1.000000X1.900000*%
%TD*%
%TA.AperFunction,SMDPad,CuDef*%
%ADD38RoundRect,0.237500X0.237500X-0.250000X0.237500X0.250000X-0.237500X0.250000X-0.237500X-0.250000X0*%
%TD*%
%TA.AperFunction,SMDPad,CuDef*%
%ADD39RoundRect,0.250000X0.250000X-0.750000X0.250000X0.750000X-0.250000X0.750000X-0.250000X-0.750000X0*%
%TD*%
%TA.AperFunction,SMDPad,CuDef*%
%ADD40RoundRect,0.250000X-0.750000X-0.250000X0.750000X-0.250000X0.750000X0.250000X-0.750000X0.250000X0*%
%TD*%
%TA.AperFunction,SMDPad,CuDef*%
%ADD41RoundRect,0.250000X-0.250000X0.750000X-0.250000X-0.750000X0.250000X-0.750000X0.250000X0.750000X0*%
%TD*%
%TA.AperFunction,SMDPad,CuDef*%
%ADD42RoundRect,0.062500X-0.062500X0.337500X-0.062500X-0.337500X0.062500X-0.337500X0.062500X0.337500X0*%
%TD*%
%TA.AperFunction,SMDPad,CuDef*%
%ADD43RoundRect,0.237500X-0.250000X-0.237500X0.250000X-0.237500X0.250000X0.237500X-0.250000X0.237500X0*%
%TD*%
%TA.AperFunction,SMDPad,CuDef*%
%ADD44RoundRect,0.150000X0.512500X0.150000X-0.512500X0.150000X-0.512500X-0.150000X0.512500X-0.150000X0*%
%TD*%
%TA.AperFunction,SMDPad,CuDef*%
%ADD45RoundRect,0.237500X-0.237500X0.287500X-0.237500X-0.287500X0.237500X-0.287500X0.237500X0.287500X0*%
%TD*%
%TA.AperFunction,ComponentPad*%
%ADD46RotRect,1.700000X1.700000X45.000000*%
%TD*%
%TA.AperFunction,ComponentPad*%
%ADD47HorizOval,1.700000X0.000000X0.000000X0.000000X0.000000X0*%
%TD*%
%TA.AperFunction,SMDPad,CuDef*%
%ADD48RoundRect,0.250000X-0.250000X-1.500000X0.250000X-1.500000X0.250000X1.500000X-0.250000X1.500000X0*%
%TD*%
%TA.AperFunction,SMDPad,CuDef*%
%ADD49RoundRect,0.250001X-0.499999X-1.449999X0.499999X-1.449999X0.499999X1.449999X-0.499999X1.449999X0*%
%TD*%
%TA.AperFunction,ViaPad*%
%ADD50C,0.800000*%
%TD*%
%TA.AperFunction,ViaPad*%
%ADD51C,0.500000*%
%TD*%
%TA.AperFunction,Conductor*%
%ADD52C,0.250000*%
%TD*%
%TA.AperFunction,Conductor*%
%ADD53C,0.500000*%
%TD*%
%TA.AperFunction,Conductor*%
%ADD54C,0.200000*%
%TD*%
%TA.AperFunction,Conductor*%
%ADD55C,0.300000*%
%TD*%
G04 APERTURE END LIST*
D10*
%TO.P,D105,1*%
%TO.N,col3row4*%
X312350000Y-184500000D03*
%TO.P,D105,2*%
%TO.N,col3*%
X315650000Y-184500000D03*
%TD*%
D11*
%TO.P,S18,1*%
%TO.N,col3row4*%
X310725000Y-174050000D03*
%TO.P,S18,2*%
%TO.N,row4*%
X322275000Y-176250000D03*
%TD*%
%TO.P,S103,1*%
%TO.N,col2row1*%
X292225000Y-116550000D03*
%TO.P,S103,2*%
%TO.N,row1*%
X303775000Y-118750000D03*
%TD*%
%TO.P,S94,1*%
%TO.N,col4row0*%
X255225000Y-121550000D03*
%TO.P,S94,2*%
%TO.N,row0*%
X266775000Y-123750000D03*
%TD*%
D12*
%TO.P,S115,1*%
%TO.N,col1row4*%
X354601704Y-188716882D03*
%TO.P,S115,2*%
%TO.N,row4*%
X363200108Y-196736230D03*
%TD*%
D11*
%TO.P,S98,1*%
%TO.N,col3row1*%
X273725000Y-121550000D03*
%TO.P,S98,2*%
%TO.N,row1*%
X285275000Y-123750000D03*
%TD*%
%TO.P,S111,1*%
%TO.N,col0row2*%
X329225000Y-143050000D03*
%TO.P,S111,2*%
%TO.N,row2*%
X340775000Y-145250000D03*
%TD*%
D12*
%TO.P,S28,1*%
%TO.N,col1row4*%
X354601704Y-188716882D03*
%TO.P,S28,2*%
%TO.N,row4*%
X363200108Y-196736230D03*
%TD*%
D10*
%TO.P,D99,1*%
%TO.N,col3row0*%
X275350000Y-114500000D03*
%TO.P,D99,2*%
%TO.N,col3*%
X278650000Y-114500000D03*
%TD*%
D11*
%TO.P,S13,1*%
%TO.N,col4row4*%
X292225000Y-169050000D03*
%TO.P,S13,2*%
%TO.N,row4*%
X303775000Y-171250000D03*
%TD*%
D10*
%TO.P,D112,1*%
%TO.N,col0row1*%
X330850000Y-136000000D03*
%TO.P,D112,2*%
%TO.N,col0*%
X334150000Y-136000000D03*
%TD*%
%TO.P,D108,1*%
%TO.N,col1row1*%
X312350000Y-132000000D03*
%TO.P,D108,2*%
%TO.N,col1*%
X315650000Y-132000000D03*
%TD*%
D11*
%TO.P,S8,1*%
%TO.N,col5row4*%
X273725000Y-174050000D03*
%TO.P,S8,2*%
%TO.N,row4*%
X285275000Y-176250000D03*
%TD*%
%TO.P,S110,1*%
%TO.N,col0row3*%
X329225000Y-160550000D03*
%TO.P,S110,2*%
%TO.N,row3*%
X340775000Y-162750000D03*
%TD*%
%TO.P,S90,1*%
%TO.N,col5row1*%
X236725000Y-139050000D03*
%TO.P,S90,2*%
%TO.N,row1*%
X248275000Y-141250000D03*
%TD*%
%TO.P,S97,1*%
%TO.N,col3row2*%
X273725000Y-139050000D03*
%TO.P,S97,2*%
%TO.N,row2*%
X285275000Y-141250000D03*
%TD*%
%TO.P,S5,1*%
%TO.N,col4row2*%
X255225000Y-156550000D03*
%TO.P,S5,2*%
%TO.N,row2*%
X266775000Y-158750000D03*
%TD*%
%TO.P,S100,1*%
%TO.N,col4row4*%
X292225000Y-169050000D03*
%TO.P,S100,2*%
%TO.N,row4*%
X303775000Y-171250000D03*
%TD*%
%TO.P,S24,1*%
%TO.N,col0row2*%
X329225000Y-143050000D03*
%TO.P,S24,2*%
%TO.N,row2*%
X340775000Y-145250000D03*
%TD*%
D10*
%TO.P,D92,1*%
%TO.N,col4row2*%
X256850000Y-167000000D03*
%TO.P,D92,2*%
%TO.N,col4*%
X260150000Y-167000000D03*
%TD*%
%TO.P,D96,1*%
%TO.N,col3row3*%
X275350000Y-167000000D03*
%TO.P,D96,2*%
%TO.N,col3*%
X278650000Y-167000000D03*
%TD*%
%TO.P,D94,1*%
%TO.N,col4row0*%
X256850000Y-132000000D03*
%TO.P,D94,2*%
%TO.N,col4*%
X260150000Y-132000000D03*
%TD*%
D11*
%TO.P,S92,1*%
%TO.N,col4row2*%
X255225000Y-156550000D03*
%TO.P,S92,2*%
%TO.N,row2*%
X266775000Y-158750000D03*
%TD*%
%TO.P,S104,1*%
%TO.N,col2row0*%
X292225000Y-99050000D03*
%TO.P,S104,2*%
%TO.N,row0*%
X303775000Y-101250000D03*
%TD*%
%TO.P,S15,1*%
%TO.N,col2row2*%
X292225000Y-134050000D03*
%TO.P,S15,2*%
%TO.N,row2*%
X303775000Y-136250000D03*
%TD*%
D10*
%TO.P,D106,1*%
%TO.N,col1row3*%
X312350000Y-167000000D03*
%TO.P,D106,2*%
%TO.N,col1*%
X315650000Y-167000000D03*
%TD*%
%TO.P,D111,1*%
%TO.N,col0row2*%
X330850000Y-153500000D03*
%TO.P,D111,2*%
%TO.N,col0*%
X334150000Y-153500000D03*
%TD*%
D13*
%TO.P,S116,1*%
%TO.N,col0row4*%
X373341147Y-204336928D03*
%TO.P,S116,2*%
%TO.N,row4*%
X378546155Y-214879716D03*
%TD*%
D14*
%TO.P,D116,1*%
%TO.N,col0row4*%
X365981304Y-211931388D03*
%TO.P,D116,2*%
%TO.N,col0*%
X367970052Y-214564804D03*
%TD*%
D10*
%TO.P,D98,1*%
%TO.N,col3row1*%
X275350000Y-132000000D03*
%TO.P,D98,2*%
%TO.N,col3*%
X278650000Y-132000000D03*
%TD*%
%TO.P,D110,1*%
%TO.N,col0row3*%
X330850000Y-171000000D03*
%TO.P,D110,2*%
%TO.N,col0*%
X334150000Y-171000000D03*
%TD*%
%TO.P,D95,1*%
%TO.N,col5row4*%
X275350000Y-184500000D03*
%TO.P,D95,2*%
%TO.N,col5*%
X278650000Y-184500000D03*
%TD*%
D11*
%TO.P,S23,1*%
%TO.N,col0row3*%
X329225000Y-160550000D03*
%TO.P,S23,2*%
%TO.N,row3*%
X340775000Y-162750000D03*
%TD*%
%TO.P,S6,1*%
%TO.N,col4row1*%
X255225000Y-139050000D03*
%TO.P,S6,2*%
%TO.N,row1*%
X266775000Y-141250000D03*
%TD*%
%TO.P,S26,1*%
%TO.N,col0row0*%
X329225000Y-108050000D03*
%TO.P,S26,2*%
%TO.N,row0*%
X340775000Y-110250000D03*
%TD*%
D10*
%TO.P,D93,1*%
%TO.N,col4row1*%
X256850000Y-149500000D03*
%TO.P,D93,2*%
%TO.N,col4*%
X260150000Y-149500000D03*
%TD*%
D15*
%TO.P,S114,1*%
%TO.N,col2row4*%
X331547924Y-180737171D03*
%TO.P,S114,2*%
%TO.N,row4*%
X342427445Y-185195705D03*
%TD*%
D10*
%TO.P,D113,1*%
%TO.N,col0row0*%
X330850000Y-118500000D03*
%TO.P,D113,2*%
%TO.N,col0*%
X334150000Y-118500000D03*
%TD*%
D11*
%TO.P,S99,1*%
%TO.N,col3row0*%
X273725000Y-104050000D03*
%TO.P,S99,2*%
%TO.N,row0*%
X285275000Y-106250000D03*
%TD*%
%TO.P,S106,1*%
%TO.N,col1row3*%
X310725000Y-156550000D03*
%TO.P,S106,2*%
%TO.N,row3*%
X322275000Y-158750000D03*
%TD*%
D10*
%TO.P,D102,1*%
%TO.N,col2row2*%
X293850000Y-144500000D03*
%TO.P,D102,2*%
%TO.N,col2*%
X297150000Y-144500000D03*
%TD*%
D11*
%TO.P,S89,1*%
%TO.N,col5row2*%
X236725000Y-156550000D03*
%TO.P,S89,2*%
%TO.N,row2*%
X248275000Y-158750000D03*
%TD*%
D10*
%TO.P,D100,1*%
%TO.N,col4row4*%
X293850000Y-179500000D03*
%TO.P,D100,2*%
%TO.N,col4*%
X297150000Y-179500000D03*
%TD*%
D11*
%TO.P,S3,1*%
%TO.N,col5row1*%
X236725000Y-139050000D03*
%TO.P,S3,2*%
%TO.N,row1*%
X248275000Y-141250000D03*
%TD*%
%TO.P,S9,1*%
%TO.N,col3row3*%
X273725000Y-156550000D03*
%TO.P,S9,2*%
%TO.N,row3*%
X285275000Y-158750000D03*
%TD*%
%TO.P,S101,1*%
%TO.N,col2row3*%
X292225000Y-151550000D03*
%TO.P,S101,2*%
%TO.N,row3*%
X303775000Y-153750000D03*
%TD*%
%TO.P,S2,1*%
%TO.N,col5row2*%
X236725000Y-156550000D03*
%TO.P,S2,2*%
%TO.N,row2*%
X248275000Y-158750000D03*
%TD*%
%TO.P,S14,1*%
%TO.N,col2row3*%
X292225000Y-151550000D03*
%TO.P,S14,2*%
%TO.N,row3*%
X303775000Y-153750000D03*
%TD*%
%TO.P,S107,1*%
%TO.N,col1row2*%
X310725000Y-139050000D03*
%TO.P,S107,2*%
%TO.N,row2*%
X322275000Y-141250000D03*
%TD*%
%TO.P,S109,1*%
%TO.N,col1row0*%
X310725000Y-104050000D03*
%TO.P,S109,2*%
%TO.N,row0*%
X322275000Y-106250000D03*
%TD*%
%TO.P,S16,1*%
%TO.N,col2row1*%
X292225000Y-116550000D03*
%TO.P,S16,2*%
%TO.N,row1*%
X303775000Y-118750000D03*
%TD*%
D10*
%TO.P,D89,1*%
%TO.N,col5row2*%
X238350000Y-167000000D03*
%TO.P,D89,2*%
%TO.N,col5*%
X241650000Y-167000000D03*
%TD*%
D11*
%TO.P,S20,1*%
%TO.N,col1row2*%
X310725000Y-139050000D03*
%TO.P,S20,2*%
%TO.N,row2*%
X322275000Y-141250000D03*
%TD*%
%TO.P,S22,1*%
%TO.N,col1row0*%
X310725000Y-104050000D03*
%TO.P,S22,2*%
%TO.N,row0*%
X322275000Y-106250000D03*
%TD*%
%TO.P,S112,1*%
%TO.N,col0row1*%
X329225000Y-125550000D03*
%TO.P,S112,2*%
%TO.N,row1*%
X340775000Y-127750000D03*
%TD*%
D10*
%TO.P,D104,1*%
%TO.N,col2row0*%
X293850000Y-109500000D03*
%TO.P,D104,2*%
%TO.N,col2*%
X297150000Y-109500000D03*
%TD*%
D11*
%TO.P,S25,1*%
%TO.N,col0row1*%
X329225000Y-125550000D03*
%TO.P,S25,2*%
%TO.N,row1*%
X340775000Y-127750000D03*
%TD*%
%TO.P,S10,1*%
%TO.N,col3row2*%
X273725000Y-139050000D03*
%TO.P,S10,2*%
%TO.N,row2*%
X285275000Y-141250000D03*
%TD*%
%TO.P,S96,1*%
%TO.N,col3row3*%
X273725000Y-156550000D03*
%TO.P,S96,2*%
%TO.N,row3*%
X285275000Y-158750000D03*
%TD*%
D10*
%TO.P,D97,1*%
%TO.N,col3row2*%
X275350000Y-149500000D03*
%TO.P,D97,2*%
%TO.N,col3*%
X278650000Y-149500000D03*
%TD*%
D11*
%TO.P,S4,1*%
%TO.N,col4row3*%
X255225000Y-174050000D03*
%TO.P,S4,2*%
%TO.N,row3*%
X266775000Y-176250000D03*
%TD*%
D10*
%TO.P,D91,1*%
%TO.N,col4row3*%
X256850000Y-184500000D03*
%TO.P,D91,2*%
%TO.N,col4*%
X260150000Y-184500000D03*
%TD*%
D11*
%TO.P,S1,1*%
%TO.N,col5row3*%
X236725000Y-174050000D03*
%TO.P,S1,2*%
%TO.N,row3*%
X248275000Y-176250000D03*
%TD*%
%TO.P,S113,1*%
%TO.N,col0row0*%
X329225000Y-108050000D03*
%TO.P,S113,2*%
%TO.N,row0*%
X340775000Y-110250000D03*
%TD*%
D10*
%TO.P,D103,1*%
%TO.N,col2row1*%
X293850000Y-127000000D03*
%TO.P,D103,2*%
%TO.N,col2*%
X297150000Y-127000000D03*
%TD*%
D11*
%TO.P,S21,1*%
%TO.N,col1row1*%
X310725000Y-121550000D03*
%TO.P,S21,2*%
%TO.N,row1*%
X322275000Y-123750000D03*
%TD*%
%TO.P,S95,1*%
%TO.N,col5row4*%
X273725000Y-174050000D03*
%TO.P,S95,2*%
%TO.N,row4*%
X285275000Y-176250000D03*
%TD*%
D10*
%TO.P,D109,1*%
%TO.N,col1row0*%
X312350000Y-114500000D03*
%TO.P,D109,2*%
%TO.N,col1*%
X315650000Y-114500000D03*
%TD*%
D11*
%TO.P,S105,1*%
%TO.N,col3row4*%
X310725000Y-174050000D03*
%TO.P,S105,2*%
%TO.N,row4*%
X322275000Y-176250000D03*
%TD*%
%TO.P,S17,1*%
%TO.N,col2row0*%
X292225000Y-99050000D03*
%TO.P,S17,2*%
%TO.N,row0*%
X303775000Y-101250000D03*
%TD*%
D10*
%TO.P,D101,1*%
%TO.N,col2row3*%
X293850000Y-162000000D03*
%TO.P,D101,2*%
%TO.N,col2*%
X297150000Y-162000000D03*
%TD*%
D11*
%TO.P,S88,1*%
%TO.N,col5row3*%
X236725000Y-174050000D03*
%TO.P,S88,2*%
%TO.N,row3*%
X248275000Y-176250000D03*
%TD*%
D15*
%TO.P,S27,1*%
%TO.N,col2row4*%
X331547924Y-180737171D03*
%TO.P,S27,2*%
%TO.N,row4*%
X342427445Y-185195705D03*
%TD*%
D11*
%TO.P,S12,1*%
%TO.N,col3row0*%
X273725000Y-104050000D03*
%TO.P,S12,2*%
%TO.N,row0*%
X285275000Y-106250000D03*
%TD*%
D10*
%TO.P,D90,1*%
%TO.N,col5row1*%
X238350000Y-149500000D03*
%TO.P,D90,2*%
%TO.N,col5*%
X241650000Y-149500000D03*
%TD*%
D11*
%TO.P,S108,1*%
%TO.N,col1row1*%
X310725000Y-121550000D03*
%TO.P,S108,2*%
%TO.N,row1*%
X322275000Y-123750000D03*
%TD*%
D16*
%TO.P,D114,1*%
%TO.N,col2row4*%
X331056907Y-191301358D03*
%TO.P,D114,2*%
%TO.N,col2*%
X334290659Y-191959272D03*
%TD*%
D11*
%TO.P,S11,1*%
%TO.N,col3row1*%
X273725000Y-121550000D03*
%TO.P,S11,2*%
%TO.N,row1*%
X285275000Y-123750000D03*
%TD*%
%TO.P,S91,1*%
%TO.N,col4row3*%
X255225000Y-174050000D03*
%TO.P,S91,2*%
%TO.N,row3*%
X266775000Y-176250000D03*
%TD*%
%TO.P,S7,1*%
%TO.N,col4row0*%
X255225000Y-121550000D03*
%TO.P,S7,2*%
%TO.N,row0*%
X266775000Y-123750000D03*
%TD*%
%TO.P,S93,1*%
%TO.N,col4row1*%
X255225000Y-139050000D03*
%TO.P,S93,2*%
%TO.N,row1*%
X266775000Y-141250000D03*
%TD*%
%TO.P,S19,1*%
%TO.N,col1row3*%
X310725000Y-156550000D03*
%TO.P,S19,2*%
%TO.N,row3*%
X322275000Y-158750000D03*
%TD*%
D17*
%TO.P,D115,1*%
%TO.N,col1row4*%
X350404822Y-198424060D03*
%TO.P,D115,2*%
%TO.N,col1*%
X353196646Y-200183526D03*
%TD*%
D10*
%TO.P,D88,1*%
%TO.N,col5row3*%
X238350000Y-184500000D03*
%TO.P,D88,2*%
%TO.N,col5*%
X241650000Y-184500000D03*
%TD*%
%TO.P,D107,1*%
%TO.N,col1row2*%
X312350000Y-149500000D03*
%TO.P,D107,2*%
%TO.N,col1*%
X315650000Y-149500000D03*
%TD*%
D13*
%TO.P,S29,1*%
%TO.N,col0row4*%
X373341147Y-204336928D03*
%TO.P,S29,2*%
%TO.N,row4*%
X378546155Y-214879716D03*
%TD*%
D11*
%TO.P,S102,1*%
%TO.N,col2row2*%
X292225000Y-134050000D03*
%TO.P,S102,2*%
%TO.N,row2*%
X303775000Y-136250000D03*
%TD*%
D18*
%TO.P,C4,1*%
%TO.N,/controller/vdd*%
X343750000Y-161412500D03*
%TO.P,C4,2*%
%TO.N,sysgnd*%
X343750000Y-159687500D03*
%TD*%
D19*
%TO.P,D31,1,A*%
%TO.N,/controller/vdd*%
X348950000Y-150045000D03*
%TO.P,D31,2,RK*%
%TO.N,unconnected-(D31-RK-Pad2)*%
X346050000Y-150045000D03*
%TO.P,D31,3,GK*%
%TO.N,/controller/bat_lvl1*%
X346050000Y-150995000D03*
%TO.P,D31,4,BK*%
%TO.N,/controller/bat_lvl2*%
X348950000Y-150995000D03*
%TD*%
D20*
%TO.P,R30,1*%
%TO.N,/controller/low_batt*%
X358722500Y-147410000D03*
%TO.P,R30,2*%
%TO.N,sysgnd*%
X356897500Y-147410000D03*
%TD*%
D21*
%TO.P,C3,1*%
%TO.N,/controller/vdd*%
X357757500Y-161090000D03*
%TO.P,C3,2*%
%TO.N,sysgnd*%
X359482500Y-161090000D03*
%TD*%
D22*
%TO.P,R25,1*%
%TO.N,USB0_P*%
X353910000Y-158257500D03*
%TO.P,R25,2*%
%TO.N,USB_P*%
X353910000Y-160082500D03*
%TD*%
D23*
%TO.P,J2,1,Pin_1*%
%TO.N,/controller/chassi*%
X313960000Y-98570000D03*
%TD*%
%TO.P,TP16,1,1*%
%TO.N,vsys*%
X347700000Y-145800000D03*
%TD*%
D20*
%TO.P,R14,1*%
%TO.N,Net-(F3-Pad2)*%
X350932500Y-126700000D03*
%TO.P,R14,2*%
%TO.N,/controller/BatteryManagement/bat_fused*%
X349107500Y-126700000D03*
%TD*%
D24*
%TO.P,SW31,*%
%TO.N,*%
X346935452Y-111513327D03*
X344913391Y-112405163D03*
X349881333Y-118192533D03*
X347859272Y-119084368D03*
D25*
%TO.P,SW31,1,A*%
%TO.N,sysgnd*%
X344517647Y-114109829D03*
%TO.P,SW31,2,B*%
%TO.N,Net-(SW31-B)*%
X345728283Y-116854708D03*
%TO.P,SW31,3,C*%
%TO.N,unconnected-(SW31-C-Pad3)*%
X346333601Y-118227147D03*
%TD*%
D26*
%TO.P,U4,1,TS*%
%TO.N,Net-(U4-TS)*%
X342700000Y-119600000D03*
%TO.P,U4,2,BAT*%
%TO.N,/controller/BatteryManagement/bat_fused*%
X342700000Y-120100000D03*
%TO.P,U4,3,BAT*%
X342700000Y-120600000D03*
%TO.P,U4,4,~{CE}*%
%TO.N,sysgnd*%
X342700000Y-121100000D03*
D27*
%TO.P,U4,5,EN2*%
%TO.N,/controller/fast_chg*%
X342012500Y-121787500D03*
%TO.P,U4,6,EN1*%
%TO.N,sysgnd*%
X341512500Y-121787500D03*
%TO.P,U4,7,~{PGOOD}*%
%TO.N,Net-(U4-~{PGOOD})*%
X341012500Y-121787500D03*
%TO.P,U4,8,VSS*%
%TO.N,sysgnd*%
X340512500Y-121787500D03*
D26*
%TO.P,U4,9,~{CHG}*%
%TO.N,/controller/chg_led*%
X339825000Y-121100000D03*
%TO.P,U4,10,OUT*%
%TO.N,vsys*%
X339825000Y-120600000D03*
%TO.P,U4,11,OUT*%
X339825000Y-120100000D03*
%TO.P,U4,12,ILIM*%
%TO.N,Net-(U4-ILIM)*%
X339825000Y-119600000D03*
D27*
%TO.P,U4,13,IN*%
%TO.N,/controller/vusb*%
X340512500Y-118912500D03*
%TO.P,U4,14,TMR*%
%TO.N,unconnected-(U4-TMR-Pad14)*%
X341012500Y-118912500D03*
%TO.P,U4,15,SYSOFF*%
%TO.N,Net-(SW31-B)*%
X341512500Y-118912500D03*
%TO.P,U4,16,ISET*%
%TO.N,Net-(U4-ISET)*%
X342012500Y-118912500D03*
D28*
%TO.P,U4,17,VSS*%
%TO.N,sysgnd*%
X341262500Y-120350000D03*
%TD*%
D29*
%TO.P,F3,1*%
%TO.N,/controller/BatteryManagement/bat+*%
X354180000Y-136905000D03*
%TO.P,F3,2*%
%TO.N,Net-(F3-Pad2)*%
X354180000Y-135155000D03*
%TD*%
D19*
%TO.P,D32,1,A*%
%TO.N,/controller/vdd*%
X348950000Y-159060000D03*
%TO.P,D32,2,RK*%
%TO.N,unconnected-(D32-RK-Pad2)*%
X346050000Y-159060000D03*
%TO.P,D32,3,GK*%
%TO.N,/controller/status1*%
X346050000Y-160010000D03*
%TO.P,D32,4,BK*%
%TO.N,/controller/status2*%
X348950000Y-160010000D03*
%TD*%
D22*
%TO.P,R2,1*%
%TO.N,Net-(C17-Pad1)*%
X358170000Y-156737500D03*
%TO.P,R2,2*%
%TO.N,/controller/vdd*%
X358170000Y-158562500D03*
%TD*%
D30*
%TO.P,L2,1,1*%
%TO.N,Net-(U2-SW)*%
X351900000Y-151380000D03*
%TO.P,L2,2,2*%
%TO.N,Net-(C17-Pad1)*%
X356000000Y-151380000D03*
%TD*%
D31*
%TO.P,C5,1*%
%TO.N,/controller/low_batt*%
X358652500Y-145050000D03*
%TO.P,C5,2*%
%TO.N,sysgnd*%
X356927500Y-145050000D03*
%TD*%
D23*
%TO.P,TP13,1,1*%
%TO.N,vbus_fused*%
X340500000Y-100560000D03*
%TD*%
D32*
%TO.P,C7,1*%
%TO.N,/controller/vusb*%
X341300000Y-166987500D03*
%TO.P,C7,2*%
%TO.N,sysgnd*%
X341300000Y-168712500D03*
%TD*%
%TO.P,C16,1*%
%TO.N,vsys*%
X350380000Y-145867500D03*
%TO.P,C16,2*%
%TO.N,sysgnd*%
X350380000Y-147592500D03*
%TD*%
D33*
%TO.P,J6,*%
%TO.N,*%
X335390000Y-100350000D03*
D34*
%TO.P,J6,A1,GND*%
%TO.N,sysgnd*%
X329300000Y-101425000D03*
%TO.P,J6,A4,VBUS*%
%TO.N,vbus_no_fuse*%
X330100000Y-101425000D03*
D35*
%TO.P,J6,A5,CC1*%
%TO.N,cc1*%
X331250000Y-101425000D03*
%TO.P,J6,A6,D+*%
%TO.N,usb1_p*%
X332250000Y-101425000D03*
%TO.P,J6,A7,D-*%
%TO.N,usb1_n*%
X332750000Y-101425000D03*
%TO.P,J6,A8,SBU1*%
%TO.N,unconnected-(J6-SBU1-PadA8)*%
X333750000Y-101425000D03*
D34*
%TO.P,J6,A9,VBUS*%
%TO.N,vbus_no_fuse*%
X334900000Y-101425000D03*
%TO.P,J6,A12,GND*%
%TO.N,sysgnd*%
X335700000Y-101425000D03*
%TO.P,J6,B1,GND*%
X335700000Y-101425000D03*
%TO.P,J6,B4,VBUS*%
%TO.N,vbus_no_fuse*%
X334900000Y-101425000D03*
D35*
%TO.P,J6,B5,CC2*%
%TO.N,cc2*%
X334250000Y-101425000D03*
%TO.P,J6,B6,D+*%
%TO.N,usb1_p*%
X333250000Y-101425000D03*
%TO.P,J6,B7,D-*%
%TO.N,usb1_n*%
X331750000Y-101425000D03*
%TO.P,J6,B8,SBU2*%
%TO.N,unconnected-(J6-SBU2-PadB8)*%
X330750000Y-101425000D03*
D34*
%TO.P,J6,B9,VBUS*%
%TO.N,vbus_no_fuse*%
X330100000Y-101425000D03*
%TO.P,J6,B12,GND*%
%TO.N,sysgnd*%
X329300000Y-101425000D03*
D36*
%TO.P,J6,S1,SHIELD*%
%TO.N,/controller/chassi*%
X328180000Y-96670000D03*
D37*
X328180000Y-100870000D03*
D36*
X336820000Y-96670000D03*
D37*
X336820000Y-100870000D03*
%TD*%
D38*
%TO.P,R8,1*%
%TO.N,Net-(U4-ISET)*%
X341470000Y-116892500D03*
%TO.P,R8,2*%
%TO.N,sysgnd*%
X341470000Y-115067500D03*
%TD*%
D23*
%TO.P,TP1,1,1*%
%TO.N,Net-(U4-~{PGOOD})*%
X342150000Y-135440000D03*
%TD*%
D38*
%TO.P,R7,1*%
%TO.N,Net-(U4-ILIM)*%
X337140000Y-119982500D03*
%TO.P,R7,2*%
%TO.N,sysgnd*%
X337140000Y-118157500D03*
%TD*%
D19*
%TO.P,D30,1,A*%
%TO.N,/controller/vdd*%
X348960000Y-141045000D03*
%TO.P,D30,2,RK*%
%TO.N,Net-(D30-RK)*%
X346060000Y-141045000D03*
%TO.P,D30,3,GK*%
%TO.N,/controller/chg_led*%
X346060000Y-141995000D03*
%TO.P,D30,4,BK*%
%TO.N,unconnected-(D30-BK-Pad4)*%
X348960000Y-141995000D03*
%TD*%
D23*
%TO.P,TP10,1,1*%
%TO.N,Net-(F3-Pad2)*%
X356760000Y-138860000D03*
%TD*%
%TO.P,TP14,1,1*%
%TO.N,/controller/vusb*%
X341410000Y-153220000D03*
%TD*%
%TO.P,TP15,1,1*%
%TO.N,sysgnd*%
X307070000Y-97090000D03*
%TD*%
D20*
%TO.P,R5,1*%
%TO.N,Net-(C17-Pad1)*%
X354200000Y-141730000D03*
%TO.P,R5,2*%
%TO.N,Net-(U2-FB)*%
X352375000Y-141730000D03*
%TD*%
%TO.P,R1,1*%
%TO.N,/controller/fast_chg_led*%
X345800000Y-139000000D03*
%TO.P,R1,2*%
%TO.N,Net-(D30-RK)*%
X343975000Y-139000000D03*
%TD*%
D39*
%TO.P,U1,1,GND*%
%TO.N,sysgnd*%
X361820000Y-183970000D03*
%TO.P,U1,2,P1.10*%
%TO.N,/controller/fast_chg*%
X360420000Y-183970000D03*
%TO.P,U1,3,P1.13*%
%TO.N,/controller/fast_chg_led*%
X359020000Y-183970000D03*
%TO.P,U1,4,P1.15*%
%TO.N,/controller/bat_lvl1*%
X357620000Y-183970000D03*
%TO.P,U1,5,P0.02/AIN0*%
%TO.N,/controller/bat_lvl2*%
X356220000Y-183970000D03*
%TO.P,U1,6,P0.04/AIN1*%
%TO.N,/controller/status1*%
X354820000Y-183970000D03*
%TO.P,U1,7,P0.28/AIN4*%
%TO.N,/controller/status2*%
X353420000Y-183970000D03*
%TO.P,U1,8,P0.29/AIN5*%
%TO.N,sysgnd*%
X352020000Y-183970000D03*
%TO.P,U1,9,P0.31/AIN7*%
%TO.N,/controller/low_batt*%
X350620000Y-183970000D03*
%TO.P,U1,10,P0.30/AIN6*%
%TO.N,col5*%
X349220000Y-183970000D03*
%TO.P,U1,11,AIN3*%
%TO.N,col4*%
X347820000Y-183970000D03*
%TO.P,U1,12,VDD*%
%TO.N,/controller/vdd*%
X346420000Y-183970000D03*
D40*
%TO.P,U1,13,GND*%
%TO.N,sysgnd*%
X344220000Y-180920000D03*
%TO.P,U1,14,P0.04/AIN2*%
%TO.N,col3*%
X344220000Y-179520000D03*
%TO.P,U1,15,P0.26*%
%TO.N,col2*%
X344220000Y-178120000D03*
%TO.P,U1,16,P0.27*%
%TO.N,col1*%
X344220000Y-176720000D03*
%TO.P,U1,17,P0.06*%
%TO.N,col0*%
X344220000Y-175320000D03*
%TO.P,U1,18,P0.10/NFC2*%
%TO.N,row4*%
X344220000Y-173920000D03*
%TO.P,U1,19,P0.09/NFC1*%
%TO.N,row3*%
X344220000Y-172520000D03*
%TO.P,U1,20,P0.08*%
%TO.N,row2*%
X344220000Y-171120000D03*
%TO.P,U1,21,P1.09*%
%TO.N,row1*%
X344220000Y-169720000D03*
%TO.P,U1,22,P0.12*%
%TO.N,row0*%
X344220000Y-168320000D03*
%TO.P,U1,23,VBUS*%
%TO.N,/controller/vusb*%
X344220000Y-166920000D03*
D41*
%TO.P,U1,24,VDD*%
%TO.N,/controller/vdd*%
X346420000Y-163870000D03*
%TO.P,U1,25,USB_D-*%
%TO.N,USB_N*%
X347820000Y-163870000D03*
%TO.P,U1,26,USB_D+*%
%TO.N,USB_P*%
X349220000Y-163870000D03*
%TO.P,U1,27,P0.13*%
%TO.N,sysgnd*%
X350620000Y-163870000D03*
%TO.P,U1,28,P0.15*%
X352020000Y-163870000D03*
%TO.P,U1,29,P0.17*%
X353420000Y-163870000D03*
%TO.P,U1,30,P0.24*%
X354820000Y-163870000D03*
%TO.P,U1,31,RST/SWO*%
%TO.N,/controller/reset*%
X356220000Y-163870000D03*
%TO.P,U1,32,VDD*%
%TO.N,/controller/vdd*%
X357620000Y-163870000D03*
%TO.P,U1,33,SWDIO*%
%TO.N,/controller/swdio*%
X359020000Y-163870000D03*
%TO.P,U1,34,SWDCLK*%
%TO.N,/controller/swdclk*%
X360420000Y-163870000D03*
%TO.P,U1,35,GND*%
%TO.N,sysgnd*%
X361820000Y-163870000D03*
%TD*%
D21*
%TO.P,C6,1*%
%TO.N,/controller/vdd*%
X348072500Y-186880000D03*
%TO.P,C6,2*%
%TO.N,sysgnd*%
X349797500Y-186880000D03*
%TD*%
D42*
%TO.P,U2,1,EN*%
%TO.N,vsys*%
X352515000Y-146185000D03*
%TO.P,U2,2,FB*%
%TO.N,Net-(U2-FB)*%
X353015000Y-146185000D03*
%TO.P,U2,3,AGND*%
%TO.N,sysgnd*%
X353515000Y-146185000D03*
%TO.P,U2,4,NC*%
%TO.N,unconnected-(U2-NC-Pad4)*%
X354015000Y-146185000D03*
%TO.P,U2,5,PGND*%
%TO.N,sysgnd*%
X354015000Y-147635000D03*
%TO.P,U2,6,SW*%
%TO.N,Net-(U2-SW)*%
X353515000Y-147635000D03*
%TO.P,U2,7,VIN*%
%TO.N,vsys*%
X353015000Y-147635000D03*
%TO.P,U2,8,PG*%
%TO.N,unconnected-(U2-PG-Pad8)*%
X352515000Y-147635000D03*
%TD*%
D43*
%TO.P,R9,1*%
%TO.N,Net-(U2-FB)*%
X352387500Y-139600000D03*
%TO.P,R9,2*%
%TO.N,sysgnd*%
X354212500Y-139600000D03*
%TD*%
%TO.P,R4,1*%
%TO.N,Net-(U4-TS)*%
X345097500Y-121830000D03*
%TO.P,R4,2*%
%TO.N,sysgnd*%
X346922500Y-121830000D03*
%TD*%
D31*
%TO.P,C1,1*%
%TO.N,/controller/vusb*%
X338712500Y-116080000D03*
%TO.P,C1,2*%
%TO.N,sysgnd*%
X336987500Y-116080000D03*
%TD*%
D23*
%TO.P,TP22,1,1*%
%TO.N,/controller/low_batt*%
X343940000Y-191410000D03*
%TD*%
D22*
%TO.P,R23,1*%
%TO.N,cc2*%
X323400000Y-98337500D03*
%TO.P,R23,2*%
%TO.N,sysgnd*%
X323400000Y-100162500D03*
%TD*%
D44*
%TO.P,U3,1,I/O1*%
%TO.N,usb1_n*%
X319957500Y-99980000D03*
%TO.P,U3,2,GND*%
%TO.N,sysgnd*%
X319957500Y-100930000D03*
%TO.P,U3,3,I/O2*%
%TO.N,usb1_p*%
X319957500Y-101880000D03*
%TO.P,U3,4,I/O2*%
%TO.N,USB0_P*%
X317682500Y-101880000D03*
%TO.P,U3,5,VBUS*%
%TO.N,vbus_fused*%
X317682500Y-100930000D03*
%TO.P,U3,6,I/O1*%
%TO.N,USB0_N*%
X317682500Y-99980000D03*
%TD*%
D45*
%TO.P,F4,1*%
%TO.N,vbus_no_fuse*%
X336210000Y-104655000D03*
%TO.P,F4,2*%
%TO.N,vbus_fused*%
X336210000Y-106405000D03*
%TD*%
D31*
%TO.P,C2,1*%
%TO.N,Net-(C17-Pad1)*%
X354167500Y-144010000D03*
%TO.P,C2,2*%
%TO.N,Net-(U2-FB)*%
X352442500Y-144010000D03*
%TD*%
D23*
%TO.P,TP18,1,1*%
%TO.N,/controller/vdd*%
X362330000Y-159290000D03*
%TD*%
%TO.P,TP17,1,1*%
%TO.N,Net-(C17-Pad1)*%
X360870000Y-155530000D03*
%TD*%
D43*
%TO.P,R13,1*%
%TO.N,vbus_fused*%
X332347500Y-104390000D03*
%TO.P,R13,2*%
%TO.N,/controller/vusb*%
X334172500Y-104390000D03*
%TD*%
D23*
%TO.P,TP11,1,1*%
%TO.N,/controller/BatteryManagement/bat_fused*%
X361300000Y-148000000D03*
%TD*%
D46*
%TO.P,J8,1,Pin_1*%
%TO.N,sysgnd*%
X378166051Y-198676051D03*
D47*
%TO.P,J8,2,Pin_2*%
%TO.N,/controller/reset*%
X376370000Y-196880000D03*
%TO.P,J8,3,Pin_3*%
%TO.N,/controller/status1*%
X374573949Y-195083949D03*
%TO.P,J8,4,Pin_4*%
%TO.N,/controller/swdclk*%
X372777897Y-193287897D03*
%TO.P,J8,5,Pin_5*%
%TO.N,/controller/swdio*%
X370981846Y-191491846D03*
%TO.P,J8,6,Pin_6*%
%TO.N,/controller/vdd*%
X369185795Y-189695795D03*
%TD*%
D48*
%TO.P,J1,1,Pin_1*%
%TO.N,sysgnd*%
X347340000Y-135800000D03*
%TO.P,J1,2,Pin_2*%
%TO.N,/controller/BatteryManagement/bat+*%
X349340000Y-135800000D03*
D49*
%TO.P,J1,MP*%
%TO.N,N/C*%
X344990000Y-130050000D03*
X351690000Y-130050000D03*
%TD*%
D21*
%TO.P,C17,1*%
%TO.N,Net-(C17-Pad1)*%
X358217500Y-152870000D03*
%TO.P,C17,2*%
%TO.N,sysgnd*%
X359942500Y-152870000D03*
%TD*%
D22*
%TO.P,R20,1*%
%TO.N,cc1*%
X325860000Y-98327500D03*
%TO.P,R20,2*%
%TO.N,sysgnd*%
X325860000Y-100152500D03*
%TD*%
%TO.P,R19,1*%
%TO.N,/controller/BatteryManagement/bat_fused*%
X356900000Y-141147500D03*
%TO.P,R19,2*%
%TO.N,/controller/low_batt*%
X356900000Y-142972500D03*
%TD*%
D32*
%TO.P,C10,1*%
%TO.N,/controller/BatteryManagement/bat_fused*%
X349300000Y-123017500D03*
%TO.P,C10,2*%
%TO.N,sysgnd*%
X349300000Y-124742500D03*
%TD*%
D22*
%TO.P,R24,1*%
%TO.N,USB0_N*%
X351130000Y-158277500D03*
%TO.P,R24,2*%
%TO.N,USB_N*%
X351130000Y-160102500D03*
%TD*%
D50*
%TO.N,sysgnd*%
X347680000Y-124810000D03*
X335770000Y-114850000D03*
X338540000Y-118090000D03*
X341290000Y-113610000D03*
X356870000Y-148910000D03*
X358220000Y-143650000D03*
X350010000Y-132930000D03*
D51*
X340710000Y-120890000D03*
X341810000Y-120900000D03*
X340720000Y-119810000D03*
D50*
%TO.N,row3*%
X317100000Y-153600000D03*
X336175000Y-158325000D03*
X298600000Y-147950000D03*
X296450000Y-147850000D03*
X277800000Y-169750000D03*
X261950000Y-174450000D03*
X333450000Y-157550000D03*
X314900000Y-153600000D03*
X279800000Y-169950000D03*
X259600000Y-176850000D03*
%TO.N,row2*%
X336550000Y-160150000D03*
X259150000Y-159850000D03*
X298500000Y-130700000D03*
X296500000Y-130700000D03*
X315300000Y-136200000D03*
X334095500Y-140500000D03*
X338501400Y-171074300D03*
X339950400Y-171450000D03*
X262150000Y-160600000D03*
X280000000Y-146800000D03*
X317050000Y-136200000D03*
X335544500Y-140500000D03*
X277150000Y-148000000D03*
X337700000Y-158800000D03*
%TO.N,row1*%
X298650000Y-125150000D03*
X280400000Y-130550000D03*
X278000000Y-130350000D03*
X335544500Y-138450000D03*
X334095500Y-138450000D03*
X338450000Y-169550000D03*
X337000000Y-168550000D03*
X335425500Y-167850000D03*
X340100000Y-169700000D03*
X337000201Y-142499799D03*
X338024799Y-141475201D03*
X296350000Y-125350000D03*
%TO.N,row0*%
X328362299Y-135337701D03*
X333450000Y-164150000D03*
X339950400Y-167900000D03*
X326250000Y-158000000D03*
X336500000Y-165200000D03*
X330250000Y-163450000D03*
X327337701Y-136362299D03*
X327350000Y-141224500D03*
X326300000Y-159700000D03*
X328450000Y-163000000D03*
X338400000Y-168000000D03*
X327300000Y-139550000D03*
%TO.N,row4*%
X325850000Y-174400000D03*
X335350000Y-169700000D03*
X328950000Y-171900000D03*
X333865000Y-169700000D03*
%TO.N,col2row4*%
X329830000Y-190324500D03*
X330717750Y-188875500D03*
X331300000Y-185250000D03*
X331300000Y-183775500D03*
%TO.N,col1row4*%
X351750000Y-194050000D03*
X352500000Y-192447984D03*
%TO.N,col0row4*%
X370950000Y-204700000D03*
X370050000Y-207000000D03*
%TO.N,col5*%
X347550000Y-180750000D03*
X344200000Y-182600000D03*
%TO.N,col4*%
X299600000Y-190600000D03*
X299500000Y-188875500D03*
X347550000Y-181850000D03*
X344200000Y-183599503D03*
%TO.N,col2*%
X328420000Y-188875500D03*
X328440000Y-190324500D03*
X329600000Y-194050000D03*
X329400000Y-192425500D03*
X329000000Y-183750000D03*
X329450000Y-185224500D03*
%TO.N,col1*%
X323950000Y-194000000D03*
X324200000Y-185650000D03*
X324100000Y-192250000D03*
X328800000Y-174450000D03*
X323900000Y-190324500D03*
X324000000Y-183350000D03*
X324050000Y-188800000D03*
X327737701Y-176012299D03*
%TO.N,col0*%
X327050000Y-183775500D03*
X331062299Y-175687701D03*
X333940688Y-121209312D03*
X326400000Y-190324500D03*
X326350000Y-192300000D03*
X326550000Y-188600000D03*
X326200000Y-194150000D03*
X326650000Y-185224500D03*
X333064062Y-122735438D03*
X329262701Y-177537299D03*
%TO.N,/controller/vusb*%
X326912000Y-106930000D03*
X324586000Y-107840000D03*
%TO.N,sysgnd*%
X363400000Y-185800000D03*
X349950000Y-166140000D03*
X342550000Y-168900000D03*
X352897299Y-162087299D03*
X354200000Y-138300000D03*
X351510000Y-146800000D03*
X343407818Y-113000000D03*
X321664330Y-100951172D03*
X336260000Y-102430000D03*
X359000000Y-151750000D03*
X363100000Y-162300000D03*
X353650000Y-145150000D03*
D51*
X341262500Y-120350000D03*
D50*
X328670000Y-102405500D03*
X361300000Y-161650000D03*
X348150000Y-188550000D03*
X324710000Y-98590000D03*
D51*
X341790000Y-119810000D03*
D50*
X348130001Y-121879999D03*
X344500000Y-158350000D03*
X354660500Y-147650000D03*
X342100000Y-180750000D03*
X324650000Y-100230000D03*
X354600000Y-165550000D03*
X352080000Y-166780000D03*
X351450000Y-181650000D03*
%TO.N,/controller/chg_led*%
X348050688Y-129449312D03*
X346844312Y-130645688D03*
%TO.N,/controller/bat_lvl1*%
X356944500Y-180400000D03*
X353020000Y-171770500D03*
X355495500Y-180400000D03*
X353020000Y-173469500D03*
X354165047Y-162135047D03*
X353270000Y-166420000D03*
%TO.N,/controller/bat_lvl2*%
X355400000Y-173469500D03*
X355400000Y-171770500D03*
X356100000Y-162270500D03*
X355776000Y-166150000D03*
%TO.N,/controller/status1*%
X352100000Y-186677772D03*
X352010000Y-188126772D03*
X344586812Y-163463188D03*
X345800000Y-162250000D03*
%TO.N,/controller/status2*%
X351300000Y-162270500D03*
X350900938Y-165500438D03*
X350350000Y-171770500D03*
X350500000Y-173469500D03*
%TO.N,/controller/reset*%
X358200000Y-169250000D03*
X361174500Y-169400000D03*
X362839296Y-170065788D03*
X364250000Y-170600000D03*
X359725500Y-169350000D03*
X371400000Y-180750000D03*
X367466485Y-174000000D03*
X368915485Y-174050000D03*
X373050000Y-182250000D03*
X356500500Y-168950000D03*
%TO.N,/controller/fast_chg_led*%
X368250000Y-180750000D03*
X368187701Y-182762299D03*
%TD*%
D52*
%TO.N,col5row3*%
X238350000Y-184500000D02*
X236725000Y-182875000D01*
X236725000Y-182875000D02*
X236725000Y-174050000D01*
%TO.N,row0*%
X344220000Y-168320000D02*
X343750000Y-167850000D01*
X343750000Y-167850000D02*
X340000400Y-167850000D01*
X340000400Y-167850000D02*
X339950400Y-167900000D01*
D53*
%TO.N,/controller/BatteryManagement/bat_fused*%
X358610000Y-140110000D02*
X358570000Y-140070000D01*
X358570000Y-140070000D02*
X358570000Y-138040000D01*
X357150000Y-136620000D02*
X357150000Y-134991183D01*
X357150000Y-134991183D02*
X355185000Y-133026183D01*
X354807000Y-130727000D02*
X354807000Y-129887000D01*
X354807000Y-129887000D02*
X354530000Y-129610000D01*
X358570000Y-138040000D02*
X357150000Y-136620000D01*
X355185000Y-133026183D02*
X355185000Y-131105000D01*
X355185000Y-131105000D02*
X354807000Y-130727000D01*
X354530000Y-129610000D02*
X354530000Y-128550000D01*
X354530000Y-128550000D02*
X352977500Y-126997500D01*
X352977500Y-126997500D02*
X352977500Y-125587500D01*
X352977500Y-125587500D02*
X351820000Y-124430000D01*
%TO.N,Net-(F3-Pad2)*%
X350932500Y-126700000D02*
X351279949Y-126700000D01*
X351279949Y-126700000D02*
X353840000Y-129260051D01*
X353840000Y-129260051D02*
X353840000Y-134815000D01*
X353840000Y-134815000D02*
X354180000Y-135155000D01*
D52*
%TO.N,/controller/status1*%
X344586812Y-163463188D02*
X344586812Y-163849985D01*
X344586812Y-163849985D02*
X346100000Y-165363173D01*
X342360000Y-189600000D02*
X342360000Y-191980000D01*
X346100000Y-165363173D02*
X346100000Y-181738413D01*
X343310000Y-192930000D02*
X347206772Y-192930000D01*
X347206772Y-192930000D02*
X352010000Y-188126772D01*
X346100000Y-181738413D02*
X345450000Y-182388413D01*
X345450000Y-182388413D02*
X345450000Y-186510000D01*
X345450000Y-186510000D02*
X342360000Y-189600000D01*
X342360000Y-191980000D02*
X343310000Y-192930000D01*
%TO.N,/controller/fast_chg*%
X355500000Y-137660000D02*
X355500000Y-136520000D01*
X355500000Y-136520000D02*
X355030000Y-136050000D01*
D53*
%TO.N,Net-(F3-Pad2)*%
X356760000Y-138860000D02*
X356310000Y-138410000D01*
X356310000Y-138410000D02*
X356310000Y-136480000D01*
X356310000Y-136480000D02*
X354985000Y-135155000D01*
X354985000Y-135155000D02*
X354180000Y-135155000D01*
%TO.N,/controller/BatteryManagement/bat+*%
X354180000Y-136905000D02*
X351625000Y-136905000D01*
X351625000Y-136905000D02*
X350520000Y-135800000D01*
X350520000Y-135800000D02*
X349340000Y-135800000D01*
%TO.N,vbus_no_fuse*%
X330690000Y-100265606D02*
X331052606Y-99903000D01*
X331052606Y-99903000D02*
X334103000Y-99903000D01*
X334103000Y-99903000D02*
X334475000Y-100275000D01*
D52*
X330690000Y-100265606D02*
X330690000Y-100260000D01*
X330690000Y-100265606D02*
X330100000Y-100855606D01*
X330100000Y-100855606D02*
X330100000Y-101425000D01*
D53*
%TO.N,vsys*%
X348150000Y-130750000D02*
X346620000Y-129220000D01*
X340200000Y-123600000D02*
X338900000Y-122300000D01*
X348150000Y-132052082D02*
X348150000Y-130750000D01*
X345770000Y-133260000D02*
X346453000Y-132577000D01*
X341600000Y-133260000D02*
X345770000Y-133260000D01*
X340700000Y-134160000D02*
X341600000Y-133260000D01*
X347625082Y-132577000D02*
X348150000Y-132052082D01*
X346453000Y-132577000D02*
X347625082Y-132577000D01*
X340700000Y-136040610D02*
X340700000Y-134160000D01*
X342659390Y-138000000D02*
X340700000Y-136040610D01*
X349110000Y-138000000D02*
X342659390Y-138000000D01*
X351100000Y-139990000D02*
X349110000Y-138000000D01*
X344542618Y-125455997D02*
X344101748Y-125015112D01*
X351100000Y-145135000D02*
X351100000Y-139990000D01*
X350380000Y-145855000D02*
X351100000Y-145135000D01*
X344670000Y-126320000D02*
X344542618Y-126192618D01*
X346620000Y-129220000D02*
X346620000Y-128740051D01*
X346620000Y-128740051D02*
X345779949Y-127900000D01*
X345779949Y-127900000D02*
X345740000Y-127900000D01*
X345740000Y-127900000D02*
X344670000Y-126830000D01*
X344670000Y-126830000D02*
X344670000Y-126320000D01*
X344542618Y-126192618D02*
X344542618Y-125455997D01*
X344101748Y-125015112D02*
X342686636Y-123600000D01*
X342686636Y-123600000D02*
X340200000Y-123600000D01*
X338900000Y-122300000D02*
X338900000Y-120175000D01*
%TO.N,sysgnd*%
X351510000Y-146800000D02*
X351185000Y-146800000D01*
X351185000Y-146800000D02*
X350380000Y-147605000D01*
%TO.N,/controller/vdd*%
X348347673Y-148367673D02*
X348950000Y-148970000D01*
X345580000Y-147130000D02*
X346817673Y-148367673D01*
X345580000Y-144420000D02*
X345580000Y-147130000D01*
X346375000Y-143625000D02*
X345580000Y-144420000D01*
X347696396Y-143625000D02*
X346375000Y-143625000D01*
X347711589Y-143609807D02*
X347696396Y-143625000D01*
X349850000Y-142705000D02*
X348997978Y-143557022D01*
X346817673Y-148367673D02*
X348347673Y-148367673D01*
X347942857Y-143557022D02*
X347711589Y-143609807D01*
X348997978Y-143557022D02*
X347942857Y-143557022D01*
X349850000Y-141285000D02*
X349850000Y-142705000D01*
X349610000Y-141045000D02*
X349850000Y-141285000D01*
X348960000Y-141045000D02*
X349610000Y-141045000D01*
X348950000Y-148970000D02*
X348950000Y-150045000D01*
D52*
%TO.N,/controller/fast_chg_led*%
X352020000Y-154350000D02*
X350325000Y-152655000D01*
X368190985Y-179640985D02*
X368190985Y-167140985D01*
X357000000Y-156950000D02*
X357000000Y-156000000D01*
X357800000Y-157750000D02*
X357000000Y-156950000D01*
X355350000Y-154350000D02*
X352020000Y-154350000D01*
X365400000Y-160010000D02*
X363140000Y-157750000D01*
X350325000Y-152655000D02*
X350325000Y-149525000D01*
X363140000Y-157750000D02*
X357800000Y-157750000D01*
X365400000Y-164350000D02*
X365400000Y-160010000D01*
X350325000Y-149525000D02*
X347925000Y-147125000D01*
X368190985Y-167140985D02*
X365400000Y-164350000D01*
X357000000Y-156000000D02*
X355350000Y-154350000D01*
X368250000Y-179700000D02*
X368190985Y-179640985D01*
X368250000Y-180750000D02*
X368250000Y-179700000D01*
X347925000Y-147125000D02*
X346975000Y-147125000D01*
X346975000Y-147125000D02*
X346375000Y-146525000D01*
X346375000Y-146525000D02*
X346375000Y-145025000D01*
X346375000Y-145025000D02*
X347050000Y-144350000D01*
D53*
%TO.N,sysgnd*%
X347747500Y-124742500D02*
X347680000Y-124810000D01*
X349300000Y-124742500D02*
X347747500Y-124742500D01*
D52*
%TO.N,col0*%
X333623624Y-123295000D02*
X333895000Y-123295000D01*
X333064062Y-122735438D02*
X333623624Y-123295000D01*
X334920000Y-135230000D02*
X334150000Y-136000000D01*
X333895000Y-123295000D02*
X334920000Y-124320000D01*
X334920000Y-124320000D02*
X334920000Y-135230000D01*
D53*
%TO.N,USB0_N*%
X342784505Y-130126501D02*
X341170495Y-130126501D01*
X343151501Y-129759505D02*
X342784505Y-130126501D01*
X341170495Y-130126501D02*
X339981900Y-131315096D01*
X338768376Y-125200000D02*
X342514624Y-125200000D01*
X335550000Y-121981624D02*
X338768376Y-125200000D01*
X335550000Y-118050000D02*
X335550000Y-121981624D01*
X328560000Y-111746712D02*
X328560000Y-115470000D01*
X328560000Y-115470000D02*
X328623000Y-115533000D01*
X334950000Y-117450000D02*
X335550000Y-118050000D01*
X332550000Y-118150000D02*
X333250000Y-117450000D01*
X328623000Y-115533000D02*
X328623000Y-119133050D01*
X332182712Y-120500000D02*
X332550000Y-120132712D01*
X339981900Y-132320930D02*
X338200000Y-134102830D01*
X339981900Y-131315096D02*
X339981900Y-132320930D01*
X317682500Y-99980000D02*
X317121472Y-99980000D01*
X328623000Y-119133050D02*
X329989950Y-120500000D01*
X317121472Y-99980000D02*
X316570000Y-100531472D01*
X316570000Y-100531472D02*
X316570000Y-102620000D01*
X343151501Y-125836877D02*
X343151501Y-129759505D01*
X338200000Y-136686712D02*
X344073000Y-142559712D01*
X332550000Y-120132712D02*
X332550000Y-118150000D01*
X325435500Y-105835500D02*
X325435500Y-108622212D01*
X342514624Y-125200000D02*
X343151501Y-125836877D01*
X316570000Y-102620000D02*
X318090000Y-104140000D01*
X338200000Y-134102830D02*
X338200000Y-136686712D01*
X318090000Y-104140000D02*
X323740000Y-104140000D01*
X333250000Y-117450000D02*
X334950000Y-117450000D01*
X323740000Y-104140000D02*
X325435500Y-105835500D01*
X325435500Y-108622212D02*
X328560000Y-111746712D01*
X329989950Y-120500000D02*
X332182712Y-120500000D01*
X344073000Y-142559712D02*
X344073000Y-153623000D01*
X344073000Y-153623000D02*
X346453500Y-156003500D01*
X346453500Y-156003500D02*
X348856000Y-156003500D01*
X348856000Y-156003500D02*
X351130000Y-158277500D01*
%TO.N,sysgnd*%
X336987500Y-116067500D02*
X335770000Y-114850000D01*
X336987500Y-116080000D02*
X336987500Y-116067500D01*
X338472500Y-118157500D02*
X338540000Y-118090000D01*
X337140000Y-118157500D02*
X338472500Y-118157500D01*
X341470000Y-113790000D02*
X341290000Y-113610000D01*
X341470000Y-115067500D02*
X341470000Y-113790000D01*
D52*
%TO.N,Net-(SW31-B)*%
X341512500Y-118912500D02*
X341512500Y-118426992D01*
X341512500Y-118426992D02*
X340670000Y-117584492D01*
X340670000Y-117584492D02*
X340670000Y-116409505D01*
X344953575Y-116080000D02*
X345728283Y-116854708D01*
X340670000Y-116409505D02*
X340999505Y-116080000D01*
X340999505Y-116080000D02*
X344953575Y-116080000D01*
%TO.N,Net-(U4-ISET)*%
X341470000Y-116892500D02*
X341672500Y-116892500D01*
X341672500Y-116892500D02*
X342012500Y-117232500D01*
X342012500Y-117232500D02*
X342012500Y-118912500D01*
D53*
%TO.N,sysgnd*%
X356897500Y-148882500D02*
X356870000Y-148910000D01*
X356897500Y-147410000D02*
X356897500Y-148882500D01*
X356927500Y-144942500D02*
X358220000Y-143650000D01*
X356927500Y-145050000D02*
X356927500Y-144942500D01*
D52*
%TO.N,/controller/low_batt*%
X356900000Y-142972500D02*
X357532500Y-142340000D01*
X357532500Y-142340000D02*
X358240000Y-142340000D01*
X358240000Y-142340000D02*
X358980000Y-143080000D01*
X358980000Y-143080000D02*
X358980000Y-144722500D01*
X358980000Y-144722500D02*
X358652500Y-145050000D01*
%TO.N,/controller/fast_chg*%
X357860000Y-149454505D02*
X357860000Y-146815000D01*
X356012000Y-145832000D02*
X356012000Y-140672000D01*
X357860000Y-146815000D02*
X357315000Y-146270000D01*
X357315000Y-146270000D02*
X356450000Y-146270000D01*
X356450000Y-146270000D02*
X356012000Y-145832000D01*
X356012000Y-140672000D02*
X355150000Y-139810000D01*
X355150000Y-139810000D02*
X355150000Y-138010000D01*
X355150000Y-138010000D02*
X355500000Y-137660000D01*
%TO.N,/controller/low_batt*%
X358722500Y-147410000D02*
X358722500Y-145120000D01*
X358722500Y-145120000D02*
X358652500Y-145050000D01*
D53*
%TO.N,/controller/BatteryManagement/bat_fused*%
X358610000Y-140110000D02*
X357937500Y-140110000D01*
X357937500Y-140110000D02*
X356900000Y-141147500D01*
%TO.N,sysgnd*%
X349470051Y-132930000D02*
X350010000Y-132930000D01*
X347340000Y-135060051D02*
X349470051Y-132930000D01*
X347340000Y-135800000D02*
X347340000Y-135060051D01*
D52*
%TO.N,Net-(U4-~{PGOOD})*%
X342903318Y-122575000D02*
X341314492Y-122575000D01*
X344905822Y-124577504D02*
X342903318Y-122575000D01*
X345005758Y-124577504D02*
X344905822Y-124577504D01*
X345830097Y-125401843D02*
X345005758Y-124577504D01*
X345830097Y-125560097D02*
X345830097Y-125401843D01*
X346870000Y-126600000D02*
X345830097Y-125560097D01*
X348010000Y-133320000D02*
X349410000Y-131920000D01*
X349410000Y-129660000D02*
X346870000Y-127120000D01*
X349410000Y-131920000D02*
X349410000Y-129660000D01*
X346760000Y-133320000D02*
X348010000Y-133320000D01*
X346870000Y-127120000D02*
X346870000Y-126600000D01*
X344640000Y-135440000D02*
X346760000Y-133320000D01*
X342150000Y-135440000D02*
X344640000Y-135440000D01*
X341314492Y-122575000D02*
X341012500Y-122273008D01*
X341012500Y-122273008D02*
X341012500Y-121787500D01*
%TO.N,/controller/fast_chg*%
X353190000Y-134315495D02*
X353190000Y-135485495D01*
X350280000Y-131405495D02*
X353190000Y-134315495D01*
X353190000Y-135485495D02*
X353754505Y-136050000D01*
X350280000Y-129350000D02*
X350280000Y-131405495D01*
X343085998Y-122125998D02*
X343085999Y-122225229D01*
X348010000Y-127080000D02*
X350280000Y-129350000D01*
X348010000Y-126706841D02*
X348010000Y-127080000D01*
X347236159Y-125933000D02*
X348010000Y-126706841D01*
X347233000Y-125933000D02*
X347236159Y-125933000D01*
X345062271Y-124201501D02*
X345501502Y-124201502D01*
X342012500Y-121787500D02*
X342747500Y-121787500D01*
X345501502Y-124201502D02*
X347233000Y-125933000D01*
X343085999Y-122225229D02*
X345062271Y-124201501D01*
X353754505Y-136050000D02*
X355030000Y-136050000D01*
X342747500Y-121787500D02*
X343085998Y-122125998D01*
%TO.N,/controller/chg_led*%
X346844312Y-130958860D02*
X345728172Y-132075000D01*
X346844312Y-130645688D02*
X346844312Y-130958860D01*
X340060000Y-133839478D02*
X340060000Y-136700000D01*
X340060000Y-136700000D02*
X344880000Y-141520000D01*
X344880000Y-141520000D02*
X345300000Y-141520000D01*
X345300000Y-141520000D02*
X345775000Y-141995000D01*
X345728172Y-132075000D02*
X341824478Y-132075000D01*
X341824478Y-132075000D02*
X340060000Y-133839478D01*
X345775000Y-141995000D02*
X346060000Y-141995000D01*
D53*
%TO.N,USB0_P*%
X346869856Y-155376500D02*
X349226500Y-155376500D01*
X324100000Y-103290000D02*
X326062500Y-105252500D01*
X344700000Y-153206644D02*
X346869856Y-155376500D01*
X344700000Y-142300000D02*
X344700000Y-153206644D01*
X335209712Y-116823000D02*
X336177000Y-117790288D01*
X338827000Y-136427000D02*
X344700000Y-142300000D01*
X317682500Y-102002740D02*
X318969760Y-103290000D01*
X338827000Y-134362542D02*
X338827000Y-136427000D01*
X340608900Y-132580642D02*
X338827000Y-134362542D01*
X341430706Y-130753002D02*
X340608900Y-131574808D01*
X343626622Y-125425992D02*
X343778002Y-125577377D01*
X336177000Y-117790288D02*
X336177000Y-121721912D01*
X342773630Y-124573000D02*
X343626622Y-125425992D01*
X318969760Y-103290000D02*
X324100000Y-103290000D01*
X317682500Y-101880000D02*
X317682500Y-102002740D01*
X331923000Y-119873000D02*
X331923000Y-117890288D01*
X352107500Y-158257500D02*
X353910000Y-158257500D01*
X343778002Y-125577377D02*
X343778002Y-130019010D01*
X339028088Y-124573000D02*
X342773630Y-124573000D01*
X332990288Y-116823000D02*
X335209712Y-116823000D01*
X326062500Y-108362500D02*
X329250000Y-111550000D01*
X329250000Y-111550000D02*
X329250000Y-118873338D01*
X340608900Y-131574808D02*
X340608900Y-132580642D01*
X329250000Y-118873338D02*
X330249662Y-119873000D01*
X326062500Y-105252500D02*
X326062500Y-108362500D01*
X330249662Y-119873000D02*
X331923000Y-119873000D01*
X343778002Y-130019010D02*
X343044010Y-130753002D01*
X343044010Y-130753002D02*
X341430706Y-130753002D01*
X336177000Y-121721912D02*
X339028088Y-124573000D01*
X331923000Y-117890288D02*
X332990288Y-116823000D01*
X349226500Y-155376500D02*
X351263000Y-157413000D01*
X351622034Y-157413000D02*
X351982000Y-157772966D01*
X351263000Y-157413000D02*
X351622034Y-157413000D01*
X351982000Y-157772966D02*
X351982000Y-158132000D01*
X351982000Y-158132000D02*
X352107500Y-158257500D01*
%TO.N,/controller/vusb*%
X339354900Y-130768599D02*
X340623499Y-129500000D01*
X339354900Y-132061218D02*
X339354900Y-130768599D01*
X340623499Y-129500000D02*
X342525000Y-129500000D01*
X342525000Y-129500000D02*
X342525000Y-126096382D01*
X342525000Y-126096382D02*
X342428618Y-126000000D01*
X337220000Y-138195000D02*
X337220000Y-134196118D01*
X342525000Y-143500000D02*
X337220000Y-138195000D01*
X337220000Y-134196118D02*
X339354900Y-132061218D01*
X342525000Y-147000000D02*
X342525000Y-143500000D01*
X328000000Y-121800000D02*
X324900000Y-118700000D01*
X341410000Y-159984950D02*
X341410000Y-148115000D01*
X342550000Y-161124950D02*
X341410000Y-159984950D01*
X324900000Y-118700000D02*
X324900000Y-109746662D01*
X324900000Y-109746662D02*
X324025000Y-108871662D01*
X342550000Y-165250000D02*
X342550000Y-161124950D01*
X341410000Y-148115000D02*
X342525000Y-147000000D01*
X342600000Y-165300000D02*
X342550000Y-165250000D01*
X338128427Y-125550000D02*
X337080000Y-125550000D01*
X342428618Y-126000000D02*
X338578427Y-126000000D01*
X337080000Y-125550000D02*
X333330000Y-121800000D01*
X338578427Y-126000000D02*
X338128427Y-125550000D01*
X333330000Y-121800000D02*
X328000000Y-121800000D01*
X324025000Y-108871662D02*
X324025000Y-108401000D01*
X324025000Y-108401000D02*
X324586000Y-107840000D01*
X338712500Y-116080000D02*
X339380000Y-115412500D01*
X339380000Y-115412500D02*
X339380000Y-113303916D01*
X338712500Y-116080000D02*
X338712500Y-116651730D01*
X338712500Y-116651730D02*
X339440000Y-117379230D01*
%TO.N,/controller/BatteryManagement/bat_fused*%
X349300000Y-123017500D02*
X348252500Y-123017500D01*
X348252500Y-123017500D02*
X347570000Y-123700000D01*
X347570000Y-123700000D02*
X345270000Y-123700000D01*
X345270000Y-123700000D02*
X343587500Y-122017500D01*
X343587500Y-122017500D02*
X343587500Y-120825216D01*
X343587500Y-120825216D02*
X343331142Y-120568858D01*
X351820000Y-124430000D02*
X350407500Y-123017500D01*
X349107500Y-126700000D02*
X351377500Y-124430000D01*
X351377500Y-124430000D02*
X351820000Y-124430000D01*
X350407500Y-123017500D02*
X349300000Y-123017500D01*
D52*
%TO.N,/controller/low_batt*%
X358722500Y-147410000D02*
X358682500Y-147370000D01*
X373850000Y-175100000D02*
X371100000Y-172350000D01*
X373850000Y-188753237D02*
X373850000Y-175100000D01*
X373877000Y-188780237D02*
X373850000Y-188753237D01*
X380596867Y-200203133D02*
X380596867Y-195726867D01*
X371100000Y-172350000D02*
X371100000Y-167650000D01*
X369860827Y-166410827D02*
X369860827Y-164910827D01*
X370003564Y-200203133D02*
X380596867Y-200203133D01*
X356399381Y-186598950D02*
X370003564Y-200203133D01*
X352817728Y-187402272D02*
X353621050Y-186598950D01*
X380596867Y-195726867D02*
X373877000Y-189007000D01*
X373877000Y-189007000D02*
X373877000Y-188780237D01*
X369860827Y-164910827D02*
X367738962Y-162788962D01*
X350785000Y-187402272D02*
X352817728Y-187402272D01*
X353621050Y-186598950D02*
X356399381Y-186598950D01*
X367738962Y-159688962D02*
X364879872Y-156829872D01*
X364879872Y-156829872D02*
X364879872Y-153929872D01*
X371100000Y-167650000D02*
X369860827Y-166410827D01*
X367738962Y-162788962D02*
X367738962Y-159688962D01*
X364879872Y-153929872D02*
X358722500Y-147772500D01*
X358722500Y-147772500D02*
X358722500Y-147410000D01*
%TO.N,Net-(U4-TS)*%
X345400000Y-121527500D02*
X345097500Y-121830000D01*
%TO.N,sysgnd*%
X346922500Y-121830000D02*
X346972500Y-121880000D01*
%TO.N,Net-(U4-TS)*%
X342700000Y-119600000D02*
X344312500Y-119600000D01*
%TO.N,sysgnd*%
X346972500Y-121880000D02*
X348130000Y-121880000D01*
%TO.N,Net-(U4-TS)*%
X344312500Y-119600000D02*
X345400000Y-120687500D01*
X345400000Y-120687500D02*
X345400000Y-121527500D01*
%TO.N,row3*%
X259000000Y-176250000D02*
X248275000Y-176250000D01*
X285275000Y-158750000D02*
X285275000Y-155250000D01*
X266775000Y-176250000D02*
X273275000Y-169750000D01*
X339225400Y-167184600D02*
X339380000Y-167030000D01*
X303775000Y-153125000D02*
X303775000Y-153750000D01*
X339225400Y-171825400D02*
X339225400Y-171149695D01*
X279800000Y-163080000D02*
X281820000Y-161060000D01*
X314750000Y-153750000D02*
X314900000Y-153600000D01*
X317100000Y-153600000D02*
X317125000Y-153600000D01*
X344220000Y-172520000D02*
X339920000Y-172520000D01*
X292675000Y-147850000D02*
X296450000Y-147850000D01*
X273275000Y-169750000D02*
X277800000Y-169750000D01*
X303775000Y-153750000D02*
X314750000Y-153750000D01*
X339225400Y-170840495D02*
X339225400Y-167184600D01*
X317125000Y-153600000D02*
X322275000Y-158750000D01*
X282965000Y-161060000D02*
X285275000Y-158750000D01*
X266775000Y-176250000D02*
X264615000Y-174090000D01*
X262310000Y-174090000D02*
X261950000Y-174450000D01*
X331550000Y-158750000D02*
X332750000Y-157550000D01*
X339920000Y-172520000D02*
X339225400Y-171825400D01*
X298600000Y-147950000D02*
X303775000Y-153125000D01*
X281820000Y-161060000D02*
X282965000Y-161060000D01*
X332750000Y-157550000D02*
X333450000Y-157550000D01*
X259600000Y-176850000D02*
X259000000Y-176250000D01*
X339225400Y-171149695D02*
X339380000Y-170995095D01*
X285275000Y-155250000D02*
X292675000Y-147850000D01*
X279800000Y-169950000D02*
X279800000Y-163080000D01*
X264615000Y-174090000D02*
X262310000Y-174090000D01*
X322275000Y-158750000D02*
X331550000Y-158750000D01*
X336175000Y-158325000D02*
X340600000Y-162750000D01*
X340600000Y-162750000D02*
X340775000Y-162750000D01*
X339380000Y-164145000D02*
X340775000Y-162750000D01*
X339380000Y-167030000D02*
X339380000Y-164145000D01*
X339380000Y-170995095D02*
X339225400Y-170840495D01*
%TO.N,col5row2*%
X236725000Y-165375000D02*
X236725000Y-156550000D01*
X238350000Y-167000000D02*
X236725000Y-165375000D01*
%TO.N,row2*%
X298500000Y-130975000D02*
X303775000Y-136250000D01*
X335544500Y-140500000D02*
X336025000Y-140500000D01*
X258050000Y-158750000D02*
X248275000Y-158750000D01*
X323025000Y-140500000D02*
X322275000Y-141250000D01*
X264795000Y-160730000D02*
X262280000Y-160730000D01*
X277150000Y-149925000D02*
X277150000Y-148000000D01*
X336150000Y-168475305D02*
X336150000Y-167020080D01*
X338254900Y-147770100D02*
X340775000Y-145250000D01*
X259150000Y-159850000D02*
X258050000Y-158750000D01*
X317050000Y-136200000D02*
X317225000Y-136200000D01*
X298500000Y-130700000D02*
X298500000Y-130975000D01*
X303775000Y-136250000D02*
X315250000Y-136250000D01*
X292325000Y-130700000D02*
X296500000Y-130700000D01*
X268325000Y-158750000D02*
X277150000Y-149925000D01*
X336075000Y-169425000D02*
X336075000Y-169399695D01*
X335470000Y-166340080D02*
X335470000Y-161230000D01*
X335470000Y-161230000D02*
X336550000Y-160150000D01*
X285275000Y-141250000D02*
X285275000Y-137750000D01*
X338501400Y-171074300D02*
X337724300Y-171074300D01*
X339950400Y-171450000D02*
X340000400Y-171400000D01*
X336720000Y-148540659D02*
X337490559Y-147770100D01*
X262280000Y-160730000D02*
X262150000Y-160600000D01*
X336720000Y-157820000D02*
X336720000Y-148540659D01*
X337490559Y-147770100D02*
X338254900Y-147770100D01*
X283575000Y-142950000D02*
X285275000Y-141250000D01*
X282110000Y-143300000D02*
X282607307Y-143300000D01*
X317225000Y-136200000D02*
X322275000Y-141250000D01*
X336075000Y-169399695D02*
X335650305Y-168975000D01*
X336150000Y-167020080D02*
X335470000Y-166340080D01*
X266775000Y-158750000D02*
X268325000Y-158750000D01*
X343940000Y-171400000D02*
X344220000Y-171120000D01*
X280000000Y-146800000D02*
X280000000Y-145410000D01*
X282957307Y-142950000D02*
X283575000Y-142950000D01*
X266775000Y-158750000D02*
X264795000Y-160730000D01*
X282607307Y-143300000D02*
X282957307Y-142950000D01*
X280000000Y-145410000D02*
X282110000Y-143300000D01*
X337700000Y-158800000D02*
X336720000Y-157820000D01*
X315250000Y-136250000D02*
X315300000Y-136200000D01*
X335650305Y-168975000D02*
X336150000Y-168475305D01*
X285275000Y-137750000D02*
X292325000Y-130700000D01*
X336025000Y-140500000D02*
X340775000Y-145250000D01*
X334095500Y-140500000D02*
X323025000Y-140500000D01*
X340000400Y-171400000D02*
X343940000Y-171400000D01*
X337724300Y-171074300D02*
X336075000Y-169425000D01*
%TO.N,col5row1*%
X236725000Y-147875000D02*
X236725000Y-139050000D01*
X238350000Y-149500000D02*
X236725000Y-147875000D01*
%TO.N,row1*%
X298650000Y-125150000D02*
X300700000Y-125150000D01*
X337000201Y-142499799D02*
X335440000Y-144060000D01*
X322275000Y-119525000D02*
X322275000Y-123750000D01*
X334095500Y-138450000D02*
X334045500Y-138500000D01*
X303775000Y-122075000D02*
X303775000Y-121458684D01*
X315200000Y-113250000D02*
X316000000Y-113250000D01*
X335440000Y-160726842D02*
X335093000Y-161073842D01*
X338024799Y-141124799D02*
X338024799Y-141475201D01*
X285275000Y-126995000D02*
X282070000Y-130200000D01*
X266775000Y-132820001D02*
X260660000Y-126705001D01*
X278000000Y-131050000D02*
X267800000Y-141250000D01*
X338900000Y-129625000D02*
X340775000Y-127750000D01*
X248275000Y-125275000D02*
X248275000Y-141250000D01*
X294675000Y-127925000D02*
X296350000Y-126250000D01*
X330500000Y-138500000D02*
X322275000Y-130275000D01*
X335440000Y-144060000D02*
X335440000Y-160726842D01*
X300700000Y-125150000D02*
X303775000Y-122075000D01*
X335093000Y-161073842D02*
X335093000Y-166496239D01*
X344220000Y-169720000D02*
X340120000Y-169720000D01*
X336350000Y-137644500D02*
X336350000Y-131100000D01*
X289450000Y-127925000D02*
X294675000Y-127925000D01*
X254000000Y-119550000D02*
X248275000Y-125275000D01*
X259450000Y-119550000D02*
X254000000Y-119550000D01*
X285275000Y-123750000D02*
X285275000Y-126995000D01*
X278000000Y-130350000D02*
X278000000Y-131050000D01*
X334045500Y-138500000D02*
X330500000Y-138500000D01*
X322275000Y-130275000D02*
X322275000Y-123750000D01*
X335544500Y-138450000D02*
X336350000Y-137644500D01*
X335093000Y-166496239D02*
X335200000Y-166603239D01*
X336350000Y-131100000D02*
X337825000Y-129625000D01*
X335200000Y-167624500D02*
X335425500Y-167850000D01*
X260660000Y-120760000D02*
X259450000Y-119550000D01*
X337825000Y-129625000D02*
X338900000Y-129625000D01*
X306991316Y-121458684D02*
X315200000Y-113250000D01*
X280750000Y-130200000D02*
X280400000Y-130550000D01*
X338450000Y-169550000D02*
X338000000Y-169550000D01*
X335544500Y-138450000D02*
X335544500Y-138644500D01*
X335544500Y-138644500D02*
X338024799Y-141124799D01*
X266775000Y-141250000D02*
X266775000Y-132820001D01*
X285275000Y-123750000D02*
X289450000Y-127925000D01*
X260660000Y-126705001D02*
X260660000Y-120760000D01*
X303775000Y-121458684D02*
X303775000Y-118750000D01*
X296350000Y-126250000D02*
X296350000Y-125350000D01*
X316000000Y-113250000D02*
X322275000Y-119525000D01*
X338000000Y-169550000D02*
X337000000Y-168550000D01*
X303775000Y-121458684D02*
X306991316Y-121458684D01*
X335200000Y-166603239D02*
X335200000Y-167624500D01*
X267800000Y-141250000D02*
X266775000Y-141250000D01*
X282070000Y-130200000D02*
X280750000Y-130200000D01*
X340120000Y-169720000D02*
X340100000Y-169700000D01*
%TO.N,col4row3*%
X242810000Y-177130000D02*
X242810000Y-175470000D01*
X244220000Y-178540000D02*
X242810000Y-177130000D01*
X252151650Y-184500000D02*
X246191650Y-178540000D01*
X246191650Y-178540000D02*
X244220000Y-178540000D01*
X256850000Y-184500000D02*
X252151650Y-184500000D01*
X244230000Y-174050000D02*
X255225000Y-174050000D01*
X242810000Y-175470000D02*
X244230000Y-174050000D01*
%TO.N,col4row2*%
X243121000Y-162541000D02*
X243121000Y-157929000D01*
X247580000Y-167000000D02*
X243121000Y-162541000D01*
X256850000Y-167000000D02*
X247580000Y-167000000D01*
X244500000Y-156550000D02*
X255225000Y-156550000D01*
X243121000Y-157929000D02*
X244500000Y-156550000D01*
%TO.N,col4row1*%
X255225000Y-147875000D02*
X255225000Y-139050000D01*
X256850000Y-149500000D02*
X255225000Y-147875000D01*
%TO.N,col4row0*%
X255225000Y-130375000D02*
X255225000Y-121550000D01*
X256850000Y-132000000D02*
X255225000Y-130375000D01*
%TO.N,row0*%
X308890000Y-98970000D02*
X308890000Y-101250000D01*
X326250000Y-153500000D02*
X326250000Y-158000000D01*
X299425000Y-96900000D02*
X303775000Y-101250000D01*
X324960000Y-143614500D02*
X324960000Y-152210000D01*
X333450000Y-163950000D02*
X332950000Y-163450000D01*
X336527000Y-166863922D02*
X336500000Y-166836922D01*
X314020000Y-101250000D02*
X317150000Y-104380000D01*
X338667975Y-104059513D02*
X340413583Y-102313905D01*
X327600000Y-124213604D02*
X322275000Y-118888604D01*
X272725000Y-101800000D02*
X280825000Y-101800000D01*
X332950000Y-163450000D02*
X330250000Y-163450000D01*
X317490000Y-108520000D02*
X320005000Y-108520000D01*
X291200000Y-96900000D02*
X299425000Y-96900000D01*
X266775000Y-107750000D02*
X272725000Y-101800000D01*
X308890000Y-101250000D02*
X314020000Y-101250000D01*
X316660000Y-107690000D02*
X317490000Y-108520000D01*
X326350000Y-160900000D02*
X326350000Y-159750000D01*
X327350000Y-141224500D02*
X324960000Y-143614500D01*
X326350000Y-159750000D02*
X326300000Y-159700000D01*
X322275000Y-118888604D02*
X322275000Y-106250000D01*
X340775000Y-110250000D02*
X338667975Y-108142975D01*
X342100000Y-101150000D02*
X342100000Y-99243274D01*
X336500000Y-166836922D02*
X336500000Y-165200000D01*
X328350000Y-131050000D02*
X327600000Y-130300000D01*
X327337701Y-136362299D02*
X327337701Y-139512299D01*
X337151726Y-94295000D02*
X313565000Y-94295000D01*
X338400000Y-168000000D02*
X337520000Y-168000000D01*
X327600000Y-130300000D02*
X327600000Y-124213604D01*
X328450000Y-163000000D02*
X326350000Y-160900000D01*
X303775000Y-101250000D02*
X308890000Y-101250000D01*
X280825000Y-101800000D02*
X285275000Y-106250000D01*
X313565000Y-94295000D02*
X308890000Y-98970000D01*
X285275000Y-106250000D02*
X285275000Y-102825000D01*
X328362299Y-135337701D02*
X328350000Y-135325402D01*
X340413583Y-102313905D02*
X340936095Y-102313905D01*
X333450000Y-164150000D02*
X333450000Y-163950000D01*
X316660000Y-104870000D02*
X316660000Y-107690000D01*
X327337701Y-139512299D02*
X327300000Y-139550000D01*
X285275000Y-102825000D02*
X291200000Y-96900000D01*
X336527000Y-167007000D02*
X336527000Y-166863922D01*
X328350000Y-135325402D02*
X328350000Y-131050000D01*
X317150000Y-104380000D02*
X316660000Y-104870000D01*
X340936095Y-102313905D02*
X342100000Y-101150000D01*
X320005000Y-108520000D02*
X322275000Y-106250000D01*
X337520000Y-168000000D02*
X336527000Y-167007000D01*
X266775000Y-123750000D02*
X266775000Y-107750000D01*
X342100000Y-99243274D02*
X337151726Y-94295000D01*
X338667975Y-108142975D02*
X338667975Y-104059513D01*
X324960000Y-152210000D02*
X326250000Y-153500000D01*
%TO.N,col5row4*%
X275350000Y-184500000D02*
X273725000Y-182875000D01*
X273725000Y-182875000D02*
X273725000Y-174050000D01*
%TO.N,row4*%
X333865000Y-169700000D02*
X333850000Y-169700000D01*
X344633173Y-173920000D02*
X344220000Y-173920000D01*
X360128820Y-197678820D02*
X355622484Y-193172484D01*
X378546155Y-211280069D02*
X376496086Y-209230000D01*
X331400000Y-172150000D02*
X329200000Y-172150000D01*
X345600000Y-174886827D02*
X344633173Y-173920000D01*
X362257518Y-197678820D02*
X360128820Y-197678820D01*
X303775000Y-171250000D02*
X299115000Y-166590000D01*
X351357516Y-193172484D02*
X350410000Y-194120000D01*
X335350000Y-171900000D02*
X337370000Y-173920000D01*
X363200108Y-198250108D02*
X363200108Y-196736230D01*
X378546155Y-214879716D02*
X378546155Y-211280069D01*
X343754077Y-185195705D02*
X345000000Y-183949782D01*
X324000000Y-176250000D02*
X322275000Y-176250000D01*
X290810000Y-166590000D02*
X285275000Y-172125000D01*
X304465000Y-171940000D02*
X303775000Y-171250000D01*
X329200000Y-172150000D02*
X328950000Y-171900000D01*
X337370000Y-173920000D02*
X344220000Y-173920000D01*
X355622484Y-193172484D02*
X351357516Y-193172484D01*
X317965000Y-171940000D02*
X304465000Y-171940000D01*
X376496086Y-209230000D02*
X374180000Y-209230000D01*
X363200108Y-196736230D02*
X362257518Y-197678820D01*
X342620000Y-194120000D02*
X341450000Y-192950000D01*
X335350000Y-169700000D02*
X335350000Y-171900000D01*
X345000000Y-181953173D02*
X345600000Y-181353173D01*
X285275000Y-172125000D02*
X285275000Y-176250000D01*
X341450000Y-192950000D02*
X341450000Y-186173150D01*
X325850000Y-174400000D02*
X324000000Y-176250000D01*
X345600000Y-181353173D02*
X345600000Y-174886827D01*
X341450000Y-186173150D02*
X342427445Y-185195705D01*
X374180000Y-209230000D02*
X363200108Y-198250108D01*
X333850000Y-169700000D02*
X331400000Y-172150000D01*
X322275000Y-176250000D02*
X317965000Y-171940000D01*
X345000000Y-183949782D02*
X345000000Y-181953173D01*
X299115000Y-166590000D02*
X290810000Y-166590000D01*
X342427445Y-185195705D02*
X343754077Y-185195705D01*
X350410000Y-194120000D02*
X342620000Y-194120000D01*
%TO.N,col3row3*%
X275350000Y-167000000D02*
X273725000Y-165375000D01*
X273725000Y-165375000D02*
X273725000Y-156550000D01*
%TO.N,col3row2*%
X273725000Y-147875000D02*
X273725000Y-139050000D01*
X275350000Y-149500000D02*
X273725000Y-147875000D01*
%TO.N,col3row1*%
X275350000Y-132000000D02*
X273725000Y-130375000D01*
X273725000Y-130375000D02*
X273725000Y-121550000D01*
%TO.N,col3row0*%
X275350000Y-114500000D02*
X273725000Y-112875000D01*
X273725000Y-112875000D02*
X273725000Y-104050000D01*
%TO.N,col4row4*%
X293850000Y-179500000D02*
X292225000Y-177875000D01*
X292225000Y-177875000D02*
X292225000Y-169050000D01*
%TO.N,col2row3*%
X293850000Y-162000000D02*
X293850000Y-158804999D01*
X292225000Y-157179999D02*
X292225000Y-151550000D01*
X293850000Y-158804999D02*
X292225000Y-157179999D01*
%TO.N,col2row2*%
X293850000Y-144500000D02*
X292225000Y-142875000D01*
X292225000Y-142875000D02*
X292225000Y-134050000D01*
%TO.N,col2row1*%
X292225000Y-125375000D02*
X292225000Y-116550000D01*
X293850000Y-127000000D02*
X292225000Y-125375000D01*
%TO.N,col2row0*%
X293850000Y-109500000D02*
X292225000Y-107875000D01*
X292225000Y-107875000D02*
X292225000Y-99050000D01*
%TO.N,col3row4*%
X310725000Y-182875000D02*
X310725000Y-174050000D01*
X312350000Y-184500000D02*
X310725000Y-182875000D01*
%TO.N,col1row3*%
X312350000Y-167000000D02*
X310725000Y-165375000D01*
X310725000Y-165375000D02*
X310725000Y-156550000D01*
%TO.N,col1row2*%
X312350000Y-149500000D02*
X310725000Y-147875000D01*
X310725000Y-147875000D02*
X310725000Y-139050000D01*
%TO.N,col1row1*%
X312350000Y-128804999D02*
X310725000Y-127179999D01*
X312350000Y-132000000D02*
X312350000Y-128804999D01*
X310725000Y-127179999D02*
X310725000Y-121550000D01*
%TO.N,col1row0*%
X312350000Y-114500000D02*
X310725000Y-112875000D01*
X310725000Y-112875000D02*
X310725000Y-104050000D01*
%TO.N,col0row3*%
X329225000Y-169375000D02*
X329225000Y-160550000D01*
X330850000Y-171000000D02*
X329225000Y-169375000D01*
%TO.N,col0row2*%
X330850000Y-153500000D02*
X329225000Y-151875000D01*
X329225000Y-151875000D02*
X329225000Y-143050000D01*
%TO.N,col0row1*%
X329225000Y-134375000D02*
X329225000Y-125550000D01*
X330850000Y-136000000D02*
X329225000Y-134375000D01*
%TO.N,col0row0*%
X329950000Y-108775000D02*
X329225000Y-108050000D01*
X329950000Y-117600000D02*
X329950000Y-108775000D01*
X330850000Y-118500000D02*
X329950000Y-117600000D01*
D54*
%TO.N,col2row4*%
X331300000Y-180985095D02*
X331547924Y-180737171D01*
X330717750Y-188875500D02*
X330850000Y-188743250D01*
X330850000Y-188743250D02*
X330850000Y-185700000D01*
X331300000Y-183775500D02*
X331300000Y-180985095D01*
X329830000Y-190324500D02*
X330080049Y-190324500D01*
X330080049Y-190324500D02*
X331056907Y-191301358D01*
X330850000Y-185700000D02*
X331300000Y-185250000D01*
D53*
%TO.N,col1row4*%
X352500000Y-192447984D02*
X352500000Y-190818586D01*
X352500000Y-190818586D02*
X354601704Y-188716882D01*
X350404822Y-198424060D02*
X350404822Y-195395178D01*
X350404822Y-195395178D02*
X351750000Y-194050000D01*
%TO.N,col0row4*%
X372978075Y-204700000D02*
X373341147Y-204336928D01*
X370950000Y-204700000D02*
X372978075Y-204700000D01*
X365981304Y-211931388D02*
X370050000Y-207862692D01*
X370050000Y-207862692D02*
X370050000Y-207000000D01*
D52*
%TO.N,col5*%
X242300000Y-167650000D02*
X241650000Y-167000000D01*
X334510000Y-189600000D02*
X283750000Y-189600000D01*
X335660438Y-184189562D02*
X335660438Y-186349497D01*
X340380000Y-181430000D02*
X338420000Y-181430000D01*
X349220000Y-182420000D02*
X347550000Y-180750000D01*
X242089500Y-164070500D02*
X242320000Y-163840000D01*
X335870000Y-188240000D02*
X334510000Y-189600000D01*
X242320000Y-163840000D02*
X242320000Y-161370000D01*
X335660438Y-186349497D02*
X335870000Y-186559059D01*
X241890000Y-149740000D02*
X241650000Y-149500000D01*
X335870000Y-186559059D02*
X335870000Y-188240000D01*
X241650000Y-167000000D02*
X242089500Y-166560500D01*
X338420000Y-181430000D02*
X335660438Y-184189562D01*
X242320000Y-161370000D02*
X241890000Y-160940000D01*
X242300000Y-183850000D02*
X242300000Y-167650000D01*
X241890000Y-160940000D02*
X241890000Y-149740000D01*
X349220000Y-183970000D02*
X349220000Y-182420000D01*
X283750000Y-189600000D02*
X246750000Y-189600000D01*
X344200000Y-182600000D02*
X341550000Y-182600000D01*
X283750000Y-189600000D02*
X278650000Y-184500000D01*
X246750000Y-189600000D02*
X241650000Y-184500000D01*
X341550000Y-182600000D02*
X340380000Y-181430000D01*
X242089500Y-166560500D02*
X242089500Y-164070500D01*
X241650000Y-184500000D02*
X242300000Y-183850000D01*
%TO.N,col4*%
X261080000Y-150430000D02*
X260150000Y-149500000D01*
X261090000Y-132940000D02*
X260150000Y-132000000D01*
X343576789Y-183337625D02*
X340887625Y-183337625D01*
X333030000Y-191420000D02*
X333030000Y-192250000D01*
X340887625Y-183337625D02*
X339809316Y-182259316D01*
X332130000Y-193150000D02*
X302150000Y-193150000D01*
X261080000Y-166070000D02*
X261080000Y-150430000D01*
X276025000Y-185425000D02*
X261075000Y-185425000D01*
X334740000Y-190540000D02*
X333910000Y-190540000D01*
X261075000Y-185425000D02*
X260150000Y-184500000D01*
X302150000Y-193150000D02*
X299600000Y-190600000D01*
X297150000Y-186525500D02*
X297150000Y-186250000D01*
X333910000Y-190540000D02*
X333030000Y-191420000D01*
X344200000Y-183599503D02*
X343838667Y-183599503D01*
X277875000Y-183575000D02*
X276025000Y-185425000D01*
X260150000Y-184500000D02*
X261130000Y-183520000D01*
X333030000Y-192250000D02*
X332130000Y-193150000D01*
X336610000Y-184080000D02*
X336610000Y-188670000D01*
X347820000Y-183970000D02*
X347820000Y-182120000D01*
X261130000Y-183520000D02*
X261130000Y-167980000D01*
X260150000Y-149500000D02*
X261090000Y-148560000D01*
X338430684Y-182259316D02*
X336610000Y-184080000D01*
X297150000Y-186250000D02*
X297150000Y-179500000D01*
X339809316Y-182259316D02*
X338430684Y-182259316D01*
X336610000Y-188670000D02*
X334740000Y-190540000D01*
X281425000Y-183575000D02*
X277875000Y-183575000D01*
X260150000Y-167000000D02*
X261080000Y-166070000D01*
X299500000Y-188875500D02*
X297150000Y-186525500D01*
X343838667Y-183599503D02*
X343576789Y-183337625D01*
X284100000Y-186250000D02*
X281425000Y-183575000D01*
X297150000Y-186250000D02*
X284100000Y-186250000D01*
X261130000Y-167980000D02*
X260150000Y-167000000D01*
X347820000Y-182120000D02*
X347550000Y-181850000D01*
X261090000Y-148560000D02*
X261090000Y-132940000D01*
%TO.N,col3*%
X279370000Y-146404695D02*
X279370000Y-132720000D01*
X278650000Y-167000000D02*
X279340000Y-166310000D01*
X283729900Y-179490559D02*
X282439341Y-178200000D01*
X278650000Y-149500000D02*
X279370000Y-148780000D01*
X279370000Y-148780000D02*
X279370000Y-147195305D01*
X296475000Y-178575000D02*
X294625000Y-180425000D01*
X283729900Y-179496216D02*
X283729900Y-179490559D01*
X282439341Y-178200000D02*
X281200000Y-178200000D01*
X279340000Y-150190000D02*
X278650000Y-149500000D01*
X279070000Y-167420000D02*
X278650000Y-167000000D01*
X278650000Y-132000000D02*
X279530000Y-131120000D01*
X343850000Y-179150000D02*
X339810000Y-179150000D01*
X284658684Y-180425000D02*
X283729900Y-179496216D01*
X279340000Y-166310000D02*
X279340000Y-150190000D01*
X305650000Y-186150000D02*
X298075000Y-178575000D01*
X294625000Y-180425000D02*
X284658684Y-180425000D01*
X298075000Y-178575000D02*
X296475000Y-178575000D01*
X314000000Y-186150000D02*
X305650000Y-186150000D01*
X279275000Y-146499695D02*
X279370000Y-146404695D01*
X339810000Y-179150000D02*
X334460000Y-184500000D01*
X279530000Y-131120000D02*
X279530000Y-115380000D01*
X315650000Y-184500000D02*
X314000000Y-186150000D01*
X281200000Y-178200000D02*
X279070000Y-176070000D01*
X279275000Y-147100305D02*
X279275000Y-146499695D01*
X344220000Y-179520000D02*
X343850000Y-179150000D01*
X334460000Y-184500000D02*
X315650000Y-184500000D01*
X279070000Y-176070000D02*
X279070000Y-167420000D01*
X279370000Y-132720000D02*
X278650000Y-132000000D01*
X279530000Y-115380000D02*
X278650000Y-114500000D01*
X279370000Y-147195305D02*
X279275000Y-147100305D01*
%TO.N,col2*%
X329580000Y-185354500D02*
X329450000Y-185224500D01*
X344220000Y-178120000D02*
X330870000Y-178120000D01*
X297870000Y-126280000D02*
X297870000Y-110220000D01*
X328440000Y-190324500D02*
X329400000Y-191284500D01*
X297840000Y-127690000D02*
X297150000Y-127000000D01*
X297870000Y-110220000D02*
X297150000Y-109500000D01*
X297150000Y-144500000D02*
X297840000Y-143810000D01*
X297850000Y-162000000D02*
X297150000Y-162000000D01*
X297875000Y-147649695D02*
X297890000Y-147634695D01*
X297890000Y-148265305D02*
X297875000Y-148250305D01*
X297890000Y-145240000D02*
X297150000Y-144500000D01*
X297875000Y-148250305D02*
X297875000Y-147649695D01*
X297840000Y-143810000D02*
X297840000Y-131065305D01*
X334290659Y-191959272D02*
X332199931Y-194050000D01*
X328420000Y-188875500D02*
X329580000Y-187715500D01*
X307200000Y-171350000D02*
X297850000Y-162000000D01*
X329000000Y-183750000D02*
X329000000Y-179990000D01*
X330870000Y-178120000D02*
X324100000Y-171350000D01*
X297890000Y-161260000D02*
X297890000Y-148265305D01*
X297840000Y-130334695D02*
X297840000Y-127690000D01*
X297840000Y-131065305D02*
X297775000Y-131000305D01*
X329580000Y-187715500D02*
X329580000Y-185354500D01*
X332199931Y-194050000D02*
X329600000Y-194050000D01*
X324100000Y-171350000D02*
X307200000Y-171350000D01*
X297890000Y-147634695D02*
X297890000Y-145240000D01*
X329000000Y-179990000D02*
X330870000Y-178120000D01*
X297775000Y-131000305D02*
X297775000Y-130399695D01*
X329400000Y-191284500D02*
X329400000Y-192425500D01*
X297150000Y-127000000D02*
X297870000Y-126280000D01*
X297150000Y-162000000D02*
X297890000Y-161260000D01*
X297775000Y-130399695D02*
X297840000Y-130334695D01*
%TO.N,col1*%
X324050000Y-188800000D02*
X324250000Y-188600000D01*
X323900000Y-191200000D02*
X323900000Y-190324500D01*
X316530000Y-150380000D02*
X315650000Y-149500000D01*
X327737701Y-177612299D02*
X324250000Y-181100000D01*
X324250000Y-181100000D02*
X324250000Y-183100000D01*
X316570000Y-132920000D02*
X315650000Y-132000000D01*
X324100000Y-192250000D02*
X324100000Y-191500000D01*
X316530000Y-166120000D02*
X316530000Y-154055305D01*
X324100000Y-191500000D02*
X324200000Y-191500000D01*
X328800000Y-173350000D02*
X322450000Y-167000000D01*
X315650000Y-132000000D02*
X316580000Y-131070000D01*
X316530000Y-153144695D02*
X316530000Y-150380000D01*
X322450000Y-167000000D02*
X315650000Y-167000000D01*
X324200000Y-191500000D02*
X323900000Y-191200000D01*
X324250000Y-188600000D02*
X324250000Y-185700000D01*
X316580000Y-131070000D02*
X316580000Y-115430000D01*
X327483526Y-200183526D02*
X353196646Y-200183526D01*
X315650000Y-167000000D02*
X316530000Y-166120000D01*
X328800000Y-174450000D02*
X328800000Y-173350000D01*
X316580000Y-115430000D02*
X315650000Y-114500000D01*
X316325000Y-136500305D02*
X316325000Y-135899695D01*
X331070000Y-176720000D02*
X344220000Y-176720000D01*
X316570000Y-135654695D02*
X316570000Y-132920000D01*
X316325000Y-135899695D02*
X316570000Y-135654695D01*
X324250000Y-185700000D02*
X324200000Y-185650000D01*
X315650000Y-149500000D02*
X316570000Y-148580000D01*
X316375000Y-153299695D02*
X316530000Y-153144695D01*
X316570000Y-136745305D02*
X316325000Y-136500305D01*
X324250000Y-183100000D02*
X324000000Y-183350000D01*
X323950000Y-196650000D02*
X327483526Y-200183526D01*
X316375000Y-153900305D02*
X316375000Y-153299695D01*
X316530000Y-154055305D02*
X316375000Y-153900305D01*
X327737701Y-176012299D02*
X327737701Y-177612299D01*
X328800000Y-174450000D02*
X331070000Y-176720000D01*
X323950000Y-194000000D02*
X323950000Y-196650000D01*
X316570000Y-148580000D02*
X316570000Y-136745305D01*
%TO.N,col0*%
X334625000Y-167625195D02*
X334710000Y-167540195D01*
X327050000Y-181650000D02*
X327050000Y-183775500D01*
X334150000Y-153500000D02*
X334820000Y-152830000D01*
X326200000Y-194200000D02*
X331496591Y-199496591D01*
X334150000Y-171000000D02*
X334710000Y-170440000D01*
X334150000Y-121000000D02*
X334150000Y-118500000D01*
X331062299Y-175687701D02*
X334150000Y-172600000D01*
X344220000Y-175320000D02*
X335520000Y-175320000D01*
X334150000Y-173950000D02*
X334150000Y-171000000D01*
X326650000Y-185224500D02*
X326550000Y-185324500D01*
X327900000Y-180800000D02*
X327050000Y-181650000D01*
X326550000Y-185324500D02*
X326550000Y-188600000D01*
X334150000Y-172600000D02*
X334150000Y-171000000D01*
X350600242Y-199496591D02*
X351046833Y-199050000D01*
X334820000Y-136670000D02*
X334150000Y-136000000D01*
X334710000Y-170085305D02*
X334625000Y-170000305D01*
X334820000Y-152830000D02*
X334820000Y-136670000D01*
X329262701Y-177537299D02*
X327900000Y-178900000D01*
X354300000Y-199858977D02*
X354300000Y-201641453D01*
X334710000Y-167540195D02*
X334710000Y-154060000D01*
X326400000Y-192250000D02*
X326350000Y-192300000D01*
X353491023Y-199050000D02*
X354300000Y-199858977D01*
X331496591Y-199496591D02*
X350600242Y-199496591D01*
X351046833Y-199050000D02*
X353491023Y-199050000D01*
X333940688Y-121209312D02*
X334150000Y-121000000D01*
X367223351Y-214564804D02*
X367970052Y-214564804D01*
X326400000Y-190324500D02*
X326400000Y-192250000D01*
X326200000Y-194150000D02*
X326200000Y-194200000D01*
X354300000Y-201641453D02*
X367223351Y-214564804D01*
X334710000Y-170440000D02*
X334710000Y-170085305D01*
X334625000Y-170000305D02*
X334625000Y-167625195D01*
X335520000Y-175320000D02*
X334150000Y-173950000D01*
X334710000Y-154060000D02*
X334150000Y-153500000D01*
X327900000Y-178900000D02*
X327900000Y-180800000D01*
D53*
%TO.N,/controller/vusb*%
X341300000Y-166975000D02*
X341875000Y-166975000D01*
X327542000Y-106300000D02*
X331324212Y-106300000D01*
X339380000Y-113303916D02*
X338516084Y-112440000D01*
X334970000Y-106200000D02*
X334172500Y-105402500D01*
X333122500Y-105440000D02*
X334172500Y-104390000D01*
X342600000Y-165300000D02*
X344220000Y-166920000D01*
X331324212Y-106300000D02*
X332184212Y-105440000D01*
X342600000Y-166250000D02*
X342600000Y-165300000D01*
X334970000Y-110990000D02*
X334970000Y-106200000D01*
X332184212Y-105440000D02*
X333122500Y-105440000D01*
X339440000Y-117379230D02*
X340437500Y-118376730D01*
X326912000Y-106930000D02*
X327542000Y-106300000D01*
X340437500Y-118376730D02*
X340437500Y-118912500D01*
X336420000Y-112440000D02*
X334970000Y-110990000D01*
X338516084Y-112440000D02*
X336420000Y-112440000D01*
X334172500Y-105402500D02*
X334172500Y-104390000D01*
X341875000Y-166975000D02*
X342600000Y-166250000D01*
%TO.N,sysgnd*%
X324710000Y-98590000D02*
X324710000Y-99002500D01*
X323467500Y-100230000D02*
X323400000Y-100162500D01*
X343750000Y-159100000D02*
X344500000Y-158350000D01*
D54*
X342300000Y-121100000D02*
X342225000Y-121025000D01*
X340512500Y-121787500D02*
X340587500Y-121712500D01*
D53*
X321643158Y-100930000D02*
X319957500Y-100930000D01*
X335700000Y-101425000D02*
X335700000Y-101870000D01*
X352080000Y-166780000D02*
X352020000Y-166720000D01*
D54*
X340587500Y-121712500D02*
X340587500Y-121012500D01*
D53*
X361820000Y-163580000D02*
X363100000Y-162300000D01*
X352020000Y-166720000D02*
X352020000Y-163870000D01*
X324710000Y-99002500D02*
X325860000Y-100152500D01*
X342270000Y-180920000D02*
X342100000Y-180750000D01*
X321664330Y-100951172D02*
X321643158Y-100930000D01*
D52*
X353420000Y-163870000D02*
X353420000Y-162610000D01*
X353515000Y-146185000D02*
X353515000Y-146686992D01*
D53*
X335700000Y-101870000D02*
X336260000Y-102430000D01*
X359495000Y-161090000D02*
X360740000Y-161090000D01*
X349810000Y-186880000D02*
X349810000Y-186890000D01*
X349950000Y-165249294D02*
X350620000Y-164579294D01*
D52*
X353515000Y-146686992D02*
X354015000Y-147186992D01*
D53*
X344517647Y-114109829D02*
X343407818Y-113000000D01*
X341300000Y-168725000D02*
X342375000Y-168725000D01*
X342375000Y-168725000D02*
X342550000Y-168900000D01*
X354820000Y-163870000D02*
X354820000Y-165330000D01*
D54*
X342225000Y-121025000D02*
X341925000Y-121025000D01*
X342700000Y-121100000D02*
X342300000Y-121100000D01*
X340587500Y-121012500D02*
X340750000Y-120850000D01*
D53*
X344220000Y-180920000D02*
X342270000Y-180920000D01*
X329300000Y-101425000D02*
X329300000Y-101775500D01*
X350620000Y-164579294D02*
X350620000Y-163870000D01*
X354820000Y-165330000D02*
X354600000Y-165550000D01*
D52*
X354015000Y-147186992D02*
X354015000Y-147635000D01*
D53*
X359955000Y-152705000D02*
X359000000Y-151750000D01*
D52*
X354645500Y-147635000D02*
X354660500Y-147650000D01*
X354015000Y-147635000D02*
X354645500Y-147635000D01*
D53*
X359955000Y-152870000D02*
X359955000Y-152705000D01*
D52*
X353420000Y-162610000D02*
X352897299Y-162087299D01*
D53*
X361820000Y-163870000D02*
X361820000Y-163580000D01*
X361820000Y-184220000D02*
X363400000Y-185800000D01*
D54*
X341925000Y-121025000D02*
X341750000Y-120850000D01*
D52*
X341512500Y-120600000D02*
X341262500Y-120350000D01*
D53*
X361820000Y-183970000D02*
X361820000Y-184220000D01*
X343750000Y-159675000D02*
X343750000Y-159100000D01*
D52*
X353515000Y-145285000D02*
X353650000Y-145150000D01*
D53*
X352020000Y-182220000D02*
X351450000Y-181650000D01*
X354212500Y-138312500D02*
X354200000Y-138300000D01*
X329300000Y-101775500D02*
X328670000Y-102405500D01*
X349810000Y-186890000D02*
X348150000Y-188550000D01*
D52*
X353515000Y-146185000D02*
X353515000Y-145285000D01*
X341512500Y-121787500D02*
X341512500Y-120600000D01*
D53*
X360740000Y-161090000D02*
X361300000Y-161650000D01*
X349950000Y-166140000D02*
X349950000Y-165249294D01*
X354212500Y-139600000D02*
X354212500Y-138312500D01*
X352020000Y-183970000D02*
X352020000Y-182220000D01*
X324650000Y-100230000D02*
X323467500Y-100230000D01*
%TO.N,Net-(C17-Pad1)*%
X356000000Y-152025000D02*
X356845000Y-152870000D01*
X358170000Y-152905000D02*
X358205000Y-152870000D01*
X354180000Y-144400000D02*
X354180000Y-144010000D01*
X356000000Y-151380000D02*
X356000000Y-152025000D01*
X358170000Y-156737500D02*
X358170000Y-152905000D01*
X358170000Y-156737500D02*
X359662500Y-156737500D01*
X354180000Y-141750000D02*
X354200000Y-141730000D01*
X354180000Y-144010000D02*
X354180000Y-141750000D01*
X355510000Y-150890000D02*
X355510000Y-145730000D01*
X356000000Y-151380000D02*
X355510000Y-150890000D01*
X356845000Y-152870000D02*
X358205000Y-152870000D01*
X359662500Y-156737500D02*
X360870000Y-155530000D01*
X355510000Y-145730000D02*
X354180000Y-144400000D01*
%TO.N,Net-(U2-FB)*%
X352430000Y-144980000D02*
X352430000Y-144010000D01*
D54*
X353015000Y-145565000D02*
X353015000Y-146185000D01*
D53*
X352387500Y-139600000D02*
X352387500Y-143967500D01*
X352600000Y-145150000D02*
X352430000Y-144980000D01*
D54*
X352600000Y-145150000D02*
X353015000Y-145565000D01*
D53*
X352387500Y-143967500D02*
X352430000Y-144010000D01*
%TO.N,/controller/vdd*%
X369185795Y-189285795D02*
X366150000Y-186250000D01*
X349750000Y-150245000D02*
X349750000Y-153036828D01*
X348175000Y-157375000D02*
X348950000Y-158150000D01*
X357620000Y-161215000D02*
X357745000Y-161090000D01*
X358170000Y-158562500D02*
X358170000Y-160665000D01*
X348950000Y-150045000D02*
X349550000Y-150045000D01*
X346195000Y-163870000D02*
X343750000Y-161425000D01*
X349560000Y-172620000D02*
X357200000Y-172620000D01*
X361602500Y-158562500D02*
X362330000Y-159290000D01*
X346420000Y-163870000D02*
X346195000Y-163870000D01*
X366150000Y-186250000D02*
X366150000Y-184450000D01*
X349320000Y-172380000D02*
X349560000Y-172620000D01*
X349320000Y-167359949D02*
X349320000Y-172380000D01*
X357350000Y-164729949D02*
X357620000Y-164459949D01*
X343750000Y-161335000D02*
X342100000Y-159685000D01*
X346700000Y-183690000D02*
X346420000Y-183970000D01*
X358170000Y-160665000D02*
X357745000Y-161090000D01*
X346420000Y-163870000D02*
X346420000Y-164459949D01*
X343125000Y-157375000D02*
X348175000Y-157375000D01*
X366150000Y-184450000D02*
X357350000Y-175650000D01*
X357350000Y-172470000D02*
X357350000Y-164729949D01*
X349550000Y-150045000D02*
X349750000Y-150245000D01*
X357200000Y-172620000D02*
X357350000Y-172470000D01*
X369185795Y-189695795D02*
X369185795Y-189285795D01*
X348950000Y-158150000D02*
X348950000Y-159060000D01*
X352274568Y-155425000D02*
X354325000Y-155425000D01*
X357620000Y-163870000D02*
X357620000Y-161215000D01*
X346420000Y-185240000D02*
X346420000Y-183970000D01*
X348060000Y-186880000D02*
X346420000Y-185240000D01*
X342100000Y-159685000D02*
X342100000Y-158400000D01*
X350424568Y-153575000D02*
X352274568Y-155425000D01*
X343750000Y-161425000D02*
X343750000Y-161335000D01*
X349560000Y-172620000D02*
X346700000Y-175480000D01*
X357620000Y-164459949D02*
X357620000Y-163870000D01*
X357462500Y-158562500D02*
X358170000Y-158562500D01*
X346420000Y-164459949D02*
X349320000Y-167359949D01*
X357350000Y-175650000D02*
X357350000Y-172470000D01*
X342100000Y-158400000D02*
X343125000Y-157375000D01*
X358170000Y-158562500D02*
X361602500Y-158562500D01*
X350288172Y-153575000D02*
X350424568Y-153575000D01*
X346700000Y-175480000D02*
X346700000Y-183690000D01*
X354325000Y-155425000D02*
X357462500Y-158562500D01*
X349750000Y-153036828D02*
X350288172Y-153575000D01*
%TO.N,/controller/low_batt*%
X350785000Y-184135000D02*
X350620000Y-183970000D01*
X350785000Y-187402272D02*
X350785000Y-184135000D01*
X343940000Y-191410000D02*
X346777272Y-191410000D01*
X346777272Y-191410000D02*
X350785000Y-187402272D01*
%TO.N,/controller/BatteryManagement/bat_fused*%
X343331142Y-120568858D02*
X343287284Y-120525000D01*
X358610000Y-140110000D02*
X359890000Y-141390000D01*
X359890000Y-141390000D02*
X359890000Y-146590000D01*
X359890000Y-146590000D02*
X361300000Y-148000000D01*
X343287284Y-120525000D02*
X342700000Y-120525000D01*
X342937284Y-120175000D02*
X342700000Y-120175000D01*
X343331142Y-120568858D02*
X342937284Y-120175000D01*
D52*
%TO.N,Net-(D30-RK)*%
X346060000Y-141045000D02*
X346020000Y-141045000D01*
X346020000Y-141045000D02*
X343975000Y-139000000D01*
%TO.N,/controller/chg_led*%
X348050688Y-129449312D02*
X348050688Y-129370688D01*
X340438172Y-123025000D02*
X339825000Y-122411828D01*
X344750355Y-124954499D02*
X344456296Y-124660430D01*
X339825000Y-122411828D02*
X339825000Y-121100000D01*
X348050688Y-129370688D02*
X345453097Y-126773097D01*
X344456296Y-124660430D02*
X342820866Y-123025000D01*
X345453097Y-126773097D02*
X345453097Y-125558001D01*
X344840367Y-124954504D02*
X344840364Y-124954501D01*
X344840364Y-124954501D02*
X344750355Y-124954499D01*
X345453097Y-125558001D02*
X344849600Y-124954504D01*
X344849600Y-124954504D02*
X344840367Y-124954504D01*
X342820866Y-123025000D02*
X340438172Y-123025000D01*
%TO.N,/controller/bat_lvl1*%
X353100000Y-166590000D02*
X353100000Y-171690500D01*
X356944500Y-180400000D02*
X357620000Y-181075500D01*
X353270000Y-166420000D02*
X353100000Y-166590000D01*
X346050000Y-151545528D02*
X346050000Y-150995000D01*
X353020000Y-177924500D02*
X353020000Y-173469500D01*
X353100000Y-171690500D02*
X353020000Y-171770500D01*
X354165047Y-162135047D02*
X355160000Y-161140094D01*
X353535495Y-156600000D02*
X352000000Y-156600000D01*
X350000000Y-154600000D02*
X349104472Y-154600000D01*
X355160000Y-161140094D02*
X355160000Y-158224505D01*
X357620000Y-181075500D02*
X357620000Y-183970000D01*
X355160000Y-158224505D02*
X353535495Y-156600000D01*
X355495500Y-180400000D02*
X353020000Y-177924500D01*
X349104472Y-154600000D02*
X346050000Y-151545528D01*
X352000000Y-156600000D02*
X350000000Y-154600000D01*
%TO.N,/controller/bat_lvl2*%
X353825000Y-156150000D02*
X352186396Y-156150000D01*
X348950000Y-153050000D02*
X348950000Y-150995000D01*
X355776000Y-166150000D02*
X355200000Y-166726000D01*
X355200000Y-166726000D02*
X355200000Y-171570500D01*
X355350000Y-177600000D02*
X356220000Y-178470000D01*
X352186396Y-156150000D02*
X350186396Y-154150000D01*
X356100000Y-158425000D02*
X353825000Y-156150000D01*
X355400000Y-173469500D02*
X355350000Y-173519500D01*
X355200000Y-171570500D02*
X355400000Y-171770500D01*
X356220000Y-178470000D02*
X356220000Y-183970000D01*
X350050000Y-154150000D02*
X348950000Y-153050000D01*
X355350000Y-173519500D02*
X355350000Y-177600000D01*
X356100000Y-162270500D02*
X356100000Y-158425000D01*
X350186396Y-154150000D02*
X350050000Y-154150000D01*
%TO.N,/controller/status1*%
X345800000Y-162250000D02*
X346050000Y-162000000D01*
X352100000Y-186677772D02*
X352525401Y-186677772D01*
X354820000Y-184383173D02*
X354820000Y-183970000D01*
X352525401Y-186677772D02*
X354820000Y-184383173D01*
X374573949Y-195083949D02*
X373957898Y-195700000D01*
X366136827Y-195700000D02*
X354820000Y-184383173D01*
X373957898Y-195700000D02*
X366136827Y-195700000D01*
X346050000Y-162000000D02*
X346050000Y-160010000D01*
%TO.N,/controller/status2*%
X354710000Y-160565495D02*
X354710000Y-159440000D01*
X349310000Y-160010000D02*
X348950000Y-160010000D01*
X351720500Y-161850000D02*
X352110000Y-161850000D01*
X351300000Y-162270500D02*
X351720500Y-161850000D01*
X350060000Y-159260000D02*
X349310000Y-160010000D01*
X350600000Y-173569500D02*
X350600000Y-177740000D01*
X353065000Y-160895000D02*
X354380495Y-160895000D01*
X350500000Y-173469500D02*
X350600000Y-173569500D01*
X353420000Y-180560000D02*
X353420000Y-183970000D01*
X354530000Y-159260000D02*
X350060000Y-159260000D01*
X351150000Y-170970500D02*
X350350000Y-171770500D01*
X351150000Y-165749500D02*
X351150000Y-170970500D01*
X352110000Y-161850000D02*
X353065000Y-160895000D01*
X354710000Y-159440000D02*
X354530000Y-159260000D01*
X350600000Y-177740000D02*
X353420000Y-180560000D01*
X350900938Y-165500438D02*
X351150000Y-165749500D01*
X354380495Y-160895000D02*
X354710000Y-160565495D01*
%TO.N,vbus_no_fuse*%
X334725000Y-100525000D02*
X334725000Y-101250000D01*
X334475000Y-100275000D02*
X334725000Y-100525000D01*
X334725000Y-101250000D02*
X334900000Y-101425000D01*
D53*
X336210000Y-103670000D02*
X334900000Y-102360000D01*
X334900000Y-102360000D02*
X334900000Y-101425000D01*
X336210000Y-104655000D02*
X336210000Y-103670000D01*
D52*
%TO.N,cc1*%
X328260000Y-103130000D02*
X326660000Y-101530000D01*
X326660000Y-101530000D02*
X326660000Y-99127500D01*
X331250000Y-101425000D02*
X331250000Y-102300000D01*
X331250000Y-102300000D02*
X330420000Y-103130000D01*
X330420000Y-103130000D02*
X328260000Y-103130000D01*
X326660000Y-99127500D02*
X325860000Y-98327500D01*
D55*
%TO.N,usb1_p*%
X332250000Y-100720000D02*
X332540000Y-100430000D01*
X332540000Y-100430000D02*
X333034000Y-100430000D01*
D53*
X324893288Y-101880000D02*
X327413288Y-104400000D01*
D55*
X333034000Y-100430000D02*
X333250000Y-100646000D01*
X333250000Y-101425000D02*
X333250000Y-102640000D01*
D53*
X331410000Y-103900000D02*
X331410000Y-103867728D01*
X319957500Y-101880000D02*
X324893288Y-101880000D01*
D55*
X332250000Y-101425000D02*
X332250000Y-100720000D01*
D53*
X332177728Y-103100000D02*
X332790000Y-103100000D01*
X330910000Y-104400000D02*
X331410000Y-103900000D01*
X327413288Y-104400000D02*
X330910000Y-104400000D01*
D55*
X333250000Y-102640000D02*
X332790000Y-103100000D01*
X333250000Y-100646000D02*
X333250000Y-101425000D01*
D53*
X331410000Y-103867728D02*
X332177728Y-103100000D01*
D55*
%TO.N,usb1_n*%
X332026000Y-102480000D02*
X331750000Y-102204000D01*
D53*
X332026000Y-102480000D02*
X331780000Y-102480000D01*
X322877728Y-101100000D02*
X322475000Y-100697272D01*
X330580000Y-103680000D02*
X327580000Y-103680000D01*
X325000000Y-101100000D02*
X322877728Y-101100000D01*
X322475000Y-100697272D02*
X322475000Y-100375000D01*
D55*
X332750000Y-102220000D02*
X332490000Y-102480000D01*
X332490000Y-102480000D02*
X332026000Y-102480000D01*
D53*
X327580000Y-103680000D02*
X325000000Y-101100000D01*
D55*
X331750000Y-102204000D02*
X331750000Y-101425000D01*
D53*
X322080000Y-99980000D02*
X319957500Y-99980000D01*
X322475000Y-100375000D02*
X322080000Y-99980000D01*
D55*
X332750000Y-101425000D02*
X332750000Y-102220000D01*
D53*
X331780000Y-102480000D02*
X330580000Y-103680000D01*
D52*
%TO.N,cc2*%
X326295495Y-97480000D02*
X327647495Y-98832000D01*
X337310000Y-102920000D02*
X337310000Y-105130000D01*
X336935000Y-105505000D02*
X335735000Y-105505000D01*
X338210000Y-102020000D02*
X337310000Y-102920000D01*
X338210000Y-100643274D02*
X338210000Y-102020000D01*
X334985000Y-103693289D02*
X334250000Y-102958289D01*
X327647495Y-98832000D02*
X336398726Y-98832000D01*
X336398726Y-98832000D02*
X338210000Y-100643274D01*
X334985000Y-104755000D02*
X334985000Y-103693289D01*
X337310000Y-105130000D02*
X336935000Y-105505000D01*
X324257500Y-97480000D02*
X326295495Y-97480000D01*
X334250000Y-102958289D02*
X334250000Y-101425000D01*
X335735000Y-105505000D02*
X334985000Y-104755000D01*
X323400000Y-98337500D02*
X324257500Y-97480000D01*
D53*
%TO.N,/controller/chassi*%
X326670000Y-95160000D02*
X317370000Y-95160000D01*
X328180000Y-96670000D02*
X336820000Y-96670000D01*
X317370000Y-95160000D02*
X313960000Y-98570000D01*
X328180000Y-96670000D02*
X326670000Y-95160000D01*
D52*
%TO.N,/controller/reset*%
X371400000Y-176450000D02*
X371400000Y-180750000D01*
X367466485Y-174000000D02*
X367466485Y-173816485D01*
X369000000Y-174050000D02*
X371400000Y-176450000D01*
X362273508Y-169500000D02*
X361274500Y-169500000D01*
X356500500Y-168950000D02*
X356500500Y-164150500D01*
X376370000Y-192050000D02*
X373500000Y-189180000D01*
X356500500Y-164150500D02*
X356220000Y-163870000D01*
X362839296Y-170065788D02*
X362273508Y-169500000D01*
X358300000Y-169350000D02*
X358200000Y-169250000D01*
X368915485Y-174050000D02*
X369000000Y-174050000D01*
X361274500Y-169500000D02*
X361174500Y-169400000D01*
X373500000Y-188936396D02*
X373050000Y-188486396D01*
X359725500Y-169350000D02*
X358300000Y-169350000D01*
X367466485Y-173816485D02*
X364250000Y-170600000D01*
X373050000Y-188486396D02*
X373050000Y-182250000D01*
X373500000Y-189180000D02*
X373500000Y-188936396D01*
X376370000Y-196880000D02*
X376370000Y-192050000D01*
%TO.N,/controller/swdclk*%
X363700000Y-167563173D02*
X363700000Y-170124695D01*
X363525000Y-170299695D02*
X363525000Y-177075000D01*
X360420000Y-163870000D02*
X360420000Y-164283173D01*
X371250000Y-188200000D02*
X372777897Y-189727897D01*
X363525000Y-177075000D02*
X371250000Y-184800000D01*
X371250000Y-184800000D02*
X371250000Y-188200000D01*
X360420000Y-164283173D02*
X363700000Y-167563173D01*
X372777897Y-189727897D02*
X372777897Y-193287897D01*
X363700000Y-170124695D02*
X363525000Y-170299695D01*
%TO.N,/controller/swdio*%
X360450000Y-176000000D02*
X366900000Y-182450000D01*
X359020000Y-163870000D02*
X359020000Y-164283173D01*
X370981846Y-189571846D02*
X370981846Y-191491846D01*
X360450000Y-165713173D02*
X360450000Y-176000000D01*
X366900000Y-185490000D02*
X370981846Y-189571846D01*
X359020000Y-164283173D02*
X360450000Y-165713173D01*
X366900000Y-182450000D02*
X366900000Y-185490000D01*
%TO.N,Net-(U2-SW)*%
X353515000Y-147635000D02*
X353515000Y-148400000D01*
D53*
X351900000Y-151380000D02*
X353515000Y-149765000D01*
X353515000Y-149765000D02*
X353515000Y-148400000D01*
D52*
%TO.N,/controller/fast_chg_led*%
X372327897Y-190027897D02*
X372327897Y-191807496D01*
X368187701Y-185887701D02*
X372327897Y-190027897D01*
X370528299Y-192700000D02*
X364900000Y-187071701D01*
X371435393Y-192700000D02*
X370528299Y-192700000D01*
X349236150Y-144132022D02*
X348736150Y-144132022D01*
X364900000Y-187071701D02*
X364900000Y-185236827D01*
X350425000Y-142943172D02*
X349236150Y-144132022D01*
X345800000Y-139000000D02*
X348675000Y-139000000D01*
X364900000Y-185236827D02*
X361313173Y-181650000D01*
X350425000Y-140750000D02*
X350425000Y-142943172D01*
X361313173Y-181650000D02*
X360550000Y-181650000D01*
X372327897Y-191807496D02*
X371435393Y-192700000D01*
X347050000Y-144350000D02*
X347000000Y-144400000D01*
X348736150Y-144132022D02*
X348518172Y-144350000D01*
X368187701Y-182762299D02*
X368187701Y-185887701D01*
X359020000Y-183180000D02*
X359020000Y-183970000D01*
X348675000Y-139000000D02*
X350425000Y-140750000D01*
X348518172Y-144350000D02*
X347050000Y-144350000D01*
X360550000Y-181650000D02*
X359020000Y-183180000D01*
%TO.N,Net-(U4-ILIM)*%
X337140000Y-119982500D02*
X337522500Y-119600000D01*
X337522500Y-119600000D02*
X339825000Y-119600000D01*
D53*
%TO.N,USB_N*%
X347820000Y-163320000D02*
X351037500Y-160102500D01*
X351037500Y-160102500D02*
X351130000Y-160102500D01*
X347820000Y-163870000D02*
X347820000Y-163320000D01*
%TO.N,USB_P*%
X352567500Y-160082500D02*
X353910000Y-160082500D01*
X350896712Y-161130000D02*
X351520000Y-161130000D01*
X351520000Y-161130000D02*
X352567500Y-160082500D01*
X349220000Y-162806712D02*
X350896712Y-161130000D01*
X349220000Y-163870000D02*
X349220000Y-162806712D01*
D52*
%TO.N,/controller/fast_chg*%
X373398949Y-194601051D02*
X373398949Y-194597248D01*
X372150000Y-188463604D02*
X372150000Y-174750000D01*
X366600000Y-159900000D02*
X363650000Y-156950000D01*
X363650000Y-156950000D02*
X363650000Y-155244505D01*
X370995000Y-195050000D02*
X372950000Y-195050000D01*
X369450000Y-172050000D02*
X369450000Y-167100000D01*
X373800000Y-191850000D02*
X373800000Y-190113604D01*
X369450000Y-167100000D02*
X366600000Y-164250000D01*
X360420000Y-183970000D02*
X360420000Y-184475000D01*
X360420000Y-184475000D02*
X370995000Y-195050000D01*
X374850000Y-193146197D02*
X374850000Y-192900000D01*
X372950000Y-195050000D02*
X373398949Y-194601051D01*
X366600000Y-164250000D02*
X366600000Y-159900000D01*
X373398949Y-194597248D02*
X374850000Y-193146197D01*
X372150000Y-174750000D02*
X369450000Y-172050000D01*
X363645000Y-155225000D02*
X357855000Y-149435000D01*
X373800000Y-190113604D02*
X372150000Y-188463604D01*
X374850000Y-192900000D02*
X373800000Y-191850000D01*
D53*
%TO.N,vsys*%
X338900000Y-120175000D02*
X339825000Y-120175000D01*
D55*
X353015000Y-147151637D02*
X352798363Y-146935000D01*
D53*
X338900000Y-120175000D02*
X339250000Y-120525000D01*
D55*
X352781637Y-146935000D02*
X352515000Y-146668363D01*
D53*
X352440000Y-146110000D02*
X352440000Y-146185000D01*
D55*
X352798363Y-146935000D02*
X352781637Y-146935000D01*
D53*
X347700000Y-145800000D02*
X350325000Y-145800000D01*
D55*
X352515000Y-146668363D02*
X352515000Y-146185000D01*
D53*
X339250000Y-120525000D02*
X339825000Y-120525000D01*
X352185000Y-145855000D02*
X352440000Y-146110000D01*
D55*
X353015000Y-147635000D02*
X353015000Y-147151637D01*
D53*
X350380000Y-145855000D02*
X352185000Y-145855000D01*
X350325000Y-145800000D02*
X350380000Y-145855000D01*
%TO.N,vbus_fused*%
X327950000Y-98330000D02*
X326130000Y-96510000D01*
X337850000Y-98330000D02*
X327950000Y-98330000D01*
X340500000Y-100560000D02*
X338060000Y-98120000D01*
X338060000Y-98120000D02*
X337850000Y-98330000D01*
X318795000Y-99631472D02*
X318795000Y-100495000D01*
X331377500Y-105360000D02*
X332347500Y-104390000D01*
X318795000Y-100495000D02*
X318360000Y-100930000D01*
X326130000Y-96510000D02*
X321916472Y-96510000D01*
X317682500Y-100930000D02*
X318243528Y-100930000D01*
X318840000Y-101526472D02*
X318840000Y-102273528D01*
X318840000Y-102273528D02*
X319196472Y-102630000D01*
X327200000Y-105360000D02*
X331377500Y-105360000D01*
X337900000Y-103160000D02*
X340500000Y-100560000D01*
X336925000Y-106405000D02*
X337900000Y-105430000D01*
X321916472Y-96510000D02*
X318795000Y-99631472D01*
X318360000Y-100930000D02*
X317682500Y-100930000D01*
X336210000Y-106405000D02*
X336925000Y-106405000D01*
X337900000Y-105430000D02*
X337900000Y-103160000D01*
X319196472Y-102630000D02*
X324470000Y-102630000D01*
X324470000Y-102630000D02*
X327200000Y-105360000D01*
X318243528Y-100930000D02*
X318840000Y-101526472D01*
%TD*%
M02*
