%TF.GenerationSoftware,KiCad,Pcbnew,7.0.1*%
%TF.CreationDate,2023-03-12T20:23:32+01:00*%
%TF.ProjectId,grapto-v3w-left,67726170-746f-42d7-9633-772d6c656674,v1.0.0*%
%TF.SameCoordinates,Original*%
%TF.FileFunction,Copper,L1,Top*%
%TF.FilePolarity,Positive*%
%FSLAX46Y46*%
G04 Gerber Fmt 4.6, Leading zero omitted, Abs format (unit mm)*
G04 Created by KiCad (PCBNEW 7.0.1) date 2023-03-12 20:23:32*
%MOMM*%
%LPD*%
G01*
G04 APERTURE LIST*
G04 Aperture macros list*
%AMHorizOval*
0 Thick line with rounded ends*
0 $1 width*
0 $2 $3 position (X,Y) of the first rounded end (center of the circle)*
0 $4 $5 position (X,Y) of the second rounded end (center of the circle)*
0 Add line between two ends*
20,1,$1,$2,$3,$4,$5,0*
0 Add two circle primitives to create the rounded ends*
1,1,$1,$2,$3*
1,1,$1,$4,$5*%
%AMRotRect*
0 Rectangle, with rotation*
0 The origin of the aperture is its center*
0 $1 length*
0 $2 width*
0 $3 Rotation angle, in degrees counterclockwise*
0 Add horizontal line*
21,1,$1,$2,0,0,$3*%
G04 Aperture macros list end*
%TA.AperFunction,ComponentPad*%
%ADD10R,1.700000X1.700000*%
%TD*%
%TA.AperFunction,ComponentPad*%
%ADD11RotRect,1.700000X1.700000X45.000000*%
%TD*%
%TA.AperFunction,ComponentPad*%
%ADD12HorizOval,1.700000X0.000000X0.000000X0.000000X0.000000X0*%
%TD*%
%TA.AperFunction,ComponentPad*%
%ADD13O,1.000000X1.800000*%
%TD*%
%TA.AperFunction,ComponentPad*%
%ADD14O,1.000000X2.100000*%
%TD*%
%TA.AperFunction,SMDPad,CuDef*%
%ADD15R,0.900000X1.200000*%
%TD*%
%TA.AperFunction,SMDPad,CuDef*%
%ADD16RotRect,0.900000X1.200000X348.500000*%
%TD*%
%TA.AperFunction,SMDPad,CuDef*%
%ADD17RotRect,0.900000X1.200000X327.780000*%
%TD*%
%TA.AperFunction,SMDPad,CuDef*%
%ADD18RotRect,0.900000X1.200000X307.060000*%
%TD*%
%TA.AperFunction,ViaPad*%
%ADD19C,0.800000*%
%TD*%
%TA.AperFunction,Conductor*%
%ADD20C,0.250000*%
%TD*%
G04 APERTURE END LIST*
D10*
%TO.P,TP22,1,1*%
%TO.N,/controller/low_batt*%
X343940000Y-191410000D03*
%TD*%
%TO.P,TP18,1,1*%
%TO.N,/controller/vdd*%
X362330000Y-159290000D03*
%TD*%
%TO.P,TP17,1,1*%
%TO.N,Net-(C17-Pad1)*%
X360870000Y-155530000D03*
%TD*%
%TO.P,TP16,1,1*%
%TO.N,vsys*%
X347700000Y-145800000D03*
%TD*%
%TO.P,TP15,1,1*%
%TO.N,sysgnd*%
X317650000Y-96950000D03*
%TD*%
%TO.P,TP14,1,1*%
%TO.N,/controller/vusb*%
X317700000Y-101500000D03*
%TD*%
%TO.P,TP13,1,1*%
%TO.N,Net-(F4-Pad2)*%
X340500000Y-100560000D03*
%TD*%
%TO.P,TP11,1,1*%
%TO.N,/controller/BatteryManagement/bat_fused*%
X361300000Y-148000000D03*
%TD*%
%TO.P,TP10,1,1*%
%TO.N,Net-(F3-Pad2)*%
X356760000Y-138860000D03*
%TD*%
%TO.P,TP1,1,1*%
%TO.N,Net-(U4-~{PGOOD})*%
X349000000Y-126000000D03*
%TD*%
D11*
%TO.P,J8,1,Pin_1*%
%TO.N,sysgnd*%
X378166051Y-198676051D03*
D12*
%TO.P,J8,2,Pin_2*%
%TO.N,/controller/reset*%
X376370000Y-196880000D03*
%TO.P,J8,3,Pin_3*%
%TO.N,/controller/status1*%
X374573949Y-195083949D03*
%TO.P,J8,4,Pin_4*%
%TO.N,/controller/swdclk*%
X372777897Y-193287897D03*
%TO.P,J8,5,Pin_5*%
%TO.N,/controller/swdio*%
X370981846Y-191491846D03*
%TO.P,J8,6,Pin_6*%
%TO.N,/controller/vdd*%
X369185795Y-189695795D03*
%TD*%
D13*
%TO.P,J6,S1,SHIELD*%
%TO.N,/controller/chassi*%
X328170000Y-95520000D03*
D14*
X328170000Y-99720000D03*
X336810000Y-99720000D03*
D13*
X336810000Y-95520000D03*
%TD*%
D15*
%TO.P,D88,1*%
%TO.N,col5row3*%
X238350000Y-184500000D03*
%TO.P,D88,2*%
%TO.N,col5*%
X241650000Y-184500000D03*
%TD*%
%TO.P,D89,1*%
%TO.N,col5row2*%
X238350000Y-167000000D03*
%TO.P,D89,2*%
%TO.N,col5*%
X241650000Y-167000000D03*
%TD*%
%TO.P,D90,1*%
%TO.N,col5row1*%
X238350000Y-149500000D03*
%TO.P,D90,2*%
%TO.N,col5*%
X241650000Y-149500000D03*
%TD*%
%TO.P,D91,1*%
%TO.N,col4row3*%
X256850000Y-184500000D03*
%TO.P,D91,2*%
%TO.N,col4*%
X260150000Y-184500000D03*
%TD*%
%TO.P,D92,1*%
%TO.N,col4row2*%
X256850000Y-167000000D03*
%TO.P,D92,2*%
%TO.N,col4*%
X260150000Y-167000000D03*
%TD*%
%TO.P,D93,1*%
%TO.N,col4row1*%
X256850000Y-149500000D03*
%TO.P,D93,2*%
%TO.N,col4*%
X260150000Y-149500000D03*
%TD*%
%TO.P,D94,1*%
%TO.N,col4row0*%
X256850000Y-132000000D03*
%TO.P,D94,2*%
%TO.N,col4*%
X260150000Y-132000000D03*
%TD*%
%TO.P,D95,1*%
%TO.N,col5row4*%
X275350000Y-184500000D03*
%TO.P,D95,2*%
%TO.N,col5*%
X278650000Y-184500000D03*
%TD*%
%TO.P,D96,1*%
%TO.N,col3row3*%
X275350000Y-167000000D03*
%TO.P,D96,2*%
%TO.N,col3*%
X278650000Y-167000000D03*
%TD*%
%TO.P,D97,1*%
%TO.N,col3row2*%
X275350000Y-149500000D03*
%TO.P,D97,2*%
%TO.N,col3*%
X278650000Y-149500000D03*
%TD*%
%TO.P,D98,1*%
%TO.N,col3row1*%
X275350000Y-132000000D03*
%TO.P,D98,2*%
%TO.N,col3*%
X278650000Y-132000000D03*
%TD*%
%TO.P,D99,1*%
%TO.N,col3row0*%
X275350000Y-114500000D03*
%TO.P,D99,2*%
%TO.N,col3*%
X278650000Y-114500000D03*
%TD*%
%TO.P,D100,1*%
%TO.N,col4row4*%
X293850000Y-179500000D03*
%TO.P,D100,2*%
%TO.N,col4*%
X297150000Y-179500000D03*
%TD*%
%TO.P,D101,1*%
%TO.N,col2row3*%
X293850000Y-162000000D03*
%TO.P,D101,2*%
%TO.N,col2*%
X297150000Y-162000000D03*
%TD*%
%TO.P,D102,1*%
%TO.N,col2row2*%
X293850000Y-144500000D03*
%TO.P,D102,2*%
%TO.N,col2*%
X297150000Y-144500000D03*
%TD*%
%TO.P,D103,1*%
%TO.N,col2row1*%
X293850000Y-127000000D03*
%TO.P,D103,2*%
%TO.N,col2*%
X297150000Y-127000000D03*
%TD*%
%TO.P,D104,1*%
%TO.N,col2row0*%
X293850000Y-109500000D03*
%TO.P,D104,2*%
%TO.N,col2*%
X297150000Y-109500000D03*
%TD*%
%TO.P,D105,1*%
%TO.N,col3row4*%
X312350000Y-184500000D03*
%TO.P,D105,2*%
%TO.N,col3*%
X315650000Y-184500000D03*
%TD*%
%TO.P,D106,1*%
%TO.N,col1row3*%
X312350000Y-167000000D03*
%TO.P,D106,2*%
%TO.N,col1*%
X315650000Y-167000000D03*
%TD*%
%TO.P,D107,1*%
%TO.N,col1row2*%
X312350000Y-149500000D03*
%TO.P,D107,2*%
%TO.N,col1*%
X315650000Y-149500000D03*
%TD*%
%TO.P,D108,1*%
%TO.N,col1row1*%
X312350000Y-132000000D03*
%TO.P,D108,2*%
%TO.N,col1*%
X315650000Y-132000000D03*
%TD*%
%TO.P,D109,1*%
%TO.N,col1row0*%
X312350000Y-114500000D03*
%TO.P,D109,2*%
%TO.N,col1*%
X315650000Y-114500000D03*
%TD*%
%TO.P,D110,1*%
%TO.N,col0row3*%
X330850000Y-171000000D03*
%TO.P,D110,2*%
%TO.N,col0*%
X334150000Y-171000000D03*
%TD*%
%TO.P,D111,1*%
%TO.N,col0row2*%
X330850000Y-153500000D03*
%TO.P,D111,2*%
%TO.N,col0*%
X334150000Y-153500000D03*
%TD*%
%TO.P,D112,1*%
%TO.N,col0row1*%
X330850000Y-136000000D03*
%TO.P,D112,2*%
%TO.N,col0*%
X334150000Y-136000000D03*
%TD*%
%TO.P,D113,1*%
%TO.N,col0row0*%
X330850000Y-118500000D03*
%TO.P,D113,2*%
%TO.N,col0*%
X334150000Y-118500000D03*
%TD*%
D16*
%TO.P,D114,1*%
%TO.N,col2row4*%
X331056907Y-191301358D03*
%TO.P,D114,2*%
%TO.N,col2*%
X334290659Y-191959272D03*
%TD*%
D17*
%TO.P,D115,1*%
%TO.N,col1row4*%
X350404822Y-198424060D03*
%TO.P,D115,2*%
%TO.N,col1*%
X353196646Y-200183526D03*
%TD*%
D18*
%TO.P,D116,1*%
%TO.N,col0row4*%
X365981304Y-211931388D03*
%TO.P,D116,2*%
%TO.N,col0*%
X367970052Y-214564804D03*
%TD*%
D19*
%TO.N,/controller/reset*%
X358200000Y-169250000D03*
X361174500Y-169400000D03*
X359725500Y-169350000D03*
X356500500Y-168950000D03*
X362839296Y-170065788D03*
X373050000Y-182250000D03*
X368915485Y-174050000D03*
X364250000Y-170600000D03*
X367466485Y-174000000D03*
X371400000Y-180750000D03*
%TO.N,/controller/fast_chg_led*%
X368187701Y-182762299D03*
X368250000Y-180750000D03*
%TO.N,/controller/chg_led*%
X347300000Y-131700000D03*
X348050688Y-129449312D03*
%TO.N,/controller/status1*%
X345808188Y-162191812D03*
X344700000Y-163800000D03*
%TO.N,/controller/bat_lvl1*%
X353250000Y-166200000D03*
X354165047Y-162135047D03*
X353020000Y-171770500D03*
X355495500Y-180400000D03*
X353020000Y-173469500D03*
X356944500Y-180400000D03*
%TO.N,/controller/bat_lvl2*%
X355776000Y-166150000D03*
X355400000Y-173469500D03*
X355400000Y-171770500D03*
X356100000Y-162270500D03*
%TO.N,/controller/status1*%
X352010000Y-188126772D03*
X352100000Y-186677772D03*
%TO.N,/controller/status2*%
X350350000Y-171770500D03*
X350500000Y-173469500D03*
X351150000Y-166100000D03*
X351300000Y-162270500D03*
%TD*%
D20*
%TO.N,/controller/reset*%
X368915485Y-174050000D02*
X367516485Y-174050000D01*
X367516485Y-174050000D02*
X367466485Y-174000000D01*
%TO.N,/controller/status1*%
X352100000Y-186677772D02*
X352100000Y-188036772D01*
X352100000Y-188036772D02*
X352010000Y-188126772D01*
%TO.N,/controller/bat_lvl1*%
X355495500Y-180400000D02*
X356944500Y-180400000D01*
%TO.N,/controller/bat_lvl2*%
X355776000Y-166150000D02*
X355776000Y-165326000D01*
X355776000Y-165326000D02*
X356100000Y-165002000D01*
X356100000Y-165002000D02*
X356100000Y-162270500D01*
%TO.N,/controller/bat_lvl1*%
X353250000Y-166200000D02*
X353680000Y-165770000D01*
X353680000Y-165770000D02*
X353680000Y-162620094D01*
X353680000Y-162620094D02*
X354165047Y-162135047D01*
%TO.N,/controller/status2*%
X351150000Y-166100000D02*
X351300000Y-165950000D01*
X351300000Y-165950000D02*
X351300000Y-162270500D01*
%TO.N,/controller/bat_lvl1*%
X353020000Y-171770500D02*
X353020000Y-173469500D01*
%TO.N,/controller/status2*%
X350500000Y-171920500D02*
X350500000Y-173469500D01*
X350350000Y-171770500D02*
X350500000Y-171920500D01*
%TO.N,/controller/bat_lvl2*%
X355400000Y-173469500D02*
X355400000Y-171770500D01*
%TO.N,/controller/reset*%
X362839296Y-170065788D02*
X363373508Y-170600000D01*
X363373508Y-170600000D02*
X364250000Y-170600000D01*
X361174500Y-169400000D02*
X359775500Y-169400000D01*
X358200000Y-169250000D02*
X356800500Y-169250000D01*
X359775500Y-169400000D02*
X359725500Y-169350000D01*
X356800500Y-169250000D02*
X356500500Y-168950000D01*
X372900000Y-182250000D02*
X371400000Y-180750000D01*
X373050000Y-182250000D02*
X372900000Y-182250000D01*
%TO.N,/controller/fast_chg_led*%
X368250000Y-180750000D02*
X368250000Y-182700000D01*
X368250000Y-182700000D02*
X368187701Y-182762299D01*
%TO.N,/controller/chg_led*%
X347300000Y-131700000D02*
X347300000Y-130200000D01*
X347300000Y-130200000D02*
X348050688Y-129449312D01*
%TO.N,/controller/status1*%
X344700000Y-163300000D02*
X345808188Y-162191812D01*
X344700000Y-163800000D02*
X344700000Y-163300000D01*
%TD*%
M02*
