%TF.GenerationSoftware,KiCad,Pcbnew,7.0.1*%
%TF.CreationDate,2023-03-18T23:25:57+01:00*%
%TF.ProjectId,grapto-v3w-right,67726170-746f-42d7-9633-772d72696768,v1.0.0*%
%TF.SameCoordinates,Original*%
%TF.FileFunction,Soldermask,Bot*%
%TF.FilePolarity,Negative*%
%FSLAX46Y46*%
G04 Gerber Fmt 4.6, Leading zero omitted, Abs format (unit mm)*
G04 Created by KiCad (PCBNEW 7.0.1) date 2023-03-18 23:25:57*
%MOMM*%
%LPD*%
G01*
G04 APERTURE LIST*
G04 Aperture macros list*
%AMRoundRect*
0 Rectangle with rounded corners*
0 $1 Rounding radius*
0 $2 $3 $4 $5 $6 $7 $8 $9 X,Y pos of 4 corners*
0 Add a 4 corners polygon primitive as box body*
4,1,4,$2,$3,$4,$5,$6,$7,$8,$9,$2,$3,0*
0 Add four circle primitives for the rounded corners*
1,1,$1+$1,$2,$3*
1,1,$1+$1,$4,$5*
1,1,$1+$1,$6,$7*
1,1,$1+$1,$8,$9*
0 Add four rect primitives between the rounded corners*
20,1,$1+$1,$2,$3,$4,$5,0*
20,1,$1+$1,$4,$5,$6,$7,0*
20,1,$1+$1,$6,$7,$8,$9,0*
20,1,$1+$1,$8,$9,$2,$3,0*%
G04 Aperture macros list end*
%ADD10RoundRect,0.050000X-0.450000X-0.600000X0.450000X-0.600000X0.450000X0.600000X-0.450000X0.600000X0*%
%ADD11RoundRect,0.050000X-0.060800X-0.747531X0.700606X-0.267677X0.060800X0.747531X-0.700606X0.267677X0*%
%ADD12C,1.801800*%
%ADD13C,3.100000*%
%ADD14C,3.529000*%
%ADD15RoundRect,0.050000X-1.300000X-1.300000X1.300000X-1.300000X1.300000X1.300000X-1.300000X1.300000X0*%
%ADD16RoundRect,0.050000X0.253960X-1.820853X1.820853X0.253960X-0.253960X1.820853X-1.820853X-0.253960X0*%
%ADD17RoundRect,0.050000X-1.014724X-1.533080X1.533080X-1.014724X1.014724X1.533080X-1.533080X1.014724X0*%
%ADD18RoundRect,0.050000X0.207610X-0.720693X0.749996X-0.002488X-0.207610X0.720693X-0.749996X0.002488X0*%
%ADD19RoundRect,0.050000X-0.406686X-1.792932X1.792932X-0.406686X0.406686X1.792932X-1.792932X0.406686X0*%
%ADD20RoundRect,0.050000X-0.321345X-0.677670X0.560587X-0.498239X0.321345X0.677670X-0.560587X0.498239X0*%
%ADD21C,2.100000*%
%ADD22RoundRect,0.287500X-0.237500X0.287500X-0.237500X-0.287500X0.237500X-0.287500X0.237500X0.287500X0*%
%ADD23RoundRect,0.300000X-0.250000X0.750000X-0.250000X-0.750000X0.250000X-0.750000X0.250000X0.750000X0*%
%ADD24RoundRect,0.300000X0.750000X0.250000X-0.750000X0.250000X-0.750000X-0.250000X0.750000X-0.250000X0*%
%ADD25RoundRect,0.300000X0.250000X-0.750000X0.250000X0.750000X-0.250000X0.750000X-0.250000X-0.750000X0*%
%ADD26RoundRect,0.287500X0.237500X-0.300000X0.237500X0.300000X-0.237500X0.300000X-0.237500X-0.300000X0*%
%ADD27RoundRect,0.287500X0.237500X-0.250000X0.237500X0.250000X-0.237500X0.250000X-0.237500X-0.250000X0*%
%ADD28RoundRect,0.287500X0.300000X0.237500X-0.300000X0.237500X-0.300000X-0.237500X0.300000X-0.237500X0*%
%ADD29RoundRect,0.050000X0.350000X-0.350000X0.350000X0.350000X-0.350000X0.350000X-0.350000X-0.350000X0*%
%ADD30RoundRect,0.287500X-0.237500X0.250000X-0.237500X-0.250000X0.237500X-0.250000X0.237500X0.250000X0*%
%ADD31RoundRect,0.200000X-0.150000X0.512500X-0.150000X-0.512500X0.150000X-0.512500X0.150000X0.512500X0*%
%ADD32RoundRect,0.050000X-0.850000X0.850000X-0.850000X-0.850000X0.850000X-0.850000X0.850000X0.850000X0*%
%ADD33O,1.800000X1.800000*%
%ADD34RoundRect,0.050000X0.091895X-0.800972X0.643413X0.485818X-0.091895X0.800972X-0.643413X-0.485818X0*%
%ADD35C,1.000000*%
%ADD36RoundRect,0.050000X0.761559X-0.761596X1.076712X-0.026288X-0.761559X0.761596X-1.076712X0.026288X0*%
%ADD37RoundRect,0.112500X-0.062500X0.337500X-0.062500X-0.337500X0.062500X-0.337500X0.062500X0.337500X0*%
%ADD38RoundRect,0.112500X0.375000X0.062500X-0.375000X0.062500X-0.375000X-0.062500X0.375000X-0.062500X0*%
%ADD39RoundRect,0.112500X0.062500X0.375000X-0.062500X0.375000X-0.062500X-0.375000X0.062500X-0.375000X0*%
%ADD40RoundRect,0.050000X0.800000X0.800000X-0.800000X0.800000X-0.800000X-0.800000X0.800000X-0.800000X0*%
%ADD41RoundRect,0.300000X-0.250000X-1.500000X0.250000X-1.500000X0.250000X1.500000X-0.250000X1.500000X0*%
%ADD42RoundRect,0.300001X-0.499999X-1.449999X0.499999X-1.449999X0.499999X1.449999X-0.499999X1.449999X0*%
%ADD43C,0.700000*%
%ADD44C,0.750000*%
%ADD45RoundRect,0.050000X-0.300000X-0.575000X0.300000X-0.575000X0.300000X0.575000X-0.300000X0.575000X0*%
%ADD46RoundRect,0.050000X-0.150000X-0.575000X0.150000X-0.575000X0.150000X0.575000X-0.150000X0.575000X0*%
%ADD47O,1.100000X1.700000*%
%ADD48O,1.100000X2.000000*%
%ADD49RoundRect,0.287500X0.250000X0.237500X-0.250000X0.237500X-0.250000X-0.237500X0.250000X-0.237500X0*%
%ADD50RoundRect,0.287500X-0.237500X0.300000X-0.237500X-0.300000X0.237500X-0.300000X0.237500X0.300000X0*%
%ADD51RoundRect,0.287500X-0.250000X-0.237500X0.250000X-0.237500X0.250000X0.237500X-0.250000X0.237500X0*%
%ADD52RoundRect,0.287500X-0.300000X-0.237500X0.300000X-0.237500X0.300000X0.237500X-0.300000X0.237500X0*%
%ADD53RoundRect,0.287500X0.237500X-0.287500X0.237500X0.287500X-0.237500X0.287500X-0.237500X-0.287500X0*%
%ADD54RoundRect,0.050000X1.250000X0.950000X-1.250000X0.950000X-1.250000X-0.950000X1.250000X-0.950000X0*%
G04 APERTURE END LIST*
D10*
%TO.C,D43*%
X164350000Y-162000000D03*
X167650000Y-162000000D03*
%TD*%
%TO.C,D68*%
X182850000Y-149500000D03*
X186150000Y-149500000D03*
%TD*%
%TO.C,D51*%
X145850000Y-114500000D03*
X149150000Y-114500000D03*
%TD*%
%TO.C,D73*%
X164350000Y-144500000D03*
X167650000Y-144500000D03*
%TD*%
%TO.C,D78*%
X145850000Y-149500000D03*
X149150000Y-149500000D03*
%TD*%
%TO.C,D49*%
X145850000Y-149500000D03*
X149150000Y-149500000D03*
%TD*%
D11*
%TO.C,D57*%
X108303354Y-200183526D03*
X111095178Y-198424060D03*
%TD*%
D10*
%TO.C,D66*%
X182850000Y-184500000D03*
X186150000Y-184500000D03*
%TD*%
%TO.C,D62*%
X201350000Y-184500000D03*
X204650000Y-184500000D03*
%TD*%
%TO.C,D44*%
X164350000Y-144500000D03*
X167650000Y-144500000D03*
%TD*%
%TO.C,D37*%
X182850000Y-184500000D03*
X186150000Y-184500000D03*
%TD*%
D12*
%TO.C,S64*%
X197500000Y-145000000D03*
D13*
X203000000Y-139050000D03*
D14*
X203000000Y-145000000D03*
D13*
X208000000Y-141250000D03*
D12*
X208500000Y-145000000D03*
D15*
X199725000Y-139050000D03*
X211275000Y-141250000D03*
%TD*%
D10*
%TO.C,D54*%
X127350000Y-136000000D03*
X130650000Y-136000000D03*
%TD*%
D12*
%TO.C,S32*%
X216000000Y-145000000D03*
D13*
X221500000Y-139050000D03*
D14*
X221500000Y-145000000D03*
D13*
X226500000Y-141250000D03*
D12*
X227000000Y-145000000D03*
D15*
X218225000Y-139050000D03*
X229775000Y-141250000D03*
%TD*%
D10*
%TO.C,D69*%
X182850000Y-132000000D03*
X186150000Y-132000000D03*
%TD*%
D12*
%TO.C,S45*%
X160500000Y-122500000D03*
D13*
X166000000Y-116550000D03*
D14*
X166000000Y-122500000D03*
D13*
X171000000Y-118750000D03*
D12*
X171500000Y-122500000D03*
D15*
X162725000Y-116550000D03*
X174275000Y-118750000D03*
%TD*%
D12*
%TO.C,S76*%
X142000000Y-180000000D03*
D13*
X147500000Y-174050000D03*
D14*
X147500000Y-180000000D03*
D13*
X152500000Y-176250000D03*
D12*
X153000000Y-180000000D03*
D15*
X144225000Y-174050000D03*
X155775000Y-176250000D03*
%TD*%
D10*
%TO.C,D71*%
X164350000Y-179500000D03*
X167650000Y-179500000D03*
%TD*%
D12*
%TO.C,S51*%
X142000000Y-110000000D03*
D13*
X147500000Y-104050000D03*
D14*
X147500000Y-110000000D03*
D13*
X152500000Y-106250000D03*
D12*
X153000000Y-110000000D03*
D15*
X144225000Y-104050000D03*
X155775000Y-106250000D03*
%TD*%
D10*
%TO.C,D33*%
X201350000Y-184500000D03*
X204650000Y-184500000D03*
%TD*%
D12*
%TO.C,S52*%
X123500000Y-166500000D03*
D13*
X129000000Y-160550000D03*
D14*
X129000000Y-166500000D03*
D13*
X134000000Y-162750000D03*
D12*
X134500000Y-166500000D03*
D15*
X125725000Y-160550000D03*
X137275000Y-162750000D03*
%TD*%
D10*
%TO.C,D82*%
X127350000Y-153500000D03*
X130650000Y-153500000D03*
%TD*%
D11*
%TO.C,D86*%
X108303354Y-200183526D03*
X111095178Y-198424060D03*
%TD*%
D12*
%TO.C,S79*%
X142000000Y-127500000D03*
D13*
X147500000Y-121550000D03*
D14*
X147500000Y-127500000D03*
D13*
X152500000Y-123750000D03*
D12*
X153000000Y-127500000D03*
D15*
X144225000Y-121550000D03*
X155775000Y-123750000D03*
%TD*%
D12*
%TO.C,S70*%
X179000000Y-110000000D03*
D13*
X184500000Y-104050000D03*
D14*
X184500000Y-110000000D03*
D13*
X189500000Y-106250000D03*
D12*
X190000000Y-110000000D03*
D15*
X181225000Y-104050000D03*
X192775000Y-106250000D03*
%TD*%
D12*
%TO.C,S87*%
X87618719Y-214925194D03*
D13*
X86185171Y-206950393D03*
D14*
X90933300Y-210536167D03*
D13*
X90954037Y-204286201D03*
D12*
X94247881Y-206147140D03*
D16*
X84211489Y-209563859D03*
X92927719Y-201672736D03*
%TD*%
D12*
%TO.C,S61*%
X216000000Y-145000000D03*
D13*
X221500000Y-139050000D03*
D14*
X221500000Y-145000000D03*
D13*
X226500000Y-141250000D03*
D12*
X227000000Y-145000000D03*
D15*
X218225000Y-139050000D03*
X229775000Y-141250000D03*
%TD*%
D10*
%TO.C,D83*%
X127350000Y-136000000D03*
X130650000Y-136000000D03*
%TD*%
%TO.C,D63*%
X201350000Y-167000000D03*
X204650000Y-167000000D03*
%TD*%
D12*
%TO.C,S72*%
X160500000Y-157500000D03*
D13*
X166000000Y-151550000D03*
D14*
X166000000Y-157500000D03*
D13*
X171000000Y-153750000D03*
D12*
X171500000Y-157500000D03*
D15*
X162725000Y-151550000D03*
X174275000Y-153750000D03*
%TD*%
D12*
%TO.C,S47*%
X142000000Y-180000000D03*
D13*
X147500000Y-174050000D03*
D14*
X147500000Y-180000000D03*
D13*
X152500000Y-176250000D03*
D12*
X153000000Y-180000000D03*
D15*
X144225000Y-174050000D03*
X155775000Y-176250000D03*
%TD*%
D12*
%TO.C,S84*%
X123500000Y-114000000D03*
D13*
X129000000Y-108050000D03*
D14*
X129000000Y-114000000D03*
D13*
X134000000Y-110250000D03*
D12*
X134500000Y-114000000D03*
D15*
X125725000Y-108050000D03*
X137275000Y-110250000D03*
%TD*%
D12*
%TO.C,S33*%
X197500000Y-180000000D03*
D13*
X203000000Y-174050000D03*
D14*
X203000000Y-180000000D03*
D13*
X208000000Y-176250000D03*
D12*
X208500000Y-180000000D03*
D15*
X199725000Y-174050000D03*
X211275000Y-176250000D03*
%TD*%
D12*
%TO.C,S40*%
X179000000Y-127500000D03*
D13*
X184500000Y-121550000D03*
D14*
X184500000Y-127500000D03*
D13*
X189500000Y-123750000D03*
D12*
X190000000Y-127500000D03*
D15*
X181225000Y-121550000D03*
X192775000Y-123750000D03*
%TD*%
D12*
%TO.C,S85*%
X122539476Y-188317177D03*
D13*
X126742823Y-181390101D03*
D14*
X127929062Y-187220653D03*
D13*
X132081056Y-182549096D03*
D12*
X133318648Y-186124129D03*
D17*
X123533569Y-182043031D03*
X135290309Y-181896166D03*
%TD*%
D12*
%TO.C,S38*%
X179000000Y-162500000D03*
D13*
X184500000Y-156550000D03*
D14*
X184500000Y-162500000D03*
D13*
X189500000Y-158750000D03*
D12*
X190000000Y-162500000D03*
D15*
X181225000Y-156550000D03*
X192775000Y-158750000D03*
%TD*%
D12*
%TO.C,S82*%
X123500000Y-149000000D03*
D13*
X129000000Y-143050000D03*
D14*
X129000000Y-149000000D03*
D13*
X134000000Y-145250000D03*
D12*
X134500000Y-149000000D03*
D15*
X125725000Y-143050000D03*
X137275000Y-145250000D03*
%TD*%
D12*
%TO.C,S36*%
X197500000Y-127500000D03*
D13*
X203000000Y-121550000D03*
D14*
X203000000Y-127500000D03*
D13*
X208000000Y-123750000D03*
D12*
X208500000Y-127500000D03*
D15*
X199725000Y-121550000D03*
X211275000Y-123750000D03*
%TD*%
D18*
%TO.C,D58*%
X93529948Y-214564804D03*
X95518696Y-211931388D03*
%TD*%
D10*
%TO.C,D55*%
X127350000Y-118500000D03*
X130650000Y-118500000D03*
%TD*%
D12*
%TO.C,S67*%
X179000000Y-162500000D03*
D13*
X184500000Y-156550000D03*
D14*
X184500000Y-162500000D03*
D13*
X189500000Y-158750000D03*
D12*
X190000000Y-162500000D03*
D15*
X181225000Y-156550000D03*
X192775000Y-158750000D03*
%TD*%
D12*
%TO.C,S78*%
X142000000Y-145000000D03*
D13*
X147500000Y-139050000D03*
D14*
X147500000Y-145000000D03*
D13*
X152500000Y-141250000D03*
D12*
X153000000Y-145000000D03*
D15*
X144225000Y-139050000D03*
X155775000Y-141250000D03*
%TD*%
D12*
%TO.C,S50*%
X142000000Y-127500000D03*
D13*
X147500000Y-121550000D03*
D14*
X147500000Y-127500000D03*
D13*
X152500000Y-123750000D03*
D12*
X153000000Y-127500000D03*
D15*
X144225000Y-121550000D03*
X155775000Y-123750000D03*
%TD*%
D12*
%TO.C,S37*%
X179000000Y-180000000D03*
D13*
X184500000Y-174050000D03*
D14*
X184500000Y-180000000D03*
D13*
X189500000Y-176250000D03*
D12*
X190000000Y-180000000D03*
D15*
X181225000Y-174050000D03*
X192775000Y-176250000D03*
%TD*%
D12*
%TO.C,S49*%
X142000000Y-145000000D03*
D13*
X147500000Y-139050000D03*
D14*
X147500000Y-145000000D03*
D13*
X152500000Y-141250000D03*
D12*
X153000000Y-145000000D03*
D15*
X144225000Y-139050000D03*
X155775000Y-141250000D03*
%TD*%
D12*
%TO.C,S83*%
X123500000Y-131500000D03*
D13*
X129000000Y-125550000D03*
D14*
X129000000Y-131500000D03*
D13*
X134000000Y-127750000D03*
D12*
X134500000Y-131500000D03*
D15*
X125725000Y-125550000D03*
X137275000Y-127750000D03*
%TD*%
D12*
%TO.C,S39*%
X179000000Y-145000000D03*
D13*
X184500000Y-139050000D03*
D14*
X184500000Y-145000000D03*
D13*
X189500000Y-141250000D03*
D12*
X190000000Y-145000000D03*
D15*
X181225000Y-139050000D03*
X192775000Y-141250000D03*
%TD*%
D10*
%TO.C,D64*%
X201350000Y-149500000D03*
X204650000Y-149500000D03*
%TD*%
%TO.C,D41*%
X182850000Y-114500000D03*
X186150000Y-114500000D03*
%TD*%
D12*
%TO.C,S60*%
X216000000Y-162500000D03*
D13*
X221500000Y-156550000D03*
D14*
X221500000Y-162500000D03*
D13*
X226500000Y-158750000D03*
D12*
X227000000Y-162500000D03*
D15*
X218225000Y-156550000D03*
X229775000Y-158750000D03*
%TD*%
D10*
%TO.C,D52*%
X127350000Y-171000000D03*
X130650000Y-171000000D03*
%TD*%
%TO.C,D39*%
X182850000Y-149500000D03*
X186150000Y-149500000D03*
%TD*%
D12*
%TO.C,S42*%
X160500000Y-175000000D03*
D13*
X166000000Y-169050000D03*
D14*
X166000000Y-175000000D03*
D13*
X171000000Y-171250000D03*
D12*
X171500000Y-175000000D03*
D15*
X162725000Y-169050000D03*
X174275000Y-171250000D03*
%TD*%
D10*
%TO.C,D45*%
X164350000Y-127000000D03*
X167650000Y-127000000D03*
%TD*%
D12*
%TO.C,S62*%
X197500000Y-180000000D03*
D13*
X203000000Y-174050000D03*
D14*
X203000000Y-180000000D03*
D13*
X208000000Y-176250000D03*
D12*
X208500000Y-180000000D03*
D15*
X199725000Y-174050000D03*
X211275000Y-176250000D03*
%TD*%
D12*
%TO.C,S66*%
X179000000Y-180000000D03*
D13*
X184500000Y-174050000D03*
D14*
X184500000Y-180000000D03*
D13*
X189500000Y-176250000D03*
D12*
X190000000Y-180000000D03*
D15*
X181225000Y-174050000D03*
X192775000Y-176250000D03*
%TD*%
D10*
%TO.C,D50*%
X145850000Y-132000000D03*
X149150000Y-132000000D03*
%TD*%
%TO.C,D60*%
X219850000Y-167000000D03*
X223150000Y-167000000D03*
%TD*%
%TO.C,D59*%
X219850000Y-184500000D03*
X223150000Y-184500000D03*
%TD*%
D12*
%TO.C,S73*%
X160500000Y-140000000D03*
D13*
X166000000Y-134050000D03*
D14*
X166000000Y-140000000D03*
D13*
X171000000Y-136250000D03*
D12*
X171500000Y-140000000D03*
D15*
X162725000Y-134050000D03*
X174275000Y-136250000D03*
%TD*%
D12*
%TO.C,S57*%
X102646955Y-198429205D03*
D13*
X104127623Y-190463019D03*
D14*
X107299994Y-195496761D03*
D13*
X109530636Y-189658376D03*
D12*
X111953033Y-192564317D03*
D19*
X101356950Y-192209156D03*
X112301309Y-187912239D03*
%TD*%
D12*
%TO.C,S55*%
X123500000Y-114000000D03*
D13*
X129000000Y-108050000D03*
D14*
X129000000Y-114000000D03*
D13*
X134000000Y-110250000D03*
D12*
X134500000Y-114000000D03*
D15*
X125725000Y-108050000D03*
X137275000Y-110250000D03*
%TD*%
D12*
%TO.C,S58*%
X87618719Y-214925194D03*
D13*
X86185171Y-206950393D03*
D14*
X90933300Y-210536167D03*
D13*
X90954037Y-204286201D03*
D12*
X94247881Y-206147140D03*
D16*
X84211489Y-209563859D03*
X92927719Y-201672736D03*
%TD*%
D12*
%TO.C,S44*%
X160500000Y-140000000D03*
D13*
X166000000Y-134050000D03*
D14*
X166000000Y-140000000D03*
D13*
X171000000Y-136250000D03*
D12*
X171500000Y-140000000D03*
D15*
X162725000Y-134050000D03*
X174275000Y-136250000D03*
%TD*%
D10*
%TO.C,D53*%
X127350000Y-153500000D03*
X130650000Y-153500000D03*
%TD*%
%TO.C,D42*%
X164350000Y-179500000D03*
X167650000Y-179500000D03*
%TD*%
D12*
%TO.C,S56*%
X122539476Y-188317177D03*
D13*
X126742823Y-181390101D03*
D14*
X127929062Y-187220653D03*
D13*
X132081056Y-182549096D03*
D12*
X133318648Y-186124129D03*
D17*
X123533569Y-182043031D03*
X135290309Y-181896166D03*
%TD*%
D10*
%TO.C,D65*%
X201350000Y-132000000D03*
X204650000Y-132000000D03*
%TD*%
%TO.C,D76*%
X145850000Y-184500000D03*
X149150000Y-184500000D03*
%TD*%
D12*
%TO.C,S31*%
X216000000Y-162500000D03*
D13*
X221500000Y-156550000D03*
D14*
X221500000Y-162500000D03*
D13*
X226500000Y-158750000D03*
D12*
X227000000Y-162500000D03*
D15*
X218225000Y-156550000D03*
X229775000Y-158750000D03*
%TD*%
D12*
%TO.C,S59*%
X216000000Y-180000000D03*
D13*
X221500000Y-174050000D03*
D14*
X221500000Y-180000000D03*
D13*
X226500000Y-176250000D03*
D12*
X227000000Y-180000000D03*
D15*
X218225000Y-174050000D03*
X229775000Y-176250000D03*
%TD*%
D10*
%TO.C,D84*%
X127350000Y-118500000D03*
X130650000Y-118500000D03*
%TD*%
%TO.C,D79*%
X145850000Y-132000000D03*
X149150000Y-132000000D03*
%TD*%
D12*
%TO.C,S81*%
X123500000Y-166500000D03*
D13*
X129000000Y-160550000D03*
D14*
X129000000Y-166500000D03*
D13*
X134000000Y-162750000D03*
D12*
X134500000Y-166500000D03*
D15*
X125725000Y-160550000D03*
X137275000Y-162750000D03*
%TD*%
D12*
%TO.C,S86*%
X102646955Y-198429205D03*
D13*
X104127623Y-190463019D03*
D14*
X107299994Y-195496761D03*
D13*
X109530636Y-189658376D03*
D12*
X111953033Y-192564317D03*
D19*
X101356950Y-192209156D03*
X112301309Y-187912239D03*
%TD*%
D10*
%TO.C,D48*%
X145850000Y-167000000D03*
X149150000Y-167000000D03*
%TD*%
%TO.C,D35*%
X201350000Y-149500000D03*
X204650000Y-149500000D03*
%TD*%
%TO.C,D72*%
X164350000Y-162000000D03*
X167650000Y-162000000D03*
%TD*%
%TO.C,D67*%
X182850000Y-167000000D03*
X186150000Y-167000000D03*
%TD*%
%TO.C,D34*%
X201350000Y-167000000D03*
X204650000Y-167000000D03*
%TD*%
D12*
%TO.C,S46*%
X160500000Y-105000000D03*
D13*
X166000000Y-99050000D03*
D14*
X166000000Y-105000000D03*
D13*
X171000000Y-101250000D03*
D12*
X171500000Y-105000000D03*
D15*
X162725000Y-99050000D03*
X174275000Y-101250000D03*
%TD*%
D12*
%TO.C,S54*%
X123500000Y-131500000D03*
D13*
X129000000Y-125550000D03*
D14*
X129000000Y-131500000D03*
D13*
X134000000Y-127750000D03*
D12*
X134500000Y-131500000D03*
D15*
X125725000Y-125550000D03*
X137275000Y-127750000D03*
%TD*%
D12*
%TO.C,S68*%
X179000000Y-145000000D03*
D13*
X184500000Y-139050000D03*
D14*
X184500000Y-145000000D03*
D13*
X189500000Y-141250000D03*
D12*
X190000000Y-145000000D03*
D15*
X181225000Y-139050000D03*
X192775000Y-141250000D03*
%TD*%
D10*
%TO.C,D70*%
X182850000Y-114500000D03*
X186150000Y-114500000D03*
%TD*%
D12*
%TO.C,S80*%
X142000000Y-110000000D03*
D13*
X147500000Y-104050000D03*
D14*
X147500000Y-110000000D03*
D13*
X152500000Y-106250000D03*
D12*
X153000000Y-110000000D03*
D15*
X144225000Y-104050000D03*
X155775000Y-106250000D03*
%TD*%
D10*
%TO.C,D40*%
X182850000Y-132000000D03*
X186150000Y-132000000D03*
%TD*%
D12*
%TO.C,S77*%
X142000000Y-162500000D03*
D13*
X147500000Y-156550000D03*
D14*
X147500000Y-162500000D03*
D13*
X152500000Y-158750000D03*
D12*
X153000000Y-162500000D03*
D15*
X144225000Y-156550000D03*
X155775000Y-158750000D03*
%TD*%
D12*
%TO.C,S30*%
X216000000Y-180000000D03*
D13*
X221500000Y-174050000D03*
D14*
X221500000Y-180000000D03*
D13*
X226500000Y-176250000D03*
D12*
X227000000Y-180000000D03*
D15*
X218225000Y-174050000D03*
X229775000Y-176250000D03*
%TD*%
D10*
%TO.C,D80*%
X145850000Y-114500000D03*
X149150000Y-114500000D03*
%TD*%
%TO.C,D36*%
X201350000Y-132000000D03*
X204650000Y-132000000D03*
%TD*%
%TO.C,D75*%
X164350000Y-109500000D03*
X167650000Y-109500000D03*
%TD*%
D12*
%TO.C,S65*%
X197500000Y-127500000D03*
D13*
X203000000Y-121550000D03*
D14*
X203000000Y-127500000D03*
D13*
X208000000Y-123750000D03*
D12*
X208500000Y-127500000D03*
D15*
X199725000Y-121550000D03*
X211275000Y-123750000D03*
%TD*%
D10*
%TO.C,D74*%
X164350000Y-127000000D03*
X167650000Y-127000000D03*
%TD*%
D12*
%TO.C,S71*%
X160500000Y-175000000D03*
D13*
X166000000Y-169050000D03*
D14*
X166000000Y-175000000D03*
D13*
X171000000Y-171250000D03*
D12*
X171500000Y-175000000D03*
D15*
X162725000Y-169050000D03*
X174275000Y-171250000D03*
%TD*%
D20*
%TO.C,D85*%
X127209341Y-191959272D03*
X130443093Y-191301358D03*
%TD*%
D18*
%TO.C,D87*%
X93529948Y-214564804D03*
X95518696Y-211931388D03*
%TD*%
D12*
%TO.C,S74*%
X160500000Y-122500000D03*
D13*
X166000000Y-116550000D03*
D14*
X166000000Y-122500000D03*
D13*
X171000000Y-118750000D03*
D12*
X171500000Y-122500000D03*
D15*
X162725000Y-116550000D03*
X174275000Y-118750000D03*
%TD*%
D12*
%TO.C,S75*%
X160500000Y-105000000D03*
D13*
X166000000Y-99050000D03*
D14*
X166000000Y-105000000D03*
D13*
X171000000Y-101250000D03*
D12*
X171500000Y-105000000D03*
D15*
X162725000Y-99050000D03*
X174275000Y-101250000D03*
%TD*%
D20*
%TO.C,D56*%
X127209341Y-191959272D03*
X130443093Y-191301358D03*
%TD*%
D10*
%TO.C,D61*%
X219850000Y-149500000D03*
X223150000Y-149500000D03*
%TD*%
D12*
%TO.C,S69*%
X179000000Y-127500000D03*
D13*
X184500000Y-121550000D03*
D14*
X184500000Y-127500000D03*
D13*
X189500000Y-123750000D03*
D12*
X190000000Y-127500000D03*
D15*
X181225000Y-121550000D03*
X192775000Y-123750000D03*
%TD*%
D10*
%TO.C,D47*%
X145850000Y-184500000D03*
X149150000Y-184500000D03*
%TD*%
D12*
%TO.C,S34*%
X197500000Y-162500000D03*
D13*
X203000000Y-156550000D03*
D14*
X203000000Y-162500000D03*
D13*
X208000000Y-158750000D03*
D12*
X208500000Y-162500000D03*
D15*
X199725000Y-156550000D03*
X211275000Y-158750000D03*
%TD*%
D10*
%TO.C,D77*%
X145850000Y-167000000D03*
X149150000Y-167000000D03*
%TD*%
%TO.C,D46*%
X164350000Y-109500000D03*
X167650000Y-109500000D03*
%TD*%
%TO.C,D38*%
X182850000Y-167000000D03*
X186150000Y-167000000D03*
%TD*%
D12*
%TO.C,S35*%
X197500000Y-145000000D03*
D13*
X203000000Y-139050000D03*
D14*
X203000000Y-145000000D03*
D13*
X208000000Y-141250000D03*
D12*
X208500000Y-145000000D03*
D15*
X199725000Y-139050000D03*
X211275000Y-141250000D03*
%TD*%
D12*
%TO.C,S48*%
X142000000Y-162500000D03*
D13*
X147500000Y-156550000D03*
D14*
X147500000Y-162500000D03*
D13*
X152500000Y-158750000D03*
D12*
X153000000Y-162500000D03*
D15*
X144225000Y-156550000D03*
X155775000Y-158750000D03*
%TD*%
D12*
%TO.C,S53*%
X123500000Y-149000000D03*
D13*
X129000000Y-143050000D03*
D14*
X129000000Y-149000000D03*
D13*
X134000000Y-145250000D03*
D12*
X134500000Y-149000000D03*
D15*
X125725000Y-143050000D03*
X137275000Y-145250000D03*
%TD*%
D21*
%TO.C,TP13*%
X125850000Y-111880000D03*
%TD*%
D10*
%TO.C,D81*%
X127350000Y-171000000D03*
X130650000Y-171000000D03*
%TD*%
D12*
%TO.C,S43*%
X160500000Y-157500000D03*
D13*
X166000000Y-151550000D03*
D14*
X166000000Y-157500000D03*
D13*
X171000000Y-153750000D03*
D12*
X171500000Y-157500000D03*
D15*
X162725000Y-151550000D03*
X174275000Y-153750000D03*
%TD*%
D12*
%TO.C,S41*%
X179000000Y-110000000D03*
D13*
X184500000Y-104050000D03*
D14*
X184500000Y-110000000D03*
D13*
X189500000Y-106250000D03*
D12*
X190000000Y-110000000D03*
D15*
X181225000Y-104050000D03*
X192775000Y-106250000D03*
%TD*%
D12*
%TO.C,S63*%
X197500000Y-162500000D03*
D13*
X203000000Y-156550000D03*
D14*
X203000000Y-162500000D03*
D13*
X208000000Y-158750000D03*
D12*
X208500000Y-162500000D03*
D15*
X199725000Y-156550000D03*
X211275000Y-158750000D03*
%TD*%
D21*
%TO.C,TP16*%
X107200000Y-145300000D03*
%TD*%
D22*
%TO.C,F4*%
X122420000Y-98285000D03*
X122420000Y-100035000D03*
%TD*%
D21*
%TO.C,TP22*%
X118400000Y-143600000D03*
%TD*%
D23*
%TO.C,U1*%
X100220000Y-163350000D03*
X101620000Y-163350000D03*
X103020000Y-163350000D03*
X104420000Y-163350000D03*
X105820000Y-163350000D03*
X107220000Y-163350000D03*
X108620000Y-163350000D03*
X110020000Y-163350000D03*
X111420000Y-163350000D03*
X112820000Y-163350000D03*
X114220000Y-163350000D03*
X115620000Y-163350000D03*
D24*
X117820000Y-166400000D03*
X117820000Y-167800000D03*
X117820000Y-169200000D03*
X117820000Y-170600000D03*
X117820000Y-172000000D03*
X117820000Y-173400000D03*
X117820000Y-174800000D03*
X117820000Y-176200000D03*
X117820000Y-177600000D03*
X117820000Y-179000000D03*
X117820000Y-180400000D03*
D25*
X115620000Y-183450000D03*
X114220000Y-183450000D03*
X112820000Y-183450000D03*
X111420000Y-183450000D03*
X110020000Y-183450000D03*
X108620000Y-183450000D03*
X107220000Y-183450000D03*
X105820000Y-183450000D03*
X104420000Y-183450000D03*
X103020000Y-183450000D03*
X101620000Y-183450000D03*
X100220000Y-183450000D03*
%TD*%
D26*
%TO.C,C1*%
X118530000Y-115452500D03*
X118530000Y-113727500D03*
%TD*%
D21*
%TO.C,TP17*%
X97050000Y-158850000D03*
%TD*%
D27*
%TO.C,R5*%
X103000000Y-152492500D03*
X103000000Y-150667500D03*
%TD*%
D28*
%TO.C,C16*%
X107252500Y-148540000D03*
X105527500Y-148540000D03*
%TD*%
D21*
%TO.C,TP10*%
X109830000Y-140110000D03*
%TD*%
D26*
%TO.C,C2*%
X105280000Y-152472500D03*
X105280000Y-150747500D03*
%TD*%
D29*
%TO.C,D31*%
X115450000Y-150060000D03*
X112550000Y-150060000D03*
X112550000Y-151010000D03*
X115450000Y-151010000D03*
%TD*%
D28*
%TO.C,C3*%
X101062500Y-186400000D03*
X99337500Y-186400000D03*
%TD*%
D30*
%TO.C,R9*%
X100600000Y-150670000D03*
X100600000Y-152495000D03*
%TD*%
D21*
%TO.C,TP18*%
X97100000Y-163400000D03*
%TD*%
D30*
%TO.C,R19*%
X119850000Y-145847500D03*
X119850000Y-147672500D03*
%TD*%
D21*
%TO.C,TP11*%
X121000000Y-126300000D03*
%TD*%
D31*
%TO.C,U3*%
X137875000Y-104612500D03*
X138825000Y-104612500D03*
X139775000Y-104612500D03*
X139775000Y-106887500D03*
X138825000Y-106887500D03*
X137875000Y-106887500D03*
%TD*%
D32*
%TO.C,J8*%
X110780000Y-206890000D03*
D33*
X113320000Y-206890000D03*
X115860000Y-206890000D03*
X118400000Y-206890000D03*
X120940000Y-206890000D03*
X123480000Y-206890000D03*
%TD*%
D34*
%TO.C,SW31*%
X110677748Y-121151507D03*
X112709038Y-122022119D03*
D35*
X112535772Y-119608702D03*
X113717598Y-116851296D03*
D34*
X113553524Y-114441819D03*
X115584814Y-115312431D03*
D36*
X114225648Y-121148968D03*
X115407474Y-118391562D03*
X115998387Y-117012859D03*
%TD*%
D28*
%TO.C,C17*%
X101252500Y-157020000D03*
X99527500Y-157020000D03*
%TD*%
D37*
%TO.C,U2*%
X107430000Y-150895000D03*
X107930000Y-150895000D03*
X108430000Y-150895000D03*
X108930000Y-150895000D03*
X108930000Y-152345000D03*
X108430000Y-152345000D03*
X107930000Y-152345000D03*
X107430000Y-152345000D03*
%TD*%
D21*
%TO.C,J2*%
X137350000Y-98720000D03*
%TD*%
D38*
%TO.C,U4*%
X123450000Y-116900000D03*
X123450000Y-117400000D03*
X123450000Y-117900000D03*
X123450000Y-118400000D03*
D39*
X122762500Y-119087500D03*
X122262500Y-119087500D03*
X121762500Y-119087500D03*
X121262500Y-119087500D03*
D38*
X120575000Y-118400000D03*
X120575000Y-117900000D03*
X120575000Y-117400000D03*
X120575000Y-116900000D03*
D39*
X121262500Y-116212500D03*
X121762500Y-116212500D03*
X122262500Y-116212500D03*
X122762500Y-116212500D03*
D40*
X122012500Y-117650000D03*
%TD*%
D28*
%TO.C,C7*%
X122245000Y-179580000D03*
X120520000Y-179580000D03*
%TD*%
D27*
%TO.C,R30*%
X116990000Y-147660000D03*
X116990000Y-145835000D03*
%TD*%
D41*
%TO.C,J1*%
X116390000Y-136150000D03*
X118390000Y-136150000D03*
D42*
X114040000Y-130400000D03*
X120740000Y-130400000D03*
%TD*%
D43*
%TO.C,J6*%
X126180000Y-100090000D03*
D44*
X131960000Y-100090000D03*
D45*
X125870000Y-101165000D03*
X126670000Y-101165000D03*
D46*
X127820000Y-101165000D03*
X128820000Y-101165000D03*
X129320000Y-101165000D03*
X130320000Y-101165000D03*
D45*
X131470000Y-101165000D03*
X132270000Y-101165000D03*
X132270000Y-101165000D03*
X131470000Y-101165000D03*
D46*
X130820000Y-101165000D03*
X129820000Y-101165000D03*
X128320000Y-101165000D03*
X127320000Y-101165000D03*
D45*
X126670000Y-101165000D03*
X125870000Y-101165000D03*
D47*
X124750000Y-96410000D03*
D48*
X124750000Y-100610000D03*
D47*
X133390000Y-96410000D03*
D48*
X133390000Y-100610000D03*
%TD*%
D27*
%TO.C,R8*%
X121500000Y-113912500D03*
X121500000Y-112087500D03*
%TD*%
D29*
%TO.C,D30*%
X115440000Y-141060000D03*
X112540000Y-141060000D03*
X112540000Y-142010000D03*
X115440000Y-142010000D03*
%TD*%
D49*
%TO.C,R2*%
X101300000Y-159500000D03*
X99475000Y-159500000D03*
%TD*%
D21*
%TO.C,TP15*%
X142100000Y-98550000D03*
%TD*%
D50*
%TO.C,C5*%
X119830000Y-149747500D03*
X119830000Y-151472500D03*
%TD*%
D30*
%TO.C,R7*%
X118000000Y-120037500D03*
X118000000Y-121862500D03*
%TD*%
D51*
%TO.C,R20*%
X126737500Y-103700000D03*
X128562500Y-103700000D03*
%TD*%
D49*
%TO.C,R1*%
X119512500Y-141000000D03*
X117687500Y-141000000D03*
%TD*%
D50*
%TO.C,C10*%
X121890000Y-121950000D03*
X121890000Y-123675000D03*
%TD*%
D52*
%TO.C,C6*%
X117887500Y-161200000D03*
X119612500Y-161200000D03*
%TD*%
D29*
%TO.C,D32*%
X115450000Y-159050000D03*
X112550000Y-159050000D03*
X112550000Y-160000000D03*
X115450000Y-160000000D03*
%TD*%
D51*
%TO.C,R23*%
X136587500Y-101750000D03*
X138412500Y-101750000D03*
%TD*%
D30*
%TO.C,R25*%
X122850000Y-156287500D03*
X122850000Y-158112500D03*
%TD*%
D21*
%TO.C,TP14*%
X118290000Y-111040000D03*
%TD*%
%TO.C,TP1*%
X116850000Y-125300000D03*
%TD*%
D30*
%TO.C,R24*%
X120450000Y-154837500D03*
X120450000Y-156662500D03*
%TD*%
D27*
%TO.C,R14*%
X110890000Y-132352500D03*
X110890000Y-130527500D03*
%TD*%
D53*
%TO.C,F3*%
X111000000Y-137185000D03*
X111000000Y-135435000D03*
%TD*%
D52*
%TO.C,C4*%
X117565000Y-185760000D03*
X119290000Y-185760000D03*
%TD*%
D54*
%TO.C,L2*%
X108070000Y-156910000D03*
X103970000Y-156910000D03*
%TD*%
D49*
%TO.C,R4*%
X126100000Y-121350000D03*
X124275000Y-121350000D03*
%TD*%
%TO.C,R13*%
X122682500Y-110150000D03*
X120857500Y-110150000D03*
%TD*%
M02*
