%TF.GenerationSoftware,KiCad,Pcbnew,7.0.1*%
%TF.CreationDate,2023-03-18T23:25:57+01:00*%
%TF.ProjectId,grapto-v3w-right,67726170-746f-42d7-9633-772d72696768,v1.0.0*%
%TF.SameCoordinates,Original*%
%TF.FileFunction,Profile,NP*%
%FSLAX46Y46*%
G04 Gerber Fmt 4.6, Leading zero omitted, Abs format (unit mm)*
G04 Created by KiCad (PCBNEW 7.0.1) date 2023-03-18 23:25:57*
%MOMM*%
%LPD*%
G01*
G04 APERTURE LIST*
%TA.AperFunction,Profile*%
%ADD10C,0.150000*%
%TD*%
%TA.AperFunction,Profile*%
%ADD11C,0.120000*%
%TD*%
G04 APERTURE END LIST*
D10*
X79959573Y-190500000D02*
X76976510Y-197489788D01*
X122500000Y-105400000D02*
G75*
G03*
X119600000Y-102500000I-2900000J0D01*
G01*
X84100000Y-190500000D02*
G75*
G03*
X87000000Y-187600000I0J2900000D01*
G01*
X231550000Y-187250000D02*
X231550000Y-137750000D01*
X198900000Y-110500000D02*
G75*
G03*
X196000000Y-113400000I0J-2900000D01*
G01*
X201250000Y-110500000D02*
X198900000Y-110500000D01*
X119600000Y-108500000D02*
G75*
G03*
X122500000Y-105600000I0J2900000D01*
G01*
X201900000Y-191500000D02*
G75*
G03*
X199000000Y-194400000I0J-2900000D01*
G01*
X114000000Y-217123388D02*
X199000000Y-195522044D01*
X114000000Y-217123388D02*
X114000000Y-216400000D01*
X199000000Y-194400000D02*
X199000000Y-195522044D01*
X114955077Y-108500000D02*
X82520219Y-184500000D01*
X121250000Y-93750000D02*
X117515724Y-102500000D01*
X174250000Y-97250000D02*
X156250000Y-93750000D01*
X198900000Y-116500000D02*
X207795455Y-116500000D01*
X210250000Y-118750000D02*
X207795455Y-116500000D01*
X90541662Y-223084937D02*
X108000000Y-218648189D01*
X76976510Y-197489788D02*
X78571590Y-214045171D01*
X119600000Y-102500000D02*
X117515724Y-102500000D01*
X201250000Y-110500000D02*
X192250000Y-102250000D01*
X202100000Y-191500000D02*
X201900000Y-191500000D01*
X87000000Y-187400000D02*
G75*
G03*
X84100000Y-184500000I-2900000J0D01*
G01*
X114000000Y-216400000D02*
G75*
G03*
X111100000Y-213500000I-2900000J0D01*
G01*
X79959573Y-190500000D02*
X84100000Y-190500000D01*
X78571590Y-214045171D02*
X90541662Y-223084937D01*
X122500000Y-105600000D02*
X122500000Y-105400000D01*
X87000000Y-187600000D02*
X87000000Y-187400000D01*
X114955077Y-108500000D02*
X119600000Y-108500000D01*
X196000000Y-113600000D02*
G75*
G03*
X198900000Y-116500000I2900000J0D01*
G01*
X84100000Y-184500000D02*
X82520219Y-184500000D01*
X108000000Y-216400000D02*
X108000000Y-218648189D01*
X156250000Y-93750000D02*
X121250000Y-93750000D01*
X204972855Y-194004142D02*
G75*
G03*
X202100000Y-191500000I-2872855J-395858D01*
G01*
X204972855Y-194004142D02*
X231550000Y-187250000D01*
X196000000Y-113400000D02*
X196000000Y-113600000D01*
X192250000Y-102250000D02*
X174250000Y-97250000D01*
X111100000Y-213500000D02*
X110900000Y-213500000D01*
X231550000Y-137750000D02*
X210250000Y-118750000D01*
X110900000Y-213500000D02*
G75*
G03*
X108000000Y-216400000I0J-2900000D01*
G01*
D11*
%TO.C,D31*%
X114850000Y-151335000D02*
X114850000Y-149685000D01*
X113150000Y-151335000D02*
X113150000Y-149685000D01*
X113150000Y-151335000D02*
G75*
G03*
X114850000Y-151335000I850000J0D01*
G01*
X114850000Y-149685000D02*
G75*
G03*
X113150000Y-149685000I-850000J0D01*
G01*
%TO.C,D30*%
X114840000Y-142335000D02*
X114840000Y-140685000D01*
X113140000Y-142335000D02*
X113140000Y-140685000D01*
X113140000Y-142335000D02*
G75*
G03*
X114840000Y-142335000I850000J0D01*
G01*
X114840000Y-140685000D02*
G75*
G03*
X113140000Y-140685000I-850000J0D01*
G01*
%TO.C,D32*%
X114850000Y-160325000D02*
X114850000Y-158675000D01*
X113150000Y-160325000D02*
X113150000Y-158675000D01*
X113150000Y-160325000D02*
G75*
G03*
X114850000Y-160325000I850000J0D01*
G01*
X114850000Y-158675000D02*
G75*
G03*
X113150000Y-158675000I-850000J0D01*
G01*
%TD*%
M02*
