%TF.GenerationSoftware,KiCad,Pcbnew,7.0.1*%
%TF.CreationDate,2023-03-18T23:25:57+01:00*%
%TF.ProjectId,grapto-v3w-right,67726170-746f-42d7-9633-772d72696768,v1.0.0*%
%TF.SameCoordinates,Original*%
%TF.FileFunction,Copper,L2,Bot*%
%TF.FilePolarity,Positive*%
%FSLAX46Y46*%
G04 Gerber Fmt 4.6, Leading zero omitted, Abs format (unit mm)*
G04 Created by KiCad (PCBNEW 7.0.1) date 2023-03-18 23:25:57*
%MOMM*%
%LPD*%
G01*
G04 APERTURE LIST*
G04 Aperture macros list*
%AMRoundRect*
0 Rectangle with rounded corners*
0 $1 Rounding radius*
0 $2 $3 $4 $5 $6 $7 $8 $9 X,Y pos of 4 corners*
0 Add a 4 corners polygon primitive as box body*
4,1,4,$2,$3,$4,$5,$6,$7,$8,$9,$2,$3,0*
0 Add four circle primitives for the rounded corners*
1,1,$1+$1,$2,$3*
1,1,$1+$1,$4,$5*
1,1,$1+$1,$6,$7*
1,1,$1+$1,$8,$9*
0 Add four rect primitives between the rounded corners*
20,1,$1+$1,$2,$3,$4,$5,0*
20,1,$1+$1,$4,$5,$6,$7,0*
20,1,$1+$1,$6,$7,$8,$9,0*
20,1,$1+$1,$8,$9,$2,$3,0*%
%AMRotRect*
0 Rectangle, with rotation*
0 The origin of the aperture is its center*
0 $1 length*
0 $2 width*
0 $3 Rotation angle, in degrees counterclockwise*
0 Add horizontal line*
21,1,$1,$2,0,0,$3*%
G04 Aperture macros list end*
%TA.AperFunction,SMDPad,CuDef*%
%ADD10R,0.900000X1.200000*%
%TD*%
%TA.AperFunction,SMDPad,CuDef*%
%ADD11RotRect,0.900000X1.200000X32.220000*%
%TD*%
%TA.AperFunction,SMDPad,CuDef*%
%ADD12R,2.600000X2.600000*%
%TD*%
%TA.AperFunction,SMDPad,CuDef*%
%ADD13RotRect,2.600000X2.600000X52.940000*%
%TD*%
%TA.AperFunction,SMDPad,CuDef*%
%ADD14RotRect,2.600000X2.600000X11.500000*%
%TD*%
%TA.AperFunction,SMDPad,CuDef*%
%ADD15RotRect,0.900000X1.200000X52.940000*%
%TD*%
%TA.AperFunction,SMDPad,CuDef*%
%ADD16RotRect,2.600000X2.600000X32.220000*%
%TD*%
%TA.AperFunction,SMDPad,CuDef*%
%ADD17RotRect,0.900000X1.200000X11.500000*%
%TD*%
%TA.AperFunction,ComponentPad*%
%ADD18C,2.000000*%
%TD*%
%TA.AperFunction,SMDPad,CuDef*%
%ADD19RoundRect,0.237500X-0.237500X0.287500X-0.237500X-0.287500X0.237500X-0.287500X0.237500X0.287500X0*%
%TD*%
%TA.AperFunction,SMDPad,CuDef*%
%ADD20RoundRect,0.250000X-0.250000X0.750000X-0.250000X-0.750000X0.250000X-0.750000X0.250000X0.750000X0*%
%TD*%
%TA.AperFunction,SMDPad,CuDef*%
%ADD21RoundRect,0.250000X0.750000X0.250000X-0.750000X0.250000X-0.750000X-0.250000X0.750000X-0.250000X0*%
%TD*%
%TA.AperFunction,SMDPad,CuDef*%
%ADD22RoundRect,0.250000X0.250000X-0.750000X0.250000X0.750000X-0.250000X0.750000X-0.250000X-0.750000X0*%
%TD*%
%TA.AperFunction,SMDPad,CuDef*%
%ADD23RoundRect,0.237500X0.237500X-0.300000X0.237500X0.300000X-0.237500X0.300000X-0.237500X-0.300000X0*%
%TD*%
%TA.AperFunction,SMDPad,CuDef*%
%ADD24RoundRect,0.237500X0.237500X-0.250000X0.237500X0.250000X-0.237500X0.250000X-0.237500X-0.250000X0*%
%TD*%
%TA.AperFunction,SMDPad,CuDef*%
%ADD25RoundRect,0.237500X0.300000X0.237500X-0.300000X0.237500X-0.300000X-0.237500X0.300000X-0.237500X0*%
%TD*%
%TA.AperFunction,SMDPad,CuDef*%
%ADD26R,0.700000X0.700000*%
%TD*%
%TA.AperFunction,SMDPad,CuDef*%
%ADD27RoundRect,0.237500X-0.237500X0.250000X-0.237500X-0.250000X0.237500X-0.250000X0.237500X0.250000X0*%
%TD*%
%TA.AperFunction,SMDPad,CuDef*%
%ADD28RoundRect,0.150000X-0.150000X0.512500X-0.150000X-0.512500X0.150000X-0.512500X0.150000X0.512500X0*%
%TD*%
%TA.AperFunction,ComponentPad*%
%ADD29R,1.700000X1.700000*%
%TD*%
%TA.AperFunction,ComponentPad*%
%ADD30O,1.700000X1.700000*%
%TD*%
%TA.AperFunction,SMDPad,CuDef*%
%ADD31RotRect,1.400000X0.800000X66.800000*%
%TD*%
%TA.AperFunction,SMDPad,CuDef*%
%ADD32RotRect,0.800000X2.000000X66.800000*%
%TD*%
%TA.AperFunction,SMDPad,CuDef*%
%ADD33RoundRect,0.062500X-0.062500X0.337500X-0.062500X-0.337500X0.062500X-0.337500X0.062500X0.337500X0*%
%TD*%
%TA.AperFunction,SMDPad,CuDef*%
%ADD34RoundRect,0.062500X0.375000X0.062500X-0.375000X0.062500X-0.375000X-0.062500X0.375000X-0.062500X0*%
%TD*%
%TA.AperFunction,SMDPad,CuDef*%
%ADD35RoundRect,0.062500X0.062500X0.375000X-0.062500X0.375000X-0.062500X-0.375000X0.062500X-0.375000X0*%
%TD*%
%TA.AperFunction,SMDPad,CuDef*%
%ADD36R,1.600000X1.600000*%
%TD*%
%TA.AperFunction,SMDPad,CuDef*%
%ADD37RoundRect,0.250000X-0.250000X-1.500000X0.250000X-1.500000X0.250000X1.500000X-0.250000X1.500000X0*%
%TD*%
%TA.AperFunction,SMDPad,CuDef*%
%ADD38RoundRect,0.250001X-0.499999X-1.449999X0.499999X-1.449999X0.499999X1.449999X-0.499999X1.449999X0*%
%TD*%
%TA.AperFunction,WasherPad*%
%ADD39C,0.650000*%
%TD*%
%TA.AperFunction,SMDPad,CuDef*%
%ADD40R,0.600000X1.150000*%
%TD*%
%TA.AperFunction,SMDPad,CuDef*%
%ADD41R,0.300000X1.150000*%
%TD*%
%TA.AperFunction,ComponentPad*%
%ADD42O,1.000000X1.600000*%
%TD*%
%TA.AperFunction,ComponentPad*%
%ADD43O,1.000000X1.900000*%
%TD*%
%TA.AperFunction,SMDPad,CuDef*%
%ADD44RoundRect,0.237500X0.250000X0.237500X-0.250000X0.237500X-0.250000X-0.237500X0.250000X-0.237500X0*%
%TD*%
%TA.AperFunction,SMDPad,CuDef*%
%ADD45RoundRect,0.237500X-0.237500X0.300000X-0.237500X-0.300000X0.237500X-0.300000X0.237500X0.300000X0*%
%TD*%
%TA.AperFunction,SMDPad,CuDef*%
%ADD46RoundRect,0.237500X-0.250000X-0.237500X0.250000X-0.237500X0.250000X0.237500X-0.250000X0.237500X0*%
%TD*%
%TA.AperFunction,SMDPad,CuDef*%
%ADD47RoundRect,0.237500X-0.300000X-0.237500X0.300000X-0.237500X0.300000X0.237500X-0.300000X0.237500X0*%
%TD*%
%TA.AperFunction,SMDPad,CuDef*%
%ADD48RoundRect,0.237500X0.237500X-0.287500X0.237500X0.287500X-0.237500X0.287500X-0.237500X-0.287500X0*%
%TD*%
%TA.AperFunction,SMDPad,CuDef*%
%ADD49R,2.500000X1.900000*%
%TD*%
%TA.AperFunction,ViaPad*%
%ADD50C,0.500000*%
%TD*%
%TA.AperFunction,ViaPad*%
%ADD51C,0.800000*%
%TD*%
%TA.AperFunction,Conductor*%
%ADD52C,0.250000*%
%TD*%
%TA.AperFunction,Conductor*%
%ADD53C,0.500000*%
%TD*%
%TA.AperFunction,Conductor*%
%ADD54C,0.300000*%
%TD*%
%TA.AperFunction,Conductor*%
%ADD55C,0.200000*%
%TD*%
%TA.AperFunction,Conductor*%
%ADD56C,0.400000*%
%TD*%
G04 APERTURE END LIST*
D10*
%TO.P,D43,1*%
%TO.N,col2row3*%
X164350000Y-162000000D03*
%TO.P,D43,2*%
%TO.N,col2*%
X167650000Y-162000000D03*
%TD*%
%TO.P,D68,1*%
%TO.N,col3row2*%
X182850000Y-149500000D03*
%TO.P,D68,2*%
%TO.N,col3*%
X186150000Y-149500000D03*
%TD*%
%TO.P,D51,1*%
%TO.N,col1row0*%
X145850000Y-114500000D03*
%TO.P,D51,2*%
%TO.N,col1*%
X149150000Y-114500000D03*
%TD*%
%TO.P,D73,1*%
%TO.N,col2row2*%
X164350000Y-144500000D03*
%TO.P,D73,2*%
%TO.N,col2*%
X167650000Y-144500000D03*
%TD*%
%TO.P,D78,1*%
%TO.N,col1row2*%
X145850000Y-149500000D03*
%TO.P,D78,2*%
%TO.N,col1*%
X149150000Y-149500000D03*
%TD*%
%TO.P,D49,1*%
%TO.N,col1row2*%
X145850000Y-149500000D03*
%TO.P,D49,2*%
%TO.N,col1*%
X149150000Y-149500000D03*
%TD*%
D11*
%TO.P,D57,1*%
%TO.N,col1row4*%
X108303354Y-200183526D03*
%TO.P,D57,2*%
%TO.N,col1*%
X111095178Y-198424060D03*
%TD*%
D10*
%TO.P,D66,1*%
%TO.N,col5row4*%
X182850000Y-184500000D03*
%TO.P,D66,2*%
%TO.N,col5*%
X186150000Y-184500000D03*
%TD*%
%TO.P,D62,1*%
%TO.N,col4row3*%
X201350000Y-184500000D03*
%TO.P,D62,2*%
%TO.N,col4*%
X204650000Y-184500000D03*
%TD*%
%TO.P,D44,1*%
%TO.N,col2row2*%
X164350000Y-144500000D03*
%TO.P,D44,2*%
%TO.N,col2*%
X167650000Y-144500000D03*
%TD*%
%TO.P,D37,1*%
%TO.N,col5row4*%
X182850000Y-184500000D03*
%TO.P,D37,2*%
%TO.N,col5*%
X186150000Y-184500000D03*
%TD*%
D12*
%TO.P,S64,1*%
%TO.N,col4row1*%
X199725000Y-139050000D03*
%TO.P,S64,2*%
%TO.N,row1*%
X211275000Y-141250000D03*
%TD*%
D10*
%TO.P,D54,1*%
%TO.N,col0row1*%
X127350000Y-136000000D03*
%TO.P,D54,2*%
%TO.N,col0*%
X130650000Y-136000000D03*
%TD*%
D12*
%TO.P,S32,1*%
%TO.N,col5row1*%
X218225000Y-139050000D03*
%TO.P,S32,2*%
%TO.N,row1*%
X229775000Y-141250000D03*
%TD*%
D10*
%TO.P,D69,1*%
%TO.N,col3row1*%
X182850000Y-132000000D03*
%TO.P,D69,2*%
%TO.N,col3*%
X186150000Y-132000000D03*
%TD*%
D12*
%TO.P,S45,1*%
%TO.N,col2row1*%
X162725000Y-116550000D03*
%TO.P,S45,2*%
%TO.N,row1*%
X174275000Y-118750000D03*
%TD*%
%TO.P,S76,1*%
%TO.N,col3row4*%
X144225000Y-174050000D03*
%TO.P,S76,2*%
%TO.N,row4*%
X155775000Y-176250000D03*
%TD*%
D10*
%TO.P,D71,1*%
%TO.N,col4row4*%
X164350000Y-179500000D03*
%TO.P,D71,2*%
%TO.N,col4*%
X167650000Y-179500000D03*
%TD*%
D12*
%TO.P,S51,1*%
%TO.N,col1row0*%
X144225000Y-104050000D03*
%TO.P,S51,2*%
%TO.N,row0*%
X155775000Y-106250000D03*
%TD*%
D10*
%TO.P,D33,1*%
%TO.N,col4row3*%
X201350000Y-184500000D03*
%TO.P,D33,2*%
%TO.N,col4*%
X204650000Y-184500000D03*
%TD*%
D12*
%TO.P,S52,1*%
%TO.N,col0row3*%
X125725000Y-160550000D03*
%TO.P,S52,2*%
%TO.N,row3*%
X137275000Y-162750000D03*
%TD*%
D10*
%TO.P,D82,1*%
%TO.N,col0row2*%
X127350000Y-153500000D03*
%TO.P,D82,2*%
%TO.N,col0*%
X130650000Y-153500000D03*
%TD*%
D11*
%TO.P,D86,1*%
%TO.N,col1row4*%
X108303354Y-200183526D03*
%TO.P,D86,2*%
%TO.N,col1*%
X111095178Y-198424060D03*
%TD*%
D12*
%TO.P,S79,1*%
%TO.N,col1row1*%
X144225000Y-121550000D03*
%TO.P,S79,2*%
%TO.N,row1*%
X155775000Y-123750000D03*
%TD*%
%TO.P,S70,1*%
%TO.N,col3row0*%
X181225000Y-104050000D03*
%TO.P,S70,2*%
%TO.N,row0*%
X192775000Y-106250000D03*
%TD*%
D13*
%TO.P,S87,1*%
%TO.N,col0row4*%
X84211489Y-209563859D03*
%TO.P,S87,2*%
%TO.N,row4*%
X92927719Y-201672736D03*
%TD*%
D12*
%TO.P,S61,1*%
%TO.N,col5row1*%
X218225000Y-139050000D03*
%TO.P,S61,2*%
%TO.N,row1*%
X229775000Y-141250000D03*
%TD*%
D10*
%TO.P,D83,1*%
%TO.N,col0row1*%
X127350000Y-136000000D03*
%TO.P,D83,2*%
%TO.N,col0*%
X130650000Y-136000000D03*
%TD*%
%TO.P,D63,1*%
%TO.N,col4row2*%
X201350000Y-167000000D03*
%TO.P,D63,2*%
%TO.N,col4*%
X204650000Y-167000000D03*
%TD*%
D12*
%TO.P,S72,1*%
%TO.N,col2row3*%
X162725000Y-151550000D03*
%TO.P,S72,2*%
%TO.N,row3*%
X174275000Y-153750000D03*
%TD*%
%TO.P,S47,1*%
%TO.N,col3row4*%
X144225000Y-174050000D03*
%TO.P,S47,2*%
%TO.N,row4*%
X155775000Y-176250000D03*
%TD*%
%TO.P,S84,1*%
%TO.N,col0row0*%
X125725000Y-108050000D03*
%TO.P,S84,2*%
%TO.N,row0*%
X137275000Y-110250000D03*
%TD*%
%TO.P,S33,1*%
%TO.N,col4row3*%
X199725000Y-174050000D03*
%TO.P,S33,2*%
%TO.N,row3*%
X211275000Y-176250000D03*
%TD*%
%TO.P,S40,1*%
%TO.N,col3row1*%
X181225000Y-121550000D03*
%TO.P,S40,2*%
%TO.N,row1*%
X192775000Y-123750000D03*
%TD*%
D14*
%TO.P,S85,1*%
%TO.N,col2row4*%
X123533569Y-182043031D03*
%TO.P,S85,2*%
%TO.N,row4*%
X135290309Y-181896166D03*
%TD*%
D12*
%TO.P,S38,1*%
%TO.N,col3row3*%
X181225000Y-156550000D03*
%TO.P,S38,2*%
%TO.N,row3*%
X192775000Y-158750000D03*
%TD*%
%TO.P,S82,1*%
%TO.N,col0row2*%
X125725000Y-143050000D03*
%TO.P,S82,2*%
%TO.N,row2*%
X137275000Y-145250000D03*
%TD*%
%TO.P,S36,1*%
%TO.N,col4row0*%
X199725000Y-121550000D03*
%TO.P,S36,2*%
%TO.N,row0*%
X211275000Y-123750000D03*
%TD*%
D15*
%TO.P,D58,1*%
%TO.N,col0row4*%
X93529948Y-214564804D03*
%TO.P,D58,2*%
%TO.N,col0*%
X95518696Y-211931388D03*
%TD*%
D10*
%TO.P,D55,1*%
%TO.N,col0row0*%
X127350000Y-118500000D03*
%TO.P,D55,2*%
%TO.N,col0*%
X130650000Y-118500000D03*
%TD*%
D12*
%TO.P,S67,1*%
%TO.N,col3row3*%
X181225000Y-156550000D03*
%TO.P,S67,2*%
%TO.N,row3*%
X192775000Y-158750000D03*
%TD*%
%TO.P,S78,1*%
%TO.N,col1row2*%
X144225000Y-139050000D03*
%TO.P,S78,2*%
%TO.N,row2*%
X155775000Y-141250000D03*
%TD*%
%TO.P,S50,1*%
%TO.N,col1row1*%
X144225000Y-121550000D03*
%TO.P,S50,2*%
%TO.N,row1*%
X155775000Y-123750000D03*
%TD*%
%TO.P,S37,1*%
%TO.N,col5row4*%
X181225000Y-174050000D03*
%TO.P,S37,2*%
%TO.N,row4*%
X192775000Y-176250000D03*
%TD*%
%TO.P,S49,1*%
%TO.N,col1row2*%
X144225000Y-139050000D03*
%TO.P,S49,2*%
%TO.N,row2*%
X155775000Y-141250000D03*
%TD*%
%TO.P,S83,1*%
%TO.N,col0row1*%
X125725000Y-125550000D03*
%TO.P,S83,2*%
%TO.N,row1*%
X137275000Y-127750000D03*
%TD*%
%TO.P,S39,1*%
%TO.N,col3row2*%
X181225000Y-139050000D03*
%TO.P,S39,2*%
%TO.N,row2*%
X192775000Y-141250000D03*
%TD*%
D10*
%TO.P,D64,1*%
%TO.N,col4row1*%
X201350000Y-149500000D03*
%TO.P,D64,2*%
%TO.N,col4*%
X204650000Y-149500000D03*
%TD*%
%TO.P,D41,1*%
%TO.N,col3row0*%
X182850000Y-114500000D03*
%TO.P,D41,2*%
%TO.N,col3*%
X186150000Y-114500000D03*
%TD*%
D12*
%TO.P,S60,1*%
%TO.N,col5row2*%
X218225000Y-156550000D03*
%TO.P,S60,2*%
%TO.N,row2*%
X229775000Y-158750000D03*
%TD*%
D10*
%TO.P,D52,1*%
%TO.N,col0row3*%
X127350000Y-171000000D03*
%TO.P,D52,2*%
%TO.N,col0*%
X130650000Y-171000000D03*
%TD*%
%TO.P,D39,1*%
%TO.N,col3row2*%
X182850000Y-149500000D03*
%TO.P,D39,2*%
%TO.N,col3*%
X186150000Y-149500000D03*
%TD*%
D12*
%TO.P,S42,1*%
%TO.N,col4row4*%
X162725000Y-169050000D03*
%TO.P,S42,2*%
%TO.N,row4*%
X174275000Y-171250000D03*
%TD*%
D10*
%TO.P,D45,1*%
%TO.N,col2row1*%
X164350000Y-127000000D03*
%TO.P,D45,2*%
%TO.N,col2*%
X167650000Y-127000000D03*
%TD*%
D12*
%TO.P,S62,1*%
%TO.N,col4row3*%
X199725000Y-174050000D03*
%TO.P,S62,2*%
%TO.N,row3*%
X211275000Y-176250000D03*
%TD*%
%TO.P,S66,1*%
%TO.N,col5row4*%
X181225000Y-174050000D03*
%TO.P,S66,2*%
%TO.N,row4*%
X192775000Y-176250000D03*
%TD*%
D10*
%TO.P,D50,1*%
%TO.N,col1row1*%
X145850000Y-132000000D03*
%TO.P,D50,2*%
%TO.N,col1*%
X149150000Y-132000000D03*
%TD*%
%TO.P,D60,1*%
%TO.N,col5row2*%
X219850000Y-167000000D03*
%TO.P,D60,2*%
%TO.N,col5*%
X223150000Y-167000000D03*
%TD*%
%TO.P,D59,1*%
%TO.N,col5row3*%
X219850000Y-184500000D03*
%TO.P,D59,2*%
%TO.N,col5*%
X223150000Y-184500000D03*
%TD*%
D12*
%TO.P,S73,1*%
%TO.N,col2row2*%
X162725000Y-134050000D03*
%TO.P,S73,2*%
%TO.N,row2*%
X174275000Y-136250000D03*
%TD*%
D16*
%TO.P,S57,1*%
%TO.N,col1row4*%
X101356950Y-192209156D03*
%TO.P,S57,2*%
%TO.N,row4*%
X112301309Y-187912239D03*
%TD*%
D12*
%TO.P,S55,1*%
%TO.N,col0row0*%
X125725000Y-108050000D03*
%TO.P,S55,2*%
%TO.N,row0*%
X137275000Y-110250000D03*
%TD*%
D13*
%TO.P,S58,1*%
%TO.N,col0row4*%
X84211489Y-209563859D03*
%TO.P,S58,2*%
%TO.N,row4*%
X92927719Y-201672736D03*
%TD*%
D12*
%TO.P,S44,1*%
%TO.N,col2row2*%
X162725000Y-134050000D03*
%TO.P,S44,2*%
%TO.N,row2*%
X174275000Y-136250000D03*
%TD*%
D10*
%TO.P,D53,1*%
%TO.N,col0row2*%
X127350000Y-153500000D03*
%TO.P,D53,2*%
%TO.N,col0*%
X130650000Y-153500000D03*
%TD*%
%TO.P,D42,1*%
%TO.N,col4row4*%
X164350000Y-179500000D03*
%TO.P,D42,2*%
%TO.N,col4*%
X167650000Y-179500000D03*
%TD*%
D14*
%TO.P,S56,1*%
%TO.N,col2row4*%
X123533569Y-182043031D03*
%TO.P,S56,2*%
%TO.N,row4*%
X135290309Y-181896166D03*
%TD*%
D10*
%TO.P,D65,1*%
%TO.N,col4row0*%
X201350000Y-132000000D03*
%TO.P,D65,2*%
%TO.N,col4*%
X204650000Y-132000000D03*
%TD*%
%TO.P,D76,1*%
%TO.N,col3row4*%
X145850000Y-184500000D03*
%TO.P,D76,2*%
%TO.N,col3*%
X149150000Y-184500000D03*
%TD*%
D12*
%TO.P,S31,1*%
%TO.N,col5row2*%
X218225000Y-156550000D03*
%TO.P,S31,2*%
%TO.N,row2*%
X229775000Y-158750000D03*
%TD*%
%TO.P,S59,1*%
%TO.N,col5row3*%
X218225000Y-174050000D03*
%TO.P,S59,2*%
%TO.N,row3*%
X229775000Y-176250000D03*
%TD*%
D10*
%TO.P,D84,1*%
%TO.N,col0row0*%
X127350000Y-118500000D03*
%TO.P,D84,2*%
%TO.N,col0*%
X130650000Y-118500000D03*
%TD*%
%TO.P,D79,1*%
%TO.N,col1row1*%
X145850000Y-132000000D03*
%TO.P,D79,2*%
%TO.N,col1*%
X149150000Y-132000000D03*
%TD*%
D12*
%TO.P,S81,1*%
%TO.N,col0row3*%
X125725000Y-160550000D03*
%TO.P,S81,2*%
%TO.N,row3*%
X137275000Y-162750000D03*
%TD*%
D16*
%TO.P,S86,1*%
%TO.N,col1row4*%
X101356950Y-192209156D03*
%TO.P,S86,2*%
%TO.N,row4*%
X112301309Y-187912239D03*
%TD*%
D10*
%TO.P,D48,1*%
%TO.N,col1row3*%
X145850000Y-167000000D03*
%TO.P,D48,2*%
%TO.N,col1*%
X149150000Y-167000000D03*
%TD*%
%TO.P,D35,1*%
%TO.N,col4row1*%
X201350000Y-149500000D03*
%TO.P,D35,2*%
%TO.N,col4*%
X204650000Y-149500000D03*
%TD*%
%TO.P,D72,1*%
%TO.N,col2row3*%
X164350000Y-162000000D03*
%TO.P,D72,2*%
%TO.N,col2*%
X167650000Y-162000000D03*
%TD*%
%TO.P,D67,1*%
%TO.N,col3row3*%
X182850000Y-167000000D03*
%TO.P,D67,2*%
%TO.N,col3*%
X186150000Y-167000000D03*
%TD*%
%TO.P,D34,1*%
%TO.N,col4row2*%
X201350000Y-167000000D03*
%TO.P,D34,2*%
%TO.N,col4*%
X204650000Y-167000000D03*
%TD*%
D12*
%TO.P,S46,1*%
%TO.N,col2row0*%
X162725000Y-99050000D03*
%TO.P,S46,2*%
%TO.N,row0*%
X174275000Y-101250000D03*
%TD*%
%TO.P,S54,1*%
%TO.N,col0row1*%
X125725000Y-125550000D03*
%TO.P,S54,2*%
%TO.N,row1*%
X137275000Y-127750000D03*
%TD*%
%TO.P,S68,1*%
%TO.N,col3row2*%
X181225000Y-139050000D03*
%TO.P,S68,2*%
%TO.N,row2*%
X192775000Y-141250000D03*
%TD*%
D10*
%TO.P,D70,1*%
%TO.N,col3row0*%
X182850000Y-114500000D03*
%TO.P,D70,2*%
%TO.N,col3*%
X186150000Y-114500000D03*
%TD*%
D12*
%TO.P,S80,1*%
%TO.N,col1row0*%
X144225000Y-104050000D03*
%TO.P,S80,2*%
%TO.N,row0*%
X155775000Y-106250000D03*
%TD*%
D10*
%TO.P,D40,1*%
%TO.N,col3row1*%
X182850000Y-132000000D03*
%TO.P,D40,2*%
%TO.N,col3*%
X186150000Y-132000000D03*
%TD*%
D12*
%TO.P,S77,1*%
%TO.N,col1row3*%
X144225000Y-156550000D03*
%TO.P,S77,2*%
%TO.N,row3*%
X155775000Y-158750000D03*
%TD*%
%TO.P,S30,1*%
%TO.N,col5row3*%
X218225000Y-174050000D03*
%TO.P,S30,2*%
%TO.N,row3*%
X229775000Y-176250000D03*
%TD*%
D10*
%TO.P,D80,1*%
%TO.N,col1row0*%
X145850000Y-114500000D03*
%TO.P,D80,2*%
%TO.N,col1*%
X149150000Y-114500000D03*
%TD*%
%TO.P,D36,1*%
%TO.N,col4row0*%
X201350000Y-132000000D03*
%TO.P,D36,2*%
%TO.N,col4*%
X204650000Y-132000000D03*
%TD*%
%TO.P,D75,1*%
%TO.N,col2row0*%
X164350000Y-109500000D03*
%TO.P,D75,2*%
%TO.N,col2*%
X167650000Y-109500000D03*
%TD*%
D12*
%TO.P,S65,1*%
%TO.N,col4row0*%
X199725000Y-121550000D03*
%TO.P,S65,2*%
%TO.N,row0*%
X211275000Y-123750000D03*
%TD*%
D10*
%TO.P,D74,1*%
%TO.N,col2row1*%
X164350000Y-127000000D03*
%TO.P,D74,2*%
%TO.N,col2*%
X167650000Y-127000000D03*
%TD*%
D12*
%TO.P,S71,1*%
%TO.N,col4row4*%
X162725000Y-169050000D03*
%TO.P,S71,2*%
%TO.N,row4*%
X174275000Y-171250000D03*
%TD*%
D17*
%TO.P,D85,1*%
%TO.N,col2row4*%
X127209341Y-191959272D03*
%TO.P,D85,2*%
%TO.N,col2*%
X130443093Y-191301358D03*
%TD*%
D15*
%TO.P,D87,1*%
%TO.N,col0row4*%
X93529948Y-214564804D03*
%TO.P,D87,2*%
%TO.N,col0*%
X95518696Y-211931388D03*
%TD*%
D12*
%TO.P,S74,1*%
%TO.N,col2row1*%
X162725000Y-116550000D03*
%TO.P,S74,2*%
%TO.N,row1*%
X174275000Y-118750000D03*
%TD*%
%TO.P,S75,1*%
%TO.N,col2row0*%
X162725000Y-99050000D03*
%TO.P,S75,2*%
%TO.N,row0*%
X174275000Y-101250000D03*
%TD*%
D17*
%TO.P,D56,1*%
%TO.N,col2row4*%
X127209341Y-191959272D03*
%TO.P,D56,2*%
%TO.N,col2*%
X130443093Y-191301358D03*
%TD*%
D10*
%TO.P,D61,1*%
%TO.N,col5row1*%
X219850000Y-149500000D03*
%TO.P,D61,2*%
%TO.N,col5*%
X223150000Y-149500000D03*
%TD*%
D12*
%TO.P,S69,1*%
%TO.N,col3row1*%
X181225000Y-121550000D03*
%TO.P,S69,2*%
%TO.N,row1*%
X192775000Y-123750000D03*
%TD*%
D10*
%TO.P,D47,1*%
%TO.N,col3row4*%
X145850000Y-184500000D03*
%TO.P,D47,2*%
%TO.N,col3*%
X149150000Y-184500000D03*
%TD*%
D12*
%TO.P,S34,1*%
%TO.N,col4row2*%
X199725000Y-156550000D03*
%TO.P,S34,2*%
%TO.N,row2*%
X211275000Y-158750000D03*
%TD*%
D10*
%TO.P,D77,1*%
%TO.N,col1row3*%
X145850000Y-167000000D03*
%TO.P,D77,2*%
%TO.N,col1*%
X149150000Y-167000000D03*
%TD*%
%TO.P,D46,1*%
%TO.N,col2row0*%
X164350000Y-109500000D03*
%TO.P,D46,2*%
%TO.N,col2*%
X167650000Y-109500000D03*
%TD*%
%TO.P,D38,1*%
%TO.N,col3row3*%
X182850000Y-167000000D03*
%TO.P,D38,2*%
%TO.N,col3*%
X186150000Y-167000000D03*
%TD*%
D12*
%TO.P,S35,1*%
%TO.N,col4row1*%
X199725000Y-139050000D03*
%TO.P,S35,2*%
%TO.N,row1*%
X211275000Y-141250000D03*
%TD*%
%TO.P,S48,1*%
%TO.N,col1row3*%
X144225000Y-156550000D03*
%TO.P,S48,2*%
%TO.N,row3*%
X155775000Y-158750000D03*
%TD*%
%TO.P,S53,1*%
%TO.N,col0row2*%
X125725000Y-143050000D03*
%TO.P,S53,2*%
%TO.N,row2*%
X137275000Y-145250000D03*
%TD*%
D18*
%TO.P,TP13,1,1*%
%TO.N,vbus_fused*%
X125850000Y-111880000D03*
%TD*%
D10*
%TO.P,D81,1*%
%TO.N,col0row3*%
X127350000Y-171000000D03*
%TO.P,D81,2*%
%TO.N,col0*%
X130650000Y-171000000D03*
%TD*%
D12*
%TO.P,S43,1*%
%TO.N,col2row3*%
X162725000Y-151550000D03*
%TO.P,S43,2*%
%TO.N,row3*%
X174275000Y-153750000D03*
%TD*%
%TO.P,S41,1*%
%TO.N,col3row0*%
X181225000Y-104050000D03*
%TO.P,S41,2*%
%TO.N,row0*%
X192775000Y-106250000D03*
%TD*%
%TO.P,S63,1*%
%TO.N,col4row2*%
X199725000Y-156550000D03*
%TO.P,S63,2*%
%TO.N,row2*%
X211275000Y-158750000D03*
%TD*%
D18*
%TO.P,TP16,1,1*%
%TO.N,vsys*%
X107200000Y-145300000D03*
%TD*%
D19*
%TO.P,F4,1*%
%TO.N,vbus_no_fuse*%
X122420000Y-98285000D03*
%TO.P,F4,2*%
%TO.N,vbus_fused*%
X122420000Y-100035000D03*
%TD*%
D18*
%TO.P,TP22,1,1*%
%TO.N,/controller/low_batt*%
X118400000Y-143600000D03*
%TD*%
D20*
%TO.P,U1,1,GND*%
%TO.N,sysgnd*%
X100220000Y-163350000D03*
%TO.P,U1,2,P1.10*%
%TO.N,/controller/fast_chg*%
X101620000Y-163350000D03*
%TO.P,U1,3,P1.13*%
%TO.N,/controller/fast_chg_led*%
X103020000Y-163350000D03*
%TO.P,U1,4,P1.15*%
%TO.N,/controller/bat_lvl1*%
X104420000Y-163350000D03*
%TO.P,U1,5,P0.02/AIN0*%
%TO.N,/controller/bat_lvl2*%
X105820000Y-163350000D03*
%TO.P,U1,6,P0.04/AIN1*%
%TO.N,/controller/status1*%
X107220000Y-163350000D03*
%TO.P,U1,7,P0.28/AIN4*%
%TO.N,/controller/status2*%
X108620000Y-163350000D03*
%TO.P,U1,8,P0.29/AIN5*%
%TO.N,sysgnd*%
X110020000Y-163350000D03*
%TO.P,U1,9,P0.31/AIN7*%
%TO.N,/controller/low_batt*%
X111420000Y-163350000D03*
%TO.P,U1,10,P0.30/AIN6*%
%TO.N,col5*%
X112820000Y-163350000D03*
%TO.P,U1,11,AIN3*%
%TO.N,col4*%
X114220000Y-163350000D03*
%TO.P,U1,12,VDD*%
%TO.N,/controller/vdd*%
X115620000Y-163350000D03*
D21*
%TO.P,U1,13,GND*%
%TO.N,sysgnd*%
X117820000Y-166400000D03*
%TO.P,U1,14,P0.04/AIN2*%
%TO.N,col3*%
X117820000Y-167800000D03*
%TO.P,U1,15,P0.26*%
%TO.N,col2*%
X117820000Y-169200000D03*
%TO.P,U1,16,P0.27*%
%TO.N,col1*%
X117820000Y-170600000D03*
%TO.P,U1,17,P0.06*%
%TO.N,col0*%
X117820000Y-172000000D03*
%TO.P,U1,18,P0.10/NFC2*%
%TO.N,row4*%
X117820000Y-173400000D03*
%TO.P,U1,19,P0.09/NFC1*%
%TO.N,row3*%
X117820000Y-174800000D03*
%TO.P,U1,20,P0.08*%
%TO.N,row2*%
X117820000Y-176200000D03*
%TO.P,U1,21,P1.09*%
%TO.N,row1*%
X117820000Y-177600000D03*
%TO.P,U1,22,P0.12*%
%TO.N,row0*%
X117820000Y-179000000D03*
%TO.P,U1,23,VBUS*%
%TO.N,/controller/vusb*%
X117820000Y-180400000D03*
D22*
%TO.P,U1,24,VDD*%
%TO.N,/controller/vdd*%
X115620000Y-183450000D03*
%TO.P,U1,25,USB_D-*%
%TO.N,USB_N*%
X114220000Y-183450000D03*
%TO.P,U1,26,USB_D+*%
%TO.N,USB_P*%
X112820000Y-183450000D03*
%TO.P,U1,27,P0.13*%
%TO.N,sysgnd*%
X111420000Y-183450000D03*
%TO.P,U1,28,P0.15*%
X110020000Y-183450000D03*
%TO.P,U1,29,P0.17*%
X108620000Y-183450000D03*
%TO.P,U1,30,P0.24*%
X107220000Y-183450000D03*
%TO.P,U1,31,RST/SWO*%
%TO.N,/controller/reset*%
X105820000Y-183450000D03*
%TO.P,U1,32,VDD*%
%TO.N,/controller/vdd*%
X104420000Y-183450000D03*
%TO.P,U1,33,SWDIO*%
%TO.N,/controller/swdio*%
X103020000Y-183450000D03*
%TO.P,U1,34,SWDCLK*%
%TO.N,/controller/swdclk*%
X101620000Y-183450000D03*
%TO.P,U1,35,GND*%
%TO.N,sysgnd*%
X100220000Y-183450000D03*
%TD*%
D23*
%TO.P,C1,1*%
%TO.N,/controller/vusb*%
X118530000Y-115452500D03*
%TO.P,C1,2*%
%TO.N,sysgnd*%
X118530000Y-113727500D03*
%TD*%
D18*
%TO.P,TP17,1,1*%
%TO.N,Net-(C17-Pad1)*%
X97050000Y-158850000D03*
%TD*%
D24*
%TO.P,R5,1*%
%TO.N,Net-(C17-Pad1)*%
X103000000Y-152492500D03*
%TO.P,R5,2*%
%TO.N,Net-(U2-FB)*%
X103000000Y-150667500D03*
%TD*%
D25*
%TO.P,C16,1*%
%TO.N,vsys*%
X107252500Y-148540000D03*
%TO.P,C16,2*%
%TO.N,sysgnd*%
X105527500Y-148540000D03*
%TD*%
D18*
%TO.P,TP10,1,1*%
%TO.N,Net-(F3-Pad2)*%
X109830000Y-140110000D03*
%TD*%
D23*
%TO.P,C2,1*%
%TO.N,Net-(C17-Pad1)*%
X105280000Y-152472500D03*
%TO.P,C2,2*%
%TO.N,Net-(U2-FB)*%
X105280000Y-150747500D03*
%TD*%
D26*
%TO.P,D31,1,A*%
%TO.N,/controller/vdd*%
X115450000Y-150060000D03*
%TO.P,D31,2,RK*%
%TO.N,unconnected-(D31-RK-Pad2)*%
X112550000Y-150060000D03*
%TO.P,D31,3,GK*%
%TO.N,/controller/bat_lvl1*%
X112550000Y-151010000D03*
%TO.P,D31,4,BK*%
%TO.N,/controller/bat_lvl2*%
X115450000Y-151010000D03*
%TD*%
D25*
%TO.P,C3,1*%
%TO.N,/controller/vdd*%
X101062500Y-186400000D03*
%TO.P,C3,2*%
%TO.N,sysgnd*%
X99337500Y-186400000D03*
%TD*%
D27*
%TO.P,R9,1*%
%TO.N,Net-(U2-FB)*%
X100600000Y-150670000D03*
%TO.P,R9,2*%
%TO.N,sysgnd*%
X100600000Y-152495000D03*
%TD*%
D18*
%TO.P,TP18,1,1*%
%TO.N,/controller/vdd*%
X97100000Y-163400000D03*
%TD*%
D27*
%TO.P,R19,1*%
%TO.N,/controller/BatteryManagement/bat_fused*%
X119850000Y-145847500D03*
%TO.P,R19,2*%
%TO.N,/controller/low_batt*%
X119850000Y-147672500D03*
%TD*%
D18*
%TO.P,TP11,1,1*%
%TO.N,/controller/BatteryManagement/bat_fused*%
X121000000Y-126300000D03*
%TD*%
D28*
%TO.P,U3,1,I/O1*%
%TO.N,usb1_n*%
X137875000Y-104612500D03*
%TO.P,U3,2,GND*%
%TO.N,sysgnd*%
X138825000Y-104612500D03*
%TO.P,U3,3,I/O2*%
%TO.N,usb1_p*%
X139775000Y-104612500D03*
%TO.P,U3,4,I/O2*%
%TO.N,USB0_P*%
X139775000Y-106887500D03*
%TO.P,U3,5,VBUS*%
%TO.N,vbus_fused*%
X138825000Y-106887500D03*
%TO.P,U3,6,I/O1*%
%TO.N,USB0_N*%
X137875000Y-106887500D03*
%TD*%
D29*
%TO.P,J8,1,Pin_1*%
%TO.N,sysgnd*%
X110780000Y-206890000D03*
D30*
%TO.P,J8,2,Pin_2*%
%TO.N,/controller/reset*%
X113320000Y-206890000D03*
%TO.P,J8,3,Pin_3*%
%TO.N,/controller/status1*%
X115860000Y-206890000D03*
%TO.P,J8,4,Pin_4*%
%TO.N,/controller/swdclk*%
X118400000Y-206890000D03*
%TO.P,J8,5,Pin_5*%
%TO.N,/controller/swdio*%
X120940000Y-206890000D03*
%TO.P,J8,6,Pin_6*%
%TO.N,/controller/vdd*%
X123480000Y-206890000D03*
%TD*%
D31*
%TO.P,SW31,*%
%TO.N,*%
X110677748Y-121151507D03*
X112709038Y-122022119D03*
X113553524Y-114441819D03*
X115584814Y-115312431D03*
D32*
%TO.P,SW31,1,A*%
%TO.N,sysgnd*%
X114225648Y-121148968D03*
%TO.P,SW31,2,B*%
%TO.N,Net-(SW31-B)*%
X115407474Y-118391562D03*
%TO.P,SW31,3,C*%
%TO.N,unconnected-(SW31-C-Pad3)*%
X115998387Y-117012859D03*
%TD*%
D25*
%TO.P,C17,1*%
%TO.N,Net-(C17-Pad1)*%
X101252500Y-157020000D03*
%TO.P,C17,2*%
%TO.N,sysgnd*%
X99527500Y-157020000D03*
%TD*%
D33*
%TO.P,U2,1,EN*%
%TO.N,vsys*%
X107430000Y-150895000D03*
%TO.P,U2,2,FB*%
%TO.N,Net-(U2-FB)*%
X107930000Y-150895000D03*
%TO.P,U2,3,AGND*%
%TO.N,sysgnd*%
X108430000Y-150895000D03*
%TO.P,U2,4,NC*%
%TO.N,unconnected-(U2-NC-Pad4)*%
X108930000Y-150895000D03*
%TO.P,U2,5,PGND*%
%TO.N,sysgnd*%
X108930000Y-152345000D03*
%TO.P,U2,6,SW*%
%TO.N,Net-(U2-SW)*%
X108430000Y-152345000D03*
%TO.P,U2,7,VIN*%
%TO.N,vsys*%
X107930000Y-152345000D03*
%TO.P,U2,8,PG*%
%TO.N,unconnected-(U2-PG-Pad8)*%
X107430000Y-152345000D03*
%TD*%
D18*
%TO.P,J2,1,Pin_1*%
%TO.N,/controller/chassi*%
X137350000Y-98720000D03*
%TD*%
D34*
%TO.P,U4,1,TS*%
%TO.N,Net-(U4-TS)*%
X123450000Y-116900000D03*
%TO.P,U4,2,BAT*%
%TO.N,/controller/BatteryManagement/bat_fused*%
X123450000Y-117400000D03*
%TO.P,U4,3,BAT*%
X123450000Y-117900000D03*
%TO.P,U4,4,~{CE}*%
%TO.N,sysgnd*%
X123450000Y-118400000D03*
D35*
%TO.P,U4,5,EN2*%
%TO.N,/controller/fast_chg*%
X122762500Y-119087500D03*
%TO.P,U4,6,EN1*%
%TO.N,sysgnd*%
X122262500Y-119087500D03*
%TO.P,U4,7,~{PGOOD}*%
%TO.N,Net-(U4-~{PGOOD})*%
X121762500Y-119087500D03*
%TO.P,U4,8,VSS*%
%TO.N,sysgnd*%
X121262500Y-119087500D03*
D34*
%TO.P,U4,9,~{CHG}*%
%TO.N,/controller/chg_led*%
X120575000Y-118400000D03*
%TO.P,U4,10,OUT*%
%TO.N,vsys*%
X120575000Y-117900000D03*
%TO.P,U4,11,OUT*%
X120575000Y-117400000D03*
%TO.P,U4,12,ILIM*%
%TO.N,Net-(U4-ILIM)*%
X120575000Y-116900000D03*
D35*
%TO.P,U4,13,IN*%
%TO.N,/controller/vusb*%
X121262500Y-116212500D03*
%TO.P,U4,14,TMR*%
%TO.N,unconnected-(U4-TMR-Pad14)*%
X121762500Y-116212500D03*
%TO.P,U4,15,SYSOFF*%
%TO.N,Net-(SW31-B)*%
X122262500Y-116212500D03*
%TO.P,U4,16,ISET*%
%TO.N,Net-(U4-ISET)*%
X122762500Y-116212500D03*
D36*
%TO.P,U4,17,VSS*%
%TO.N,sysgnd*%
X122012500Y-117650000D03*
%TD*%
D25*
%TO.P,C7,1*%
%TO.N,/controller/vusb*%
X122245000Y-179580000D03*
%TO.P,C7,2*%
%TO.N,sysgnd*%
X120520000Y-179580000D03*
%TD*%
D24*
%TO.P,R30,1*%
%TO.N,/controller/low_batt*%
X116990000Y-147660000D03*
%TO.P,R30,2*%
%TO.N,sysgnd*%
X116990000Y-145835000D03*
%TD*%
D37*
%TO.P,J1,1,Pin_1*%
%TO.N,sysgnd*%
X116390000Y-136150000D03*
%TO.P,J1,2,Pin_2*%
%TO.N,/controller/BatteryManagement/bat+*%
X118390000Y-136150000D03*
D38*
%TO.P,J1,MP*%
%TO.N,N/C*%
X114040000Y-130400000D03*
X120740000Y-130400000D03*
%TD*%
D39*
%TO.P,J6,*%
%TO.N,*%
X131960000Y-100090000D03*
D40*
%TO.P,J6,A1,GND*%
%TO.N,sysgnd*%
X125870000Y-101165000D03*
%TO.P,J6,A4,VBUS*%
%TO.N,vbus_no_fuse*%
X126670000Y-101165000D03*
D41*
%TO.P,J6,A5,CC1*%
%TO.N,cc1*%
X127820000Y-101165000D03*
%TO.P,J6,A6,D+*%
%TO.N,usb1_p*%
X128820000Y-101165000D03*
%TO.P,J6,A7,D-*%
%TO.N,usb1_n*%
X129320000Y-101165000D03*
%TO.P,J6,A8,SBU1*%
%TO.N,unconnected-(J6-SBU1-PadA8)*%
X130320000Y-101165000D03*
D40*
%TO.P,J6,A9,VBUS*%
%TO.N,vbus_no_fuse*%
X131470000Y-101165000D03*
%TO.P,J6,A12,GND*%
%TO.N,sysgnd*%
X132270000Y-101165000D03*
%TO.P,J6,B1,GND*%
X132270000Y-101165000D03*
%TO.P,J6,B4,VBUS*%
%TO.N,vbus_no_fuse*%
X131470000Y-101165000D03*
D41*
%TO.P,J6,B5,CC2*%
%TO.N,cc2*%
X130820000Y-101165000D03*
%TO.P,J6,B6,D+*%
%TO.N,usb1_p*%
X129820000Y-101165000D03*
%TO.P,J6,B7,D-*%
%TO.N,usb1_n*%
X128320000Y-101165000D03*
%TO.P,J6,B8,SBU2*%
%TO.N,unconnected-(J6-SBU2-PadB8)*%
X127320000Y-101165000D03*
D40*
%TO.P,J6,B9,VBUS*%
%TO.N,vbus_no_fuse*%
X126670000Y-101165000D03*
%TO.P,J6,B12,GND*%
%TO.N,sysgnd*%
X125870000Y-101165000D03*
D42*
%TO.P,J6,S1,SHIELD*%
%TO.N,/controller/chassi*%
X124750000Y-96410000D03*
D43*
X124750000Y-100610000D03*
D42*
X133390000Y-96410000D03*
D43*
X133390000Y-100610000D03*
%TD*%
D24*
%TO.P,R8,1*%
%TO.N,Net-(U4-ISET)*%
X121500000Y-113912500D03*
%TO.P,R8,2*%
%TO.N,sysgnd*%
X121500000Y-112087500D03*
%TD*%
D26*
%TO.P,D30,1,A*%
%TO.N,/controller/vdd*%
X115440000Y-141060000D03*
%TO.P,D30,2,RK*%
%TO.N,Net-(D30-RK)*%
X112540000Y-141060000D03*
%TO.P,D30,3,GK*%
%TO.N,/controller/chg_led*%
X112540000Y-142010000D03*
%TO.P,D30,4,BK*%
%TO.N,unconnected-(D30-BK-Pad4)*%
X115440000Y-142010000D03*
%TD*%
D44*
%TO.P,R2,1*%
%TO.N,Net-(C17-Pad1)*%
X101300000Y-159500000D03*
%TO.P,R2,2*%
%TO.N,/controller/vdd*%
X99475000Y-159500000D03*
%TD*%
D18*
%TO.P,TP15,1,1*%
%TO.N,sysgnd*%
X142100000Y-98550000D03*
%TD*%
D45*
%TO.P,C5,1*%
%TO.N,/controller/low_batt*%
X119830000Y-149747500D03*
%TO.P,C5,2*%
%TO.N,sysgnd*%
X119830000Y-151472500D03*
%TD*%
D27*
%TO.P,R7,1*%
%TO.N,Net-(U4-ILIM)*%
X118000000Y-120037500D03*
%TO.P,R7,2*%
%TO.N,sysgnd*%
X118000000Y-121862500D03*
%TD*%
D46*
%TO.P,R20,1*%
%TO.N,cc1*%
X126737500Y-103700000D03*
%TO.P,R20,2*%
%TO.N,sysgnd*%
X128562500Y-103700000D03*
%TD*%
D44*
%TO.P,R1,1*%
%TO.N,/controller/fast_chg_led*%
X119512500Y-141000000D03*
%TO.P,R1,2*%
%TO.N,Net-(D30-RK)*%
X117687500Y-141000000D03*
%TD*%
D45*
%TO.P,C10,1*%
%TO.N,/controller/BatteryManagement/bat_fused*%
X121890000Y-121950000D03*
%TO.P,C10,2*%
%TO.N,sysgnd*%
X121890000Y-123675000D03*
%TD*%
D47*
%TO.P,C6,1*%
%TO.N,/controller/vdd*%
X117887500Y-161200000D03*
%TO.P,C6,2*%
%TO.N,sysgnd*%
X119612500Y-161200000D03*
%TD*%
D26*
%TO.P,D32,1,A*%
%TO.N,/controller/vdd*%
X115450000Y-159050000D03*
%TO.P,D32,2,RK*%
%TO.N,unconnected-(D32-RK-Pad2)*%
X112550000Y-159050000D03*
%TO.P,D32,3,GK*%
%TO.N,/controller/status1*%
X112550000Y-160000000D03*
%TO.P,D32,4,BK*%
%TO.N,/controller/status2*%
X115450000Y-160000000D03*
%TD*%
D46*
%TO.P,R23,1*%
%TO.N,cc2*%
X136587500Y-101750000D03*
%TO.P,R23,2*%
%TO.N,sysgnd*%
X138412500Y-101750000D03*
%TD*%
D27*
%TO.P,R25,1*%
%TO.N,USB0_P*%
X122850000Y-156287500D03*
%TO.P,R25,2*%
%TO.N,USB_P*%
X122850000Y-158112500D03*
%TD*%
D18*
%TO.P,TP14,1,1*%
%TO.N,/controller/vusb*%
X118290000Y-111040000D03*
%TD*%
%TO.P,TP1,1,1*%
%TO.N,Net-(U4-~{PGOOD})*%
X116850000Y-125300000D03*
%TD*%
D27*
%TO.P,R24,1*%
%TO.N,USB0_N*%
X120450000Y-154837500D03*
%TO.P,R24,2*%
%TO.N,USB_N*%
X120450000Y-156662500D03*
%TD*%
D24*
%TO.P,R14,1*%
%TO.N,Net-(F3-Pad2)*%
X110890000Y-132352500D03*
%TO.P,R14,2*%
%TO.N,/controller/BatteryManagement/bat_fused*%
X110890000Y-130527500D03*
%TD*%
D48*
%TO.P,F3,1*%
%TO.N,/controller/BatteryManagement/bat+*%
X111000000Y-137185000D03*
%TO.P,F3,2*%
%TO.N,Net-(F3-Pad2)*%
X111000000Y-135435000D03*
%TD*%
D47*
%TO.P,C4,1*%
%TO.N,/controller/vdd*%
X117565000Y-185760000D03*
%TO.P,C4,2*%
%TO.N,sysgnd*%
X119290000Y-185760000D03*
%TD*%
D49*
%TO.P,L2,1,1*%
%TO.N,Net-(U2-SW)*%
X108070000Y-156910000D03*
%TO.P,L2,2,2*%
%TO.N,Net-(C17-Pad1)*%
X103970000Y-156910000D03*
%TD*%
D44*
%TO.P,R4,1*%
%TO.N,Net-(U4-TS)*%
X126100000Y-121350000D03*
%TO.P,R4,2*%
%TO.N,sysgnd*%
X124275000Y-121350000D03*
%TD*%
%TO.P,R13,1*%
%TO.N,vbus_fused*%
X122682500Y-110150000D03*
%TO.P,R13,2*%
%TO.N,/controller/vusb*%
X120857500Y-110150000D03*
%TD*%
D50*
%TO.N,row3*%
X187900000Y-153500000D03*
X150887500Y-153862500D03*
X223500000Y-171800000D03*
X135400000Y-170350000D03*
X125700000Y-174000000D03*
X120600000Y-174150000D03*
X205000000Y-171200000D03*
X136100000Y-168600000D03*
X167800000Y-148300000D03*
X186200000Y-153400000D03*
X169800000Y-148300000D03*
X225400000Y-172200000D03*
X121750000Y-173000000D03*
X128800000Y-173400000D03*
X149200000Y-153000000D03*
X207400000Y-171200000D03*
X123375000Y-173875000D03*
X127650000Y-174350000D03*
%TO.N,row2*%
X186150000Y-136250000D03*
X127800000Y-176000000D03*
X129900000Y-176500000D03*
X222750000Y-153200000D03*
X151150000Y-136250000D03*
X224637500Y-153612500D03*
X137900000Y-154400000D03*
X139450000Y-155750000D03*
X139350000Y-168500000D03*
X168000000Y-131000000D03*
X169800000Y-131000000D03*
X123750000Y-175650000D03*
X206925000Y-154225000D03*
X138750000Y-170450000D03*
X130900000Y-175700000D03*
X122200000Y-175800000D03*
X188112500Y-136587500D03*
X149000000Y-136000000D03*
X205100000Y-153900000D03*
X126400000Y-176550000D03*
%TO.N,row1*%
X128000000Y-178100000D03*
X133100000Y-178100000D03*
X142600000Y-168450000D03*
X151250000Y-118050000D03*
X139500000Y-138000000D03*
X134250000Y-176650000D03*
X149350000Y-117800000D03*
X141800000Y-152200000D03*
X169300000Y-113700000D03*
X141800000Y-153700000D03*
X142450000Y-170400000D03*
X167900000Y-113600000D03*
X124400000Y-177350000D03*
X186150000Y-118750000D03*
X122150000Y-177600000D03*
X138700000Y-137000000D03*
X130500000Y-178250000D03*
X187975000Y-119175000D03*
%TO.N,row0*%
X138100000Y-177700000D03*
X158400000Y-118650000D03*
X129350000Y-179900000D03*
X159375000Y-149125000D03*
X131700000Y-179700000D03*
X158400000Y-133250000D03*
X126000000Y-178600000D03*
X157600000Y-131800000D03*
X157450000Y-117450000D03*
X136950000Y-178850000D03*
X159500000Y-147500000D03*
X124400000Y-179700000D03*
%TO.N,row4*%
X119300000Y-190600000D03*
X125950000Y-195800000D03*
X124450000Y-195500000D03*
X117750000Y-191750000D03*
X124350000Y-193550000D03*
X123000000Y-191800000D03*
D51*
%TO.N,col5*%
X101775500Y-166700000D03*
X89400000Y-173300000D03*
X91149500Y-173100000D03*
X96800688Y-167699312D03*
X103224500Y-166700000D03*
X95449312Y-168750688D03*
%TO.N,col4*%
X97799312Y-171100688D03*
X103224500Y-169200000D03*
X99050688Y-169949312D03*
X91200000Y-177400000D03*
X101700000Y-169100000D03*
X89200000Y-177400000D03*
D50*
%TO.N,col2*%
X133500000Y-191100000D03*
X161100000Y-164100000D03*
X132600000Y-190200000D03*
X158700000Y-179900000D03*
X160950000Y-165600000D03*
X157350000Y-181150000D03*
%TO.N,col1*%
X112600000Y-198100000D03*
X119700000Y-194100000D03*
X114200000Y-198200000D03*
X122650000Y-185650000D03*
X119900000Y-170100000D03*
X120850000Y-185150000D03*
X124600000Y-168600000D03*
X122850000Y-168900000D03*
X121400000Y-192800000D03*
X120650000Y-168750000D03*
%TO.N,col0*%
X125750000Y-171200000D03*
X112700000Y-202600000D03*
X132000000Y-170200000D03*
X121200000Y-171300000D03*
X124200000Y-172300000D03*
X121300000Y-182300000D03*
X119400000Y-182750000D03*
X132000000Y-168700000D03*
X124300000Y-200950000D03*
X114000000Y-202600000D03*
X122450000Y-200850000D03*
X122700000Y-170800000D03*
%TO.N,sysgnd*%
X122550000Y-118200000D03*
D51*
X108600000Y-179900000D03*
D50*
X133150000Y-102250000D03*
D51*
X120000000Y-166300000D03*
X103800000Y-148500000D03*
X99500000Y-155800000D03*
D50*
X121450000Y-117100000D03*
D51*
X117100000Y-120900000D03*
X119800000Y-159800000D03*
X117324500Y-113700000D03*
X123100000Y-112000000D03*
X140000000Y-101700000D03*
X116400000Y-133600000D03*
D50*
X140950000Y-105725000D03*
X122550000Y-117100000D03*
D51*
X115900000Y-146300000D03*
X114700000Y-137500000D03*
X118100000Y-184500000D03*
X120526500Y-119800000D03*
X107100000Y-180100000D03*
D50*
X122000000Y-117650000D03*
D51*
X100600000Y-153800000D03*
X98500000Y-185500000D03*
X121400000Y-151200000D03*
X110000000Y-179900000D03*
X100200000Y-165800000D03*
X119700000Y-180750500D03*
X109300000Y-165300000D03*
X109700000Y-152400000D03*
X125100000Y-102475000D03*
X111400000Y-179900000D03*
D50*
X121450000Y-118200000D03*
D51*
X114800000Y-119700000D03*
X114700000Y-136100000D03*
X121952847Y-120352847D03*
X129968330Y-104550500D03*
X125300000Y-120200000D03*
X114900000Y-134100000D03*
X123550500Y-119400000D03*
X99000000Y-183500000D03*
X108300000Y-149749500D03*
X123000000Y-122500000D03*
%TO.N,/controller/vdd*%
X116300000Y-189000000D03*
X116300000Y-186600000D03*
%TO.N,/controller/low_batt*%
X117950000Y-158800000D03*
X116449312Y-160400688D03*
%TO.N,/controller/reset*%
X107263745Y-186606926D03*
X106906928Y-189108208D03*
X108800000Y-192800000D03*
X105300688Y-185099312D03*
X103700000Y-186000000D03*
X111000000Y-194300000D03*
%TO.N,/controller/status1*%
X102500000Y-173949500D03*
X90500000Y-187100000D03*
X102500000Y-172250500D03*
X91650688Y-185649312D03*
%TO.N,/controller/swdclk*%
X97800000Y-187609519D03*
X97900000Y-189500000D03*
%TO.N,/controller/swdio*%
X104381150Y-211743449D03*
X102506551Y-211568851D03*
X94300000Y-187600000D03*
X93900000Y-189308519D03*
%TD*%
D52*
%TO.N,col5row3*%
X218225000Y-182875000D02*
X218225000Y-174050000D01*
X219850000Y-184500000D02*
X218225000Y-182875000D01*
%TO.N,row3*%
X192775000Y-155675000D02*
X190600000Y-153500000D01*
X155775000Y-150925000D02*
X158400000Y-148300000D01*
X186200000Y-153400000D02*
X185850000Y-153750000D01*
X212775000Y-176250000D02*
X211275000Y-176250000D01*
X126050000Y-174350000D02*
X125700000Y-174000000D01*
X192775000Y-160125000D02*
X192775000Y-158750000D01*
X229775000Y-176250000D02*
X229775000Y-174575000D01*
X133950000Y-170350000D02*
X135400000Y-170350000D01*
X119950000Y-174800000D02*
X117820000Y-174800000D01*
X128800000Y-173400000D02*
X130900000Y-173400000D01*
X150887500Y-153862500D02*
X155775000Y-158750000D01*
X155775000Y-158750000D02*
X155775000Y-150925000D01*
X137275000Y-167425000D02*
X137275000Y-162750000D01*
X149200000Y-153000000D02*
X140900000Y-153000000D01*
X122500000Y-173000000D02*
X123375000Y-173875000D01*
X227400000Y-172200000D02*
X225400000Y-172200000D01*
X229775000Y-174575000D02*
X227400000Y-172200000D01*
X211275000Y-175075000D02*
X207400000Y-171200000D01*
X136100000Y-168600000D02*
X137275000Y-167425000D01*
X121750000Y-173000000D02*
X122500000Y-173000000D01*
X174275000Y-152775000D02*
X174275000Y-153750000D01*
X120600000Y-174150000D02*
X119950000Y-174800000D01*
X137275000Y-156625000D02*
X137275000Y-162750000D01*
X223500000Y-171800000D02*
X217225000Y-171800000D01*
X169800000Y-148300000D02*
X174275000Y-152775000D01*
X127650000Y-174350000D02*
X126050000Y-174350000D01*
X205000000Y-171200000D02*
X203850000Y-171200000D01*
X217225000Y-171800000D02*
X212775000Y-176250000D01*
X140900000Y-153000000D02*
X137275000Y-156625000D01*
X192775000Y-158750000D02*
X192775000Y-155675000D01*
X211275000Y-176250000D02*
X211275000Y-175075000D01*
X185850000Y-153750000D02*
X174275000Y-153750000D01*
X203850000Y-171200000D02*
X192775000Y-160125000D01*
X158400000Y-148300000D02*
X167800000Y-148300000D01*
X190600000Y-153500000D02*
X187900000Y-153500000D01*
X130900000Y-173400000D02*
X133950000Y-170350000D01*
%TO.N,col5row2*%
X218225000Y-165375000D02*
X218225000Y-156550000D01*
X219850000Y-167000000D02*
X218225000Y-165375000D01*
%TO.N,row2*%
X155775000Y-140875000D02*
X155775000Y-141250000D01*
X140600000Y-136000000D02*
X137275000Y-139325000D01*
X125500000Y-175650000D02*
X126400000Y-176550000D01*
X123750000Y-175650000D02*
X125500000Y-175650000D01*
X137900000Y-154400000D02*
X137275000Y-153775000D01*
X224637500Y-153612500D02*
X229775000Y-158750000D01*
X122200000Y-175800000D02*
X120600000Y-175800000D01*
X139450000Y-155750000D02*
X139700000Y-156000000D01*
X139700000Y-168150000D02*
X139350000Y-168500000D01*
X151150000Y-136250000D02*
X155775000Y-140875000D01*
X159600000Y-131000000D02*
X168000000Y-131000000D01*
X222750000Y-153200000D02*
X216800000Y-153200000D01*
X137275000Y-139325000D02*
X137275000Y-145250000D01*
X155775000Y-134825000D02*
X159600000Y-131000000D01*
X139700000Y-156000000D02*
X139700000Y-168150000D01*
X149000000Y-136000000D02*
X140600000Y-136000000D01*
X211275000Y-158725000D02*
X211275000Y-158750000D01*
X205100000Y-153900000D02*
X199400000Y-153900000D01*
X136750000Y-170450000D02*
X131500000Y-175700000D01*
X169800000Y-131775000D02*
X174275000Y-136250000D01*
X188112500Y-136587500D02*
X192775000Y-141250000D01*
X169800000Y-131000000D02*
X169800000Y-131775000D01*
X120600000Y-175800000D02*
X120200000Y-176200000D01*
X186150000Y-136250000D02*
X174275000Y-136250000D01*
X155775000Y-141250000D02*
X155775000Y-134825000D01*
X211275000Y-158575000D02*
X211275000Y-158750000D01*
X199400000Y-153900000D02*
X192775000Y-147275000D01*
X192775000Y-147275000D02*
X192775000Y-141250000D01*
X128300000Y-176500000D02*
X129900000Y-176500000D01*
X137275000Y-153775000D02*
X137275000Y-145250000D01*
X138750000Y-170450000D02*
X136750000Y-170450000D01*
X131500000Y-175700000D02*
X130900000Y-175700000D01*
X206925000Y-154225000D02*
X211275000Y-158575000D01*
X216800000Y-153200000D02*
X211275000Y-158725000D01*
X127800000Y-176000000D02*
X128300000Y-176500000D01*
X120200000Y-176200000D02*
X117820000Y-176200000D01*
%TO.N,col5row1*%
X218225000Y-147875000D02*
X218225000Y-139050000D01*
X219850000Y-149500000D02*
X218225000Y-147875000D01*
%TO.N,row1*%
X140500000Y-170400000D02*
X142450000Y-170400000D01*
X137275000Y-123225000D02*
X137275000Y-127750000D01*
X216000000Y-135600000D02*
X211275000Y-140325000D01*
X127500000Y-177600000D02*
X128000000Y-178100000D01*
X122150000Y-177600000D02*
X117820000Y-177600000D01*
X155775000Y-120250000D02*
X155775000Y-123750000D01*
X211275000Y-134875000D02*
X206600000Y-130200000D01*
X229775000Y-141250000D02*
X224125000Y-135600000D01*
X187975000Y-119175000D02*
X192550000Y-123750000D01*
X140770100Y-151170100D02*
X140770100Y-139270100D01*
X124400000Y-177350000D02*
X124650000Y-177600000D01*
X186150000Y-118750000D02*
X174275000Y-118750000D01*
X155775000Y-122575000D02*
X155775000Y-123750000D01*
X174275000Y-118750000D02*
X174275000Y-118675000D01*
X174275000Y-118675000D02*
X169300000Y-113700000D01*
X124650000Y-177600000D02*
X127500000Y-177600000D01*
X142700000Y-117800000D02*
X137275000Y-123225000D01*
X206600000Y-130200000D02*
X204750000Y-130200000D01*
X134250000Y-176650000D02*
X140500000Y-170400000D01*
X151250000Y-118050000D02*
X155775000Y-122575000D01*
X140770100Y-166620100D02*
X140770100Y-154729900D01*
X130850000Y-177900000D02*
X132900000Y-177900000D01*
X140770100Y-154729900D02*
X141800000Y-153700000D01*
X211275000Y-141250000D02*
X211275000Y-134875000D01*
X142600000Y-168450000D02*
X140770100Y-166620100D01*
X204750000Y-130200000D02*
X201150000Y-133800000D01*
X149350000Y-117800000D02*
X142700000Y-117800000D01*
X211275000Y-140325000D02*
X211275000Y-141250000D01*
X130500000Y-178250000D02*
X130850000Y-177900000D01*
X201150000Y-133800000D02*
X192775000Y-125425000D01*
X138700000Y-137000000D02*
X137275000Y-135575000D01*
X192775000Y-125425000D02*
X192775000Y-123750000D01*
X192550000Y-123750000D02*
X192775000Y-123750000D01*
X167900000Y-113600000D02*
X162425000Y-113600000D01*
X132900000Y-177900000D02*
X133100000Y-178100000D01*
X162425000Y-113600000D02*
X155775000Y-120250000D01*
X137275000Y-135575000D02*
X137275000Y-127750000D01*
X140770100Y-139270100D02*
X139500000Y-138000000D01*
X224125000Y-135600000D02*
X216000000Y-135600000D01*
X141800000Y-152200000D02*
X140770100Y-151170100D01*
%TO.N,col4row3*%
X199725000Y-182875000D02*
X199725000Y-174050000D01*
X201350000Y-184500000D02*
X199725000Y-182875000D01*
%TO.N,col4row2*%
X201350000Y-167000000D02*
X199725000Y-165375000D01*
X199725000Y-165375000D02*
X199725000Y-156550000D01*
%TO.N,col4row1*%
X201350000Y-149500000D02*
X199725000Y-147875000D01*
X199725000Y-147875000D02*
X199725000Y-139050000D01*
%TO.N,col4row0*%
X199725000Y-130375000D02*
X199725000Y-121550000D01*
X201350000Y-132000000D02*
X199725000Y-130375000D01*
%TO.N,row0*%
X158400000Y-127600000D02*
X157600000Y-128400000D01*
X159500000Y-147500000D02*
X158400000Y-146400000D01*
X158400000Y-146400000D02*
X158400000Y-133250000D01*
X159375000Y-149125000D02*
X158700000Y-149800000D01*
X149923000Y-169777000D02*
X145248000Y-169777000D01*
X155775000Y-115775000D02*
X155775000Y-106250000D01*
X128900000Y-179900000D02*
X129350000Y-179900000D01*
X192775000Y-115975000D02*
X195000000Y-118200000D01*
X142475000Y-106450000D02*
X142475000Y-101825000D01*
X138100000Y-176925000D02*
X138100000Y-177700000D01*
X205500000Y-118200000D02*
X211050000Y-123750000D01*
X155775000Y-106250000D02*
X155775000Y-101625000D01*
X117820000Y-179000000D02*
X118040000Y-178780000D01*
X127600000Y-178600000D02*
X128900000Y-179900000D01*
X155775000Y-102675000D02*
X155775000Y-106250000D01*
X190325000Y-103800000D02*
X192775000Y-106250000D01*
X185250000Y-101250000D02*
X187800000Y-103800000D01*
X155775000Y-101625000D02*
X160600000Y-96800000D01*
X131900000Y-179900000D02*
X135900000Y-179900000D01*
X158700000Y-149800000D02*
X158700000Y-161000000D01*
X192775000Y-106250000D02*
X192775000Y-115975000D01*
X137275000Y-110250000D02*
X138675000Y-110250000D01*
X118040000Y-178780000D02*
X123480000Y-178780000D01*
X142475000Y-101825000D02*
X144700000Y-99600000D01*
X123480000Y-178780000D02*
X124400000Y-179700000D01*
X171725000Y-98700000D02*
X174275000Y-101250000D01*
X169700000Y-98700000D02*
X171725000Y-98700000D01*
X157600000Y-128400000D02*
X157600000Y-131800000D01*
X145248000Y-169777000D02*
X138100000Y-176925000D01*
X157450000Y-117450000D02*
X155775000Y-115775000D01*
X158700000Y-161000000D02*
X149923000Y-169777000D01*
X131700000Y-179700000D02*
X131900000Y-179900000D01*
X138675000Y-110250000D02*
X142475000Y-106450000D01*
X152700000Y-99600000D02*
X155775000Y-102675000D01*
X126000000Y-178600000D02*
X127600000Y-178600000D01*
X167800000Y-96800000D02*
X169700000Y-98700000D01*
X144700000Y-99600000D02*
X152700000Y-99600000D01*
X158400000Y-118650000D02*
X158400000Y-127600000D01*
X174275000Y-101250000D02*
X185250000Y-101250000D01*
X211050000Y-123750000D02*
X211275000Y-123750000D01*
X195000000Y-118200000D02*
X205500000Y-118200000D01*
X187800000Y-103800000D02*
X190325000Y-103800000D01*
X160600000Y-96800000D02*
X167800000Y-96800000D01*
X135900000Y-179900000D02*
X136950000Y-178850000D01*
%TO.N,col5row4*%
X181225000Y-182875000D02*
X181225000Y-174050000D01*
X182850000Y-184500000D02*
X181225000Y-182875000D01*
%TO.N,row4*%
X135290309Y-188392791D02*
X135290309Y-181896166D01*
X130483100Y-193200000D02*
X135290309Y-188392791D01*
X121800000Y-190600000D02*
X119300000Y-190600000D01*
X155775000Y-180325000D02*
X155775000Y-176250000D01*
X124350000Y-195400000D02*
X124350000Y-193550000D01*
X165400000Y-179360659D02*
X171660659Y-173100000D01*
X184000000Y-185050000D02*
X184000000Y-183600000D01*
X129300000Y-190900000D02*
X129300000Y-193204028D01*
X159200000Y-181700000D02*
X164000000Y-181700000D01*
X135290309Y-181896166D02*
X135290309Y-182090309D01*
X130800000Y-189400000D02*
X129300000Y-190900000D01*
X123000000Y-191800000D02*
X121800000Y-190600000D01*
X127500000Y-179300000D02*
X129400000Y-181200000D01*
X190625000Y-178400000D02*
X192775000Y-176250000D01*
X192775000Y-176250000D02*
X192775000Y-181175000D01*
X121100000Y-173400000D02*
X123000000Y-175300000D01*
X123900000Y-178200000D02*
X125000000Y-179300000D01*
X174275000Y-181175000D02*
X179700000Y-186600000D01*
X155775000Y-176250000D02*
X155775000Y-178275000D01*
X125000000Y-179300000D02*
X127500000Y-179300000D01*
X155775000Y-178275000D02*
X159200000Y-181700000D01*
X184000000Y-183600000D02*
X189200000Y-178400000D01*
X123300000Y-178200000D02*
X123900000Y-178200000D01*
X117820000Y-173400000D02*
X121100000Y-173400000D01*
X117750000Y-191750000D02*
X116139070Y-191750000D01*
X123000000Y-177900000D02*
X123300000Y-178200000D01*
X123000000Y-175300000D02*
X123000000Y-177900000D01*
X164000000Y-181700000D02*
X165400000Y-180300000D01*
D53*
X108927264Y-201672736D02*
X109944572Y-200655428D01*
D52*
X135290309Y-182090309D02*
X141900000Y-188700000D01*
X189200000Y-178400000D02*
X190625000Y-178400000D01*
X129400000Y-185300000D02*
X130800000Y-186700000D01*
D53*
X92927719Y-201672736D02*
X108927264Y-201672736D01*
D52*
X129300000Y-193204028D02*
X129052014Y-193452014D01*
X172425000Y-173100000D02*
X174275000Y-171250000D01*
X141900000Y-188700000D02*
X147400000Y-188700000D01*
X125950000Y-195800000D02*
X126704028Y-195800000D01*
X147400000Y-188700000D02*
X155775000Y-180325000D01*
D53*
X109944572Y-200655428D02*
X109944572Y-192656660D01*
D52*
X165400000Y-180300000D02*
X165400000Y-179360659D01*
D53*
X109944572Y-192656660D02*
X112301309Y-190299923D01*
D52*
X116139070Y-191750000D02*
X112301309Y-187912239D01*
X126704028Y-195800000D02*
X129304028Y-193200000D01*
X129400000Y-181200000D02*
X129400000Y-185300000D01*
X124450000Y-195500000D02*
X124350000Y-195400000D01*
X171660659Y-173100000D02*
X172425000Y-173100000D01*
X182450000Y-186600000D02*
X184000000Y-185050000D01*
X174275000Y-171250000D02*
X174275000Y-181175000D01*
X179700000Y-186600000D02*
X182450000Y-186600000D01*
X130800000Y-186700000D02*
X130800000Y-189400000D01*
X129304028Y-193200000D02*
X130483100Y-193200000D01*
D53*
X112301309Y-190299923D02*
X112301309Y-187912239D01*
D52*
%TO.N,col3row3*%
X182850000Y-167000000D02*
X181225000Y-165375000D01*
X181225000Y-165375000D02*
X181225000Y-156550000D01*
%TO.N,col3row2*%
X182850000Y-149500000D02*
X181225000Y-147875000D01*
X181225000Y-147875000D02*
X181225000Y-139050000D01*
%TO.N,col3row1*%
X181225000Y-130375000D02*
X181225000Y-121550000D01*
X182850000Y-132000000D02*
X181225000Y-130375000D01*
%TO.N,col3row0*%
X181225000Y-112875000D02*
X181225000Y-104050000D01*
X182850000Y-114500000D02*
X181225000Y-112875000D01*
%TO.N,col4row4*%
X164350000Y-179500000D02*
X162725000Y-177875000D01*
X162725000Y-177875000D02*
X162725000Y-169050000D01*
%TO.N,col2row3*%
X164350000Y-158810656D02*
X162725000Y-157185656D01*
X164350000Y-162000000D02*
X164350000Y-158810656D01*
X162725000Y-157185656D02*
X162725000Y-151550000D01*
%TO.N,col2row2*%
X162725000Y-142875000D02*
X162725000Y-134050000D01*
X164350000Y-144500000D02*
X162725000Y-142875000D01*
%TO.N,col2row1*%
X162725000Y-125375000D02*
X162725000Y-116550000D01*
X164350000Y-127000000D02*
X162725000Y-125375000D01*
%TO.N,col2row0*%
X162725000Y-107875000D02*
X162725000Y-99050000D01*
X164350000Y-109500000D02*
X162725000Y-107875000D01*
%TO.N,col3row4*%
X144225000Y-182875000D02*
X144225000Y-174050000D01*
X145850000Y-184500000D02*
X144225000Y-182875000D01*
%TO.N,col1row3*%
X144225000Y-165375000D02*
X144225000Y-156550000D01*
X145850000Y-167000000D02*
X144225000Y-165375000D01*
%TO.N,col1row2*%
X144225000Y-147875000D02*
X144225000Y-139050000D01*
X145850000Y-149500000D02*
X144225000Y-147875000D01*
%TO.N,col1row1*%
X145850000Y-132000000D02*
X144225000Y-130375000D01*
X144225000Y-130375000D02*
X144225000Y-121550000D01*
%TO.N,col1row0*%
X145850000Y-114500000D02*
X144100000Y-112750000D01*
X144100000Y-112750000D02*
X144225000Y-112625000D01*
X144225000Y-112625000D02*
X144225000Y-104050000D01*
%TO.N,col0row3*%
X127350000Y-171000000D02*
X125725000Y-169375000D01*
X125725000Y-169375000D02*
X125725000Y-160550000D01*
%TO.N,col0row2*%
X127350000Y-153500000D02*
X126906500Y-153056500D01*
X126906500Y-144231500D02*
X125725000Y-143050000D01*
X126906500Y-153056500D02*
X126906500Y-144231500D01*
%TO.N,col0row1*%
X127350000Y-136000000D02*
X126906500Y-135556500D01*
X126906500Y-126731500D02*
X125725000Y-125550000D01*
X126906500Y-135556500D02*
X126906500Y-126731500D01*
%TO.N,col0row0*%
X127200000Y-112800000D02*
X127200000Y-109525000D01*
X126906500Y-118056500D02*
X126906500Y-113093500D01*
X127200000Y-109525000D02*
X125725000Y-108050000D01*
X127350000Y-118500000D02*
X126906500Y-118056500D01*
X126906500Y-113093500D02*
X127200000Y-112800000D01*
%TO.N,col2row4*%
X125835562Y-184345024D02*
X123533569Y-182043031D01*
X127209341Y-191959272D02*
X125835562Y-190585493D01*
X125835562Y-190585493D02*
X125835562Y-184345024D01*
%TO.N,col1row4*%
X108303354Y-200183526D02*
X101356950Y-193237122D01*
X101356950Y-193237122D02*
X101356950Y-192209156D01*
D54*
%TO.N,col0row4*%
X93529948Y-214564804D02*
X89212434Y-214564804D01*
X89212434Y-214564804D02*
X84211489Y-209563859D01*
%TO.N,col5*%
X80400000Y-211900000D02*
X87500000Y-219000000D01*
X110318528Y-166300000D02*
X104700000Y-166300000D01*
X108500000Y-212800000D02*
X128841269Y-212800000D01*
D52*
X186150000Y-184500000D02*
X190000000Y-184500000D01*
D54*
X102300000Y-219000000D02*
X108500000Y-212800000D01*
X103624500Y-166300000D02*
X103224500Y-166700000D01*
X89400000Y-173300000D02*
X88700000Y-173300000D01*
D52*
X190000000Y-184500000D02*
X193500000Y-188000000D01*
D54*
X87900000Y-174100000D02*
X87900000Y-188407930D01*
X112820000Y-163350000D02*
X112820000Y-163798528D01*
X112820000Y-163798528D02*
X110318528Y-166300000D01*
D52*
X223150000Y-184500000D02*
X224621000Y-183029000D01*
D54*
X87900000Y-188407930D02*
X80400000Y-195907930D01*
X100776188Y-167699312D02*
X96800688Y-167699312D01*
X186150000Y-185950000D02*
X186150000Y-184500000D01*
D52*
X223150000Y-149500000D02*
X223593500Y-149943500D01*
D54*
X87500000Y-219000000D02*
X102300000Y-219000000D01*
X101775500Y-166700000D02*
X100776188Y-167699312D01*
D52*
X223593500Y-166556500D02*
X223150000Y-167000000D01*
D54*
X104700000Y-166300000D02*
X103624500Y-166300000D01*
X130634763Y-212050000D02*
X154384763Y-188300000D01*
X129591269Y-212050000D02*
X130634763Y-212050000D01*
D52*
X193500000Y-188000000D02*
X219650000Y-188000000D01*
X224621000Y-183029000D02*
X224621000Y-168471000D01*
X223593500Y-149943500D02*
X223593500Y-166556500D01*
D54*
X95449312Y-168750688D02*
X91149500Y-173050500D01*
X154384763Y-188300000D02*
X183800000Y-188300000D01*
D52*
X219650000Y-188000000D02*
X223150000Y-184500000D01*
D54*
X88700000Y-173300000D02*
X87900000Y-174100000D01*
X80400000Y-195907930D02*
X80400000Y-211900000D01*
X128841269Y-212800000D02*
X129591269Y-212050000D01*
X91149500Y-173050500D02*
X91149500Y-173100000D01*
D52*
X224621000Y-168471000D02*
X223150000Y-167000000D01*
D54*
X183800000Y-188300000D02*
X186150000Y-185950000D01*
D52*
%TO.N,col4*%
X206000000Y-182950000D02*
X206000000Y-168350000D01*
X204650000Y-132000000D02*
X204650000Y-133750000D01*
D54*
X101200000Y-218000000D02*
X107100000Y-212100000D01*
X153250000Y-186900000D02*
X163100000Y-186900000D01*
X99900000Y-169100000D02*
X99050688Y-169949312D01*
X89200000Y-188100000D02*
X82700000Y-194600000D01*
X101700000Y-169100000D02*
X99900000Y-169100000D01*
X89200000Y-177400000D02*
X89200000Y-188100000D01*
X97799312Y-171100688D02*
X91500000Y-177400000D01*
D52*
X204650000Y-133750000D02*
X206121000Y-135221000D01*
D54*
X82700000Y-208505560D02*
X82040636Y-209164924D01*
X108818528Y-169200000D02*
X103224500Y-169200000D01*
D52*
X204650000Y-184500000D02*
X202950000Y-186200000D01*
X183000000Y-187300000D02*
X172600000Y-187300000D01*
X191100000Y-182900000D02*
X186050000Y-182900000D01*
X206121000Y-135221000D02*
X206121000Y-148029000D01*
D54*
X82040636Y-209164924D02*
X82040636Y-212240636D01*
X128050000Y-212100000D02*
X153250000Y-186900000D01*
D52*
X204650000Y-184500000D02*
X206100000Y-183050000D01*
X204650000Y-167000000D02*
X204650000Y-165150000D01*
D54*
X163100000Y-186900000D02*
X167650000Y-182350000D01*
X87800000Y-218000000D02*
X101200000Y-218000000D01*
D52*
X172600000Y-187300000D02*
X167650000Y-182350000D01*
D54*
X82040636Y-212240636D02*
X87800000Y-218000000D01*
D52*
X204650000Y-165150000D02*
X206000000Y-163800000D01*
D54*
X107100000Y-212100000D02*
X128050000Y-212100000D01*
X114220000Y-163350000D02*
X114220000Y-163798528D01*
D52*
X186050000Y-182900000D02*
X184700000Y-184250000D01*
D54*
X91500000Y-177400000D02*
X91200000Y-177400000D01*
D52*
X194400000Y-186200000D02*
X191100000Y-182900000D01*
X202950000Y-186200000D02*
X194400000Y-186200000D01*
D54*
X82700000Y-194600000D02*
X82700000Y-208505560D01*
D52*
X184700000Y-184250000D02*
X184700000Y-185600000D01*
X184700000Y-185600000D02*
X183000000Y-187300000D01*
X206100000Y-183050000D02*
X206000000Y-182950000D01*
D54*
X114220000Y-163798528D02*
X108818528Y-169200000D01*
X167650000Y-182350000D02*
X167650000Y-179500000D01*
D52*
X206000000Y-168350000D02*
X204650000Y-167000000D01*
X206121000Y-148029000D02*
X204650000Y-149500000D01*
X206000000Y-150850000D02*
X204650000Y-149500000D01*
X206000000Y-163800000D02*
X206000000Y-150850000D01*
%TO.N,col3*%
X124423000Y-169573000D02*
X123700000Y-168850000D01*
X149593500Y-184056500D02*
X149593500Y-174206500D01*
X149150000Y-184500000D02*
X149593500Y-184056500D01*
X187100000Y-165100000D02*
X187100000Y-150450000D01*
X186150000Y-167000000D02*
X186150000Y-166050000D01*
X186150000Y-132000000D02*
X186150000Y-131250000D01*
X131700000Y-177400000D02*
X127900000Y-173600000D01*
X186593500Y-147906500D02*
X186593500Y-147706500D01*
X142975000Y-183575000D02*
X136800000Y-177400000D01*
X146750000Y-186900000D02*
X144800000Y-186900000D01*
X186150000Y-166050000D02*
X187100000Y-165100000D01*
X149593500Y-174206500D02*
X159000000Y-164800000D01*
X186150000Y-149500000D02*
X186150000Y-148350000D01*
X187200000Y-133050000D02*
X186150000Y-132000000D01*
X175200000Y-164800000D02*
X180500000Y-170100000D01*
X186150000Y-131250000D02*
X187200000Y-130200000D01*
X180500000Y-170100000D02*
X183050000Y-170100000D01*
X124423000Y-171423000D02*
X124423000Y-169573000D01*
X186150000Y-148350000D02*
X186593500Y-147906500D01*
X123700000Y-168550000D02*
X122950000Y-167800000D01*
X142975000Y-185075000D02*
X142975000Y-183575000D01*
X123700000Y-168850000D02*
X123700000Y-168550000D01*
X159000000Y-164800000D02*
X175200000Y-164800000D01*
X136800000Y-177400000D02*
X131700000Y-177400000D01*
X187200000Y-115550000D02*
X186150000Y-114500000D01*
X187200000Y-130200000D02*
X187200000Y-115550000D01*
X183050000Y-170100000D02*
X186150000Y-167000000D01*
X187200000Y-147100000D02*
X187200000Y-133050000D01*
X127900000Y-173600000D02*
X126600000Y-173600000D01*
X149150000Y-184500000D02*
X146750000Y-186900000D01*
X187100000Y-150450000D02*
X186150000Y-149500000D01*
X126600000Y-173600000D02*
X124423000Y-171423000D01*
X122950000Y-167800000D02*
X117820000Y-167800000D01*
X186593500Y-147706500D02*
X187200000Y-147100000D01*
X144800000Y-186900000D02*
X142975000Y-185075000D01*
%TO.N,col2*%
X167650000Y-144500000D02*
X167650000Y-143650000D01*
X161100000Y-164100000D02*
X165550000Y-164100000D01*
X160600000Y-165600000D02*
X158700000Y-167500000D01*
X132344451Y-189944451D02*
X132600000Y-190200000D01*
X130100000Y-180550000D02*
X130100000Y-179300000D01*
X131800000Y-185500000D02*
X129900000Y-183600000D01*
X168600000Y-110450000D02*
X167650000Y-109500000D01*
X167650000Y-162000000D02*
X167650000Y-161850000D01*
X167650000Y-143650000D02*
X168800000Y-142500000D01*
X157350000Y-181150000D02*
X147400000Y-191100000D01*
X131800000Y-189944451D02*
X131800000Y-185500000D01*
X168800000Y-142500000D02*
X168800000Y-128150000D01*
X168800000Y-128150000D02*
X167650000Y-127000000D01*
X165550000Y-164100000D02*
X167650000Y-162000000D01*
X158700000Y-167500000D02*
X158700000Y-179900000D01*
X168700000Y-160800000D02*
X168700000Y-145550000D01*
X160950000Y-165600000D02*
X160600000Y-165600000D01*
X167650000Y-124950000D02*
X168600000Y-124000000D01*
X129900000Y-180750000D02*
X130100000Y-180550000D01*
X129900000Y-183600000D02*
X129900000Y-180750000D01*
X120000000Y-169200000D02*
X117820000Y-169200000D01*
X130100000Y-179300000D02*
X120000000Y-169200000D01*
X168700000Y-145550000D02*
X167650000Y-144500000D01*
X167650000Y-161850000D02*
X168700000Y-160800000D01*
X168600000Y-124000000D02*
X168600000Y-110450000D01*
X131800000Y-189944451D02*
X130443093Y-191301358D01*
X147400000Y-191100000D02*
X133500000Y-191100000D01*
X131800000Y-189944451D02*
X132344451Y-189944451D01*
X167650000Y-127000000D02*
X167650000Y-124950000D01*
%TO.N,col1*%
X115625000Y-182125000D02*
X115000000Y-181500000D01*
X119400000Y-170600000D02*
X117820000Y-170600000D01*
X117406827Y-170600000D02*
X117820000Y-170600000D01*
X118300000Y-194100000D02*
X114200000Y-198200000D01*
X119800000Y-183600000D02*
X117100000Y-183600000D01*
X123900000Y-186900000D02*
X123900000Y-192300000D01*
X116445000Y-182945000D02*
X116445000Y-182461827D01*
X123900000Y-192300000D02*
X123400000Y-192800000D01*
X117100000Y-183600000D02*
X116445000Y-182945000D01*
X149150000Y-149500000D02*
X149150000Y-148950000D01*
X122850000Y-168900000D02*
X122700000Y-168750000D01*
X125700000Y-170100000D02*
X126400000Y-170800000D01*
X149150000Y-167000000D02*
X146750000Y-169400000D01*
X150400000Y-115750000D02*
X149150000Y-114500000D01*
X150400000Y-129700000D02*
X150400000Y-115750000D01*
X150100000Y-165200000D02*
X150100000Y-150450000D01*
X125000000Y-169950000D02*
X125000000Y-169000000D01*
X115000000Y-173006827D02*
X117406827Y-170600000D01*
X125000000Y-169950000D02*
X125150000Y-170100000D01*
X119900000Y-170100000D02*
X119400000Y-170600000D01*
X112600000Y-198100000D02*
X111419238Y-198100000D01*
X149150000Y-166150000D02*
X150100000Y-165200000D01*
X115000000Y-181500000D02*
X115000000Y-173006827D01*
X149150000Y-148950000D02*
X150200000Y-147900000D01*
X116108173Y-182125000D02*
X115625000Y-182125000D01*
X146750000Y-169400000D02*
X130550000Y-169400000D01*
X150200000Y-147900000D02*
X150200000Y-133050000D01*
X127800000Y-172150000D02*
X126800000Y-172150000D01*
X122400000Y-185400000D02*
X122650000Y-185650000D01*
X120850000Y-184650000D02*
X119800000Y-183600000D01*
X149150000Y-130950000D02*
X150400000Y-129700000D01*
X126400000Y-171750000D02*
X126800000Y-172150000D01*
X149150000Y-132000000D02*
X149150000Y-130950000D01*
X130550000Y-169400000D02*
X127800000Y-172150000D01*
X125150000Y-170100000D02*
X125700000Y-170100000D01*
X126400000Y-170800000D02*
X126400000Y-171750000D01*
X122650000Y-185650000D02*
X123900000Y-186900000D01*
X150200000Y-133050000D02*
X149150000Y-132000000D01*
X111419238Y-198100000D02*
X111095178Y-198424060D01*
X122700000Y-168750000D02*
X120650000Y-168750000D01*
X123400000Y-192800000D02*
X121400000Y-192800000D01*
X116445000Y-182461827D02*
X116108173Y-182125000D01*
X120850000Y-184900000D02*
X120850000Y-185150000D01*
X149150000Y-167000000D02*
X149150000Y-166150000D01*
X119700000Y-194100000D02*
X118300000Y-194100000D01*
X150100000Y-150450000D02*
X149150000Y-149500000D01*
X125000000Y-169000000D02*
X124600000Y-168600000D01*
X120850000Y-184900000D02*
X120850000Y-184650000D01*
%TO.N,col0*%
X125750000Y-172100000D02*
X125750000Y-171200000D01*
X112700000Y-202600000D02*
X111000000Y-204300000D01*
X119300000Y-172000000D02*
X117820000Y-172000000D01*
X132000000Y-154850000D02*
X130650000Y-153500000D01*
X126300000Y-172650000D02*
X129000000Y-172650000D01*
X124200000Y-172300000D02*
X122700000Y-170800000D01*
X116100000Y-180800000D02*
X116100000Y-173306827D01*
X125200000Y-200050000D02*
X125200000Y-186790064D01*
X121200000Y-171300000D02*
X120000000Y-172500000D01*
X129000000Y-172650000D02*
X130650000Y-171000000D01*
X124300000Y-200950000D02*
X125200000Y-200050000D01*
X130650000Y-140150000D02*
X131800000Y-141300000D01*
X122450000Y-200850000D02*
X120238299Y-200850000D01*
X131800000Y-152350000D02*
X130650000Y-153500000D01*
X117406827Y-172000000D02*
X117820000Y-172000000D01*
X130650000Y-171000000D02*
X131200000Y-171000000D01*
X120000000Y-172500000D02*
X119800000Y-172500000D01*
X131700000Y-134950000D02*
X130650000Y-136000000D01*
X131700000Y-122700000D02*
X131700000Y-134950000D01*
X132000000Y-168700000D02*
X132000000Y-154850000D01*
X118488299Y-202600000D02*
X114000000Y-202600000D01*
X121300000Y-182890064D02*
X121300000Y-182300000D01*
X125200000Y-186790064D02*
X121300000Y-182890064D01*
X119800000Y-172500000D02*
X119300000Y-172000000D01*
X130650000Y-118500000D02*
X130650000Y-121650000D01*
X111000000Y-204300000D02*
X103150084Y-204300000D01*
X119400000Y-182750000D02*
X118050000Y-182750000D01*
X131200000Y-171000000D02*
X132000000Y-170200000D01*
X120238299Y-200850000D02*
X118488299Y-202600000D01*
X130650000Y-121650000D02*
X131700000Y-122700000D01*
X103150084Y-204300000D02*
X95518696Y-211931388D01*
X116100000Y-173306827D02*
X117406827Y-172000000D01*
X131800000Y-141300000D02*
X131800000Y-152350000D01*
X130650000Y-136000000D02*
X130650000Y-140150000D01*
X126300000Y-172650000D02*
X125750000Y-172100000D01*
X118050000Y-182750000D02*
X116100000Y-180800000D01*
X124200000Y-172300000D02*
X124250000Y-172300000D01*
D53*
%TO.N,/controller/vusb*%
X116100000Y-119858588D02*
X118530000Y-117428588D01*
X106088098Y-133511902D02*
X106088098Y-131711902D01*
X112665000Y-124885000D02*
X116100000Y-121450000D01*
X120857500Y-110150000D02*
X119950000Y-111057500D01*
X96000000Y-157250000D02*
X96000000Y-154900000D01*
X111130693Y-185669307D02*
X109350000Y-187450000D01*
X107450000Y-130350000D02*
X107450000Y-127400000D01*
X109350000Y-187450000D02*
X107368038Y-187450000D01*
X116100000Y-121450000D02*
X116100000Y-119858588D01*
X120502500Y-115452500D02*
X121187500Y-116137500D01*
X98949149Y-148850851D02*
X98949149Y-147600851D01*
X119020000Y-181600000D02*
X120225000Y-181600000D01*
X98250000Y-149550000D02*
X98949149Y-148850851D01*
X120983089Y-180841911D02*
X120500000Y-181325000D01*
X101219916Y-142480084D02*
X102783396Y-140916604D01*
X109965000Y-124885000D02*
X112665000Y-124885000D01*
X91500000Y-165500000D02*
X94450000Y-162550000D01*
X119180000Y-110150000D02*
X118290000Y-111040000D01*
X104309650Y-135290350D02*
X106088098Y-133511902D01*
X118530000Y-117428588D02*
X118530000Y-115452500D01*
X104309650Y-137190350D02*
X104309650Y-135290350D01*
X117820000Y-180400000D02*
X119020000Y-181600000D01*
X119950000Y-114032500D02*
X118530000Y-115452500D01*
X119950000Y-187800000D02*
X115850000Y-187800000D01*
X113719307Y-185669307D02*
X111130693Y-185669307D01*
X120500000Y-181325000D02*
X120500000Y-182800000D01*
X94450000Y-158800000D02*
X96000000Y-157250000D01*
X106359019Y-188459019D02*
X93259019Y-188459019D01*
X107368038Y-187450000D02*
X106359019Y-188459019D01*
X106088098Y-131711902D02*
X107450000Y-130350000D01*
X121700000Y-184000000D02*
X121700000Y-186050000D01*
X120983089Y-180841911D02*
X122245000Y-179580000D01*
X96000000Y-154900000D02*
X98250000Y-152650000D01*
X119950000Y-111057500D02*
X119950000Y-114032500D01*
X118530000Y-115452500D02*
X120502500Y-115452500D01*
X98949149Y-147600851D02*
X101219916Y-145330084D01*
X120225000Y-181600000D02*
X120500000Y-181325000D01*
X121187500Y-116137500D02*
X121187500Y-116212500D01*
X120500000Y-182800000D02*
X121700000Y-184000000D01*
X120857500Y-110150000D02*
X119180000Y-110150000D01*
X101219916Y-145330084D02*
X101219916Y-142480084D01*
X93259019Y-188459019D02*
X90300000Y-185500000D01*
X102783396Y-138716604D02*
X104309650Y-137190350D01*
X90300000Y-170750000D02*
X91500000Y-169550000D01*
X94450000Y-162550000D02*
X94450000Y-158800000D01*
X121700000Y-186050000D02*
X119950000Y-187800000D01*
X98250000Y-152650000D02*
X98250000Y-149550000D01*
X107450000Y-127400000D02*
X109965000Y-124885000D01*
X102783396Y-140916604D02*
X102783396Y-138716604D01*
X115850000Y-187800000D02*
X113719307Y-185669307D01*
X90300000Y-185500000D02*
X90300000Y-170750000D01*
X91500000Y-169550000D02*
X91500000Y-165500000D01*
%TO.N,sysgnd*%
X119900000Y-166400000D02*
X120000000Y-166300000D01*
X100220000Y-183450000D02*
X99050000Y-183450000D01*
D54*
X116390000Y-136150000D02*
X116390000Y-135590000D01*
D53*
X125870000Y-101705000D02*
X125100000Y-102475000D01*
X138825000Y-104612500D02*
X138825000Y-105173528D01*
X139376472Y-105725000D02*
X140950000Y-105725000D01*
X108620000Y-183450000D02*
X108620000Y-179920000D01*
D54*
X124275000Y-121350000D02*
X124275000Y-121225000D01*
X114225648Y-120274352D02*
X114800000Y-119700000D01*
X114225648Y-121148968D02*
X114225648Y-120274352D01*
X108930000Y-152345000D02*
X109645000Y-152345000D01*
D53*
X99050000Y-183450000D02*
X99000000Y-183500000D01*
D54*
X121890000Y-123675000D02*
X121890000Y-123610000D01*
X116365000Y-145835000D02*
X115900000Y-146300000D01*
X116390000Y-136150000D02*
X116050000Y-136150000D01*
X116390000Y-136150000D02*
X116390000Y-133610000D01*
X119830000Y-151472500D02*
X121127500Y-151472500D01*
X114750000Y-136150000D02*
X114700000Y-136100000D01*
D53*
X117820000Y-166400000D02*
X119900000Y-166400000D01*
D54*
X123450000Y-118400000D02*
X123450000Y-119299500D01*
X122262500Y-119087500D02*
X122262500Y-120043194D01*
X129117830Y-103700000D02*
X128562500Y-103700000D01*
X124275000Y-121225000D02*
X125300000Y-120200000D01*
X129968330Y-104550500D02*
X129117830Y-103700000D01*
X119700000Y-180400000D02*
X120520000Y-179580000D01*
D53*
X111420000Y-183450000D02*
X111420000Y-179920000D01*
D54*
X123012500Y-112087500D02*
X123100000Y-112000000D01*
X121500000Y-112087500D02*
X123012500Y-112087500D01*
X119700000Y-180750500D02*
X119700000Y-180400000D01*
X108430000Y-149879500D02*
X108300000Y-149749500D01*
D53*
X103840000Y-148540000D02*
X103800000Y-148500000D01*
D54*
X122262500Y-120043194D02*
X121952847Y-120352847D01*
D53*
X107220000Y-183450000D02*
X107220000Y-180220000D01*
D54*
X121262500Y-119087500D02*
X121239000Y-119087500D01*
X108430000Y-150895000D02*
X108430000Y-149879500D01*
X123450000Y-119299500D02*
X123550500Y-119400000D01*
D53*
X100600000Y-152495000D02*
X100600000Y-153800000D01*
X99337500Y-186400000D02*
X99337500Y-186337500D01*
D54*
X139950000Y-101750000D02*
X140000000Y-101700000D01*
X121890000Y-123610000D02*
X123000000Y-122500000D01*
X118530000Y-113727500D02*
X117352000Y-113727500D01*
D53*
X100220000Y-163350000D02*
X100220000Y-165780000D01*
X132270000Y-101165000D02*
X132270000Y-101370000D01*
X107220000Y-180220000D02*
X107100000Y-180100000D01*
X110020000Y-163350000D02*
X110020000Y-164580000D01*
X99527500Y-157020000D02*
X99527500Y-155827500D01*
X125870000Y-101165000D02*
X125870000Y-101705000D01*
X110020000Y-183450000D02*
X110020000Y-179920000D01*
D54*
X121127500Y-151472500D02*
X121400000Y-151200000D01*
D53*
X99337500Y-186337500D02*
X98500000Y-185500000D01*
D54*
X116390000Y-135590000D02*
X114900000Y-134100000D01*
D53*
X110020000Y-164580000D02*
X109300000Y-165300000D01*
X99527500Y-155827500D02*
X99500000Y-155800000D01*
X138825000Y-105173528D02*
X139376472Y-105725000D01*
X105527500Y-148540000D02*
X103840000Y-148540000D01*
D54*
X118100000Y-184500000D02*
X119290000Y-185690000D01*
X116390000Y-136150000D02*
X114750000Y-136150000D01*
X118000000Y-121862500D02*
X118000000Y-121800000D01*
X116990000Y-145835000D02*
X116365000Y-145835000D01*
D53*
X108620000Y-179920000D02*
X108600000Y-179900000D01*
X100220000Y-165780000D02*
X100200000Y-165800000D01*
D54*
X117352000Y-113727500D02*
X117324500Y-113700000D01*
D53*
X111420000Y-179920000D02*
X111400000Y-179900000D01*
D54*
X109645000Y-152345000D02*
X109700000Y-152400000D01*
X116050000Y-136150000D02*
X114700000Y-137500000D01*
X118000000Y-121800000D02*
X117100000Y-120900000D01*
X116390000Y-133610000D02*
X116400000Y-133600000D01*
X138412500Y-101750000D02*
X139950000Y-101750000D01*
X119612500Y-161200000D02*
X119612500Y-159987500D01*
X119612500Y-159987500D02*
X119800000Y-159800000D01*
D53*
X132270000Y-101370000D02*
X133150000Y-102250000D01*
D54*
X119290000Y-185690000D02*
X119290000Y-185760000D01*
X121239000Y-119087500D02*
X120526500Y-119800000D01*
D53*
X110020000Y-179920000D02*
X110000000Y-179900000D01*
%TO.N,Net-(C17-Pad1)*%
X101252500Y-157020000D02*
X103860000Y-157020000D01*
X104960000Y-152472500D02*
X103970000Y-153462500D01*
X97325000Y-158575000D02*
X97050000Y-158850000D01*
X103970000Y-153462500D02*
X103000000Y-152492500D01*
X103970000Y-156910000D02*
X103970000Y-153462500D01*
X101252500Y-159452500D02*
X101300000Y-159500000D01*
X100375000Y-158575000D02*
X97325000Y-158575000D01*
X103860000Y-157020000D02*
X103970000Y-156910000D01*
X101300000Y-159500000D02*
X100375000Y-158575000D01*
X101252500Y-157020000D02*
X101252500Y-159452500D01*
X105280000Y-152472500D02*
X104960000Y-152472500D01*
D52*
%TO.N,Net-(U2-FB)*%
X107930000Y-151343008D02*
X107930000Y-150895000D01*
X106600000Y-151700000D02*
X106680000Y-151620000D01*
D53*
X103000000Y-150667500D02*
X100602500Y-150667500D01*
D52*
X107653008Y-151620000D02*
X107930000Y-151343008D01*
X106680000Y-151620000D02*
X107653008Y-151620000D01*
D53*
X100602500Y-150667500D02*
X100600000Y-150670000D01*
X105647500Y-150747500D02*
X106600000Y-151700000D01*
X105280000Y-150747500D02*
X105647500Y-150747500D01*
X103080000Y-150747500D02*
X103000000Y-150667500D01*
X105280000Y-150747500D02*
X103080000Y-150747500D01*
%TO.N,/controller/vdd*%
X113979019Y-185042307D02*
X110870981Y-185042307D01*
X97100000Y-163400000D02*
X97100000Y-161875000D01*
X105652770Y-185949312D02*
X104949312Y-185949312D01*
X116100000Y-150060000D02*
X115450000Y-150060000D01*
X116310000Y-141060000D02*
X115440000Y-141060000D01*
X99475000Y-159500000D02*
X100400000Y-160425000D01*
X115450000Y-159050000D02*
X116250000Y-158250000D01*
X117565000Y-185395000D02*
X115620000Y-183450000D01*
X115737500Y-163350000D02*
X117887500Y-161200000D01*
X114086712Y-185150000D02*
X113979019Y-185042307D01*
X116250000Y-150210000D02*
X116100000Y-150060000D01*
X117140000Y-185760000D02*
X116300000Y-186600000D01*
X101062500Y-186400000D02*
X102059949Y-186400000D01*
X104420000Y-183450000D02*
X104400000Y-183430000D01*
X110550000Y-157288076D02*
X110550000Y-148400000D01*
X95000000Y-165500000D02*
X95000000Y-167100000D01*
X117887500Y-161200000D02*
X117887500Y-160637500D01*
X104949312Y-185949312D02*
X104420000Y-185420000D01*
X105200000Y-158600000D02*
X109238076Y-158600000D01*
X117565000Y-185760000D02*
X117565000Y-185395000D01*
X116250000Y-158250000D02*
X116250000Y-150210000D01*
X115620000Y-163350000D02*
X115737500Y-163350000D01*
X116300000Y-159050000D02*
X115450000Y-159050000D01*
X97100000Y-163400000D02*
X95000000Y-165500000D01*
X110613288Y-185300000D02*
X106302082Y-185300000D01*
X110550000Y-148400000D02*
X116600000Y-142350000D01*
X109238076Y-158600000D02*
X110550000Y-157288076D01*
X100400000Y-160425000D02*
X103375000Y-160425000D01*
X102059949Y-186400000D02*
X104420000Y-184039949D01*
X115620000Y-184039949D02*
X114509949Y-185150000D01*
X104420000Y-184039949D02*
X104420000Y-183450000D01*
X116600000Y-142350000D02*
X116600000Y-141350000D01*
X110870981Y-185042307D02*
X110613288Y-185300000D01*
X106459949Y-173100000D02*
X115620000Y-163939949D01*
X97100000Y-161875000D02*
X99475000Y-159500000D01*
X116600000Y-141350000D02*
X116310000Y-141060000D01*
X117565000Y-185760000D02*
X117140000Y-185760000D01*
X104420000Y-185420000D02*
X104420000Y-184039949D01*
X117887500Y-160637500D02*
X116300000Y-159050000D01*
X115620000Y-163939949D02*
X115620000Y-163350000D01*
X115620000Y-183450000D02*
X115620000Y-184039949D01*
X101000000Y-173100000D02*
X106459949Y-173100000D01*
X103375000Y-160425000D02*
X105200000Y-158600000D01*
X106302082Y-185300000D02*
X105652770Y-185949312D01*
X104400000Y-183430000D02*
X104400000Y-173100000D01*
X114509949Y-185150000D02*
X114086712Y-185150000D01*
X116300000Y-189000000D02*
X123480000Y-196180000D01*
X123480000Y-196180000D02*
X123480000Y-206890000D01*
X95000000Y-167100000D02*
X101000000Y-173100000D01*
D52*
%TO.N,/controller/low_batt*%
X116100000Y-160650000D02*
X116200000Y-160650000D01*
D55*
X119830000Y-147692500D02*
X119850000Y-147672500D01*
D52*
X116990000Y-147660000D02*
X118400000Y-146250000D01*
X118400000Y-146250000D02*
X118400000Y-143600000D01*
D55*
X116100000Y-160800000D02*
X116100000Y-160650000D01*
X117950000Y-151627500D02*
X119830000Y-149747500D01*
X117950000Y-158800000D02*
X117950000Y-151627500D01*
X111420000Y-162972183D02*
X112442183Y-161950000D01*
X114950000Y-161950000D02*
X116100000Y-160800000D01*
X119830000Y-149747500D02*
X119830000Y-147692500D01*
X112442183Y-161950000D02*
X114950000Y-161950000D01*
X111420000Y-163350000D02*
X111420000Y-162972183D01*
X119850000Y-147672500D02*
X116622500Y-147672500D01*
D52*
X116200000Y-160650000D02*
X116449312Y-160400688D01*
D53*
%TO.N,/controller/BatteryManagement/bat_fused*%
X124600000Y-118387716D02*
X124131142Y-117918858D01*
X120965000Y-126285000D02*
X120965000Y-122875000D01*
X123337500Y-120827728D02*
X124600000Y-119565228D01*
D52*
X124131142Y-117918858D02*
X123968858Y-117918858D01*
D53*
X112730000Y-128150000D02*
X119150000Y-128150000D01*
X120980000Y-126300000D02*
X120965000Y-126285000D01*
X110890000Y-129990000D02*
X112730000Y-128150000D01*
X121940000Y-143757500D02*
X121940000Y-127240000D01*
X119850000Y-145847500D02*
X121940000Y-143757500D01*
D52*
X123968858Y-117918858D02*
X123450000Y-117400000D01*
D53*
X119150000Y-128150000D02*
X121000000Y-126300000D01*
D52*
X124112284Y-117900000D02*
X123450000Y-117900000D01*
D53*
X122124580Y-121950000D02*
X123246852Y-120827728D01*
X124600000Y-119565228D02*
X124600000Y-118387716D01*
X121000000Y-126300000D02*
X120980000Y-126300000D01*
X121940000Y-127240000D02*
X121000000Y-126300000D01*
X121890000Y-121950000D02*
X122124580Y-121950000D01*
D52*
X124131142Y-117918858D02*
X124112284Y-117900000D01*
D53*
X123246852Y-120827728D02*
X123337500Y-120827728D01*
X120965000Y-122875000D02*
X121890000Y-121950000D01*
X110890000Y-130527500D02*
X110890000Y-129990000D01*
D55*
%TO.N,vsys*%
X107930000Y-152345000D02*
X107930000Y-151932348D01*
D53*
X110300000Y-126450000D02*
X108450000Y-128300000D01*
X112850000Y-126450000D02*
X110300000Y-126450000D01*
D55*
X108267348Y-151595000D02*
X109205000Y-151595000D01*
D53*
X107355000Y-149800000D02*
X107355000Y-149492418D01*
X109150000Y-149990216D02*
X109600000Y-150440216D01*
X119150000Y-118600000D02*
X119150000Y-122650000D01*
D55*
X109205000Y-151595000D02*
X109600000Y-151200000D01*
D53*
X107355000Y-148642500D02*
X107355000Y-149800000D01*
D55*
X120575000Y-117900000D02*
X119900000Y-117900000D01*
D53*
X107200000Y-145300000D02*
X107200000Y-148487500D01*
X107947918Y-148899500D02*
X108652082Y-148899500D01*
X107252500Y-148540000D02*
X107355000Y-148642500D01*
X108450000Y-128300000D02*
X108450000Y-130850000D01*
X119850000Y-117900000D02*
X119150000Y-118600000D01*
D55*
X119900000Y-117900000D02*
X119850000Y-117900000D01*
X120575000Y-117900000D02*
X120575000Y-117400000D01*
D53*
X107200000Y-132100000D02*
X107200000Y-145300000D01*
X118850000Y-122950000D02*
X116350000Y-122950000D01*
D55*
X107930000Y-151932348D02*
X108267348Y-151595000D01*
D53*
X108450000Y-130850000D02*
X107200000Y-132100000D01*
X108652082Y-148899500D02*
X109150000Y-149397418D01*
X119150000Y-122650000D02*
X118850000Y-122950000D01*
X116350000Y-122950000D02*
X112850000Y-126450000D01*
D55*
X120400000Y-117400000D02*
X119900000Y-117900000D01*
D53*
X107200000Y-148487500D02*
X107252500Y-148540000D01*
X109150000Y-149397418D02*
X109150000Y-149990216D01*
X107355000Y-149800000D02*
X107355000Y-150895000D01*
X109600000Y-150440216D02*
X109600000Y-151200000D01*
D55*
X120575000Y-117400000D02*
X120400000Y-117400000D01*
D53*
X107355000Y-149492418D02*
X107947918Y-148899500D01*
%TO.N,/controller/BatteryManagement/bat+*%
X118390000Y-136889949D02*
X116879949Y-138400000D01*
X116879949Y-138400000D02*
X112215000Y-138400000D01*
X112215000Y-138400000D02*
X111000000Y-137185000D01*
X118390000Y-136150000D02*
X118390000Y-136889949D01*
D52*
%TO.N,Net-(F3-Pad2)*%
X109830000Y-140110000D02*
X110077000Y-139863000D01*
D53*
X111000000Y-135435000D02*
X111000000Y-132462500D01*
X109830000Y-136605000D02*
X111000000Y-135435000D01*
X111000000Y-132462500D02*
X110890000Y-132352500D01*
X109830000Y-140110000D02*
X109830000Y-136605000D01*
%TO.N,vbus_no_fuse*%
X127647000Y-98285000D02*
X129025000Y-99663000D01*
X130553000Y-99663000D02*
X130850000Y-99960000D01*
X127135606Y-100130000D02*
X127602606Y-99663000D01*
D52*
X126670000Y-100595606D02*
X126670000Y-101165000D01*
X130850000Y-99960000D02*
X131470000Y-100580000D01*
D53*
X122420000Y-98285000D02*
X127647000Y-98285000D01*
X129025000Y-99663000D02*
X130553000Y-99663000D01*
X127602606Y-99663000D02*
X129025000Y-99663000D01*
D52*
X127135606Y-100130000D02*
X126670000Y-100595606D01*
X131470000Y-100580000D02*
X131470000Y-101165000D01*
%TO.N,/controller/reset*%
X105820000Y-183450000D02*
X105820000Y-184580000D01*
X113320000Y-196620000D02*
X113320000Y-206890000D01*
X111000000Y-194300000D02*
X113320000Y-196620000D01*
X107263745Y-186606926D02*
X104306926Y-186606926D01*
X106906928Y-189108208D02*
X106906928Y-190906928D01*
X106906928Y-190906928D02*
X108800000Y-192800000D01*
X104306926Y-186606926D02*
X103700000Y-186000000D01*
X105820000Y-184580000D02*
X105300688Y-185099312D01*
%TO.N,/controller/status1*%
X102500000Y-172250500D02*
X102500000Y-165300000D01*
X101800000Y-177500000D02*
X96700000Y-177500000D01*
X102500000Y-173949500D02*
X102500000Y-176800000D01*
X96700000Y-177500000D02*
X91650688Y-182549312D01*
D55*
X108742183Y-161450000D02*
X109275000Y-161450000D01*
D52*
X106283173Y-164700000D02*
X107220000Y-163763173D01*
X111150000Y-160000000D02*
X112550000Y-160000000D01*
X84100000Y-195300000D02*
X84100000Y-202000000D01*
X105600000Y-209500000D02*
X117500000Y-209500000D01*
X90542667Y-208442667D02*
X91800456Y-208442667D01*
X117050000Y-205700000D02*
X115860000Y-206890000D01*
D55*
X110725000Y-160000000D02*
X111150000Y-160000000D01*
D52*
X96300000Y-216000000D02*
X99100000Y-216000000D01*
X90500000Y-187100000D02*
X90500000Y-188900000D01*
X117500000Y-209500000D02*
X119600000Y-207400000D01*
X119600000Y-206428299D02*
X118871701Y-205700000D01*
X93026800Y-212726800D02*
X96300000Y-216000000D01*
X119600000Y-207400000D02*
X119600000Y-206428299D01*
X102500000Y-176800000D02*
X101800000Y-177500000D01*
X102500000Y-165300000D02*
X103100000Y-164700000D01*
D55*
X109275000Y-161450000D02*
X110725000Y-160000000D01*
D52*
X118871701Y-205700000D02*
X117050000Y-205700000D01*
D55*
X107220000Y-162972183D02*
X108742183Y-161450000D01*
D52*
X90500000Y-188900000D02*
X84100000Y-195300000D01*
X103100000Y-164700000D02*
X106283173Y-164700000D01*
X107220000Y-163763173D02*
X107220000Y-163350000D01*
X93026800Y-209669011D02*
X93026800Y-212726800D01*
X91800456Y-208442667D02*
X93026800Y-209669011D01*
X99100000Y-216000000D02*
X105600000Y-209500000D01*
D55*
X107220000Y-163350000D02*
X107220000Y-162972183D01*
D52*
X91650688Y-182549312D02*
X91650688Y-185649312D01*
X84100000Y-202000000D02*
X90542667Y-208442667D01*
%TO.N,/controller/swdclk*%
X99983173Y-181400000D02*
X101620000Y-183036827D01*
X91565201Y-206165201D02*
X94400000Y-209000000D01*
X99938007Y-208900000D02*
X116390000Y-208900000D01*
X89075037Y-203775037D02*
X89075037Y-205064508D01*
X94400000Y-212400000D02*
X94977081Y-212977081D01*
X98900000Y-181400000D02*
X99983173Y-181400000D01*
X94977081Y-212977081D02*
X95860926Y-212977081D01*
X96800000Y-183500000D02*
X98900000Y-181400000D01*
X88300000Y-203000000D02*
X89075037Y-203775037D01*
X97900000Y-189700000D02*
X88300000Y-199300000D01*
X90175730Y-206165201D02*
X91565201Y-206165201D01*
X116390000Y-208900000D02*
X118400000Y-206890000D01*
X94400000Y-209000000D02*
X94400000Y-212400000D01*
X97900000Y-189500000D02*
X97900000Y-189700000D01*
X95860926Y-212977081D02*
X99938007Y-208900000D01*
X88300000Y-199300000D02*
X88300000Y-203000000D01*
X97800000Y-187609519D02*
X96800000Y-186609519D01*
X101620000Y-183036827D02*
X101620000Y-183450000D01*
X89075037Y-205064508D02*
X90175730Y-206165201D01*
X96800000Y-186609519D02*
X96800000Y-183500000D01*
%TO.N,/controller/swdio*%
X93700000Y-212800000D02*
X93700000Y-209500000D01*
X98400000Y-179600000D02*
X99583173Y-179600000D01*
X101031149Y-211568851D02*
X98400000Y-214200000D01*
X93900000Y-190024598D02*
X93900000Y-189308519D01*
X90600000Y-207800000D02*
X87000000Y-204200000D01*
X99583173Y-179600000D02*
X103020000Y-183036827D01*
X95500000Y-186400000D02*
X95500000Y-182500000D01*
X117430000Y-210400000D02*
X120940000Y-206890000D01*
X87000000Y-204200000D02*
X87000000Y-196924598D01*
X105724599Y-210400000D02*
X117430000Y-210400000D01*
X94300000Y-187600000D02*
X95500000Y-186400000D01*
X95500000Y-182500000D02*
X98400000Y-179600000D01*
X93700000Y-209500000D02*
X92000000Y-207800000D01*
X102506551Y-211568851D02*
X101031149Y-211568851D01*
X104381150Y-211743449D02*
X105724599Y-210400000D01*
X103020000Y-183036827D02*
X103020000Y-183450000D01*
X95100000Y-214200000D02*
X93700000Y-212800000D01*
X92000000Y-207800000D02*
X90600000Y-207800000D01*
X87000000Y-196924598D02*
X93900000Y-190024598D01*
X98400000Y-214200000D02*
X95100000Y-214200000D01*
D55*
%TO.N,/controller/fast_chg_led*%
X117861522Y-142300000D02*
X117100000Y-143061522D01*
X105700000Y-159950000D02*
X103020000Y-162630000D01*
X113594239Y-147261522D02*
X112888478Y-147261522D01*
X118212500Y-142300000D02*
X117861522Y-142300000D01*
X112888478Y-147261522D02*
X111700000Y-148450000D01*
X103020000Y-162630000D02*
X103020000Y-163350000D01*
X111700000Y-148450000D02*
X111700000Y-157275104D01*
X117100000Y-143061522D02*
X117100000Y-143755761D01*
X109025104Y-159950000D02*
X105700000Y-159950000D01*
X117100000Y-143755761D02*
X113594239Y-147261522D01*
X111700000Y-157275104D02*
X109025104Y-159950000D01*
X119512500Y-141000000D02*
X118212500Y-142300000D01*
D52*
%TO.N,Net-(D30-RK)*%
X113491799Y-139507673D02*
X116195173Y-139507673D01*
X116195173Y-139507673D02*
X117687500Y-141000000D01*
X112540000Y-141060000D02*
X112540000Y-140459472D01*
X112540000Y-140459472D02*
X113491799Y-139507673D01*
%TO.N,Net-(U4-TS)*%
X123935508Y-116900000D02*
X123450000Y-116900000D01*
X126100000Y-119064492D02*
X123935508Y-116900000D01*
X126100000Y-121350000D02*
X126100000Y-119064492D01*
%TO.N,Net-(U4-ILIM)*%
X120089492Y-116900000D02*
X118000000Y-118989492D01*
X118000000Y-118989492D02*
X118000000Y-120037500D01*
X120575000Y-116900000D02*
X120089492Y-116900000D01*
%TO.N,Net-(U4-ISET)*%
X122762500Y-115175000D02*
X121500000Y-113912500D01*
X122762500Y-116212500D02*
X122762500Y-115175000D01*
%TO.N,cc1*%
X126737500Y-103700000D02*
X126737500Y-103462500D01*
X127820000Y-102970000D02*
X127820000Y-101165000D01*
X127327500Y-103462500D02*
X127820000Y-102970000D01*
X126737500Y-103462500D02*
X127327500Y-103462500D01*
%TO.N,cc2*%
X135462500Y-102875000D02*
X131565000Y-102875000D01*
X136587500Y-101750000D02*
X135462500Y-102875000D01*
X131565000Y-102875000D02*
X130820000Y-102130000D01*
X130820000Y-102130000D02*
X130820000Y-101165000D01*
D53*
%TO.N,USB0_N*%
X130536500Y-115600933D02*
X130536487Y-115600933D01*
X124986500Y-138020144D02*
X122986500Y-140020144D01*
X125186500Y-147979856D02*
X125186500Y-150370144D01*
X130536487Y-115600933D02*
X128586500Y-117550920D01*
X131218500Y-114918933D02*
X130536500Y-115600933D01*
X126820144Y-122736500D02*
X124020144Y-122736500D01*
X130536500Y-112399067D02*
X131218500Y-113081067D01*
X125186500Y-150370144D02*
X122223000Y-153333644D01*
X123036500Y-123720144D02*
X123036500Y-128079856D01*
X123036500Y-128079856D02*
X124986500Y-130029856D01*
X137875000Y-106887500D02*
X133062500Y-106887500D01*
X122986500Y-145779856D02*
X125186500Y-147979856D01*
X128586500Y-120970144D02*
X126820144Y-122736500D01*
X122223000Y-153333644D02*
X121953856Y-153333644D01*
X128586500Y-117550920D02*
X128586500Y-120970144D01*
X130536500Y-109413500D02*
X130536500Y-112399067D01*
X122986500Y-140020144D02*
X122986500Y-145779856D01*
X121953856Y-153333644D02*
X120450000Y-154837500D01*
X124986500Y-130029856D02*
X124986500Y-138020144D01*
X133062500Y-106887500D02*
X130536500Y-109413500D01*
X124020144Y-122736500D02*
X123036500Y-123720144D01*
X131218500Y-113081067D02*
X131218500Y-114918933D01*
%TO.N,USB_N*%
X116370000Y-165860051D02*
X116370000Y-167673356D01*
X114220000Y-181970000D02*
X113827000Y-181577000D01*
X123750000Y-160293356D02*
X118593356Y-165450000D01*
X121923000Y-157248000D02*
X123348000Y-157248000D01*
X113827000Y-170216356D02*
X113827000Y-181577000D01*
X116780051Y-165450000D02*
X116370000Y-165860051D01*
X123750000Y-157650000D02*
X123750000Y-160293356D01*
X118593356Y-165450000D02*
X116780051Y-165450000D01*
X121337500Y-156662500D02*
X121923000Y-157248000D01*
X123348000Y-157248000D02*
X123750000Y-157650000D01*
X114220000Y-183450000D02*
X114220000Y-181970000D01*
X120450000Y-156662500D02*
X121337500Y-156662500D01*
X116370000Y-167673356D02*
X113827000Y-170216356D01*
%TO.N,USB0_P*%
X131845481Y-112821363D02*
X131845481Y-115178638D01*
D56*
X137735500Y-108275000D02*
X138877817Y-108275000D01*
X133385500Y-107464500D02*
X136925000Y-107464500D01*
D53*
X123613500Y-145520144D02*
X125813500Y-147720144D01*
X131163500Y-112139381D02*
X131845481Y-112821363D01*
D56*
X139775000Y-107377817D02*
X139775000Y-106887500D01*
D53*
X125613500Y-138279856D02*
X123613500Y-140279856D01*
D56*
X136925000Y-107464500D02*
X137735500Y-108275000D01*
D53*
X131163500Y-115860632D02*
X129213500Y-117810632D01*
X131845481Y-115178638D02*
X131163500Y-115860619D01*
X131163500Y-115860619D02*
X131163500Y-115860632D01*
X123613500Y-140279856D02*
X123613500Y-145520144D01*
D56*
X138877817Y-108275000D02*
X139775000Y-107377817D01*
D53*
X124279856Y-123363500D02*
X123663500Y-123979856D01*
X131163500Y-109686500D02*
X131163500Y-112139381D01*
X122850000Y-153593356D02*
X122850000Y-156287500D01*
X127079856Y-123363500D02*
X124279856Y-123363500D01*
X129213500Y-121229856D02*
X127079856Y-123363500D01*
X123663500Y-127820144D02*
X125613500Y-129770144D01*
X125613500Y-129770144D02*
X125613500Y-138279856D01*
X129213500Y-117810632D02*
X129213500Y-121229856D01*
X125813500Y-150629856D02*
X122850000Y-153593356D01*
D56*
X131163500Y-109686500D02*
X133385500Y-107464500D01*
D53*
X123663500Y-123979856D02*
X123663500Y-127820144D01*
X125813500Y-147720144D02*
X125813500Y-150629856D01*
%TO.N,USB_P*%
X122850000Y-160306644D02*
X118333625Y-164823019D01*
X113200000Y-181600000D02*
X112820000Y-181980000D01*
X112820000Y-181980000D02*
X112820000Y-183450000D01*
X115743019Y-167413625D02*
X113200000Y-169956644D01*
X122850000Y-158112500D02*
X122850000Y-160306644D01*
X116520346Y-164823019D02*
X115743019Y-165600346D01*
X118333625Y-164823019D02*
X116520346Y-164823019D01*
X115743019Y-165600346D02*
X115743019Y-167413625D01*
X113200000Y-169956644D02*
X113200000Y-181600000D01*
D55*
%TO.N,Net-(U4-~{PGOOD})*%
X116850000Y-125300000D02*
X118050000Y-125300000D01*
X118050000Y-125300000D02*
X120154000Y-123196000D01*
X120154000Y-123196000D02*
X120154000Y-120946000D01*
X120154000Y-120946000D02*
X120600000Y-120500000D01*
X120816450Y-120500000D02*
X121762500Y-119553950D01*
X121762500Y-119553950D02*
X121762500Y-119087500D01*
X120600000Y-120500000D02*
X120816450Y-120500000D01*
D53*
%TO.N,Net-(U2-SW)*%
X108070000Y-156910000D02*
X108070000Y-153630000D01*
D52*
X108430000Y-152345000D02*
X108430000Y-153270000D01*
X108430000Y-153270000D02*
X108070000Y-153630000D01*
D54*
%TO.N,usb1_n*%
X129120000Y-102200000D02*
X128890000Y-102200000D01*
X128890000Y-102200000D02*
X128530000Y-102200000D01*
D53*
X129092082Y-102290000D02*
X130827082Y-104025000D01*
X130827082Y-104025000D02*
X137287500Y-104025000D01*
X137287500Y-104025000D02*
X137875000Y-104612500D01*
D54*
X129320000Y-102000000D02*
X129120000Y-102200000D01*
X128530000Y-102200000D02*
X128320000Y-101990000D01*
D53*
X128890000Y-102290000D02*
X129092082Y-102290000D01*
D54*
X129320000Y-101165000D02*
X129320000Y-102000000D01*
X128890000Y-102200000D02*
X128890000Y-102290000D01*
X128320000Y-101990000D02*
X128320000Y-101165000D01*
%TO.N,usb1_p*%
X129820000Y-102050000D02*
X130200000Y-102430000D01*
X129070000Y-100190000D02*
X129624000Y-100190000D01*
D53*
X131168000Y-103398000D02*
X139121528Y-103398000D01*
D54*
X129624000Y-100190000D02*
X129820000Y-100386000D01*
D53*
X130200000Y-102430000D02*
X131168000Y-103398000D01*
D54*
X129820000Y-100386000D02*
X129820000Y-101165000D01*
X129820000Y-101165000D02*
X129820000Y-102050000D01*
X128820000Y-101165000D02*
X128820000Y-100440000D01*
X128820000Y-100440000D02*
X129070000Y-100190000D01*
D53*
X139775000Y-104051472D02*
X139775000Y-104612500D01*
X139121528Y-103398000D02*
X139775000Y-104051472D01*
D55*
%TO.N,/controller/fast_chg*%
X116773000Y-143377000D02*
X113215478Y-146934522D01*
X108530000Y-140730000D02*
X109210000Y-141410000D01*
X120488000Y-124412000D02*
X117900000Y-127000000D01*
X111200000Y-157312656D02*
X109112656Y-159400000D01*
X113294327Y-139155673D02*
X117605673Y-139155673D01*
X105192183Y-159400000D02*
X101620000Y-162972183D01*
X112753030Y-146934522D02*
X111200000Y-148487552D01*
X101620000Y-162972183D02*
X101620000Y-163350000D01*
X109210000Y-141410000D02*
X111040000Y-141410000D01*
X109700000Y-130200000D02*
X109700000Y-134300000D01*
X122762500Y-119087500D02*
X122762500Y-120637500D01*
X114047804Y-127000000D02*
X113374803Y-127673000D01*
X121489513Y-121052847D02*
X120488000Y-122054360D01*
X109112656Y-159400000D02*
X105192183Y-159400000D01*
X118475000Y-140025000D02*
X118475000Y-141460140D01*
X118475000Y-141460140D02*
X118160140Y-141775000D01*
X113215478Y-146934522D02*
X112753030Y-146934522D01*
X111200000Y-148487552D02*
X111200000Y-157312656D01*
X118160140Y-141775000D02*
X117924074Y-141775000D01*
X117924074Y-141775000D02*
X116773000Y-142926074D01*
X113374803Y-127673000D02*
X112227000Y-127673000D01*
X120488000Y-122054360D02*
X120488000Y-124412000D01*
X122762500Y-120637500D02*
X122347153Y-121052847D01*
X116773000Y-142926074D02*
X116773000Y-143377000D01*
X109700000Y-134300000D02*
X108530000Y-135470000D01*
X122347153Y-121052847D02*
X121489513Y-121052847D01*
X112227000Y-127673000D02*
X109700000Y-130200000D01*
X117605673Y-139155673D02*
X118475000Y-140025000D01*
X117900000Y-127000000D02*
X114047804Y-127000000D01*
X111040000Y-141410000D02*
X113294327Y-139155673D01*
X108530000Y-135470000D02*
X108530000Y-140730000D01*
D52*
%TO.N,/controller/chg_led*%
X109050000Y-129051098D02*
X110901098Y-127200000D01*
X115525000Y-125025000D02*
X115525000Y-124751167D01*
X109050000Y-132050000D02*
X109050000Y-129051098D01*
X108050000Y-141200000D02*
X108050000Y-133050000D01*
X108050000Y-133050000D02*
X109050000Y-132050000D01*
X112100000Y-142450000D02*
X109300000Y-142450000D01*
X119802000Y-119173000D02*
X120575000Y-118400000D01*
X115525000Y-124751167D02*
X116626167Y-123650000D01*
X116626167Y-123650000D02*
X118859936Y-123650000D01*
X113350000Y-127200000D02*
X115525000Y-125025000D01*
X119802000Y-122707936D02*
X119802000Y-119173000D01*
X109300000Y-142450000D02*
X108050000Y-141200000D01*
X110901098Y-127200000D02*
X113350000Y-127200000D01*
X112540000Y-142010000D02*
X112100000Y-142450000D01*
X118859936Y-123650000D02*
X119802000Y-122707936D01*
%TO.N,Net-(SW31-B)*%
X116602458Y-118391562D02*
X115407474Y-118391562D01*
X117400099Y-116050099D02*
X117400099Y-117593921D01*
X121290495Y-109300000D02*
X117800000Y-109300000D01*
X121700000Y-110604505D02*
X121700000Y-109709505D01*
X117400099Y-117593921D02*
X116602458Y-118391562D01*
X121104505Y-114800000D02*
X120452000Y-114147495D01*
X120452000Y-111852505D02*
X121700000Y-110604505D01*
X121335508Y-114800000D02*
X121104505Y-114800000D01*
X117800000Y-109300000D02*
X116600000Y-110500000D01*
X122262500Y-115726992D02*
X121335508Y-114800000D01*
X116600000Y-110500000D02*
X116600000Y-115250000D01*
X120452000Y-114147495D02*
X120452000Y-111852505D01*
X122262500Y-116212500D02*
X122262500Y-115726992D01*
X116600000Y-115250000D02*
X117400099Y-116050099D01*
X121700000Y-109709505D02*
X121290495Y-109300000D01*
D55*
%TO.N,/controller/bat_lvl1*%
X106992183Y-160400000D02*
X109037552Y-160400000D01*
X104420000Y-162972183D02*
X106992183Y-160400000D01*
X112550000Y-156887552D02*
X112550000Y-151010000D01*
X104420000Y-163350000D02*
X104420000Y-162972183D01*
X109037552Y-160400000D02*
X112550000Y-156887552D01*
%TO.N,/controller/bat_lvl2*%
X105820000Y-162972183D02*
X107742183Y-161050000D01*
X115450000Y-154450000D02*
X115450000Y-151010000D01*
X105820000Y-163350000D02*
X105820000Y-162972183D01*
X108850000Y-161050000D02*
X115450000Y-154450000D01*
X107742183Y-161050000D02*
X108850000Y-161050000D01*
%TO.N,/controller/status2*%
X110550000Y-161500000D02*
X110273000Y-161777000D01*
D52*
X110550000Y-161500000D02*
X110850000Y-161200000D01*
X113511256Y-161502327D02*
X114498201Y-161502327D01*
D55*
X108620000Y-162972183D02*
X108620000Y-163350000D01*
X109815183Y-161777000D02*
X108620000Y-162972183D01*
D52*
X115450000Y-160550528D02*
X115450000Y-160000000D01*
D55*
X110273000Y-161777000D02*
X109815183Y-161777000D01*
D52*
X114498201Y-161502327D02*
X115450000Y-160550528D01*
X110850000Y-161200000D02*
X113208929Y-161200000D01*
X113208929Y-161200000D02*
X113511256Y-161502327D01*
%TO.N,/controller/chassi*%
X123475000Y-99150000D02*
X121700000Y-99150000D01*
X121350000Y-98800000D02*
X121350000Y-97625000D01*
X133390000Y-98450000D02*
X133390000Y-100610000D01*
X124750000Y-100425000D02*
X123475000Y-99150000D01*
X121350000Y-97625000D02*
X122565000Y-96410000D01*
X121700000Y-99150000D02*
X121350000Y-98800000D01*
X133390000Y-98450000D02*
X133660000Y-98720000D01*
X133390000Y-96410000D02*
X133390000Y-98450000D01*
X124750000Y-96410000D02*
X133390000Y-96410000D01*
X133660000Y-98720000D02*
X137350000Y-98720000D01*
X122565000Y-96410000D02*
X124750000Y-96410000D01*
X124750000Y-100610000D02*
X124750000Y-100425000D01*
D53*
%TO.N,vbus_fused*%
X138275000Y-105775000D02*
X138825000Y-106325000D01*
X123420000Y-105400000D02*
X123400000Y-105380000D01*
X124120000Y-110150000D02*
X125850000Y-111880000D01*
X122420000Y-100035000D02*
X123400000Y-101015000D01*
X130150000Y-105400000D02*
X130525000Y-105775000D01*
X122682500Y-110150000D02*
X124120000Y-110150000D01*
X130150000Y-105400000D02*
X123420000Y-105400000D01*
X130525000Y-105775000D02*
X138275000Y-105775000D01*
X123400000Y-101015000D02*
X123400000Y-105380000D01*
X123400000Y-109432500D02*
X122682500Y-110150000D01*
X138825000Y-106325000D02*
X138825000Y-106887500D01*
X123400000Y-105380000D02*
X123400000Y-109432500D01*
%TD*%
M02*
